M48
; DRILL file {KiCad 8.0.4} date 2024-11-19T15:00:50-0300
; FORMAT={-:-/ absolute / metric / decimal}
; #@! TF.CreationDate,2024-11-19T15:00:50-03:00
; #@! TF.GenerationSoftware,Kicad,Pcbnew,8.0.4
; #@! TF.FileFunction,Plated,1,2,PTH
FMAT,2
METRIC
; #@! TA.AperFunction,Plated,PTH,ComponentDrill
T1C0.762
; #@! TA.AperFunction,Plated,PTH,ComponentDrill
T2C0.800
; #@! TA.AperFunction,Plated,PTH,ComponentDrill
T3C0.900
; #@! TA.AperFunction,Plated,PTH,ComponentDrill
T4C1.000
%
G90
G05
T1
X102.702Y-69.0
X102.702Y-91.86
X105.242Y-69.0
X105.242Y-91.86
X107.782Y-69.0
X107.782Y-91.86
X110.322Y-69.0
X110.322Y-91.86
X112.862Y-69.0
X112.862Y-91.86
X115.402Y-69.0
X115.402Y-91.86
X117.942Y-69.0
X117.942Y-91.86
X120.482Y-69.0
X120.482Y-91.86
T2
X117.907Y-94.395
X128.067Y-94.395
T3
X106.702Y-96.0
X106.702Y-102.0
X111.702Y-96.0
X111.702Y-102.0
T4
X126.162Y-100.0
X128.702Y-100.0
X131.242Y-100.0
X133.782Y-100.0
X136.322Y-100.0
X138.862Y-100.0
M30
