  0
SECTION
  2
HEADER
  9
$ACADVER
  1
AC1014
  9
$ACADMAINTVER
 70
     9
  9
$DWGCODEPAGE
  3
ANSI_1252
  9
$INSBASE
 10
0.0
 20
0.0
 30
0.0
  9
$EXTMIN
 10
-0.5
 20
-0.5
 30
-0.5
  9
$EXTMAX
 10
5.0
 20
5.0
 30
5.0
  9
$LIMMIN
 10
-0.5
 20
-0.5
  9
$LIMMAX
 10
5.0
 20
5.0
  9
$ORTHOMODE
 70
     0
  9
$REGENMODE
 70
     1
  9
$FILLMODE
 70
     1
  9
$QTEXTMODE
 70
     0
  9
$MIRRTEXT
 70
     1
  9
$DRAGMODE
 70
     2
  9
$LTSCALE
 40
1.0
  9
$OSMODE
 70
    37
  9
$ATTMODE
 70
     1
  9
$TEXTSIZE
 40
0.2
  9
$TRACEWID
 40
0.05
  9
$TEXTSTYLE
  7
STANDARD
  9
$CLAYER
  8
0
  9
$CELTYPE
  6
BYLAYER
  9
$CECOLOR
 62
   256
  9
$CELTSCALE
 40
1.0
  9
$DELOBJ
 70
     1
  9
$DISPSILH
 70
     0
  9
$DIMSCALE
 40
1.0
  9
$DIMASZ
 40
0.18
  9
$DIMEXO
 40
0.0625
  9
$DIMDLI
 40
0.38
  9
$DIMRND
 40
0.0
  9
$DIMDLE
 40
0.0
  9
$DIMEXE
 40
0.18
  9
$DIMTP
 40
0.0
  9
$DIMTM
 40
0.0
  9
$DIMTXT
 40
0.18
  9
$DIMCEN
 40
0.09
  9
$DIMTSZ
 40
0.0
  9
$DIMTOL
 70
     0
  9
$DIMLIM
 70
     0
  9
$DIMTIH
 70
     1
  9
$DIMTOH
 70
     1
  9
$DIMSE1
 70
     0
  9
$DIMSE2
 70
     0
  9
$DIMTAD
 70
     0
  9
$DIMZIN
 70
     0
  9
$DIMBLK
  1

  9
$DIMASO
 70
     1
  9
$DIMSHO
 70
     1
  9
$DIMPOST
  1

  9
$DIMAPOST
  1

  9
$DIMALT
 70
     0
  9
$DIMALTD
 70
     2
  9
$DIMALTF
 40
25.4
  9
$DIMLFAC
 40
1.0
  9
$DIMTOFL
 70
     0
  9
$DIMTVP
 40
0.0
  9
$DIMTIX
 70
     0
  9
$DIMSOXD
 70
     0
  9
$DIMSAH
 70
     0
  9
$DIMBLK1
  1

  9
$DIMBLK2
  1

  9
$DIMSTYLE
  2
STANDARD
  9
$DIMCLRD
 70
     0
  9
$DIMCLRE
 70
     0
  9
$DIMCLRT
 70
     0
  9
$DIMTFAC
 40
1.0
  9
$DIMGAP
 40
0.09
  9
$DIMJUST
 70
     0
  9
$DIMSD1
 70
     0
  9
$DIMSD2
 70
     0
  9
$DIMTOLJ
 70
     1
  9
$DIMTZIN
 70
     0
  9
$DIMALTZ
 70
     0
  9
$DIMALTTZ
 70
     0
  9
$DIMFIT
 70
     3
  9
$DIMUPT
 70
     0
  9
$DIMUNIT
 70
     2
  9
$DIMDEC
 70
     4
  9
$DIMTDEC
 70
     4
  9
$DIMALTU
 70
     2
  9
$DIMALTTD
 70
     2
  9
$DIMTXSTY
  7
STANDARD
  9
$DIMAUNIT
 70
     0
  9
$LUNITS
 70
     2
  9
$LUPREC
 70
     4
  9
$SKETCHINC
 40
0.1
  9
$FILLETRAD
 40
0.0
  9
$AUNITS
 70
     0
  9
$AUPREC
 70
     0
  9
$MENU
  1
.
  9
$ELEVATION
 40
0.0
  9
$PELEVATION
 40
0.0
  9
$THICKNESS
 40
0.0
  9
$LIMCHECK
 70
     0
  9
$CHAMFERA
 40
0.0
  9
$CHAMFERB
 40
0.0
  9
$CHAMFERC
 40
0.0
  9
$CHAMFERD
 40
0.0
  9
$SKPOLY
 70
     0
  9
$TDCREATE
 40
2460605.638102026
  9
$TDUPDATE
 40
2460605.638102176
  9
$TDINDWG
 40
0.0000000116
  9
$TDUSRTIMER
 40
0.0000000116
  9
$USRTIMER
 70
     1
  9
$ANGBASE
 50
0.0
  9
$ANGDIR
 70
     0
  9
$PDMODE
 70
     0
  9
$PDSIZE
 40
0.0
  9
$PLINEWID
 40
0.0
  9
$COORDS
 70
     1
  9
$SPLFRAME
 70
     0
  9
$SPLINETYPE
 70
     6
  9
$SPLINESEGS
 70
     8
  9
$ATTDIA
 70
     0
  9
$ATTREQ
 70
     1
  9
$HANDLING
 70
     1
  9
$HANDSEED
  5
409
  9
$SURFTAB1
 70
     6
  9
$SURFTAB2
 70
     6
  9
$SURFTYPE
 70
     6
  9
$SURFU
 70
     6
  9
$SURFV
 70
     6
  9
$UCSNAME
  2

  9
$UCSORG
 10
0.0
 20
0.0
 30
0.0
  9
$UCSXDIR
 10
1.0
 20
0.0
 30
0.0
  9
$UCSYDIR
 10
0.0
 20
1.0
 30
0.0
  9
$PUCSNAME
  2

  9
$PUCSORG
 10
0.0
 20
0.0
 30
0.0
  9
$PUCSXDIR
 10
1.0
 20
0.0
 30
0.0
  9
$PUCSYDIR
 10
0.0
 20
1.0
 30
0.0
  9
$USERI1
 70
     0
  9
$USERI2
 70
     0
  9
$USERI3
 70
     0
  9
$USERI4
 70
     0
  9
$USERI5
 70
     0
  9
$USERR1
 40
0.0
  9
$USERR2
 40
0.0
  9
$USERR3
 40
0.0
  9
$USERR4
 40
0.0
  9
$USERR5
 40
0.0
  9
$WORLDVIEW
 70
     1
  9
$SHADEDGE
 70
     3
  9
$SHADEDIF
 70
    70
  9
$TILEMODE
 70
     1
  9
$MAXACTVP
 70
    64
  9
$PINSBASE
 10
0.0
 20
0.0
 30
0.0
  9
$PLIMCHECK
 70
     0
  9
$PEXTMIN
 10
-0.5
 20
-0.5
 30
-0.5
  9
$PEXTMAX
 10
5.0
 20
5.0
 30
5.0
  9
$PLIMMIN
 10
-0.5
 20
-0.5
  9
$PLIMMAX
 10
5.0
 20
5.0
  9
$UNITMODE
 70
     0
  9
$VISRETAIN
 70
     1
  9
$PLINEGEN
 70
     0
  9
$PSLTSCALE
 70
     1
  9
$TREEDEPTH
 70
  3020
  9
$PICKSTYLE
 70
     1
  9
$CMLSTYLE
  2
STANDARD
  9
$CMLJUST
 70
     0
  9
$CMLSCALE
 40
1.0
  9
$PROXYGRAPHICS
 70
     1
  9
$MEASUREMENT
 70
     1
  0
ENDSEC
  0
SECTION
  2
CLASSES
  0
CLASS
  1
ACDBDICTIONARYWDFLT
  2
AcDbDictionaryWithDefault
  3
ObjectDBX Classes
 90
        0
280
     0
281
     0
  0
CLASS
  1
VISUALSTYLE
  2
AcDbVisualStyle
  3
ObjectDBX Classes
 90
     4095
280
     0
281
     0
  0
CLASS
  1
MATERIAL
  2
AcDbMaterial
  3
ObjectDBX Classes
 90
     1153
280
     0
281
     0
  0
CLASS
  1
SCALE
  2
AcDbScale
  3
ObjectDBX Classes
 90
     1153
280
     0
281
     0
  0
CLASS
  1
TABLESTYLE
  2
AcDbTableStyle
  3
ObjectDBX Classes
 90
     4095
280
     0
281
     0
  0
CLASS
  1
MLEADERSTYLE
  2
AcDbMLeaderStyle
  3
ACDB_MLEADERSTYLE_CLASS
 90
     4095
280
     0
281
     0
  0
CLASS
  1
SUN
  2
AcDbSun
  3
SCENEOE
 90
     1153
280
     0
281
     0
  0
CLASS
  1
RASTERVARIABLES
  2
AcDbRasterVariables
  3
ISM
 90
        0
280
     0
281
     0
  0
CLASS
  1
DICTIONARYVAR
  2
AcDbDictionaryVar
  3
ObjectDBX Classes
 90
        0
280
     0
281
     0
  0
CLASS
  1
XRECORD
  2
AcDbXrecord
  3
ObjectDBX Classes
 90
        0
280
     0
281
     0
  0
CLASS
  1
LWPOLYLINE
  2
AcDbPolyline
  3
ObjectDBX Classes
 90
        0
280
     0
281
     1
  0
CLASS
  1
HATCH
  2
AcDbHatch
  3
ObjectDBX Classes
 90
        0
280
     0
281
     1
  0
CLASS
  1
ACDBPLACEHOLDER
  2
AcDbPlaceHolder
  3
ObjectDBX Classes
 90
        0
280
     0
281
     0
  0
CLASS
  1
LAYOUT
  2
AcDbLayout
  3
ObjectDBX Classes
 90
        0
280
     0
281
     0
  0
ENDSEC
  0
SECTION
  2
TABLES
  0
TABLE
  2
VPORT
  5
8
102
{ACAD_XDICTIONARY
360
3FE
102
}
330
0
100
AcDbSymbolTable
 70
    16
  0
VPORT
  5
29
330
8
100
AcDbSymbolTableRecord
100
AcDbViewportTableRecord
  2
*ACTIVE
 70
     0
 10
0.0
 20
0.0
 11
1.0
 21
1.0
 12
0.0
 22
0.0
 13
0.0
 23
0.0
 14
0.5
 24
0.5
 15
0.5
 25
0.5
 16
0.0
 26
0.0
 36
1.0
 17
0.0
 27
0.0
 37
0.0
 40
132.291667
 41
0.134224
 42
50.0
 43
546.211844
 44
-546.211844
 50
0.0
 51
0.0
 71
     0
 72
   100
 73
     1
 74
     3
 75
     0
 76
     0
 77
     0
 78
     0
  0
VPORT
  5
3C6
330
8
100
AcDbSymbolTableRecord
100
AcDbViewportTableRecord
  2
L1
 70
     0
 10
0.0
 20
0.0
 11
1.0
 21
1.0
 12
0.0
 22
0.0
 13
0.0
 23
0.0
 14
0.5
 24
0.5
 15
0.5
 25
0.5
 16
0.0
 26
0.0
 36
1.0
 17
0.0
 27
0.0
 37
0.0
 40
132.291667
 41
0.134224
 42
50.0
 43
546.211844
 44
-546.211844
 50
0.0
 51
0.0
 71
     0
 72
   100
 73
     1
 74
     3
 75
     0
 76
     0
 77
     0
 78
     0
  0
VPORT
  5
3C7
330
8
100
AcDbSymbolTableRecord
100
AcDbViewportTableRecord
  2
L2
 70
     0
 10
0.0
 20
0.0
 11
0.5
 21
1.0
 12
0.0
 22
0.0
 13
0.0
 23
0.0
 14
0.5
 24
0.5
 15
0.5
 25
0.5
 16
0.0
 26
-1.0
 36
0.0
 17
0.0
 27
0.0
 37
0.0
 40
824.553445
 41
0.021535
 42
50.0
 43
424.390553
 44
-424.390553
 50
0.0
 51
0.0
 71
     0
 72
   100
 73
     1
 74
     3
 75
     0
 76
     0
 77
     0
 78
     0
  0
VPORT
  5
3C8
330
8
100
AcDbSymbolTableRecord
100
AcDbViewportTableRecord
  2
L2
 70
     0
 10
0.5
 20
0.0
 11
1.0
 21
1.0
 12
0.0
 22
0.0
 13
0.0
 23
0.0
 14
0.5
 24
0.5
 15
0.5
 25
0.5
 16
1.0
 26
0.0
 36
0.0
 17
0.0
 27
0.0
 37
0.0
 40
824.553445
 41
0.021535
 42
50.0
 43
417.549239
 44
-417.549239
 50
0.0
 51
0.0
 71
     0
 72
   100
 73
     1
 74
     3
 75
     0
 76
     0
 77
     0
 78
     0
  0
VPORT
  5
3C9
330
8
100
AcDbSymbolTableRecord
100
AcDbViewportTableRecord
  2
L3
 70
     0
 10
0.0
 20
0.5
 11
1.0
 21
1.0
 12
0.0
 22
0.0
 13
0.0
 23
0.0
 14
0.5
 24
0.5
 15
0.5
 25
0.5
 16
0.0
 26
0.0
 36
1.0
 17
0.0
 27
0.0
 37
0.0
 40
132.291667
 41
0.134224
 42
50.0
 43
546.211844
 44
-546.211844
 50
0.0
 51
0.0
 71
     0
 72
   100
 73
     1
 74
     3
 75
     0
 76
     0
 77
     0
 78
     0
  0
VPORT
  5
3CA
330
8
100
AcDbSymbolTableRecord
100
AcDbViewportTableRecord
  2
L3
 70
     0
 10
0.0
 20
0.0
 11
1.0
 21
0.5
 12
0.0
 22
0.0
 13
0.0
 23
0.0
 14
0.5
 24
0.5
 15
0.5
 25
0.5
 16
0.0
 26
-1.0
 36
0.0
 17
0.0
 27
0.0
 37
0.0
 40
824.553445
 41
0.021535
 42
50.0
 43
424.390553
 44
-424.390553
 50
0.0
 51
0.0
 71
     0
 72
   100
 73
     1
 74
     3
 75
     0
 76
     0
 77
     0
 78
     0
  0
VPORT
  5
3CB
330
8
100
AcDbSymbolTableRecord
100
AcDbViewportTableRecord
  2
L4
 70
     0
 10
0.0
 20
0.5
 11
0.5
 21
1.0
 12
0.0
 22
0.0
 13
0.0
 23
0.0
 14
0.5
 24
0.5
 15
0.5
 25
0.5
 16
0.0
 26
0.0
 36
1.0
 17
0.0
 27
0.0
 37
0.0
 40
132.291667
 41
0.134224
 42
50.0
 43
546.211844
 44
-546.211844
 50
0.0
 51
0.0
 71
     0
 72
   100
 73
     1
 74
     3
 75
     0
 76
     0
 77
     0
 78
     0
  0
VPORT
  5
3CC
330
8
100
AcDbSymbolTableRecord
100
AcDbViewportTableRecord
  2
L4
 70
     0
 10
0.0
 20
0.0
 11
0.5
 21
0.5
 12
0.0
 22
0.0
 13
0.0
 23
0.0
 14
0.5
 24
0.5
 15
0.5
 25
0.5
 16
0.0
 26
-1.0
 36
0.0
 17
0.0
 27
0.0
 37
0.0
 40
824.553445
 41
0.021535
 42
50.0
 43
424.390553
 44
-424.390553
 50
0.0
 51
0.0
 71
     0
 72
   100
 73
     1
 74
     3
 75
     0
 76
     0
 77
     0
 78
     0
  0
VPORT
  5
3CD
330
8
100
AcDbSymbolTableRecord
100
AcDbViewportTableRecord
  2
L4
 70
     0
 10
0.5
 20
0.0
 11
1.0
 21
0.5
 12
0.0
 22
0.0
 13
0.0
 23
0.0
 14
0.5
 24
0.5
 15
0.5
 25
0.5
 16
1.0
 26
0.0
 36
0.0
 17
0.0
 27
0.0
 37
0.0
 40
824.553445
 41
0.021535
 42
50.0
 43
417.549239
 44
-417.549239
 50
0.0
 51
0.0
 71
     0
 72
   100
 73
     1
 74
     3
 75
     0
 76
     0
 77
     0
 78
     0
  0
VPORT
  5
3CE
330
8
100
AcDbSymbolTableRecord
100
AcDbViewportTableRecord
  2
L4
 70
     0
 10
0.5
 20
0.5
 11
1.0
 21
1.0
 12
0.0
 22
0.0
 13
0.0
 23
0.0
 14
0.5
 24
0.5
 15
0.5
 25
0.5
 16
0.5773502691896258
 26
-0.5773502691896258
 36
0.5773502691896258
 17
0.0
 27
0.0
 37
0.0
 40
809.452858
 41
0.021937
 42
50.0
 43
421.566014
 44
-421.566014
 50
0.0
 51
0.0
 71
     0
 72
   100
 73
     1
 74
     3
 75
     0
 76
     0
 77
     0
 78
     0
  0
VPORT
  5
3CF
330
8
100
AcDbSymbolTableRecord
100
AcDbViewportTableRecord
  2
L6
 70
     0
 10
0.0
 20
0.5
 11
0.333333
 21
1.0
 12
0.0
 22
0.0
 13
0.0
 23
0.0
 14
0.5
 24
0.5
 15
0.5
 25
0.5
 16
0.7188730927569433
 26
-0.5850486126764433
 36
0.3754192287502549
 17
0.0
 27
0.0
 37
0.0
 40
854.218826
 41
0.020787
 42
50.0
 43
442.281641
 44
-442.281641
 50
0.0
 51
0.0
 71
     0
 72
   100
 73
     1
 74
     3
 75
     0
 76
     0
 77
     0
 78
     0
  0
VPORT
  5
3D0
330
8
100
AcDbSymbolTableRecord
100
AcDbViewportTableRecord
  2
L6
 70
     0
 10
0.0
 20
0.0
 11
0.333333
 21
0.5
 12
0.0
 22
0.0
 13
0.0
 23
0.0
 14
0.5
 24
0.5
 15
0.5
 25
0.5
 16
-1.0
 26
0.0
 36
0.0
 17
0.0
 27
0.0
 37
0.0
 40
824.553445
 41
0.021535
 42
50.0
 43
417.549239
 44
-417.549239
 50
0.0
 51
0.0
 71
     0
 72
   100
 73
     1
 74
     3
 75
     0
 76
     0
 77
     0
 78
     0
  0
VPORT
  5
3D1
330
8
100
AcDbSymbolTableRecord
100
AcDbViewportTableRecord
  2
L6
 70
     0
 10
0.333333
 20
0.5
 11
0.666667
 21
1.0
 12
0.0
 22
0.0
 13
0.0
 23
0.0
 14
0.5
 24
0.5
 15
0.5
 25
0.5
 16
0.0
 26
0.0
 36
1.0
 17
0.0
 27
0.0
 37
0.0
 40
132.291667
 41
0.134224
 42
50.0
 43
546.211844
 44
-546.211844
 50
0.0
 51
0.0
 71
     0
 72
   100
 73
     1
 74
     3
 75
     0
 76
     0
 77
     0
 78
     0
  0
VPORT
  5
3D2
330
8
100
AcDbSymbolTableRecord
100
AcDbViewportTableRecord
  2
L6
 70
     0
 10
0.333333
 20
0.0
 11
0.666667
 21
0.5
 12
0.0
 22
0.0
 13
0.0
 23
0.0
 14
0.5
 24
0.5
 15
0.5
 25
0.5
 16
0.0
 26
-1.0
 36
0.0
 17
0.0
 27
0.0
 37
0.0
 40
824.553445
 41
0.021535
 42
50.0
 43
424.390553
 44
-424.390553
 50
0.0
 51
0.0
 71
     0
 72
   100
 73
     1
 74
     3
 75
     0
 76
     0
 77
     0
 78
     0
  0
VPORT
  5
3D3
330
8
100
AcDbSymbolTableRecord
100
AcDbViewportTableRecord
  2
L6
 70
     0
 10
0.666667
 20
0.5
 11
1.0
 21
1.0
 12
0.0
 22
0.0
 13
0.0
 23
0.0
 14
0.5
 24
0.5
 15
0.5
 25
0.5
 16
0.5773502691896258
 26
-0.5773502691896258
 36
0.5773502691896258
 17
0.0
 27
0.0
 37
0.0
 40
809.452858
 41
0.021937
 42
50.0
 43
421.566014
 44
-421.566014
 50
0.0
 51
0.0
 71
     0
 72
   100
 73
     1
 74
     3
 75
     0
 76
     0
 77
     0
 78
     0
  0
VPORT
  5
3D4
330
8
100
AcDbSymbolTableRecord
100
AcDbViewportTableRecord
  2
L6
 70
     0
 10
0.666667
 20
0.0
 11
1.0
 21
0.5
 12
0.0
 22
0.0
 13
0.0
 23
0.0
 14
0.5
 24
0.5
 15
0.5
 25
0.5
 16
1.0
 26
0.0
 36
0.0
 17
0.0
 27
0.0
 37
0.0
 40
824.553445
 41
0.021535
 42
50.0
 43
417.549239
 44
-417.549239
 50
0.0
 51
0.0
 71
     0
 72
   100
 73
     1
 74
     3
 75
     0
 76
     0
 77
     0
 78
     0
  0
ENDTAB
  0
TABLE
  2
LTYPE
  5
5
330
0
100
AcDbSymbolTable
 70
    10
  0
LTYPE
  5
14
330
5
100
AcDbSymbolTableRecord
100
AcDbLinetypeTableRecord
  2
BYBLOCK
 70
     0
  3

 72
    65
 73
     0
 40
0.0
  0
LTYPE
  5
15
330
5
100
AcDbSymbolTableRecord
100
AcDbLinetypeTableRecord
  2
BYLAYER
 70
     0
  3

 72
    65
 73
     0
 40
0.0
  0
LTYPE
  5
16
330
5
100
AcDbSymbolTableRecord
100
AcDbLinetypeTableRecord
  2
CONTINUOUS
 70
     0
  3
Solid line
 72
    65
 73
     0
 40
0.0
  0
LTYPE
  5
5F
330
5
100
AcDbSymbolTableRecord
100
AcDbLinetypeTableRecord
  2
ACAD_ISO04W100
 70
     0
  3
ISO long-dash dot ____ . ____ . ____ . ____ . _
 72
    65
 73
     4
 40
30.0
 49
24.0
 74
     4
 75
     0
340
0
 46
0.0
 50
0.0
 44
0.0
 45
0.0
 49
-3.0
 74
     4
 75
     0
340
0
 46
0.0
 50
0.0
 44
0.0
 45
0.0
 49
0.0
 74
     4
 75
     0
340
0
 46
0.0
 50
0.0
 44
0.0
 45
0.0
 49
-3.0
 74
     4
 75
     0
340
0
 46
0.0
 50
0.0
 44
0.0
 45
0.0
  0
LTYPE
  5
60
330
5
100
AcDbSymbolTableRecord
100
AcDbLinetypeTableRecord
  2
ACAD_ISO05W100
 70
     0
  3
ISO long-dash double-dot ____ .. ____ .. ____ . 
 72
    65
 73
     6
 40
33.0
 49
24.0
 74
     4
 75
     0
340
0
 46
0.0
 50
0.0
 44
0.0
 45
0.0
 49
-3.0
 74
     4
 75
     0
340
0
 46
0.0
 50
0.0
 44
0.0
 45
0.0
 49
0.0
 74
     4
 75
     0
340
0
 46
0.0
 50
0.0
 44
0.0
 45
0.0
 49
-3.0
 74
     4
 75
     0
340
0
 46
0.0
 50
0.0
 44
0.0
 45
0.0
 49
0.0
 74
     4
 75
     0
340
0
 46
0.0
 50
0.0
 44
0.0
 45
0.0
 49
-3.0
 74
     4
 75
     0
340
0
 46
0.0
 50
0.0
 44
0.0
 45
0.0
  0
LTYPE
  5
61
330
5
100
AcDbSymbolTableRecord
100
AcDbLinetypeTableRecord
  2
ACAD_ISO06W100
 70
     0
  3
ISO long-dash triple-dot ____ ... ____ ... ____
 72
    65
 73
     8
 40
36.0
 49
24.0
 74
     4
 75
     0
340
0
 46
0.0
 50
0.0
 44
0.0
 45
0.0
 49
-3.0
 74
     4
 75
     0
340
0
 46
0.0
 50
0.0
 44
0.0
 45
0.0
 49
0.0
 74
     4
 75
     0
340
0
 46
0.0
 50
0.0
 44
0.0
 45
0.0
 49
-3.0
 74
     4
 75
     0
340
0
 46
0.0
 50
0.0
 44
0.0
 45
0.0
 49
0.0
 74
     4
 75
     0
340
0
 46
0.0
 50
0.0
 44
0.0
 45
0.0
 49
-3.0
 74
     4
 75
     0
340
0
 46
0.0
 50
0.0
 44
0.0
 45
0.0
 49
0.0
 74
     4
 75
     0
340
0
 46
0.0
 50
0.0
 44
0.0
 45
0.0
 49
-3.0
 74
     4
 75
     0
340
0
 46
0.0
 50
0.0
 44
0.0
 45
0.0
  0
LTYPE
  5
62
330
5
100
AcDbSymbolTableRecord
100
AcDbLinetypeTableRecord
  2
ACAD_ISO09W100
 70
     0
  3
ISO long-dash double-short-dash ____ __ __ ____
 72
    65
 73
     6
 40
45.0
 49
24.0
 74
     4
 75
     0
340
0
 46
0.0
 50
0.0
 44
0.0
 45
0.0
 49
-3.0
 74
     4
 75
     0
340
0
 46
0.0
 50
0.0
 44
0.0
 45
0.0
 49
6.0
 74
     4
 75
     0
340
0
 46
0.0
 50
0.0
 44
0.0
 45
0.0
 49
-3.0
 74
     4
 75
     0
340
0
 46
0.0
 50
0.0
 44
0.0
 45
0.0
 49
6.0
 74
     4
 75
     0
340
0
 46
0.0
 50
0.0
 44
0.0
 45
0.0
 49
-3.0
 74
     4
 75
     0
340
0
 46
0.0
 50
0.0
 44
0.0
 45
0.0
  0
LTYPE
  5
63
330
5
100
AcDbSymbolTableRecord
100
AcDbLinetypeTableRecord
  2
CENTER
 70
     0
  3
____ _ ____ _ ____ _ ____
 72
    65
 73
     4
 40
47.4
 49
22.0
 74
     4
 75
     0
340
0
 46
0.0
 50
0.0
 44
0.0
 45
0.0
 49
-8.5
 74
     4
 75
     0
340
0
 46
0.0
 50
0.0
 44
0.0
 45
0.0
 49
8.5
 74
     4
 75
     0
340
0
 46
0.0
 50
0.0
 44
0.0
 45
0.0
 49
-8.5
 74
     4
 75
     0
340
0
 46
0.0
 50
0.0
 44
0.0
 45
0.0
  0
LTYPE
  5
64
330
5
100
AcDbSymbolTableRecord
100
AcDbLinetypeTableRecord
  2
DASHDOT
 70
     0
  3
_._._._._._._._._._._._._._._._.
 72
    65
 73
     4
 40
70.0
 49
31.0
 74
     4
 75
     0
340
0
 46
0.0
 50
0.0
 44
0.0
 45
0.0
 49
-13.0
 74
     4
 75
     0
340
0
 46
0.0
 50
0.0
 44
0.0
 45
0.0
 49
13.0
 74
     4
 75
     0
340
0
 46
0.0
 50
0.0
 44
0.0
 45
0.0
 49
-13.0
 74
     4
 75
     0
340
0
 46
0.0
 50
0.0
 44
0.0
 45
0.0
  0
LTYPE
  5
65
330
5
100
AcDbSymbolTableRecord
100
AcDbLinetypeTableRecord
  2
DASHED
 70
     0
  3
__ __ __ __ __ __ __ __ __
 72
    65
 73
     2
 40
25.72
 49
12.86
 74
     4
 75
     0
340
0
 46
0.0
 50
0.0
 44
0.0
 45
0.0
 49
-12.86
 74
     4
 75
     0
340
0
 46
0.0
 50
0.0
 44
0.0
 45
0.0
  0
LTYPE
  5
66
330
5
100
AcDbSymbolTableRecord
100
AcDbLinetypeTableRecord
  2
DOT
 70
     0
  3
.........................
 72
    65
 73
     2
 40
10.0
 49
0.0
 74
     4
 75
     0
340
0
 46
0.0
 50
0.0
 44
0.0
 45
0.0
 49
-10.0
 74
     4
 75
     0
340
0
 46
0.0
 50
0.0
 44
0.0
 45
0.0
  0
LTYPE
  5
67
330
5
100
AcDbSymbolTableRecord
100
AcDbLinetypeTableRecord
  2
PHANTOM
 70
     0
  3
____ _ _ ____ _ _ _____ _ _ ____
 72
    65
 73
     6
 40
50.5
 49
18.0
 74
     4
 75
     0
340
0
 46
0.0
 50
0.0
 44
0.0
 45
0.0
 49
-6.5
 74
     4
 75
     0
340
0
 46
0.0
 50
0.0
 44
0.0
 45
0.0
 49
6.5
 74
     4
 75
     0
340
0
 46
0.0
 50
0.0
 44
0.0
 45
0.0
 49
-6.5
 74
     4
 75
     0
340
0
 46
0.0
 50
0.0
 44
0.0
 45
0.0
 49
6.5
 74
     4
 75
     0
340
0
 46
0.0
 50
0.0
 44
0.0
 45
0.0
 49
-6.5
 74
     4
 75
     0
340
0
 46
0.0
 50
0.0
 44
0.0
 45
0.0
  0
ENDTAB
  0
TABLE
  2
LAYER
  5
2
330
0
100
AcDbSymbolTable
 70
     3
  0
LAYER
  5
10
330
2
100
AcDbSymbolTableRecord
100
AcDbLayerTableRecord
  2
0
 70
     0
 62
     7
  6
CONTINUOUS
  0
LAYER
  5
69
330
2
100
AcDbSymbolTableRecord
100
AcDbLayerTableRecord
  2
61
 70
     0
 62
     7
  6
CONTINUOUS
  0
LAYER
  5
6B
330
2
100
AcDbSymbolTableRecord
100
AcDbLayerTableRecord
  2
1
 70
     0
 62
     7
  6
CONTINUOUS
  0
ENDTAB
  0
TABLE
  2
STYLE
  5
3
330
0
100
AcDbSymbolTable
 70
     1
  0
STYLE
  5
11
330
3
100
AcDbSymbolTableRecord
100
AcDbTextStyleTableRecord
  2
STANDARD
 70
     0
 40
0.0
 41
1.0
 50
0.0
 71
     0
 42
0.2
  3
txt
  4

  0
ENDTAB
  0
TABLE
  2
VIEW
  5
6
330
0
100
AcDbSymbolTable
 70
     8
  0
VIEW
  5
3BE
330
6
100
AcDbSymbolTableRecord
100
AcDbViewTableRecord
  2
TOP
 70
     0
 40
132.291667
 10
0.0
 20
0.0
 41
201.347917
 11
0.0
 21
0.0
 31
1.0
 12
0.0
 22
0.0
 32
0.0
 42
50.0
 43
546.211844
 44
-546.211844
 50
0.0
 71
     0
  0
VIEW
  5
3BF
330
6
100
AcDbSymbolTableRecord
100
AcDbViewTableRecord
  2
FRONT
 70
     0
 40
824.553445
 10
0.0
 20
0.0
 41
201.347917
 11
0.0
 21
-1.0
 31
0.0
 12
0.0
 22
0.0
 32
0.0
 42
50.0
 43
424.390553
 44
-424.390553
 50
0.0
 71
     0
  0
VIEW
  5
3C0
330
6
100
AcDbSymbolTableRecord
100
AcDbViewTableRecord
  2
RIGHT
 70
     0
 40
824.553445
 10
0.0
 20
0.0
 41
132.291667
 11
1.0
 21
0.0
 31
0.0
 12
0.0
 22
0.0
 32
0.0
 42
50.0
 43
417.549239
 44
-417.549239
 50
0.0
 71
     0
  0
VIEW
  5
3C1
330
6
100
AcDbSymbolTableRecord
100
AcDbViewTableRecord
  2
BACK
 70
     0
 40
824.553445
 10
0.0
 20
0.0
 41
201.347917
 11
0.0
 21
1.0
 31
0.0
 12
0.0
 22
0.0
 32
0.0
 42
50.0
 43
424.390553
 44
-424.390553
 50
0.0
 71
     0
  0
VIEW
  5
3C2
330
6
100
AcDbSymbolTableRecord
100
AcDbViewTableRecord
  2
BOTTOM
 70
     0
 40
132.291667
 10
0.0
 20
0.0
 41
201.347917
 11
0.0
 21
0.0
 31
-1.0
 12
0.0
 22
0.0
 32
0.0
 42
50.0
 43
412.276722
 44
-412.276722
 50
180.0
 71
     0
  0
VIEW
  5
3C3
330
6
100
AcDbSymbolTableRecord
100
AcDbViewTableRecord
  2
LEFT
 70
     0
 40
824.553445
 10
0.0
 20
0.0
 41
132.291667
 11
-1.0
 21
0.0
 31
0.0
 12
0.0
 22
0.0
 32
0.0
 42
50.0
 43
417.549239
 44
-417.549239
 50
0.0
 71
     0
  0
VIEW
  5
3C4
330
6
100
AcDbSymbolTableRecord
100
AcDbViewTableRecord
  2
ISOMETRIC
 70
     0
 40
809.452858
 10
0.0
 20
0.0
 41
235.918812
 11
0.5773502691896258
 21
-0.5773502691896258
 31
0.5773502691896258
 12
0.0
 22
0.0
 32
0.0
 42
50.0
 43
421.566014
 44
-421.566014
 50
0.0
 71
     0
  0
VIEW
  5
3C5
330
6
100
AcDbSymbolTableRecord
100
AcDbViewTableRecord
  2
TRIMETRIC
 70
     0
 40
854.218826
 10
0.0
 20
0.0
 41
229.700668
 11
0.7188730927569433
 21
-0.5850486126764433
 31
0.3754192287502549
 12
0.0
 22
0.0
 32
0.0
 42
50.0
 43
442.281641
 44
-442.281641
 50
0.0
 71
     0
  0
ENDTAB
  0
TABLE
  2
UCS
  5
7
330
0
100
AcDbSymbolTable
 70
     0
  0
ENDTAB
  0
TABLE
  2
APPID
  5
9
330
0
100
AcDbSymbolTable
 70
     2
  0
APPID
  5
12
330
9
100
AcDbSymbolTableRecord
100
AcDbRegAppTableRecord
  2
ACAD
 70
     0
  0
APPID
  5
408
330
9
100
AcDbSymbolTableRecord
100
AcDbRegAppTableRecord
  2
ACAD_MLEADERVER
 70
     0
  0
ENDTAB
  0
TABLE
  2
DIMSTYLE
  5
A
330
0
100
AcDbSymbolTable
 70
     1
  0
DIMSTYLE
105
27
330
A
100
AcDbSymbolTableRecord
100
AcDbDimStyleTableRecord
  2
STANDARD
 70
     0
  3

  4

  5

  6

  7

 40
1.0
 41
0.18
 42
0.0625
 43
0.38
 44
0.18
 45
0.0
 46
0.0
 47
0.0
 48
0.0
140
0.18
141
0.09
142
0.0
143
25.4
144
1.0
145
0.0
146
1.0
147
0.09
 71
     0
 72
     0
 73
     1
 74
     1
 75
     0
 76
     0
 77
     0
 78
     0
170
     0
171
     2
172
     0
173
     0
174
     0
175
     0
176
     0
177
     0
178
     0
270
     2
271
     4
272
     4
273
     2
274
     2
340
11
275
     0
280
     0
281
     0
282
     0
283
     1
284
     0
285
     0
286
     0
287
     3
288
     0
  0
ENDTAB
  0
TABLE
  2
BLOCK_RECORD
  5
1
330
0
100
AcDbSymbolTable
 70
     0
  0
BLOCK_RECORD
  5
1F
330
1
100
AcDbSymbolTableRecord
100
AcDbBlockTableRecord
  2
*MODEL_SPACE
  0
BLOCK_RECORD
  5
1B
330
1
100
AcDbSymbolTableRecord
100
AcDbBlockTableRecord
  2
*PAPER_SPACE
  0
ENDTAB
  0
ENDSEC
  0
SECTION
  2
BLOCKS
  0
BLOCK
  5
20
330
1F
100
AcDbEntity
  8
0
100
AcDbBlockBegin
  2
*MODEL_SPACE
 70
     0
 10
0.0
 20
0.0
 30
0.0
  3
*MODEL_SPACE
  1

  0
ENDBLK
  5
21
330
1F
100
AcDbEntity
  8
0
100
AcDbBlockEnd
  0
BLOCK
  5
1C
330
1B
100
AcDbEntity
 67
     1
  8
0
100
AcDbBlockBegin
  2
*PAPER_SPACE
 70
     0
 10
0.0
 20
0.0
 30
0.0
  3
*PAPER_SPACE
  1

  0
ENDBLK
  5
1D
330
1B
100
AcDbEntity
 67
     1
  8
0
100
AcDbBlockEnd
  0
ENDSEC
  0
SECTION
  2
ENTITIES
  0
POINT
  5
68
330
1F
100
AcDbEntity
  8
61
  6
CONTINUOUS
 62
    23
100
AcDbPoint
 10
0.0
 20
0.0
 30
0.0
  0
LINE
  5
6A
330
1F
100
AcDbEntity
  8
1
  6
CONTINUOUS
 62
   163
100
AcDbLine
 10
-0.46292
 20
-47.492842
 30
0.0
 11
-0.46292
 21
-121.492842
 31
0.0
  0
LINE
  5
6C
330
1F
100
AcDbEntity
  8
1
  6
CONTINUOUS
 62
   163
100
AcDbLine
 10
-12.861757
 20
-46.86019
 30
0.0
 11
-12.861757
 21
-121.919549
 31
0.0
  0
LINE
  5
6D
330
1F
100
AcDbEntity
  8
1
  6
CONTINUOUS
 62
   163
100
AcDbLine
 10
7.091042
 20
-47.492842
 30
0.0
 11
7.091042
 21
-121.492842
 31
0.0
  0
LINE
  5
6E
330
1F
100
AcDbEntity
  8
1
  6
CONTINUOUS
 62
   163
100
AcDbLine
 10
-5.307795
 20
-46.86019
 30
0.0
 11
-5.307795
 21
-121.919549
 31
0.0
  0
LINE
  5
6F
330
1F
100
AcDbEntity
  8
1
  6
CONTINUOUS
 62
   252
100
AcDbLine
 10
-12.861757
 20
-46.86019
 30
0.0
 11
-12.861757
 21
-121.919549
 31
0.0
  0
LINE
  5
70
330
1F
100
AcDbEntity
  8
1
  6
CONTINUOUS
 62
   252
100
AcDbLine
 10
-29.103925
 20
-121.378129
 30
0.0
 11
-29.103925
 21
-47.295371
 31
0.0
  0
LINE
  5
71
330
1F
100
AcDbEntity
  8
1
  6
CONTINUOUS
 62
   252
100
AcDbLine
 10
7.091042
 20
-121.492842
 30
0.0
 11
7.091042
 21
-47.492842
 31
0.0
  0
LINE
  5
72
330
1F
100
AcDbEntity
  8
1
  6
CONTINUOUS
 62
   252
100
AcDbLine
 10
-24.25905
 20
-46.951422
 30
0.0
 11
-24.25905
 21
-120.951422
 31
0.0
  0
LINE
  5
73
330
1F
100
AcDbEntity
  8
1
  6
CONTINUOUS
 62
   252
100
AcDbLine
 10
-5.307795
 20
-121.919549
 30
0.0
 11
-5.307795
 21
-46.86019
 31
0.0
  0
LINE
  5
74
330
1F
100
AcDbEntity
  8
1
  6
CONTINUOUS
 62
   163
100
AcDbLine
 10
-24.25905
 20
-46.951422
 30
0.0
 11
-24.25905
 21
-120.951422
 31
0.0
  0
LINE
  5
75
330
1F
100
AcDbEntity
  8
1
  6
CONTINUOUS
 62
   252
100
AcDbLine
 10
-0.46292
 20
-47.492842
 30
0.0
 11
-0.46292
 21
-121.492842
 31
0.0
  0
LINE
  5
76
330
1F
100
AcDbEntity
  8
1
  6
CONTINUOUS
 62
   163
100
AcDbLine
 10
-29.103925
 20
-47.295371
 30
0.0
 11
-29.103925
 21
-121.378129
 31
0.0
  0
LINE
  5
77
330
1F
100
AcDbEntity
  8
1
  6
CONTINUOUS
 62
   252
100
AcDbLine
 10
-5.307795
 20
-121.919549
 30
0.0
 11
-5.307795
 21
-46.86019
 31
0.0
  0
LINE
  5
78
330
1F
100
AcDbEntity
  8
1
  6
CONTINUOUS
 62
   163
100
AcDbLine
 10
-36.657887
 20
-47.295371
 30
0.0
 11
-36.657887
 21
-121.378129
 31
0.0
  0
LINE
  5
79
330
1F
100
AcDbEntity
  8
1
  6
CONTINUOUS
 62
   252
100
AcDbLine
 10
31.096513
 20
-122.0
 30
0.0
 11
31.096513
 21
-48.0
 31
0.0
  0
LINE
  5
7A
330
1F
100
AcDbEntity
  8
1
  6
CONTINUOUS
 62
   163
100
AcDbLine
 10
-16.705088
 20
-46.951422
 30
0.0
 11
-16.705088
 21
-120.951422
 31
0.0
  0
LINE
  5
7B
330
1F
100
AcDbEntity
  8
1
  6
CONTINUOUS
 62
   252
100
AcDbLine
 10
-24.25905
 20
-46.951422
 30
0.0
 11
-24.25905
 21
-120.951422
 31
0.0
  0
LINE
  5
7C
330
1F
100
AcDbEntity
  8
1
  6
CONTINUOUS
 62
   252
100
AcDbLine
 10
-36.657887
 20
-47.295371
 30
0.0
 11
-36.657887
 21
-121.378129
 31
0.0
  0
LINE
  5
7D
330
1F
100
AcDbEntity
  8
1
  6
CONTINUOUS
 62
   252
100
AcDbLine
 10
-12.861757
 20
-46.86019
 30
0.0
 11
-12.861757
 21
-121.919549
 31
0.0
  0
LINE
  5
7E
330
1F
100
AcDbEntity
  8
1
  6
CONTINUOUS
 62
   163
100
AcDbLine
 10
18.697676
 20
-47.367348
 30
0.0
 11
18.697676
 21
-122.426707
 31
0.0
  0
LINE
  5
7F
330
1F
100
AcDbEntity
  8
1
  6
CONTINUOUS
 62
   252
100
AcDbLine
 10
7.091042
 20
-121.492842
 30
0.0
 11
7.091042
 21
-47.492842
 31
0.0
  0
LINE
  5
80
330
1F
100
AcDbEntity
  8
1
  6
CONTINUOUS
 62
   252
100
AcDbLine
 10
-16.705088
 20
-120.951422
 30
0.0
 11
-16.705088
 21
-46.951422
 31
0.0
  0
LINE
  5
81
330
1F
100
AcDbEntity
  8
1
  6
CONTINUOUS
 62
   252
100
AcDbLine
 10
11.143713
 20
-47.367348
 30
0.0
 11
11.143713
 21
-122.426707
 31
0.0
  0
LINE
  5
82
330
1F
100
AcDbEntity
  8
1
  6
CONTINUOUS
 62
   252
100
AcDbLine
 10
18.697676
 20
-122.426707
 30
0.0
 11
18.697676
 21
-47.367348
 31
0.0
  0
LINE
  5
83
330
1F
100
AcDbEntity
  8
1
  6
CONTINUOUS
 62
   252
100
AcDbLine
 10
31.096513
 20
-122.0
 30
0.0
 11
31.096513
 21
-48.0
 31
0.0
  0
LINE
  5
84
330
1F
100
AcDbEntity
  8
1
  6
CONTINUOUS
 62
   252
100
AcDbLine
 10
23.542551
 20
-48.0
 30
0.0
 11
23.542551
 21
-122.0
 31
0.0
  0
LINE
  5
85
330
1F
100
AcDbEntity
  8
1
  6
CONTINUOUS
 62
   252
100
AcDbLine
 10
-36.657887
 20
-47.295371
 30
0.0
 11
-36.657887
 21
-121.378129
 31
0.0
  0
LINE
  5
86
330
1F
100
AcDbEntity
  8
1
  6
CONTINUOUS
 62
   252
100
AcDbLine
 10
-16.705088
 20
-120.951422
 30
0.0
 11
-16.705088
 21
-46.951422
 31
0.0
  0
LINE
  5
87
330
1F
100
AcDbEntity
  8
1
  6
CONTINUOUS
 62
   252
100
AcDbLine
 10
11.143713
 20
-47.367348
 30
0.0
 11
11.143713
 21
-122.426707
 31
0.0
  0
LINE
  5
88
330
1F
100
AcDbEntity
  8
1
  6
CONTINUOUS
 62
   252
100
AcDbLine
 10
23.542551
 20
-48.0
 30
0.0
 11
23.542551
 21
-122.0
 31
0.0
  0
LINE
  5
89
330
1F
100
AcDbEntity
  8
1
  6
CONTINUOUS
 62
   252
100
AcDbLine
 10
-29.103925
 20
-121.378129
 30
0.0
 11
-29.103925
 21
-47.295371
 31
0.0
  0
LINE
  5
8A
330
1F
100
AcDbEntity
  8
1
  6
CONTINUOUS
 62
   252
100
AcDbLine
 10
18.697676
 20
-122.426707
 30
0.0
 11
18.697676
 21
-47.367348
 31
0.0
  0
LINE
  5
8B
330
1F
100
AcDbEntity
  8
1
  6
CONTINUOUS
 62
   252
100
AcDbLine
 10
-0.46292
 20
-47.492842
 30
0.0
 11
-0.46292
 21
-121.492842
 31
0.0
  0
LINE
  5
8C
330
1F
100
AcDbEntity
  8
1
  6
CONTINUOUS
 62
   163
100
AcDbLine
 10
23.542551
 20
-48.0
 30
0.0
 11
23.542551
 21
-122.0
 31
0.0
  0
LINE
  5
8D
330
1F
100
AcDbEntity
  8
1
  6
CONTINUOUS
 62
   163
100
AcDbLine
 10
31.096513
 20
-48.0
 30
0.0
 11
31.096513
 21
-122.0
 31
0.0
  0
LINE
  5
8E
330
1F
100
AcDbEntity
  8
1
  6
CONTINUOUS
 62
   163
100
AcDbLine
 10
11.143713
 20
-47.367348
 30
0.0
 11
11.143713
 21
-122.426707
 31
0.0
  0
ARC
  5
8F
330
1F
100
AcDbEntity
  8
1
  6
CONTINUOUS
 62
   163
100
AcDbCircle
 10
3.314061
 20
-47.492842
 30
0.0
 40
3.776981309262162
100
AcDbArc
 50
0.0
 51
180.0
  0
ARC
  5
90
330
1F
100
AcDbEntity
  8
1
  6
CONTINUOUS
 62
   163
100
AcDbCircle
 10
-9.084776
 20
-46.86019
 30
0.0
 40
3.776981309262162
100
AcDbArc
 50
0.0
 51
180.0
  0
ARC
  5
91
330
1F
100
AcDbEntity
  8
1
  6
CONTINUOUS
 62
   163
100
AcDbCircle
 10
3.314061
 20
-121.492842
 30
0.0
 40
3.776981309262023
100
AcDbArc
 50
180.0
 51
0.0
  0
ARC
  5
92
330
1F
100
AcDbEntity
  8
1
  6
CONTINUOUS
 62
   163
100
AcDbCircle
 10
-9.084776
 20
-121.919549
 30
0.0
 40
3.776981309262023
100
AcDbArc
 50
180.0
 51
0.0
  0
ARC
  5
93
330
1F
100
AcDbEntity
  8
1
  6
CONTINUOUS
 62
   252
100
AcDbCircle
 10
14.920695
 20
-47.367348
 30
0.0
 40
3.776981309262162
100
AcDbArc
 50
0.0
 51
180.0
  0
ARC
  5
94
330
1F
100
AcDbEntity
  8
1
  6
CONTINUOUS
 62
   252
100
AcDbCircle
 10
-9.084776
 20
-46.86019
 30
0.0
 40
3.776981309262162
100
AcDbArc
 50
0.0
 51
180.0
  0
ARC
  5
95
330
1F
100
AcDbEntity
  8
1
  6
CONTINUOUS
 62
   252
100
AcDbCircle
 10
14.920695
 20
-47.367348
 30
0.0
 40
3.776981309262162
100
AcDbArc
 50
360.0
 51
180.0
  0
ARC
  5
96
330
1F
100
AcDbEntity
  8
1
  6
CONTINUOUS
 62
   252
100
AcDbCircle
 10
27.319532
 20
-48.0
 30
0.0
 40
3.776981309262162
100
AcDbArc
 50
360.0
 51
180.0
  0
ARC
  5
97
330
1F
100
AcDbEntity
  8
1
  6
CONTINUOUS
 62
   252
100
AcDbCircle
 10
27.319532
 20
-48.0
 30
0.0
 40
3.776981309262162
100
AcDbArc
 50
0.0
 51
180.0
  0
ARC
  5
98
330
1F
100
AcDbEntity
  8
1
  6
CONTINUOUS
 62
   252
100
AcDbCircle
 10
-20.482069
 20
-46.951422
 30
0.0
 40
3.776981309262162
100
AcDbArc
 50
0.0
 51
180.0
  0
ARC
  5
99
330
1F
100
AcDbEntity
  8
1
  6
CONTINUOUS
 62
   252
100
AcDbCircle
 10
-20.482069
 20
-120.951422
 30
0.0
 40
3.776981309262023
100
AcDbArc
 50
180.0
 51
0.0
  0
ARC
  5
9A
330
1F
100
AcDbEntity
  8
1
  6
CONTINUOUS
 62
   163
100
AcDbCircle
 10
-20.482069
 20
-46.951422
 30
0.0
 40
3.776981309262162
100
AcDbArc
 50
0.0
 51
180.0
  0
ARC
  5
9B
330
1F
100
AcDbEntity
  8
1
  6
CONTINUOUS
 62
   252
100
AcDbCircle
 10
-32.880906
 20
-121.378129
 30
0.0
 40
3.776981309262023
100
AcDbArc
 50
180.0
 51
0.0
  0
ARC
  5
9C
330
1F
100
AcDbEntity
  8
1
  6
CONTINUOUS
 62
   163
100
AcDbCircle
 10
-32.880906
 20
-47.295371
 30
0.0
 40
3.776981309262162
100
AcDbArc
 50
0.0
 51
180.0
  0
ARC
  5
9D
330
1F
100
AcDbEntity
  8
1
  6
CONTINUOUS
 62
   163
100
AcDbCircle
 10
-20.482069
 20
-120.951422
 30
0.0
 40
3.776981309262023
100
AcDbArc
 50
180.0
 51
0.0
  0
ARC
  5
9E
330
1F
100
AcDbEntity
  8
1
  6
CONTINUOUS
 62
   163
100
AcDbCircle
 10
-32.880906
 20
-121.378129
 30
0.0
 40
3.776981309262023
100
AcDbArc
 50
180.0
 51
0.0
  0
ARC
  5
9F
330
1F
100
AcDbEntity
  8
1
  6
CONTINUOUS
 62
   163
100
AcDbCircle
 10
14.920695
 20
-122.426707
 30
0.0
 40
3.776981309262023
100
AcDbArc
 50
180.0
 51
0.0
  0
ARC
  5
A0
330
1F
100
AcDbEntity
  8
1
  6
CONTINUOUS
 62
   252
100
AcDbCircle
 10
14.920695
 20
-122.426707
 30
0.0
 40
3.776981309262023
100
AcDbArc
 50
180.0
 51
0.0
  0
ARC
  5
A1
330
1F
100
AcDbEntity
  8
1
  6
CONTINUOUS
 62
   252
100
AcDbCircle
 10
3.314061
 20
-121.492842
 30
0.0
 40
3.776981309262023
100
AcDbArc
 50
180.0
 51
0.0
  0
ARC
  5
A2
330
1F
100
AcDbEntity
  8
1
  6
CONTINUOUS
 62
   252
100
AcDbCircle
 10
27.319532
 20
-122.0
 30
0.0
 40
3.776981309262023
100
AcDbArc
 50
180.0
 51
0.0
  0
ARC
  5
A3
330
1F
100
AcDbEntity
  8
1
  6
CONTINUOUS
 62
   252
100
AcDbCircle
 10
-32.880906
 20
-121.378129
 30
0.0
 40
3.776981309262023
100
AcDbArc
 50
180.0
 51
0.0
  0
ARC
  5
A4
330
1F
100
AcDbEntity
  8
1
  6
CONTINUOUS
 62
   252
100
AcDbCircle
 10
3.314061
 20
-47.492842
 30
0.0
 40
3.776981309262162
100
AcDbArc
 50
0.0
 51
180.0
  0
ARC
  5
A5
330
1F
100
AcDbEntity
  8
1
  6
CONTINUOUS
 62
   252
100
AcDbCircle
 10
-9.084776
 20
-121.919549
 30
0.0
 40
3.776981309262023
100
AcDbArc
 50
180.0
 51
0.0
  0
ARC
  5
A6
330
1F
100
AcDbEntity
  8
1
  6
CONTINUOUS
 62
   252
100
AcDbCircle
 10
-32.880906
 20
-47.295371
 30
0.0
 40
3.776981309262162
100
AcDbArc
 50
0.0
 51
180.0
  0
ARC
  5
A7
330
1F
100
AcDbEntity
  8
1
  6
CONTINUOUS
 62
   252
100
AcDbCircle
 10
14.920695
 20
-122.426707
 30
0.0
 40
3.776981309262023
100
AcDbArc
 50
180.0
 51
0.0
  0
ARC
  5
A8
330
1F
100
AcDbEntity
  8
1
  6
CONTINUOUS
 62
   252
100
AcDbCircle
 10
-9.084776
 20
-46.86019
 30
0.0
 40
3.776981309262162
100
AcDbArc
 50
360.0
 51
180.0
  0
ARC
  5
A9
330
1F
100
AcDbEntity
  8
1
  6
CONTINUOUS
 62
   252
100
AcDbCircle
 10
3.314061
 20
-121.492842
 30
0.0
 40
3.776981309262023
100
AcDbArc
 50
180.0
 51
0.0
  0
ARC
  5
AA
330
1F
100
AcDbEntity
  8
1
  6
CONTINUOUS
 62
   252
100
AcDbCircle
 10
3.314061
 20
-47.492842
 30
0.0
 40
3.776981309262162
100
AcDbArc
 50
360.0
 51
180.0
  0
ARC
  5
AB
330
1F
100
AcDbEntity
  8
1
  6
CONTINUOUS
 62
   252
100
AcDbCircle
 10
-20.482069
 20
-46.951422
 30
0.0
 40
3.776981309262162
100
AcDbArc
 50
360.0
 51
180.0
  0
ARC
  5
AC
330
1F
100
AcDbEntity
  8
1
  6
CONTINUOUS
 62
   252
100
AcDbCircle
 10
-32.880906
 20
-47.295371
 30
0.0
 40
3.776981309262162
100
AcDbArc
 50
360.0
 51
180.0
  0
ARC
  5
AD
330
1F
100
AcDbEntity
  8
1
  6
CONTINUOUS
 62
   252
100
AcDbCircle
 10
-20.482069
 20
-120.951422
 30
0.0
 40
3.776981309262023
100
AcDbArc
 50
180.0
 51
0.0
  0
ARC
  5
AE
330
1F
100
AcDbEntity
  8
1
  6
CONTINUOUS
 62
   252
100
AcDbCircle
 10
-9.084776
 20
-121.919549
 30
0.0
 40
3.776981309262023
100
AcDbArc
 50
180.0
 51
0.0
  0
ARC
  5
AF
330
1F
100
AcDbEntity
  8
1
  6
CONTINUOUS
 62
   252
100
AcDbCircle
 10
27.319532
 20
-122.0
 30
0.0
 40
3.776981309262023
100
AcDbArc
 50
180.0
 51
0.0
  0
ARC
  5
B0
330
1F
100
AcDbEntity
  8
1
  6
CONTINUOUS
 62
   163
100
AcDbCircle
 10
14.920695
 20
-47.367348
 30
0.0
 40
3.776981309262162
100
AcDbArc
 50
0.0
 51
180.0
  0
ARC
  5
B1
330
1F
100
AcDbEntity
  8
1
  6
CONTINUOUS
 62
   163
100
AcDbCircle
 10
27.319532
 20
-48.0
 30
0.0
 40
3.776981309262162
100
AcDbArc
 50
0.0
 51
180.0
  0
ARC
  5
B2
330
1F
100
AcDbEntity
  8
1
  6
CONTINUOUS
 62
   163
100
AcDbCircle
 10
27.319532
 20
-122.0
 30
0.0
 40
3.776981309262023
100
AcDbArc
 50
180.0
 51
0.0
  0
CIRCLE
  5
B3
330
1F
100
AcDbEntity
  8
1
  6
CONTINUOUS
 62
     7
100
AcDbCircle
 10
-4.0
 20
0.0
 30
0.0
 40
17.0
  0
CIRCLE
  5
B4
330
1F
100
AcDbEntity
  8
1
  6
CONTINUOUS
 62
     7
100
AcDbCircle
 10
4.0
 20
-32.0
 30
0.0
 40
4.0
  0
CIRCLE
  5
B5
330
1F
100
AcDbEntity
  8
1
  6
CONTINUOUS
 62
     7
100
AcDbCircle
 10
-12.0
 20
-32.0
 30
0.0
 40
4.0
  0
CIRCLE
  5
B6
330
1F
100
AcDbEntity
  8
1
  6
CONTINUOUS
 62
     7
100
AcDbCircle
 10
4.0
 20
32.0
 30
0.0
 40
4.0
  0
CIRCLE
  5
B7
330
1F
100
AcDbEntity
  8
1
  6
CONTINUOUS
 62
     7
100
AcDbCircle
 10
-12.0
 20
32.0
 30
0.0
 40
4.0
  0
CIRCLE
  5
B8
330
1F
100
AcDbEntity
  8
1
  6
CONTINUOUS
 62
     7
100
AcDbCircle
 10
52.0
 20
-120.0
 30
0.0
 40
2.2
  0
CIRCLE
  5
B9
330
1F
100
AcDbEntity
  8
1
  6
CONTINUOUS
 62
     7
100
AcDbCircle
 10
-52.0
 20
-120.0
 30
0.0
 40
2.2
  0
CIRCLE
  5
BA
330
1F
100
AcDbEntity
  8
1
  6
CONTINUOUS
 62
     7
100
AcDbCircle
 10
52.0
 20
120.0
 30
0.0
 40
2.2
  0
CIRCLE
  5
BB
330
1F
100
AcDbEntity
  8
1
  6
CONTINUOUS
 62
     7
100
AcDbCircle
 10
-52.0
 20
120.0
 30
0.0
 40
2.2
  0
CIRCLE
  5
BC
330
1F
100
AcDbEntity
  8
1
  6
CONTINUOUS
 62
     7
100
AcDbCircle
 10
20.0
 20
-32.0
 30
0.0
 40
2.2
  0
CIRCLE
  5
BD
330
1F
100
AcDbEntity
  8
1
  6
CONTINUOUS
 62
     7
100
AcDbCircle
 10
20.0
 20
32.0
 30
0.0
 40
2.2
  0
CIRCLE
  5
BE
330
1F
100
AcDbEntity
  8
1
  6
CONTINUOUS
 62
     7
100
AcDbCircle
 10
-4.0
 20
-160.0
 30
0.0
 40
2.2
  0
CIRCLE
  5
BF
330
1F
100
AcDbEntity
  8
1
  6
CONTINUOUS
 62
     7
100
AcDbCircle
 10
-4.0
 20
160.0
 30
0.0
 40
2.2
  0
POLYLINE
  5
C0
330
1F
100
AcDbEntity
  8
1
  6
CONTINUOUS
 62
   252
100
AcDb2dPolyline
 66
     1
 10
0.0
 20
0.0
 30
0.0
  0
VERTEX
  5
C1
330
C0
100
AcDbEntity
  8
1
  6
CONTINUOUS
 62
   252
100
AcDbVertex
100
AcDb2dVertex
 10
56.0
 20
52.0
 30
0.0
  0
VERTEX
  5
C2
330
C0
100
AcDbEntity
  8
1
  6
CONTINUOUS
 62
   252
100
AcDbVertex
100
AcDb2dVertex
 10
54.792893
 20
52.0
 30
0.0
  0
VERTEX
  5
C3
330
C0
100
AcDbEntity
  8
1
  6
CONTINUOUS
 62
   252
100
AcDbVertex
100
AcDb2dVertex
 10
53.585786
 20
52.0
 30
0.0
  0
VERTEX
  5
C4
330
C0
100
AcDbEntity
  8
1
  6
CONTINUOUS
 62
   252
100
AcDbVertex
100
AcDb2dVertex
 10
52.37868
 20
52.0
 30
0.0
  0
VERTEX
  5
C5
330
C0
100
AcDbEntity
  8
1
  6
CONTINUOUS
 62
   252
100
AcDbVertex
100
AcDb2dVertex
 10
51.144461
 20
52.092564
 30
0.0
  0
VERTEX
  5
C6
330
C0
100
AcDbEntity
  8
1
  6
CONTINUOUS
 62
   252
100
AcDbVertex
100
AcDb2dVertex
 10
49.894945
 20
52.598714
 30
0.0
  0
VERTEX
  5
C7
330
C0
100
AcDbEntity
  8
1
  6
CONTINUOUS
 62
   252
100
AcDbVertex
100
AcDb2dVertex
 10
48.850424
 20
53.5342
 30
0.0
  0
VERTEX
  5
C8
330
C0
100
AcDbEntity
  8
1
  6
CONTINUOUS
 62
   252
100
AcDbVertex
100
AcDb2dVertex
 10
48.202
 20
54.744931
 30
0.0
  0
VERTEX
  5
C9
330
C0
100
AcDbEntity
  8
1
  6
CONTINUOUS
 62
   252
100
AcDbVertex
100
AcDb2dVertex
 10
48.0
 20
56.0
 30
0.0
  0
VERTEX
  5
CA
330
C0
100
AcDbEntity
  8
1
  6
CONTINUOUS
 62
   252
100
AcDbVertex
100
AcDb2dVertex
 10
48.202
 20
57.255069
 30
0.0
  0
VERTEX
  5
CB
330
C0
100
AcDbEntity
  8
1
  6
CONTINUOUS
 62
   252
100
AcDbVertex
100
AcDb2dVertex
 10
48.850424
 20
58.4658
 30
0.0
  0
VERTEX
  5
CC
330
C0
100
AcDbEntity
  8
1
  6
CONTINUOUS
 62
   252
100
AcDbVertex
100
AcDb2dVertex
 10
49.894945
 20
59.401286
 30
0.0
  0
VERTEX
  5
CD
330
C0
100
AcDbEntity
  8
1
  6
CONTINUOUS
 62
   252
100
AcDbVertex
100
AcDb2dVertex
 10
51.144461
 20
59.907436
 30
0.0
  0
VERTEX
  5
CE
330
C0
100
AcDbEntity
  8
1
  6
CONTINUOUS
 62
   252
100
AcDbVertex
100
AcDb2dVertex
 10
52.37868
 20
60.0
 30
0.0
  0
VERTEX
  5
CF
330
C0
100
AcDbEntity
  8
1
  6
CONTINUOUS
 62
   252
100
AcDbVertex
100
AcDb2dVertex
 10
53.585786
 20
60.0
 30
0.0
  0
VERTEX
  5
D0
330
C0
100
AcDbEntity
  8
1
  6
CONTINUOUS
 62
   252
100
AcDbVertex
100
AcDb2dVertex
 10
54.792893
 20
60.0
 30
0.0
  0
VERTEX
  5
D1
330
C0
100
AcDbEntity
  8
1
  6
CONTINUOUS
 62
   252
100
AcDbVertex
100
AcDb2dVertex
 10
56.0
 20
60.0
 30
0.0
  0
SEQEND
  5
D2
330
C0
100
AcDbEntity
  8
1
  6
CONTINUOUS
 62
   252
  0
POLYLINE
  5
D3
330
1F
100
AcDbEntity
  8
1
  6
CONTINUOUS
 62
   252
100
AcDb2dPolyline
 66
     1
 10
0.0
 20
0.0
 30
0.0
  0
VERTEX
  5
D4
330
D3
100
AcDbEntity
  8
1
  6
CONTINUOUS
 62
   252
100
AcDbVertex
100
AcDb2dVertex
 10
56.0
 20
-148.0
 30
0.0
  0
VERTEX
  5
D5
330
D3
100
AcDbEntity
  8
1
  6
CONTINUOUS
 62
   252
100
AcDbVertex
100
AcDb2dVertex
 10
56.0
 20
-36.0
 30
0.0
  0
VERTEX
  5
D6
330
D3
100
AcDbEntity
  8
1
  6
CONTINUOUS
 62
   252
100
AcDbVertex
100
AcDb2dVertex
 10
56.0
 20
52.0
 30
0.0
  0
SEQEND
  5
D7
330
D3
100
AcDbEntity
  8
1
  6
CONTINUOUS
 62
   252
  0
POLYLINE
  5
D8
330
1F
100
AcDbEntity
  8
1
  6
CONTINUOUS
 62
   252
100
AcDb2dPolyline
 66
     1
 10
0.0
 20
0.0
 30
0.0
  0
VERTEX
  5
D9
330
D8
100
AcDbEntity
  8
1
  6
CONTINUOUS
 62
   252
100
AcDbVertex
100
AcDb2dVertex
 10
-56.0
 20
-148.0
 30
0.0
  0
VERTEX
  5
DA
330
D8
100
AcDbEntity
  8
1
  6
CONTINUOUS
 62
   252
100
AcDbVertex
100
AcDb2dVertex
 10
-54.851472
 20
-148.0
 30
0.0
  0
VERTEX
  5
DB
330
D8
100
AcDbEntity
  8
1
  6
CONTINUOUS
 62
   252
100
AcDbVertex
100
AcDb2dVertex
 10
-53.702944
 20
-148.0
 30
0.0
  0
VERTEX
  5
DC
330
D8
100
AcDbEntity
  8
1
  6
CONTINUOUS
 62
   252
100
AcDbVertex
100
AcDb2dVertex
 10
-52.554416
 20
-148.0
 30
0.0
  0
VERTEX
  5
DD
330
D8
100
AcDbEntity
  8
1
  6
CONTINUOUS
 62
   252
100
AcDbVertex
100
AcDb2dVertex
 10
-51.390609
 20
-148.046692
 30
0.0
  0
VERTEX
  5
DE
330
D8
100
AcDbEntity
  8
1
  6
CONTINUOUS
 62
   252
100
AcDbVertex
100
AcDb2dVertex
 10
-50.188387
 20
-148.433761
 30
0.0
  0
VERTEX
  5
DF
330
D8
100
AcDbEntity
  8
1
  6
CONTINUOUS
 62
   252
100
AcDbVertex
100
AcDb2dVertex
 10
-49.280145
 20
-149.067017
 30
0.0
  0
VERTEX
  5
E0
330
D8
100
AcDbEntity
  8
1
  6
CONTINUOUS
 62
   252
100
AcDbVertex
100
AcDb2dVertex
 10
-48.57729
 20
-149.929963
 30
0.0
  0
VERTEX
  5
E1
330
D8
100
AcDbEntity
  8
1
  6
CONTINUOUS
 62
   252
100
AcDbVertex
100
AcDb2dVertex
 10
-48.149086
 20
-150.918123
 30
0.0
  0
VERTEX
  5
E2
330
D8
100
AcDbEntity
  8
1
  6
CONTINUOUS
 62
   252
100
AcDbVertex
100
AcDb2dVertex
 10
-48.000928
 20
-151.913841
 30
0.0
  0
VERTEX
  5
E3
330
D8
100
AcDbEntity
  8
1
  6
CONTINUOUS
 62
   252
100
AcDbVertex
100
AcDb2dVertex
 10
-48.102742
 20
-152.900767
 30
0.0
  0
VERTEX
  5
E4
330
D8
100
AcDbEntity
  8
1
  6
CONTINUOUS
 62
   252
100
AcDbVertex
100
AcDb2dVertex
 10
-48.479313
 20
-153.898621
 30
0.0
  0
VERTEX
  5
E5
330
D8
100
AcDbEntity
  8
1
  6
CONTINUOUS
 62
   252
100
AcDbVertex
100
AcDb2dVertex
 10
-49.136264
 20
-154.792671
 30
0.0
  0
VERTEX
  5
E6
330
D8
100
AcDbEntity
  8
1
  6
CONTINUOUS
 62
   252
100
AcDbVertex
100
AcDb2dVertex
 10
-50.015208
 20
-155.472838
 30
0.0
  0
VERTEX
  5
E7
330
D8
100
AcDbEntity
  8
1
  6
CONTINUOUS
 62
   252
100
AcDbVertex
100
AcDb2dVertex
 10
-51.008697
 20
-155.875219
 30
0.0
  0
VERTEX
  5
E8
330
D8
100
AcDbEntity
  8
1
  6
CONTINUOUS
 62
   252
100
AcDbVertex
100
AcDb2dVertex
 10
-52.0
 20
-156.0
 30
0.0
  0
SEQEND
  5
E9
330
D8
100
AcDbEntity
  8
1
  6
CONTINUOUS
 62
   252
  0
POLYLINE
  5
EA
330
1F
100
AcDbEntity
  8
1
  6
CONTINUOUS
 62
   252
100
AcDb2dPolyline
 66
     1
 10
0.0
 20
0.0
 30
0.0
  0
VERTEX
  5
EB
330
EA
100
AcDbEntity
  8
1
  6
CONTINUOUS
 62
   252
100
AcDbVertex
100
AcDb2dVertex
 10
-56.0
 20
44.0
 30
0.0
  0
VERTEX
  5
EC
330
EA
100
AcDbEntity
  8
1
  6
CONTINUOUS
 62
   252
100
AcDbVertex
100
AcDb2dVertex
 10
-54.792893
 20
44.0
 30
0.0
  0
VERTEX
  5
ED
330
EA
100
AcDbEntity
  8
1
  6
CONTINUOUS
 62
   252
100
AcDbVertex
100
AcDb2dVertex
 10
-53.585786
 20
44.0
 30
0.0
  0
VERTEX
  5
EE
330
EA
100
AcDbEntity
  8
1
  6
CONTINUOUS
 62
   252
100
AcDbVertex
100
AcDb2dVertex
 10
-52.37868
 20
44.0
 30
0.0
  0
VERTEX
  5
EF
330
EA
100
AcDbEntity
  8
1
  6
CONTINUOUS
 62
   252
100
AcDbVertex
100
AcDb2dVertex
 10
-51.144461
 20
43.907436
 30
0.0
  0
VERTEX
  5
F0
330
EA
100
AcDbEntity
  8
1
  6
CONTINUOUS
 62
   252
100
AcDbVertex
100
AcDb2dVertex
 10
-49.894945
 20
43.401286
 30
0.0
  0
VERTEX
  5
F1
330
EA
100
AcDbEntity
  8
1
  6
CONTINUOUS
 62
   252
100
AcDbVertex
100
AcDb2dVertex
 10
-48.850424
 20
42.4658
 30
0.0
  0
VERTEX
  5
F2
330
EA
100
AcDbEntity
  8
1
  6
CONTINUOUS
 62
   252
100
AcDbVertex
100
AcDb2dVertex
 10
-48.202
 20
41.255069
 30
0.0
  0
VERTEX
  5
F3
330
EA
100
AcDbEntity
  8
1
  6
CONTINUOUS
 62
   252
100
AcDbVertex
100
AcDb2dVertex
 10
-48.0
 20
40.0
 30
0.0
  0
VERTEX
  5
F4
330
EA
100
AcDbEntity
  8
1
  6
CONTINUOUS
 62
   252
100
AcDbVertex
100
AcDb2dVertex
 10
-48.202
 20
38.744931
 30
0.0
  0
VERTEX
  5
F5
330
EA
100
AcDbEntity
  8
1
  6
CONTINUOUS
 62
   252
100
AcDbVertex
100
AcDb2dVertex
 10
-48.850424
 20
37.5342
 30
0.0
  0
VERTEX
  5
F6
330
EA
100
AcDbEntity
  8
1
  6
CONTINUOUS
 62
   252
100
AcDbVertex
100
AcDb2dVertex
 10
-49.894945
 20
36.598714
 30
0.0
  0
VERTEX
  5
F7
330
EA
100
AcDbEntity
  8
1
  6
CONTINUOUS
 62
   252
100
AcDbVertex
100
AcDb2dVertex
 10
-51.144461
 20
36.092564
 30
0.0
  0
VERTEX
  5
F8
330
EA
100
AcDbEntity
  8
1
  6
CONTINUOUS
 62
   252
100
AcDbVertex
100
AcDb2dVertex
 10
-52.37868
 20
36.0
 30
0.0
  0
VERTEX
  5
F9
330
EA
100
AcDbEntity
  8
1
  6
CONTINUOUS
 62
   252
100
AcDbVertex
100
AcDb2dVertex
 10
-53.585786
 20
36.0
 30
0.0
  0
VERTEX
  5
FA
330
EA
100
AcDbEntity
  8
1
  6
CONTINUOUS
 62
   252
100
AcDbVertex
100
AcDb2dVertex
 10
-54.792893
 20
36.0
 30
0.0
  0
VERTEX
  5
FB
330
EA
100
AcDbEntity
  8
1
  6
CONTINUOUS
 62
   252
100
AcDbVertex
100
AcDb2dVertex
 10
-56.0
 20
36.0
 30
0.0
  0
SEQEND
  5
FC
330
EA
100
AcDbEntity
  8
1
  6
CONTINUOUS
 62
   252
  0
POLYLINE
  5
FD
330
1F
100
AcDbEntity
  8
1
  6
CONTINUOUS
 62
   252
100
AcDb2dPolyline
 66
     1
 10
0.0
 20
0.0
 30
0.0
  0
VERTEX
  5
FE
330
FD
100
AcDbEntity
  8
1
  6
CONTINUOUS
 62
   252
100
AcDbVertex
100
AcDb2dVertex
 10
-56.0
 20
-44.0
 30
0.0
  0
VERTEX
  5
FF
330
FD
100
AcDbEntity
  8
1
  6
CONTINUOUS
 62
   252
100
AcDbVertex
100
AcDb2dVertex
 10
-56.0
 20
-102.24
 30
0.0
  0
VERTEX
  5
100
330
FD
100
AcDbEntity
  8
1
  6
CONTINUOUS
 62
   252
100
AcDbVertex
100
AcDb2dVertex
 10
-56.0
 20
-148.0
 30
0.0
  0
SEQEND
  5
101
330
FD
100
AcDbEntity
  8
1
  6
CONTINUOUS
 62
   252
  0
POLYLINE
  5
102
330
1F
100
AcDbEntity
  8
1
  6
CONTINUOUS
 62
   252
100
AcDb2dPolyline
 66
     1
 10
0.0
 20
0.0
 30
0.0
  0
VERTEX
  5
103
330
102
100
AcDbEntity
  8
1
  6
CONTINUOUS
 62
   252
100
AcDbVertex
100
AcDb2dVertex
 10
56.0
 20
148.0
 30
0.0
  0
VERTEX
  5
104
330
102
100
AcDbEntity
  8
1
  6
CONTINUOUS
 62
   252
100
AcDbVertex
100
AcDb2dVertex
 10
54.792893
 20
148.0
 30
0.0
  0
VERTEX
  5
105
330
102
100
AcDbEntity
  8
1
  6
CONTINUOUS
 62
   252
100
AcDbVertex
100
AcDb2dVertex
 10
53.585786
 20
148.0
 30
0.0
  0
VERTEX
  5
106
330
102
100
AcDbEntity
  8
1
  6
CONTINUOUS
 62
   252
100
AcDbVertex
100
AcDb2dVertex
 10
52.37868
 20
148.0
 30
0.0
  0
VERTEX
  5
107
330
102
100
AcDbEntity
  8
1
  6
CONTINUOUS
 62
   252
100
AcDbVertex
100
AcDb2dVertex
 10
51.144461
 20
148.092564
 30
0.0
  0
VERTEX
  5
108
330
102
100
AcDbEntity
  8
1
  6
CONTINUOUS
 62
   252
100
AcDbVertex
100
AcDb2dVertex
 10
49.894945
 20
148.598714
 30
0.0
  0
VERTEX
  5
109
330
102
100
AcDbEntity
  8
1
  6
CONTINUOUS
 62
   252
100
AcDbVertex
100
AcDb2dVertex
 10
48.850424
 20
149.5342
 30
0.0
  0
VERTEX
  5
10A
330
102
100
AcDbEntity
  8
1
  6
CONTINUOUS
 62
   252
100
AcDbVertex
100
AcDb2dVertex
 10
48.202
 20
150.744931
 30
0.0
  0
VERTEX
  5
10B
330
102
100
AcDbEntity
  8
1
  6
CONTINUOUS
 62
   252
100
AcDbVertex
100
AcDb2dVertex
 10
48.0
 20
152.0
 30
0.0
  0
VERTEX
  5
10C
330
102
100
AcDbEntity
  8
1
  6
CONTINUOUS
 62
   252
100
AcDbVertex
100
AcDb2dVertex
 10
48.202
 20
153.255069
 30
0.0
  0
VERTEX
  5
10D
330
102
100
AcDbEntity
  8
1
  6
CONTINUOUS
 62
   252
100
AcDbVertex
100
AcDb2dVertex
 10
48.850424
 20
154.4658
 30
0.0
  0
VERTEX
  5
10E
330
102
100
AcDbEntity
  8
1
  6
CONTINUOUS
 62
   252
100
AcDbVertex
100
AcDb2dVertex
 10
49.894945
 20
155.401286
 30
0.0
  0
VERTEX
  5
10F
330
102
100
AcDbEntity
  8
1
  6
CONTINUOUS
 62
   252
100
AcDbVertex
100
AcDb2dVertex
 10
51.144461
 20
155.907436
 30
0.0
  0
VERTEX
  5
110
330
102
100
AcDbEntity
  8
1
  6
CONTINUOUS
 62
   252
100
AcDbVertex
100
AcDb2dVertex
 10
52.37868
 20
156.0
 30
0.0
  0
VERTEX
  5
111
330
102
100
AcDbEntity
  8
1
  6
CONTINUOUS
 62
   252
100
AcDbVertex
100
AcDb2dVertex
 10
53.585786
 20
156.0
 30
0.0
  0
VERTEX
  5
112
330
102
100
AcDbEntity
  8
1
  6
CONTINUOUS
 62
   252
100
AcDbVertex
100
AcDb2dVertex
 10
54.792893
 20
156.0
 30
0.0
  0
VERTEX
  5
113
330
102
100
AcDbEntity
  8
1
  6
CONTINUOUS
 62
   252
100
AcDbVertex
100
AcDb2dVertex
 10
56.0
 20
156.0
 30
0.0
  0
SEQEND
  5
114
330
102
100
AcDbEntity
  8
1
  6
CONTINUOUS
 62
   252
  0
POLYLINE
  5
115
330
1F
100
AcDbEntity
  8
1
  6
CONTINUOUS
 62
   252
100
AcDb2dPolyline
 66
     1
 10
0.0
 20
0.0
 30
0.0
  0
VERTEX
  5
116
330
115
100
AcDbEntity
  8
1
  6
CONTINUOUS
 62
   252
100
AcDbVertex
100
AcDb2dVertex
 10
-56.0
 20
44.0
 30
0.0
  0
VERTEX
  5
117
330
115
100
AcDbEntity
  8
1
  6
CONTINUOUS
 62
   252
100
AcDbVertex
100
AcDb2dVertex
 10
-54.792893
 20
44.0
 30
0.0
  0
VERTEX
  5
118
330
115
100
AcDbEntity
  8
1
  6
CONTINUOUS
 62
   252
100
AcDbVertex
100
AcDb2dVertex
 10
-53.585786
 20
44.0
 30
0.0
  0
VERTEX
  5
119
330
115
100
AcDbEntity
  8
1
  6
CONTINUOUS
 62
   252
100
AcDbVertex
100
AcDb2dVertex
 10
-52.37868
 20
44.0
 30
0.0
  0
VERTEX
  5
11A
330
115
100
AcDbEntity
  8
1
  6
CONTINUOUS
 62
   252
100
AcDbVertex
100
AcDb2dVertex
 10
-51.144461
 20
43.907436
 30
0.0
  0
VERTEX
  5
11B
330
115
100
AcDbEntity
  8
1
  6
CONTINUOUS
 62
   252
100
AcDbVertex
100
AcDb2dVertex
 10
-49.894945
 20
43.401286
 30
0.0
  0
VERTEX
  5
11C
330
115
100
AcDbEntity
  8
1
  6
CONTINUOUS
 62
   252
100
AcDbVertex
100
AcDb2dVertex
 10
-48.850424
 20
42.4658
 30
0.0
  0
VERTEX
  5
11D
330
115
100
AcDbEntity
  8
1
  6
CONTINUOUS
 62
   252
100
AcDbVertex
100
AcDb2dVertex
 10
-48.202
 20
41.255069
 30
0.0
  0
VERTEX
  5
11E
330
115
100
AcDbEntity
  8
1
  6
CONTINUOUS
 62
   252
100
AcDbVertex
100
AcDb2dVertex
 10
-48.0
 20
40.0
 30
0.0
  0
VERTEX
  5
11F
330
115
100
AcDbEntity
  8
1
  6
CONTINUOUS
 62
   252
100
AcDbVertex
100
AcDb2dVertex
 10
-48.202
 20
38.744931
 30
0.0
  0
VERTEX
  5
120
330
115
100
AcDbEntity
  8
1
  6
CONTINUOUS
 62
   252
100
AcDbVertex
100
AcDb2dVertex
 10
-48.850424
 20
37.5342
 30
0.0
  0
VERTEX
  5
121
330
115
100
AcDbEntity
  8
1
  6
CONTINUOUS
 62
   252
100
AcDbVertex
100
AcDb2dVertex
 10
-49.894945
 20
36.598714
 30
0.0
  0
VERTEX
  5
122
330
115
100
AcDbEntity
  8
1
  6
CONTINUOUS
 62
   252
100
AcDbVertex
100
AcDb2dVertex
 10
-51.144461
 20
36.092564
 30
0.0
  0
VERTEX
  5
123
330
115
100
AcDbEntity
  8
1
  6
CONTINUOUS
 62
   252
100
AcDbVertex
100
AcDb2dVertex
 10
-52.37868
 20
36.0
 30
0.0
  0
VERTEX
  5
124
330
115
100
AcDbEntity
  8
1
  6
CONTINUOUS
 62
   252
100
AcDbVertex
100
AcDb2dVertex
 10
-53.585786
 20
36.0
 30
0.0
  0
VERTEX
  5
125
330
115
100
AcDbEntity
  8
1
  6
CONTINUOUS
 62
   252
100
AcDbVertex
100
AcDb2dVertex
 10
-54.792893
 20
36.0
 30
0.0
  0
VERTEX
  5
126
330
115
100
AcDbEntity
  8
1
  6
CONTINUOUS
 62
   252
100
AcDbVertex
100
AcDb2dVertex
 10
-56.0
 20
36.0
 30
0.0
  0
SEQEND
  5
127
330
115
100
AcDbEntity
  8
1
  6
CONTINUOUS
 62
   252
  0
POLYLINE
  5
128
330
1F
100
AcDbEntity
  8
1
  6
CONTINUOUS
 62
   252
100
AcDb2dPolyline
 66
     1
 10
0.0
 20
0.0
 30
0.0
  0
VERTEX
  5
129
330
128
100
AcDbEntity
  8
1
  6
CONTINUOUS
 62
   252
100
AcDbVertex
100
AcDb2dVertex
 10
56.0
 20
156.0
 30
0.0
  0
VERTEX
  5
12A
330
128
100
AcDbEntity
  8
1
  6
CONTINUOUS
 62
   252
100
AcDbVertex
100
AcDb2dVertex
 10
56.0
 20
160.48
 30
0.0
  0
VERTEX
  5
12B
330
128
100
AcDbEntity
  8
1
  6
CONTINUOUS
 62
   252
100
AcDbVertex
100
AcDb2dVertex
 10
56.0
 20
164.0
 30
0.0
  0
SEQEND
  5
12C
330
128
100
AcDbEntity
  8
1
  6
CONTINUOUS
 62
   252
  0
POLYLINE
  5
12D
330
1F
100
AcDbEntity
  8
1
  6
CONTINUOUS
 62
   252
100
AcDb2dPolyline
 66
     1
 10
0.0
 20
0.0
 30
0.0
  0
VERTEX
  5
12E
330
12D
100
AcDbEntity
  8
1
  6
CONTINUOUS
 62
   252
100
AcDbVertex
100
AcDb2dVertex
 10
56.0
 20
156.0
 30
0.0
  0
VERTEX
  5
12F
330
12D
100
AcDbEntity
  8
1
  6
CONTINUOUS
 62
   252
100
AcDbVertex
100
AcDb2dVertex
 10
56.0
 20
160.48
 30
0.0
  0
VERTEX
  5
130
330
12D
100
AcDbEntity
  8
1
  6
CONTINUOUS
 62
   252
100
AcDbVertex
100
AcDb2dVertex
 10
56.0
 20
164.0
 30
0.0
  0
SEQEND
  5
131
330
12D
100
AcDbEntity
  8
1
  6
CONTINUOUS
 62
   252
  0
POLYLINE
  5
132
330
1F
100
AcDbEntity
  8
1
  6
CONTINUOUS
 62
   252
100
AcDb2dPolyline
 66
     1
 10
0.0
 20
0.0
 30
0.0
  0
VERTEX
  5
133
330
132
100
AcDbEntity
  8
1
  6
CONTINUOUS
 62
   252
100
AcDbVertex
100
AcDb2dVertex
 10
56.0
 20
68.0
 30
0.0
  0
VERTEX
  5
134
330
132
100
AcDbEntity
  8
1
  6
CONTINUOUS
 62
   252
100
AcDbVertex
100
AcDb2dVertex
 10
54.792893
 20
68.0
 30
0.0
  0
VERTEX
  5
135
330
132
100
AcDbEntity
  8
1
  6
CONTINUOUS
 62
   252
100
AcDbVertex
100
AcDb2dVertex
 10
53.585786
 20
68.0
 30
0.0
  0
VERTEX
  5
136
330
132
100
AcDbEntity
  8
1
  6
CONTINUOUS
 62
   252
100
AcDbVertex
100
AcDb2dVertex
 10
52.37868
 20
68.0
 30
0.0
  0
VERTEX
  5
137
330
132
100
AcDbEntity
  8
1
  6
CONTINUOUS
 62
   252
100
AcDbVertex
100
AcDb2dVertex
 10
51.144461
 20
68.092564
 30
0.0
  0
VERTEX
  5
138
330
132
100
AcDbEntity
  8
1
  6
CONTINUOUS
 62
   252
100
AcDbVertex
100
AcDb2dVertex
 10
49.894945
 20
68.598714
 30
0.0
  0
VERTEX
  5
139
330
132
100
AcDbEntity
  8
1
  6
CONTINUOUS
 62
   252
100
AcDbVertex
100
AcDb2dVertex
 10
48.850424
 20
69.5342
 30
0.0
  0
VERTEX
  5
13A
330
132
100
AcDbEntity
  8
1
  6
CONTINUOUS
 62
   252
100
AcDbVertex
100
AcDb2dVertex
 10
48.202
 20
70.744931
 30
0.0
  0
VERTEX
  5
13B
330
132
100
AcDbEntity
  8
1
  6
CONTINUOUS
 62
   252
100
AcDbVertex
100
AcDb2dVertex
 10
48.0
 20
72.0
 30
0.0
  0
VERTEX
  5
13C
330
132
100
AcDbEntity
  8
1
  6
CONTINUOUS
 62
   252
100
AcDbVertex
100
AcDb2dVertex
 10
48.202
 20
73.255069
 30
0.0
  0
VERTEX
  5
13D
330
132
100
AcDbEntity
  8
1
  6
CONTINUOUS
 62
   252
100
AcDbVertex
100
AcDb2dVertex
 10
48.850424
 20
74.4658
 30
0.0
  0
VERTEX
  5
13E
330
132
100
AcDbEntity
  8
1
  6
CONTINUOUS
 62
   252
100
AcDbVertex
100
AcDb2dVertex
 10
49.894945
 20
75.401286
 30
0.0
  0
VERTEX
  5
13F
330
132
100
AcDbEntity
  8
1
  6
CONTINUOUS
 62
   252
100
AcDbVertex
100
AcDb2dVertex
 10
51.144461
 20
75.907436
 30
0.0
  0
VERTEX
  5
140
330
132
100
AcDbEntity
  8
1
  6
CONTINUOUS
 62
   252
100
AcDbVertex
100
AcDb2dVertex
 10
52.37868
 20
76.0
 30
0.0
  0
VERTEX
  5
141
330
132
100
AcDbEntity
  8
1
  6
CONTINUOUS
 62
   252
100
AcDbVertex
100
AcDb2dVertex
 10
53.585786
 20
76.0
 30
0.0
  0
VERTEX
  5
142
330
132
100
AcDbEntity
  8
1
  6
CONTINUOUS
 62
   252
100
AcDbVertex
100
AcDb2dVertex
 10
54.792893
 20
76.0
 30
0.0
  0
VERTEX
  5
143
330
132
100
AcDbEntity
  8
1
  6
CONTINUOUS
 62
   252
100
AcDbVertex
100
AcDb2dVertex
 10
56.0
 20
76.0
 30
0.0
  0
SEQEND
  5
144
330
132
100
AcDbEntity
  8
1
  6
CONTINUOUS
 62
   252
  0
POLYLINE
  5
145
330
1F
100
AcDbEntity
  8
1
  6
CONTINUOUS
 62
   252
100
AcDb2dPolyline
 66
     1
 10
0.0
 20
0.0
 30
0.0
  0
VERTEX
  5
146
330
145
100
AcDbEntity
  8
1
  6
CONTINUOUS
 62
   252
100
AcDbVertex
100
AcDb2dVertex
 10
56.0
 20
-156.0
 30
0.0
  0
VERTEX
  5
147
330
145
100
AcDbEntity
  8
1
  6
CONTINUOUS
 62
   252
100
AcDbVertex
100
AcDb2dVertex
 10
54.792893
 20
-156.0
 30
0.0
  0
VERTEX
  5
148
330
145
100
AcDbEntity
  8
1
  6
CONTINUOUS
 62
   252
100
AcDbVertex
100
AcDb2dVertex
 10
53.585786
 20
-156.0
 30
0.0
  0
VERTEX
  5
149
330
145
100
AcDbEntity
  8
1
  6
CONTINUOUS
 62
   252
100
AcDbVertex
100
AcDb2dVertex
 10
52.37868
 20
-156.0
 30
0.0
  0
VERTEX
  5
14A
330
145
100
AcDbEntity
  8
1
  6
CONTINUOUS
 62
   252
100
AcDbVertex
100
AcDb2dVertex
 10
51.144461
 20
-155.907436
 30
0.0
  0
VERTEX
  5
14B
330
145
100
AcDbEntity
  8
1
  6
CONTINUOUS
 62
   252
100
AcDbVertex
100
AcDb2dVertex
 10
49.894945
 20
-155.401286
 30
0.0
  0
VERTEX
  5
14C
330
145
100
AcDbEntity
  8
1
  6
CONTINUOUS
 62
   252
100
AcDbVertex
100
AcDb2dVertex
 10
48.850424
 20
-154.4658
 30
0.0
  0
VERTEX
  5
14D
330
145
100
AcDbEntity
  8
1
  6
CONTINUOUS
 62
   252
100
AcDbVertex
100
AcDb2dVertex
 10
48.202
 20
-153.255069
 30
0.0
  0
VERTEX
  5
14E
330
145
100
AcDbEntity
  8
1
  6
CONTINUOUS
 62
   252
100
AcDbVertex
100
AcDb2dVertex
 10
48.0
 20
-152.0
 30
0.0
  0
VERTEX
  5
14F
330
145
100
AcDbEntity
  8
1
  6
CONTINUOUS
 62
   252
100
AcDbVertex
100
AcDb2dVertex
 10
48.202
 20
-150.744931
 30
0.0
  0
VERTEX
  5
150
330
145
100
AcDbEntity
  8
1
  6
CONTINUOUS
 62
   252
100
AcDbVertex
100
AcDb2dVertex
 10
48.850424
 20
-149.5342
 30
0.0
  0
VERTEX
  5
151
330
145
100
AcDbEntity
  8
1
  6
CONTINUOUS
 62
   252
100
AcDbVertex
100
AcDb2dVertex
 10
49.894945
 20
-148.598714
 30
0.0
  0
VERTEX
  5
152
330
145
100
AcDbEntity
  8
1
  6
CONTINUOUS
 62
   252
100
AcDbVertex
100
AcDb2dVertex
 10
51.144461
 20
-148.092564
 30
0.0
  0
VERTEX
  5
153
330
145
100
AcDbEntity
  8
1
  6
CONTINUOUS
 62
   252
100
AcDbVertex
100
AcDb2dVertex
 10
52.37868
 20
-148.0
 30
0.0
  0
VERTEX
  5
154
330
145
100
AcDbEntity
  8
1
  6
CONTINUOUS
 62
   252
100
AcDbVertex
100
AcDb2dVertex
 10
53.585786
 20
-148.0
 30
0.0
  0
VERTEX
  5
155
330
145
100
AcDbEntity
  8
1
  6
CONTINUOUS
 62
   252
100
AcDbVertex
100
AcDb2dVertex
 10
54.792893
 20
-148.0
 30
0.0
  0
VERTEX
  5
156
330
145
100
AcDbEntity
  8
1
  6
CONTINUOUS
 62
   252
100
AcDbVertex
100
AcDb2dVertex
 10
56.0
 20
-148.0
 30
0.0
  0
SEQEND
  5
157
330
145
100
AcDbEntity
  8
1
  6
CONTINUOUS
 62
   252
  0
POLYLINE
  5
158
330
1F
100
AcDbEntity
  8
1
  6
CONTINUOUS
 62
   252
100
AcDb2dPolyline
 66
     1
 10
0.0
 20
0.0
 30
0.0
  0
VERTEX
  5
159
330
158
100
AcDbEntity
  8
1
  6
CONTINUOUS
 62
   252
100
AcDbVertex
100
AcDb2dVertex
 10
56.0
 20
-148.0
 30
0.0
  0
VERTEX
  5
15A
330
158
100
AcDbEntity
  8
1
  6
CONTINUOUS
 62
   252
100
AcDbVertex
100
AcDb2dVertex
 10
56.0
 20
-36.0
 30
0.0
  0
VERTEX
  5
15B
330
158
100
AcDbEntity
  8
1
  6
CONTINUOUS
 62
   252
100
AcDbVertex
100
AcDb2dVertex
 10
56.0
 20
52.0
 30
0.0
  0
SEQEND
  5
15C
330
158
100
AcDbEntity
  8
1
  6
CONTINUOUS
 62
   252
  0
POLYLINE
  5
15D
330
1F
100
AcDbEntity
  8
1
  6
CONTINUOUS
 62
   252
100
AcDb2dPolyline
 66
     1
 10
0.0
 20
0.0
 30
0.0
  0
VERTEX
  5
15E
330
15D
100
AcDbEntity
  8
1
  6
CONTINUOUS
 62
   252
100
AcDbVertex
100
AcDb2dVertex
 10
-56.0
 20
156.0
 30
0.0
  0
VERTEX
  5
15F
330
15D
100
AcDbEntity
  8
1
  6
CONTINUOUS
 62
   252
100
AcDbVertex
100
AcDb2dVertex
 10
-54.792893
 20
156.0
 30
0.0
  0
VERTEX
  5
160
330
15D
100
AcDbEntity
  8
1
  6
CONTINUOUS
 62
   252
100
AcDbVertex
100
AcDb2dVertex
 10
-53.585786
 20
156.0
 30
0.0
  0
VERTEX
  5
161
330
15D
100
AcDbEntity
  8
1
  6
CONTINUOUS
 62
   252
100
AcDbVertex
100
AcDb2dVertex
 10
-52.37868
 20
156.0
 30
0.0
  0
VERTEX
  5
162
330
15D
100
AcDbEntity
  8
1
  6
CONTINUOUS
 62
   252
100
AcDbVertex
100
AcDb2dVertex
 10
-51.144461
 20
155.907436
 30
0.0
  0
VERTEX
  5
163
330
15D
100
AcDbEntity
  8
1
  6
CONTINUOUS
 62
   252
100
AcDbVertex
100
AcDb2dVertex
 10
-49.894945
 20
155.401286
 30
0.0
  0
VERTEX
  5
164
330
15D
100
AcDbEntity
  8
1
  6
CONTINUOUS
 62
   252
100
AcDbVertex
100
AcDb2dVertex
 10
-48.850424
 20
154.4658
 30
0.0
  0
VERTEX
  5
165
330
15D
100
AcDbEntity
  8
1
  6
CONTINUOUS
 62
   252
100
AcDbVertex
100
AcDb2dVertex
 10
-48.202
 20
153.255069
 30
0.0
  0
VERTEX
  5
166
330
15D
100
AcDbEntity
  8
1
  6
CONTINUOUS
 62
   252
100
AcDbVertex
100
AcDb2dVertex
 10
-48.0
 20
152.0
 30
0.0
  0
VERTEX
  5
167
330
15D
100
AcDbEntity
  8
1
  6
CONTINUOUS
 62
   252
100
AcDbVertex
100
AcDb2dVertex
 10
-48.202
 20
150.744931
 30
0.0
  0
VERTEX
  5
168
330
15D
100
AcDbEntity
  8
1
  6
CONTINUOUS
 62
   252
100
AcDbVertex
100
AcDb2dVertex
 10
-48.850424
 20
149.5342
 30
0.0
  0
VERTEX
  5
169
330
15D
100
AcDbEntity
  8
1
  6
CONTINUOUS
 62
   252
100
AcDbVertex
100
AcDb2dVertex
 10
-49.894945
 20
148.598714
 30
0.0
  0
VERTEX
  5
16A
330
15D
100
AcDbEntity
  8
1
  6
CONTINUOUS
 62
   252
100
AcDbVertex
100
AcDb2dVertex
 10
-51.144461
 20
148.092564
 30
0.0
  0
VERTEX
  5
16B
330
15D
100
AcDbEntity
  8
1
  6
CONTINUOUS
 62
   252
100
AcDbVertex
100
AcDb2dVertex
 10
-52.37868
 20
148.0
 30
0.0
  0
VERTEX
  5
16C
330
15D
100
AcDbEntity
  8
1
  6
CONTINUOUS
 62
   252
100
AcDbVertex
100
AcDb2dVertex
 10
-53.585786
 20
148.0
 30
0.0
  0
VERTEX
  5
16D
330
15D
100
AcDbEntity
  8
1
  6
CONTINUOUS
 62
   252
100
AcDbVertex
100
AcDb2dVertex
 10
-54.792893
 20
148.0
 30
0.0
  0
VERTEX
  5
16E
330
15D
100
AcDbEntity
  8
1
  6
CONTINUOUS
 62
   252
100
AcDbVertex
100
AcDb2dVertex
 10
-56.0
 20
148.0
 30
0.0
  0
SEQEND
  5
16F
330
15D
100
AcDbEntity
  8
1
  6
CONTINUOUS
 62
   252
  0
POLYLINE
  5
170
330
1F
100
AcDbEntity
  8
1
  6
CONTINUOUS
 62
   252
100
AcDb2dPolyline
 66
     1
 10
0.0
 20
0.0
 30
0.0
  0
VERTEX
  5
171
330
170
100
AcDbEntity
  8
1
  6
CONTINUOUS
 62
   252
100
AcDbVertex
100
AcDb2dVertex
 10
-56.0
 20
-148.0
 30
0.0
  0
VERTEX
  5
172
330
170
100
AcDbEntity
  8
1
  6
CONTINUOUS
 62
   252
100
AcDbVertex
100
AcDb2dVertex
 10
-54.851472
 20
-148.0
 30
0.0
  0
VERTEX
  5
173
330
170
100
AcDbEntity
  8
1
  6
CONTINUOUS
 62
   252
100
AcDbVertex
100
AcDb2dVertex
 10
-53.702944
 20
-148.0
 30
0.0
  0
VERTEX
  5
174
330
170
100
AcDbEntity
  8
1
  6
CONTINUOUS
 62
   252
100
AcDbVertex
100
AcDb2dVertex
 10
-52.554416
 20
-148.0
 30
0.0
  0
VERTEX
  5
175
330
170
100
AcDbEntity
  8
1
  6
CONTINUOUS
 62
   252
100
AcDbVertex
100
AcDb2dVertex
 10
-51.390609
 20
-148.046692
 30
0.0
  0
VERTEX
  5
176
330
170
100
AcDbEntity
  8
1
  6
CONTINUOUS
 62
   252
100
AcDbVertex
100
AcDb2dVertex
 10
-50.188387
 20
-148.433761
 30
0.0
  0
VERTEX
  5
177
330
170
100
AcDbEntity
  8
1
  6
CONTINUOUS
 62
   252
100
AcDbVertex
100
AcDb2dVertex
 10
-49.280145
 20
-149.067017
 30
0.0
  0
VERTEX
  5
178
330
170
100
AcDbEntity
  8
1
  6
CONTINUOUS
 62
   252
100
AcDbVertex
100
AcDb2dVertex
 10
-48.57729
 20
-149.929963
 30
0.0
  0
VERTEX
  5
179
330
170
100
AcDbEntity
  8
1
  6
CONTINUOUS
 62
   252
100
AcDbVertex
100
AcDb2dVertex
 10
-48.149086
 20
-150.918123
 30
0.0
  0
VERTEX
  5
17A
330
170
100
AcDbEntity
  8
1
  6
CONTINUOUS
 62
   252
100
AcDbVertex
100
AcDb2dVertex
 10
-48.000928
 20
-151.913841
 30
0.0
  0
VERTEX
  5
17B
330
170
100
AcDbEntity
  8
1
  6
CONTINUOUS
 62
   252
100
AcDbVertex
100
AcDb2dVertex
 10
-48.102742
 20
-152.900767
 30
0.0
  0
VERTEX
  5
17C
330
170
100
AcDbEntity
  8
1
  6
CONTINUOUS
 62
   252
100
AcDbVertex
100
AcDb2dVertex
 10
-48.479313
 20
-153.898621
 30
0.0
  0
VERTEX
  5
17D
330
170
100
AcDbEntity
  8
1
  6
CONTINUOUS
 62
   252
100
AcDbVertex
100
AcDb2dVertex
 10
-49.136264
 20
-154.792671
 30
0.0
  0
VERTEX
  5
17E
330
170
100
AcDbEntity
  8
1
  6
CONTINUOUS
 62
   252
100
AcDbVertex
100
AcDb2dVertex
 10
-50.015208
 20
-155.472838
 30
0.0
  0
VERTEX
  5
17F
330
170
100
AcDbEntity
  8
1
  6
CONTINUOUS
 62
   252
100
AcDbVertex
100
AcDb2dVertex
 10
-51.008697
 20
-155.875219
 30
0.0
  0
VERTEX
  5
180
330
170
100
AcDbEntity
  8
1
  6
CONTINUOUS
 62
   252
100
AcDbVertex
100
AcDb2dVertex
 10
-52.0
 20
-156.0
 30
0.0
  0
SEQEND
  5
181
330
170
100
AcDbEntity
  8
1
  6
CONTINUOUS
 62
   252
  0
POLYLINE
  5
182
330
1F
100
AcDbEntity
  8
1
  6
CONTINUOUS
 62
   252
100
AcDb2dPolyline
 66
     1
 10
0.0
 20
0.0
 30
0.0
  0
VERTEX
  5
183
330
182
100
AcDbEntity
  8
1
  6
CONTINUOUS
 62
   252
100
AcDbVertex
100
AcDb2dVertex
 10
-56.0
 20
36.0
 30
0.0
  0
VERTEX
  5
184
330
182
100
AcDbEntity
  8
1
  6
CONTINUOUS
 62
   252
100
AcDbVertex
100
AcDb2dVertex
 10
-56.0
 20
-4.32
 30
0.0
  0
VERTEX
  5
185
330
182
100
AcDbEntity
  8
1
  6
CONTINUOUS
 62
   252
100
AcDbVertex
100
AcDb2dVertex
 10
-56.0
 20
-36.0
 30
0.0
  0
SEQEND
  5
186
330
182
100
AcDbEntity
  8
1
  6
CONTINUOUS
 62
   252
  0
POLYLINE
  5
187
330
1F
100
AcDbEntity
  8
1
  6
CONTINUOUS
 62
   252
100
AcDb2dPolyline
 66
     1
 10
0.0
 20
0.0
 30
0.0
  0
VERTEX
  5
188
330
187
100
AcDbEntity
  8
1
  6
CONTINUOUS
 62
   252
100
AcDbVertex
100
AcDb2dVertex
 10
-56.0
 20
164.0
 30
0.0
  0
VERTEX
  5
189
330
187
100
AcDbEntity
  8
1
  6
CONTINUOUS
 62
   252
100
AcDbVertex
100
AcDb2dVertex
 10
-56.0
 20
159.52
 30
0.0
  0
VERTEX
  5
18A
330
187
100
AcDbEntity
  8
1
  6
CONTINUOUS
 62
   252
100
AcDbVertex
100
AcDb2dVertex
 10
-56.0
 20
156.0
 30
0.0
  0
SEQEND
  5
18B
330
187
100
AcDbEntity
  8
1
  6
CONTINUOUS
 62
   252
  0
POLYLINE
  5
18C
330
1F
100
AcDbEntity
  8
1
  6
CONTINUOUS
 62
   252
100
AcDb2dPolyline
 66
     1
 10
0.0
 20
0.0
 30
0.0
  0
VERTEX
  5
18D
330
18C
100
AcDbEntity
  8
1
  6
CONTINUOUS
 62
   252
100
AcDbVertex
100
AcDb2dVertex
 10
56.0
 20
60.0
 30
0.0
  0
VERTEX
  5
18E
330
18C
100
AcDbEntity
  8
1
  6
CONTINUOUS
 62
   252
100
AcDbVertex
100
AcDb2dVertex
 10
56.0
 20
64.48
 30
0.0
  0
VERTEX
  5
18F
330
18C
100
AcDbEntity
  8
1
  6
CONTINUOUS
 62
   252
100
AcDbVertex
100
AcDb2dVertex
 10
56.0
 20
68.0
 30
0.0
  0
SEQEND
  5
190
330
18C
100
AcDbEntity
  8
1
  6
CONTINUOUS
 62
   252
  0
POLYLINE
  5
191
330
1F
100
AcDbEntity
  8
1
  6
CONTINUOUS
 62
   252
100
AcDb2dPolyline
 66
     1
 10
0.0
 20
0.0
 30
0.0
  0
VERTEX
  5
192
330
191
100
AcDbEntity
  8
1
  6
CONTINUOUS
 62
   252
100
AcDbVertex
100
AcDb2dVertex
 10
56.0
 20
-164.0
 30
0.0
  0
VERTEX
  5
193
330
191
100
AcDbEntity
  8
1
  6
CONTINUOUS
 62
   252
100
AcDbVertex
100
AcDb2dVertex
 10
56.0
 20
-159.52
 30
0.0
  0
VERTEX
  5
194
330
191
100
AcDbEntity
  8
1
  6
CONTINUOUS
 62
   252
100
AcDbVertex
100
AcDb2dVertex
 10
56.0
 20
-156.0
 30
0.0
  0
SEQEND
  5
195
330
191
100
AcDbEntity
  8
1
  6
CONTINUOUS
 62
   252
  0
POLYLINE
  5
196
330
1F
100
AcDbEntity
  8
1
  6
CONTINUOUS
 62
   252
100
AcDb2dPolyline
 66
     1
 10
0.0
 20
0.0
 30
0.0
  0
VERTEX
  5
197
330
196
100
AcDbEntity
  8
1
  6
CONTINUOUS
 62
   252
100
AcDbVertex
100
AcDb2dVertex
 10
-52.0
 20
-156.0
 30
0.0
  0
VERTEX
  5
198
330
196
100
AcDbEntity
  8
1
  6
CONTINUOUS
 62
   252
100
AcDbVertex
100
AcDb2dVertex
 10
-54.24
 20
-156.0
 30
0.0
  0
VERTEX
  5
199
330
196
100
AcDbEntity
  8
1
  6
CONTINUOUS
 62
   252
100
AcDbVertex
100
AcDb2dVertex
 10
-56.0
 20
-156.0
 30
0.0
  0
SEQEND
  5
19A
330
196
100
AcDbEntity
  8
1
  6
CONTINUOUS
 62
   252
  0
POLYLINE
  5
19B
330
1F
100
AcDbEntity
  8
1
  6
CONTINUOUS
 62
   252
100
AcDb2dPolyline
 66
     1
 10
0.0
 20
0.0
 30
0.0
  0
VERTEX
  5
19C
330
19B
100
AcDbEntity
  8
1
  6
CONTINUOUS
 62
   252
100
AcDbVertex
100
AcDb2dVertex
 10
-56.0
 20
148.0
 30
0.0
  0
VERTEX
  5
19D
330
19B
100
AcDbEntity
  8
1
  6
CONTINUOUS
 62
   252
100
AcDbVertex
100
AcDb2dVertex
 10
-56.0
 20
89.76
 30
0.0
  0
VERTEX
  5
19E
330
19B
100
AcDbEntity
  8
1
  6
CONTINUOUS
 62
   252
100
AcDbVertex
100
AcDb2dVertex
 10
-56.0
 20
44.0
 30
0.0
  0
SEQEND
  5
19F
330
19B
100
AcDbEntity
  8
1
  6
CONTINUOUS
 62
   252
  0
POLYLINE
  5
1A0
330
1F
100
AcDbEntity
  8
1
  6
CONTINUOUS
 62
   252
100
AcDb2dPolyline
 66
     1
 10
0.0
 20
0.0
 30
0.0
  0
VERTEX
  5
1A1
330
1A0
100
AcDbEntity
  8
1
  6
CONTINUOUS
 62
   252
100
AcDbVertex
100
AcDb2dVertex
 10
-56.0
 20
-36.0
 30
0.0
  0
VERTEX
  5
1A2
330
1A0
100
AcDbEntity
  8
1
  6
CONTINUOUS
 62
   252
100
AcDbVertex
100
AcDb2dVertex
 10
-54.792893
 20
-36.0
 30
0.0
  0
VERTEX
  5
1A3
330
1A0
100
AcDbEntity
  8
1
  6
CONTINUOUS
 62
   252
100
AcDbVertex
100
AcDb2dVertex
 10
-53.585786
 20
-36.0
 30
0.0
  0
VERTEX
  5
1A4
330
1A0
100
AcDbEntity
  8
1
  6
CONTINUOUS
 62
   252
100
AcDbVertex
100
AcDb2dVertex
 10
-52.37868
 20
-36.0
 30
0.0
  0
VERTEX
  5
1A5
330
1A0
100
AcDbEntity
  8
1
  6
CONTINUOUS
 62
   252
100
AcDbVertex
100
AcDb2dVertex
 10
-51.144461
 20
-36.092564
 30
0.0
  0
VERTEX
  5
1A6
330
1A0
100
AcDbEntity
  8
1
  6
CONTINUOUS
 62
   252
100
AcDbVertex
100
AcDb2dVertex
 10
-49.894945
 20
-36.598714
 30
0.0
  0
VERTEX
  5
1A7
330
1A0
100
AcDbEntity
  8
1
  6
CONTINUOUS
 62
   252
100
AcDbVertex
100
AcDb2dVertex
 10
-48.850424
 20
-37.5342
 30
0.0
  0
VERTEX
  5
1A8
330
1A0
100
AcDbEntity
  8
1
  6
CONTINUOUS
 62
   252
100
AcDbVertex
100
AcDb2dVertex
 10
-48.202
 20
-38.744931
 30
0.0
  0
VERTEX
  5
1A9
330
1A0
100
AcDbEntity
  8
1
  6
CONTINUOUS
 62
   252
100
AcDbVertex
100
AcDb2dVertex
 10
-48.0
 20
-40.0
 30
0.0
  0
VERTEX
  5
1AA
330
1A0
100
AcDbEntity
  8
1
  6
CONTINUOUS
 62
   252
100
AcDbVertex
100
AcDb2dVertex
 10
-48.202
 20
-41.255069
 30
0.0
  0
VERTEX
  5
1AB
330
1A0
100
AcDbEntity
  8
1
  6
CONTINUOUS
 62
   252
100
AcDbVertex
100
AcDb2dVertex
 10
-48.850424
 20
-42.4658
 30
0.0
  0
VERTEX
  5
1AC
330
1A0
100
AcDbEntity
  8
1
  6
CONTINUOUS
 62
   252
100
AcDbVertex
100
AcDb2dVertex
 10
-49.894945
 20
-43.401286
 30
0.0
  0
VERTEX
  5
1AD
330
1A0
100
AcDbEntity
  8
1
  6
CONTINUOUS
 62
   252
100
AcDbVertex
100
AcDb2dVertex
 10
-51.144461
 20
-43.907436
 30
0.0
  0
VERTEX
  5
1AE
330
1A0
100
AcDbEntity
  8
1
  6
CONTINUOUS
 62
   252
100
AcDbVertex
100
AcDb2dVertex
 10
-52.37868
 20
-44.0
 30
0.0
  0
VERTEX
  5
1AF
330
1A0
100
AcDbEntity
  8
1
  6
CONTINUOUS
 62
   252
100
AcDbVertex
100
AcDb2dVertex
 10
-53.585786
 20
-44.0
 30
0.0
  0
VERTEX
  5
1B0
330
1A0
100
AcDbEntity
  8
1
  6
CONTINUOUS
 62
   252
100
AcDbVertex
100
AcDb2dVertex
 10
-54.792893
 20
-44.0
 30
0.0
  0
VERTEX
  5
1B1
330
1A0
100
AcDbEntity
  8
1
  6
CONTINUOUS
 62
   252
100
AcDbVertex
100
AcDb2dVertex
 10
-56.0
 20
-44.0
 30
0.0
  0
SEQEND
  5
1B2
330
1A0
100
AcDbEntity
  8
1
  6
CONTINUOUS
 62
   252
  0
POLYLINE
  5
1B3
330
1F
100
AcDbEntity
  8
1
  6
CONTINUOUS
 62
   252
100
AcDb2dPolyline
 66
     1
 10
0.0
 20
0.0
 30
0.0
  0
VERTEX
  5
1B4
330
1B3
100
AcDbEntity
  8
1
  6
CONTINUOUS
 62
   252
100
AcDbVertex
100
AcDb2dVertex
 10
-56.0
 20
156.0
 30
0.0
  0
VERTEX
  5
1B5
330
1B3
100
AcDbEntity
  8
1
  6
CONTINUOUS
 62
   252
100
AcDbVertex
100
AcDb2dVertex
 10
-54.792893
 20
156.0
 30
0.0
  0
VERTEX
  5
1B6
330
1B3
100
AcDbEntity
  8
1
  6
CONTINUOUS
 62
   252
100
AcDbVertex
100
AcDb2dVertex
 10
-53.585786
 20
156.0
 30
0.0
  0
VERTEX
  5
1B7
330
1B3
100
AcDbEntity
  8
1
  6
CONTINUOUS
 62
   252
100
AcDbVertex
100
AcDb2dVertex
 10
-52.37868
 20
156.0
 30
0.0
  0
VERTEX
  5
1B8
330
1B3
100
AcDbEntity
  8
1
  6
CONTINUOUS
 62
   252
100
AcDbVertex
100
AcDb2dVertex
 10
-51.144461
 20
155.907436
 30
0.0
  0
VERTEX
  5
1B9
330
1B3
100
AcDbEntity
  8
1
  6
CONTINUOUS
 62
   252
100
AcDbVertex
100
AcDb2dVertex
 10
-49.894945
 20
155.401286
 30
0.0
  0
VERTEX
  5
1BA
330
1B3
100
AcDbEntity
  8
1
  6
CONTINUOUS
 62
   252
100
AcDbVertex
100
AcDb2dVertex
 10
-48.850424
 20
154.4658
 30
0.0
  0
VERTEX
  5
1BB
330
1B3
100
AcDbEntity
  8
1
  6
CONTINUOUS
 62
   252
100
AcDbVertex
100
AcDb2dVertex
 10
-48.202
 20
153.255069
 30
0.0
  0
VERTEX
  5
1BC
330
1B3
100
AcDbEntity
  8
1
  6
CONTINUOUS
 62
   252
100
AcDbVertex
100
AcDb2dVertex
 10
-48.0
 20
152.0
 30
0.0
  0
VERTEX
  5
1BD
330
1B3
100
AcDbEntity
  8
1
  6
CONTINUOUS
 62
   252
100
AcDbVertex
100
AcDb2dVertex
 10
-48.202
 20
150.744931
 30
0.0
  0
VERTEX
  5
1BE
330
1B3
100
AcDbEntity
  8
1
  6
CONTINUOUS
 62
   252
100
AcDbVertex
100
AcDb2dVertex
 10
-48.850424
 20
149.5342
 30
0.0
  0
VERTEX
  5
1BF
330
1B3
100
AcDbEntity
  8
1
  6
CONTINUOUS
 62
   252
100
AcDbVertex
100
AcDb2dVertex
 10
-49.894945
 20
148.598714
 30
0.0
  0
VERTEX
  5
1C0
330
1B3
100
AcDbEntity
  8
1
  6
CONTINUOUS
 62
   252
100
AcDbVertex
100
AcDb2dVertex
 10
-51.144461
 20
148.092564
 30
0.0
  0
VERTEX
  5
1C1
330
1B3
100
AcDbEntity
  8
1
  6
CONTINUOUS
 62
   252
100
AcDbVertex
100
AcDb2dVertex
 10
-52.37868
 20
148.0
 30
0.0
  0
VERTEX
  5
1C2
330
1B3
100
AcDbEntity
  8
1
  6
CONTINUOUS
 62
   252
100
AcDbVertex
100
AcDb2dVertex
 10
-53.585786
 20
148.0
 30
0.0
  0
VERTEX
  5
1C3
330
1B3
100
AcDbEntity
  8
1
  6
CONTINUOUS
 62
   252
100
AcDbVertex
100
AcDb2dVertex
 10
-54.792893
 20
148.0
 30
0.0
  0
VERTEX
  5
1C4
330
1B3
100
AcDbEntity
  8
1
  6
CONTINUOUS
 62
   252
100
AcDbVertex
100
AcDb2dVertex
 10
-56.0
 20
148.0
 30
0.0
  0
SEQEND
  5
1C5
330
1B3
100
AcDbEntity
  8
1
  6
CONTINUOUS
 62
   252
  0
POLYLINE
  5
1C6
330
1F
100
AcDbEntity
  8
1
  6
CONTINUOUS
 62
   252
100
AcDb2dPolyline
 66
     1
 10
0.0
 20
0.0
 30
0.0
  0
VERTEX
  5
1C7
330
1C6
100
AcDbEntity
  8
1
  6
CONTINUOUS
 62
   252
100
AcDbVertex
100
AcDb2dVertex
 10
56.0
 20
164.0
 30
0.0
  0
VERTEX
  5
1C8
330
1C6
100
AcDbEntity
  8
1
  6
CONTINUOUS
 62
   252
100
AcDbVertex
100
AcDb2dVertex
 10
-6.72
 20
164.0
 30
0.0
  0
VERTEX
  5
1C9
330
1C6
100
AcDbEntity
  8
1
  6
CONTINUOUS
 62
   252
100
AcDbVertex
100
AcDb2dVertex
 10
-56.0
 20
164.0
 30
0.0
  0
SEQEND
  5
1CA
330
1C6
100
AcDbEntity
  8
1
  6
CONTINUOUS
 62
   252
  0
POLYLINE
  5
1CB
330
1F
100
AcDbEntity
  8
1
  6
CONTINUOUS
 62
   252
100
AcDb2dPolyline
 66
     1
 10
0.0
 20
0.0
 30
0.0
  0
VERTEX
  5
1CC
330
1CB
100
AcDbEntity
  8
1
  6
CONTINUOUS
 62
   252
100
AcDbVertex
100
AcDb2dVertex
 10
56.0
 20
68.0
 30
0.0
  0
VERTEX
  5
1CD
330
1CB
100
AcDbEntity
  8
1
  6
CONTINUOUS
 62
   252
100
AcDbVertex
100
AcDb2dVertex
 10
54.792893
 20
68.0
 30
0.0
  0
VERTEX
  5
1CE
330
1CB
100
AcDbEntity
  8
1
  6
CONTINUOUS
 62
   252
100
AcDbVertex
100
AcDb2dVertex
 10
53.585786
 20
68.0
 30
0.0
  0
VERTEX
  5
1CF
330
1CB
100
AcDbEntity
  8
1
  6
CONTINUOUS
 62
   252
100
AcDbVertex
100
AcDb2dVertex
 10
52.37868
 20
68.0
 30
0.0
  0
VERTEX
  5
1D0
330
1CB
100
AcDbEntity
  8
1
  6
CONTINUOUS
 62
   252
100
AcDbVertex
100
AcDb2dVertex
 10
51.144461
 20
68.092564
 30
0.0
  0
VERTEX
  5
1D1
330
1CB
100
AcDbEntity
  8
1
  6
CONTINUOUS
 62
   252
100
AcDbVertex
100
AcDb2dVertex
 10
49.894945
 20
68.598714
 30
0.0
  0
VERTEX
  5
1D2
330
1CB
100
AcDbEntity
  8
1
  6
CONTINUOUS
 62
   252
100
AcDbVertex
100
AcDb2dVertex
 10
48.850424
 20
69.5342
 30
0.0
  0
VERTEX
  5
1D3
330
1CB
100
AcDbEntity
  8
1
  6
CONTINUOUS
 62
   252
100
AcDbVertex
100
AcDb2dVertex
 10
48.202
 20
70.744931
 30
0.0
  0
VERTEX
  5
1D4
330
1CB
100
AcDbEntity
  8
1
  6
CONTINUOUS
 62
   252
100
AcDbVertex
100
AcDb2dVertex
 10
48.0
 20
72.0
 30
0.0
  0
VERTEX
  5
1D5
330
1CB
100
AcDbEntity
  8
1
  6
CONTINUOUS
 62
   252
100
AcDbVertex
100
AcDb2dVertex
 10
48.202
 20
73.255069
 30
0.0
  0
VERTEX
  5
1D6
330
1CB
100
AcDbEntity
  8
1
  6
CONTINUOUS
 62
   252
100
AcDbVertex
100
AcDb2dVertex
 10
48.850424
 20
74.4658
 30
0.0
  0
VERTEX
  5
1D7
330
1CB
100
AcDbEntity
  8
1
  6
CONTINUOUS
 62
   252
100
AcDbVertex
100
AcDb2dVertex
 10
49.894945
 20
75.401286
 30
0.0
  0
VERTEX
  5
1D8
330
1CB
100
AcDbEntity
  8
1
  6
CONTINUOUS
 62
   252
100
AcDbVertex
100
AcDb2dVertex
 10
51.144461
 20
75.907436
 30
0.0
  0
VERTEX
  5
1D9
330
1CB
100
AcDbEntity
  8
1
  6
CONTINUOUS
 62
   252
100
AcDbVertex
100
AcDb2dVertex
 10
52.37868
 20
76.0
 30
0.0
  0
VERTEX
  5
1DA
330
1CB
100
AcDbEntity
  8
1
  6
CONTINUOUS
 62
   252
100
AcDbVertex
100
AcDb2dVertex
 10
53.585786
 20
76.0
 30
0.0
  0
VERTEX
  5
1DB
330
1CB
100
AcDbEntity
  8
1
  6
CONTINUOUS
 62
   252
100
AcDbVertex
100
AcDb2dVertex
 10
54.792893
 20
76.0
 30
0.0
  0
VERTEX
  5
1DC
330
1CB
100
AcDbEntity
  8
1
  6
CONTINUOUS
 62
   252
100
AcDbVertex
100
AcDb2dVertex
 10
56.0
 20
76.0
 30
0.0
  0
SEQEND
  5
1DD
330
1CB
100
AcDbEntity
  8
1
  6
CONTINUOUS
 62
   252
  0
POLYLINE
  5
1DE
330
1F
100
AcDbEntity
  8
1
  6
CONTINUOUS
 62
   252
100
AcDb2dPolyline
 66
     1
 10
0.0
 20
0.0
 30
0.0
  0
VERTEX
  5
1DF
330
1DE
100
AcDbEntity
  8
1
  6
CONTINUOUS
 62
   252
100
AcDbVertex
100
AcDb2dVertex
 10
56.0
 20
76.0
 30
0.0
  0
VERTEX
  5
1E0
330
1DE
100
AcDbEntity
  8
1
  6
CONTINUOUS
 62
   252
100
AcDbVertex
100
AcDb2dVertex
 10
56.0
 20
116.32
 30
0.0
  0
VERTEX
  5
1E1
330
1DE
100
AcDbEntity
  8
1
  6
CONTINUOUS
 62
   252
100
AcDbVertex
100
AcDb2dVertex
 10
56.0
 20
148.0
 30
0.0
  0
SEQEND
  5
1E2
330
1DE
100
AcDbEntity
  8
1
  6
CONTINUOUS
 62
   252
  0
POLYLINE
  5
1E3
330
1F
100
AcDbEntity
  8
1
  6
CONTINUOUS
 62
   252
100
AcDb2dPolyline
 66
     1
 10
0.0
 20
0.0
 30
0.0
  0
VERTEX
  5
1E4
330
1E3
100
AcDbEntity
  8
1
  6
CONTINUOUS
 62
   252
100
AcDbVertex
100
AcDb2dVertex
 10
56.0
 20
148.0
 30
0.0
  0
VERTEX
  5
1E5
330
1E3
100
AcDbEntity
  8
1
  6
CONTINUOUS
 62
   252
100
AcDbVertex
100
AcDb2dVertex
 10
54.792893
 20
148.0
 30
0.0
  0
VERTEX
  5
1E6
330
1E3
100
AcDbEntity
  8
1
  6
CONTINUOUS
 62
   252
100
AcDbVertex
100
AcDb2dVertex
 10
53.585786
 20
148.0
 30
0.0
  0
VERTEX
  5
1E7
330
1E3
100
AcDbEntity
  8
1
  6
CONTINUOUS
 62
   252
100
AcDbVertex
100
AcDb2dVertex
 10
52.37868
 20
148.0
 30
0.0
  0
VERTEX
  5
1E8
330
1E3
100
AcDbEntity
  8
1
  6
CONTINUOUS
 62
   252
100
AcDbVertex
100
AcDb2dVertex
 10
51.144461
 20
148.092564
 30
0.0
  0
VERTEX
  5
1E9
330
1E3
100
AcDbEntity
  8
1
  6
CONTINUOUS
 62
   252
100
AcDbVertex
100
AcDb2dVertex
 10
49.894945
 20
148.598714
 30
0.0
  0
VERTEX
  5
1EA
330
1E3
100
AcDbEntity
  8
1
  6
CONTINUOUS
 62
   252
100
AcDbVertex
100
AcDb2dVertex
 10
48.850424
 20
149.5342
 30
0.0
  0
VERTEX
  5
1EB
330
1E3
100
AcDbEntity
  8
1
  6
CONTINUOUS
 62
   252
100
AcDbVertex
100
AcDb2dVertex
 10
48.202
 20
150.744931
 30
0.0
  0
VERTEX
  5
1EC
330
1E3
100
AcDbEntity
  8
1
  6
CONTINUOUS
 62
   252
100
AcDbVertex
100
AcDb2dVertex
 10
48.0
 20
152.0
 30
0.0
  0
VERTEX
  5
1ED
330
1E3
100
AcDbEntity
  8
1
  6
CONTINUOUS
 62
   252
100
AcDbVertex
100
AcDb2dVertex
 10
48.202
 20
153.255069
 30
0.0
  0
VERTEX
  5
1EE
330
1E3
100
AcDbEntity
  8
1
  6
CONTINUOUS
 62
   252
100
AcDbVertex
100
AcDb2dVertex
 10
48.850424
 20
154.4658
 30
0.0
  0
VERTEX
  5
1EF
330
1E3
100
AcDbEntity
  8
1
  6
CONTINUOUS
 62
   252
100
AcDbVertex
100
AcDb2dVertex
 10
49.894945
 20
155.401286
 30
0.0
  0
VERTEX
  5
1F0
330
1E3
100
AcDbEntity
  8
1
  6
CONTINUOUS
 62
   252
100
AcDbVertex
100
AcDb2dVertex
 10
51.144461
 20
155.907436
 30
0.0
  0
VERTEX
  5
1F1
330
1E3
100
AcDbEntity
  8
1
  6
CONTINUOUS
 62
   252
100
AcDbVertex
100
AcDb2dVertex
 10
52.37868
 20
156.0
 30
0.0
  0
VERTEX
  5
1F2
330
1E3
100
AcDbEntity
  8
1
  6
CONTINUOUS
 62
   252
100
AcDbVertex
100
AcDb2dVertex
 10
53.585786
 20
156.0
 30
0.0
  0
VERTEX
  5
1F3
330
1E3
100
AcDbEntity
  8
1
  6
CONTINUOUS
 62
   252
100
AcDbVertex
100
AcDb2dVertex
 10
54.792893
 20
156.0
 30
0.0
  0
VERTEX
  5
1F4
330
1E3
100
AcDbEntity
  8
1
  6
CONTINUOUS
 62
   252
100
AcDbVertex
100
AcDb2dVertex
 10
56.0
 20
156.0
 30
0.0
  0
SEQEND
  5
1F5
330
1E3
100
AcDbEntity
  8
1
  6
CONTINUOUS
 62
   252
  0
POLYLINE
  5
1F6
330
1F
100
AcDbEntity
  8
1
  6
CONTINUOUS
 62
   252
100
AcDb2dPolyline
 66
     1
 10
0.0
 20
0.0
 30
0.0
  0
VERTEX
  5
1F7
330
1F6
100
AcDbEntity
  8
1
  6
CONTINUOUS
 62
   252
100
AcDbVertex
100
AcDb2dVertex
 10
56.0
 20
60.0
 30
0.0
  0
VERTEX
  5
1F8
330
1F6
100
AcDbEntity
  8
1
  6
CONTINUOUS
 62
   252
100
AcDbVertex
100
AcDb2dVertex
 10
56.0
 20
64.48
 30
0.0
  0
VERTEX
  5
1F9
330
1F6
100
AcDbEntity
  8
1
  6
CONTINUOUS
 62
   252
100
AcDbVertex
100
AcDb2dVertex
 10
56.0
 20
68.0
 30
0.0
  0
SEQEND
  5
1FA
330
1F6
100
AcDbEntity
  8
1
  6
CONTINUOUS
 62
   252
  0
POLYLINE
  5
1FB
330
1F
100
AcDbEntity
  8
1
  6
CONTINUOUS
 62
   252
100
AcDb2dPolyline
 66
     1
 10
0.0
 20
0.0
 30
0.0
  0
VERTEX
  5
1FC
330
1FB
100
AcDbEntity
  8
1
  6
CONTINUOUS
 62
   252
100
AcDbVertex
100
AcDb2dVertex
 10
-56.0
 20
148.0
 30
0.0
  0
VERTEX
  5
1FD
330
1FB
100
AcDbEntity
  8
1
  6
CONTINUOUS
 62
   252
100
AcDbVertex
100
AcDb2dVertex
 10
-56.0
 20
89.76
 30
0.0
  0
VERTEX
  5
1FE
330
1FB
100
AcDbEntity
  8
1
  6
CONTINUOUS
 62
   252
100
AcDbVertex
100
AcDb2dVertex
 10
-56.0
 20
44.0
 30
0.0
  0
SEQEND
  5
1FF
330
1FB
100
AcDbEntity
  8
1
  6
CONTINUOUS
 62
   252
  0
POLYLINE
  5
200
330
1F
100
AcDbEntity
  8
1
  6
CONTINUOUS
 62
   252
100
AcDb2dPolyline
 66
     1
 10
0.0
 20
0.0
 30
0.0
  0
VERTEX
  5
201
330
200
100
AcDbEntity
  8
1
  6
CONTINUOUS
 62
   252
100
AcDbVertex
100
AcDb2dVertex
 10
-56.0
 20
-156.0
 30
0.0
  0
VERTEX
  5
202
330
200
100
AcDbEntity
  8
1
  6
CONTINUOUS
 62
   252
100
AcDbVertex
100
AcDb2dVertex
 10
-56.0
 20
-160.48
 30
0.0
  0
VERTEX
  5
203
330
200
100
AcDbEntity
  8
1
  6
CONTINUOUS
 62
   252
100
AcDbVertex
100
AcDb2dVertex
 10
-56.0
 20
-164.0
 30
0.0
  0
SEQEND
  5
204
330
200
100
AcDbEntity
  8
1
  6
CONTINUOUS
 62
   252
  0
POLYLINE
  5
205
330
1F
100
AcDbEntity
  8
1
  6
CONTINUOUS
 62
   252
100
AcDb2dPolyline
 66
     1
 10
0.0
 20
0.0
 30
0.0
  0
VERTEX
  5
206
330
205
100
AcDbEntity
  8
1
  6
CONTINUOUS
 62
   252
100
AcDbVertex
100
AcDb2dVertex
 10
56.0
 20
76.0
 30
0.0
  0
VERTEX
  5
207
330
205
100
AcDbEntity
  8
1
  6
CONTINUOUS
 62
   252
100
AcDbVertex
100
AcDb2dVertex
 10
56.0
 20
116.32
 30
0.0
  0
VERTEX
  5
208
330
205
100
AcDbEntity
  8
1
  6
CONTINUOUS
 62
   252
100
AcDbVertex
100
AcDb2dVertex
 10
56.0
 20
148.0
 30
0.0
  0
SEQEND
  5
209
330
205
100
AcDbEntity
  8
1
  6
CONTINUOUS
 62
   252
  0
POLYLINE
  5
20A
330
1F
100
AcDbEntity
  8
1
  6
CONTINUOUS
 62
     7
100
AcDb2dPolyline
 66
     1
 10
0.0
 20
0.0
 30
0.0
 70
     1
  0
VERTEX
  5
20B
330
20A
100
AcDbEntity
  8
1
  6
CONTINUOUS
 62
     7
100
AcDbVertex
100
AcDb2dVertex
 10
-44.0
 20
16.0
 30
0.0
  0
VERTEX
  5
20C
330
20A
100
AcDbEntity
  8
1
  6
CONTINUOUS
 62
     7
100
AcDbVertex
100
AcDb2dVertex
 10
-36.660499
 20
16.0
 30
0.0
  0
VERTEX
  5
20D
330
20A
100
AcDbEntity
  8
1
  6
CONTINUOUS
 62
     7
100
AcDbVertex
100
AcDb2dVertex
 10
-35.972343
 20
15.999809
 30
0.0
  0
VERTEX
  5
20E
330
20A
100
AcDbEntity
  8
1
  6
CONTINUOUS
 62
     7
100
AcDbVertex
100
AcDb2dVertex
 10
-35.254884
 20
15.856018
 30
0.0
  0
VERTEX
  5
20F
330
20A
100
AcDbEntity
  8
1
  6
CONTINUOUS
 62
     7
100
AcDbVertex
100
AcDb2dVertex
 10
-34.594493
 20
15.422867
 30
0.0
  0
VERTEX
  5
210
330
20A
100
AcDbEntity
  8
1
  6
CONTINUOUS
 62
     7
100
AcDbVertex
100
AcDb2dVertex
 10
-34.152901
 20
14.766959
 30
0.0
  0
VERTEX
  5
211
330
20A
100
AcDbEntity
  8
1
  6
CONTINUOUS
 62
     7
100
AcDbVertex
100
AcDb2dVertex
 10
-34.0
 20
13.775301
 30
0.0
  0
VERTEX
  5
212
330
20A
100
AcDbEntity
  8
1
  6
CONTINUOUS
 62
     7
100
AcDbVertex
100
AcDb2dVertex
 10
-34.0
 20
12.635255
 30
0.0
  0
VERTEX
  5
213
330
20A
100
AcDbEntity
  8
1
  6
CONTINUOUS
 62
     7
100
AcDbVertex
100
AcDb2dVertex
 10
-34.0
 20
11.49521
 30
0.0
  0
VERTEX
  5
214
330
20A
100
AcDbEntity
  8
1
  6
CONTINUOUS
 62
     7
100
AcDbVertex
100
AcDb2dVertex
 10
-34.0
 20
4.654938
 30
0.0
  0
VERTEX
  5
215
330
20A
100
AcDbEntity
  8
1
  6
CONTINUOUS
 62
     7
100
AcDbVertex
100
AcDb2dVertex
 10
-34.0
 20
-9.025605
 30
0.0
  0
VERTEX
  5
216
330
20A
100
AcDbEntity
  8
1
  6
CONTINUOUS
 62
     7
100
AcDbVertex
100
AcDb2dVertex
 10
-34.0
 20
-13.585786
 30
0.0
  0
VERTEX
  5
217
330
20A
100
AcDbEntity
  8
1
  6
CONTINUOUS
 62
     7
100
AcDbVertex
100
AcDb2dVertex
 10
-34.00626
 20
-14.158116
 30
0.0
  0
VERTEX
  5
218
330
20A
100
AcDbEntity
  8
1
  6
CONTINUOUS
 62
     7
100
AcDbVertex
100
AcDb2dVertex
 10
-34.148278
 20
-14.755728
 30
0.0
  0
VERTEX
  5
219
330
20A
100
AcDbEntity
  8
1
  6
CONTINUOUS
 62
     7
100
AcDbVertex
100
AcDb2dVertex
 10
-34.491247
 20
-15.312884
 30
0.0
  0
VERTEX
  5
21A
330
20A
100
AcDbEntity
  8
1
  6
CONTINUOUS
 62
     7
100
AcDbVertex
100
AcDb2dVertex
 10
-35.002169
 20
-15.733301
 30
0.0
  0
VERTEX
  5
21B
330
20A
100
AcDbEntity
  8
1
  6
CONTINUOUS
 62
     7
100
AcDbVertex
100
AcDb2dVertex
 10
-35.793694
 20
-15.989331
 30
0.0
  0
VERTEX
  5
21C
330
20A
100
AcDbEntity
  8
1
  6
CONTINUOUS
 62
     7
100
AcDbVertex
100
AcDb2dVertex
 10
-36.692785
 20
-16.0
 30
0.0
  0
VERTEX
  5
21D
330
20A
100
AcDbEntity
  8
1
  6
CONTINUOUS
 62
     7
100
AcDbVertex
100
AcDb2dVertex
 10
-37.637229
 20
-16.0
 30
0.0
  0
VERTEX
  5
21E
330
20A
100
AcDbEntity
  8
1
  6
CONTINUOUS
 62
     7
100
AcDbVertex
100
AcDb2dVertex
 10
-41.887229
 20
-16.0
 30
0.0
  0
VERTEX
  5
21F
330
20A
100
AcDbEntity
  8
1
  6
CONTINUOUS
 62
     7
100
AcDbVertex
100
AcDb2dVertex
 10
-44.012245
 20
-15.999963
 30
0.0
  0
VERTEX
  5
220
330
20A
100
AcDbEntity
  8
1
  6
CONTINUOUS
 62
     7
100
AcDbVertex
100
AcDb2dVertex
 10
-44.564195
 20
-15.918771
 30
0.0
  0
VERTEX
  5
221
330
20A
100
AcDbEntity
  8
1
  6
CONTINUOUS
 62
     7
100
AcDbVertex
100
AcDb2dVertex
 10
-45.108039
 20
-15.665008
 30
0.0
  0
VERTEX
  5
222
330
20A
100
AcDbEntity
  8
1
  6
CONTINUOUS
 62
     7
100
AcDbVertex
100
AcDb2dVertex
 10
-45.563683
 20
-15.246954
 30
0.0
  0
VERTEX
  5
223
330
20A
100
AcDbEntity
  8
1
  6
CONTINUOUS
 62
     7
100
AcDbVertex
100
AcDb2dVertex
 10
-45.866075
 20
-14.719559
 30
0.0
  0
VERTEX
  5
224
330
20A
100
AcDbEntity
  8
1
  6
CONTINUOUS
 62
     7
100
AcDbVertex
100
AcDb2dVertex
 10
-46.0
 20
-13.931443
 30
0.0
  0
VERTEX
  5
225
330
20A
100
AcDbEntity
  8
1
  6
CONTINUOUS
 62
     7
100
AcDbVertex
100
AcDb2dVertex
 10
-46.0
 20
-13.003976
 30
0.0
  0
VERTEX
  5
226
330
20A
100
AcDbEntity
  8
1
  6
CONTINUOUS
 62
     7
100
AcDbVertex
100
AcDb2dVertex
 10
-46.0
 20
-12.076509
 30
0.0
  0
VERTEX
  5
227
330
20A
100
AcDbEntity
  8
1
  6
CONTINUOUS
 62
     7
100
AcDbVertex
100
AcDb2dVertex
 10
-46.0
 20
-9.890336
 30
0.0
  0
VERTEX
  5
228
330
20A
100
AcDbEntity
  8
1
  6
CONTINUOUS
 62
     7
100
AcDbVertex
100
AcDb2dVertex
 10
-46.0
 20
-5.986456
 30
0.0
  0
VERTEX
  5
229
330
20A
100
AcDbEntity
  8
1
  6
CONTINUOUS
 62
     7
100
AcDbVertex
100
AcDb2dVertex
 10
-46.0
 20
0.984758
 30
0.0
  0
VERTEX
  5
22A
330
20A
100
AcDbEntity
  8
1
  6
CONTINUOUS
 62
     7
100
AcDbVertex
100
AcDb2dVertex
 10
-46.0
 20
8.906593
 30
0.0
  0
VERTEX
  5
22B
330
20A
100
AcDbEntity
  8
1
  6
CONTINUOUS
 62
     7
100
AcDbVertex
100
AcDb2dVertex
 10
-46.0
 20
12.86751
 30
0.0
  0
VERTEX
  5
22C
330
20A
100
AcDbEntity
  8
1
  6
CONTINUOUS
 62
     7
100
AcDbVertex
100
AcDb2dVertex
 10
-46.0
 20
13.527663
 30
0.0
  0
VERTEX
  5
22D
330
20A
100
AcDbEntity
  8
1
  6
CONTINUOUS
 62
     7
100
AcDbVertex
100
AcDb2dVertex
 10
-45.990849
 20
14.191103
 30
0.0
  0
VERTEX
  5
22E
330
20A
100
AcDbEntity
  8
1
  6
CONTINUOUS
 62
     7
100
AcDbVertex
100
AcDb2dVertex
 10
-45.795033
 20
14.881962
 30
0.0
  0
VERTEX
  5
22F
330
20A
100
AcDbEntity
  8
1
  6
CONTINUOUS
 62
     7
100
AcDbVertex
100
AcDb2dVertex
 10
-45.471887
 20
15.354086
 30
0.0
  0
VERTEX
  5
230
330
20A
100
AcDbEntity
  8
1
  6
CONTINUOUS
 62
     7
100
AcDbVertex
100
AcDb2dVertex
 10
-45.025352
 20
15.717164
 30
0.0
  0
VERTEX
  5
231
330
20A
100
AcDbEntity
  8
1
  6
CONTINUOUS
 62
     7
100
AcDbVertex
100
AcDb2dVertex
 10
-44.513137
 20
15.933052
 30
0.0
  0
VERTEX
  5
232
330
20A
100
AcDbEntity
  8
1
  6
CONTINUOUS
 62
     7
100
AcDbVertex
100
AcDb2dVertex
 10
-44.0
 20
16.0
 30
0.0
  0
SEQEND
  5
233
330
20A
100
AcDbEntity
  8
1
  6
CONTINUOUS
 62
     7
  0
POLYLINE
  5
234
330
1F
100
AcDbEntity
  8
1
  6
CONTINUOUS
 62
     7
100
AcDb2dPolyline
 66
     1
 10
0.0
 20
0.0
 30
0.0
 70
     1
  0
VERTEX
  5
235
330
234
100
AcDbEntity
  8
1
  6
CONTINUOUS
 62
     7
100
AcDbVertex
100
AcDb2dVertex
 10
-52.0
 20
-156.0
 30
0.0
  0
VERTEX
  5
236
330
234
100
AcDbEntity
  8
1
  6
CONTINUOUS
 62
     7
100
AcDbVertex
100
AcDb2dVertex
 10
-55.791053
 20
-156.0
 30
0.0
  0
VERTEX
  5
237
330
234
100
AcDbEntity
  8
1
  6
CONTINUOUS
 62
     7
100
AcDbVertex
100
AcDb2dVertex
 10
-55.909524
 20
-156.0
 30
0.0
  0
VERTEX
  5
238
330
234
100
AcDbEntity
  8
1
  6
CONTINUOUS
 62
     7
100
AcDbVertex
100
AcDb2dVertex
 10
-56.0
 20
-156.0
 30
0.0
  0
VERTEX
  5
239
330
234
100
AcDbEntity
  8
1
  6
CONTINUOUS
 62
     7
100
AcDbVertex
100
AcDb2dVertex
 10
-56.0
 20
-156.027994
 30
0.0
  0
VERTEX
  5
23A
330
234
100
AcDbEntity
  8
1
  6
CONTINUOUS
 62
     7
100
AcDbVertex
100
AcDb2dVertex
 10
-56.0
 20
-156.738817
 30
0.0
  0
VERTEX
  5
23B
330
234
100
AcDbEntity
  8
1
  6
CONTINUOUS
 62
     7
100
AcDbVertex
100
AcDb2dVertex
 10
-56.0
 20
-157.68658
 30
0.0
  0
VERTEX
  5
23C
330
234
100
AcDbEntity
  8
1
  6
CONTINUOUS
 62
     7
100
AcDbVertex
100
AcDb2dVertex
 10
-56.0
 20
-159.582107
 30
0.0
  0
VERTEX
  5
23D
330
234
100
AcDbEntity
  8
1
  6
CONTINUOUS
 62
     7
100
AcDbVertex
100
AcDb2dVertex
 10
-56.0
 20
-163.847042
 30
0.0
  0
VERTEX
  5
23E
330
234
100
AcDbEntity
  8
1
  6
CONTINUOUS
 62
     7
100
AcDbVertex
100
AcDb2dVertex
 10
-56.0
 20
-163.935895
 30
0.0
  0
VERTEX
  5
23F
330
234
100
AcDbEntity
  8
1
  6
CONTINUOUS
 62
     7
100
AcDbVertex
100
AcDb2dVertex
 10
-56.0
 20
-164.0
 30
0.0
  0
VERTEX
  5
240
330
234
100
AcDbEntity
  8
1
  6
CONTINUOUS
 62
     7
100
AcDbVertex
100
AcDb2dVertex
 10
-55.975253
 20
-164.0
 30
0.0
  0
VERTEX
  5
241
330
234
100
AcDbEntity
  8
1
  6
CONTINUOUS
 62
     7
100
AcDbVertex
100
AcDb2dVertex
 10
-55.442136
 20
-164.0
 30
0.0
  0
VERTEX
  5
242
330
234
100
AcDbEntity
  8
1
  6
CONTINUOUS
 62
     7
100
AcDbVertex
100
AcDb2dVertex
 10
-54.731313
 20
-164.0
 30
0.0
  0
VERTEX
  5
243
330
234
100
AcDbEntity
  8
1
  6
CONTINUOUS
 62
     7
100
AcDbVertex
100
AcDb2dVertex
 10
-37.671573
 20
-164.0
 30
0.0
  0
VERTEX
  5
244
330
234
100
AcDbEntity
  8
1
  6
CONTINUOUS
 62
     7
100
AcDbVertex
100
AcDb2dVertex
 10
53.313708
 20
-164.0
 30
0.0
  0
VERTEX
  5
245
330
234
100
AcDbEntity
  8
1
  6
CONTINUOUS
 62
     7
100
AcDbVertex
100
AcDb2dVertex
 10
54.735354
 20
-164.0
 30
0.0
  0
VERTEX
  5
246
330
234
100
AcDbEntity
  8
1
  6
CONTINUOUS
 62
     7
100
AcDbVertex
100
AcDb2dVertex
 10
55.019683
 20
-164.0
 30
0.0
  0
VERTEX
  5
247
330
234
100
AcDbEntity
  8
1
  6
CONTINUOUS
 62
     7
100
AcDbVertex
100
AcDb2dVertex
 10
55.304012
 20
-164.0
 30
0.0
  0
VERTEX
  5
248
330
234
100
AcDbEntity
  8
1
  6
CONTINUOUS
 62
     7
100
AcDbVertex
100
AcDb2dVertex
 10
55.588341
 20
-164.0
 30
0.0
  0
VERTEX
  5
249
330
234
100
AcDbEntity
  8
1
  6
CONTINUOUS
 62
     7
100
AcDbVertex
100
AcDb2dVertex
 10
55.87267
 20
-164.0
 30
0.0
  0
VERTEX
  5
24A
330
234
100
AcDbEntity
  8
1
  6
CONTINUOUS
 62
     7
100
AcDbVertex
100
AcDb2dVertex
 10
56.0
 20
-164.0
 30
0.0
  0
VERTEX
  5
24B
330
234
100
AcDbEntity
  8
1
  6
CONTINUOUS
 62
     7
100
AcDbVertex
100
AcDb2dVertex
 10
56.0
 20
-163.843001
 30
0.0
  0
VERTEX
  5
24C
330
234
100
AcDbEntity
  8
1
  6
CONTINUOUS
 62
     7
100
AcDbVertex
100
AcDb2dVertex
 10
56.0
 20
-160.999711
 30
0.0
  0
VERTEX
  5
24D
330
234
100
AcDbEntity
  8
1
  6
CONTINUOUS
 62
     7
100
AcDbVertex
100
AcDb2dVertex
 10
56.0
 20
-157.417166
 30
0.0
  0
VERTEX
  5
24E
330
234
100
AcDbEntity
  8
1
  6
CONTINUOUS
 62
     7
100
AcDbVertex
100
AcDb2dVertex
 10
56.0
 20
-157.015044
 30
0.0
  0
VERTEX
  5
24F
330
234
100
AcDbEntity
  8
1
  6
CONTINUOUS
 62
     7
100
AcDbVertex
100
AcDb2dVertex
 10
56.0
 20
-156.612921
 30
0.0
  0
VERTEX
  5
250
330
234
100
AcDbEntity
  8
1
  6
CONTINUOUS
 62
     7
100
AcDbVertex
100
AcDb2dVertex
 10
56.0
 20
-156.210799
 30
0.0
  0
VERTEX
  5
251
330
234
100
AcDbEntity
  8
1
  6
CONTINUOUS
 62
     7
100
AcDbVertex
100
AcDb2dVertex
 10
56.0
 20
-156.0
 30
0.0
  0
VERTEX
  5
252
330
234
100
AcDbEntity
  8
1
  6
CONTINUOUS
 62
     7
100
AcDbVertex
100
AcDb2dVertex
 10
55.808676
 20
-156.0
 30
0.0
  0
VERTEX
  5
253
330
234
100
AcDbEntity
  8
1
  6
CONTINUOUS
 62
     7
100
AcDbVertex
100
AcDb2dVertex
 10
55.406554
 20
-156.0
 30
0.0
  0
VERTEX
  5
254
330
234
100
AcDbEntity
  8
1
  6
CONTINUOUS
 62
     7
100
AcDbVertex
100
AcDb2dVertex
 10
55.004431
 20
-156.0
 30
0.0
  0
VERTEX
  5
255
330
234
100
AcDbEntity
  8
1
  6
CONTINUOUS
 62
     7
100
AcDbVertex
100
AcDb2dVertex
 10
54.602309
 20
-156.0
 30
0.0
  0
VERTEX
  5
256
330
234
100
AcDbEntity
  8
1
  6
CONTINUOUS
 62
     7
100
AcDbVertex
100
AcDb2dVertex
 10
53.322828
 20
-156.0
 30
0.0
  0
VERTEX
  5
257
330
234
100
AcDbEntity
  8
1
  6
CONTINUOUS
 62
     7
100
AcDbVertex
100
AcDb2dVertex
 10
52.043348
 20
-156.0
 30
0.0
  0
VERTEX
  5
258
330
234
100
AcDbEntity
  8
1
  6
CONTINUOUS
 62
     7
100
AcDbVertex
100
AcDb2dVertex
 10
50.714377
 20
-155.787766
 30
0.0
  0
VERTEX
  5
259
330
234
100
AcDbEntity
  8
1
  6
CONTINUOUS
 62
     7
100
AcDbVertex
100
AcDb2dVertex
 10
49.44202
 20
-155.075181
 30
0.0
  0
VERTEX
  5
25A
330
234
100
AcDbEntity
  8
1
  6
CONTINUOUS
 62
     7
100
AcDbVertex
100
AcDb2dVertex
 10
48.497633
 20
-153.932208
 30
0.0
  0
VERTEX
  5
25B
330
234
100
AcDbEntity
  8
1
  6
CONTINUOUS
 62
     7
100
AcDbVertex
100
AcDb2dVertex
 10
48.085135
 20
-152.820872
 30
0.0
  0
VERTEX
  5
25C
330
234
100
AcDbEntity
  8
1
  6
CONTINUOUS
 62
     7
100
AcDbVertex
100
AcDb2dVertex
 10
48.009411
 20
-151.725768
 30
0.0
  0
VERTEX
  5
25D
330
234
100
AcDbEntity
  8
1
  6
CONTINUOUS
 62
     7
100
AcDbVertex
100
AcDb2dVertex
 10
48.249841
 20
-150.608488
 30
0.0
  0
VERTEX
  5
25E
330
234
100
AcDbEntity
  8
1
  6
CONTINUOUS
 62
     7
100
AcDbVertex
100
AcDb2dVertex
 10
48.842498
 20
-149.544357
 30
0.0
  0
VERTEX
  5
25F
330
234
100
AcDbEntity
  8
1
  6
CONTINUOUS
 62
     7
100
AcDbVertex
100
AcDb2dVertex
 10
49.747351
 20
-148.694615
 30
0.0
  0
VERTEX
  5
260
330
234
100
AcDbEntity
  8
1
  6
CONTINUOUS
 62
     7
100
AcDbVertex
100
AcDb2dVertex
 10
50.835468
 20
-148.17327
 30
0.0
  0
VERTEX
  5
261
330
234
100
AcDbEntity
  8
1
  6
CONTINUOUS
 62
     7
100
AcDbVertex
100
AcDb2dVertex
 10
51.944867
 20
-148.00038
 30
0.0
  0
VERTEX
  5
262
330
234
100
AcDbEntity
  8
1
  6
CONTINUOUS
 62
     7
100
AcDbVertex
100
AcDb2dVertex
 10
53.011255
 20
-148.0
 30
0.0
  0
VERTEX
  5
263
330
234
100
AcDbEntity
  8
1
  6
CONTINUOUS
 62
     7
100
AcDbVertex
100
AcDb2dVertex
 10
55.258228
 20
-148.0
 30
0.0
  0
VERTEX
  5
264
330
234
100
AcDbEntity
  8
1
  6
CONTINUOUS
 62
     7
100
AcDbVertex
100
AcDb2dVertex
 10
55.611324
 20
-148.0
 30
0.0
  0
VERTEX
  5
265
330
234
100
AcDbEntity
  8
1
  6
CONTINUOUS
 62
     7
100
AcDbVertex
100
AcDb2dVertex
 10
55.964419
 20
-148.0
 30
0.0
  0
VERTEX
  5
266
330
234
100
AcDbEntity
  8
1
  6
CONTINUOUS
 62
     7
100
AcDbVertex
100
AcDb2dVertex
 10
56.0
 20
-148.0
 30
0.0
  0
VERTEX
  5
267
330
234
100
AcDbEntity
  8
1
  6
CONTINUOUS
 62
     7
100
AcDbVertex
100
AcDb2dVertex
 10
56.0
 20
-147.682485
 30
0.0
  0
VERTEX
  5
268
330
234
100
AcDbEntity
  8
1
  6
CONTINUOUS
 62
     7
100
AcDbVertex
100
AcDb2dVertex
 10
56.0
 20
-147.329389
 30
0.0
  0
VERTEX
  5
269
330
234
100
AcDbEntity
  8
1
  6
CONTINUOUS
 62
     7
100
AcDbVertex
100
AcDb2dVertex
 10
56.0
 20
-146.976294
 30
0.0
  0
VERTEX
  5
26A
330
234
100
AcDbEntity
  8
1
  6
CONTINUOUS
 62
     7
100
AcDbVertex
100
AcDb2dVertex
 10
56.0
 20
-143.823654
 30
0.0
  0
VERTEX
  5
26B
330
234
100
AcDbEntity
  8
1
  6
CONTINUOUS
 62
     7
100
AcDbVertex
100
AcDb2dVertex
 10
56.0
 20
-138.193939
 30
0.0
  0
VERTEX
  5
26C
330
234
100
AcDbEntity
  8
1
  6
CONTINUOUS
 62
     7
100
AcDbVertex
100
AcDb2dVertex
 10
56.0
 20
-121.134199
 30
0.0
  0
VERTEX
  5
26D
330
234
100
AcDbEntity
  8
1
  6
CONTINUOUS
 62
     7
100
AcDbVertex
100
AcDb2dVertex
 10
56.0
 20
-87.014719
 30
0.0
  0
VERTEX
  5
26E
330
234
100
AcDbEntity
  8
1
  6
CONTINUOUS
 62
     7
100
AcDbVertex
100
AcDb2dVertex
 10
56.0
 20
3.970563
 30
0.0
  0
VERTEX
  5
26F
330
234
100
AcDbEntity
  8
1
  6
CONTINUOUS
 62
     7
100
AcDbVertex
100
AcDb2dVertex
 10
56.0
 20
38.090043
 30
0.0
  0
VERTEX
  5
270
330
234
100
AcDbEntity
  8
1
  6
CONTINUOUS
 62
     7
100
AcDbVertex
100
AcDb2dVertex
 10
56.0
 20
48.83768
 30
0.0
  0
VERTEX
  5
271
330
234
100
AcDbEntity
  8
1
  6
CONTINUOUS
 62
     7
100
AcDbVertex
100
AcDb2dVertex
 10
56.0
 20
51.485897
 30
0.0
  0
VERTEX
  5
272
330
234
100
AcDbEntity
  8
1
  6
CONTINUOUS
 62
     7
100
AcDbVertex
100
AcDb2dVertex
 10
56.0
 20
52.0
 30
0.0
  0
VERTEX
  5
273
330
234
100
AcDbEntity
  8
1
  6
CONTINUOUS
 62
     7
100
AcDbVertex
100
AcDb2dVertex
 10
55.993917
 20
52.0
 30
0.0
  0
VERTEX
  5
274
330
234
100
AcDbEntity
  8
1
  6
CONTINUOUS
 62
     7
100
AcDbVertex
100
AcDb2dVertex
 10
55.473732
 20
52.0
 30
0.0
  0
VERTEX
  5
275
330
234
100
AcDbEntity
  8
1
  6
CONTINUOUS
 62
     7
100
AcDbVertex
100
AcDb2dVertex
 10
54.953546
 20
52.0
 30
0.0
  0
VERTEX
  5
276
330
234
100
AcDbEntity
  8
1
  6
CONTINUOUS
 62
     7
100
AcDbVertex
100
AcDb2dVertex
 10
54.43336
 20
52.0
 30
0.0
  0
VERTEX
  5
277
330
234
100
AcDbEntity
  8
1
  6
CONTINUOUS
 62
     7
100
AcDbVertex
100
AcDb2dVertex
 10
53.194823
 20
52.0
 30
0.0
  0
VERTEX
  5
278
330
234
100
AcDbEntity
  8
1
  6
CONTINUOUS
 62
     7
100
AcDbVertex
100
AcDb2dVertex
 10
51.956188
 20
52.00024
 30
0.0
  0
VERTEX
  5
279
330
234
100
AcDbEntity
  8
1
  6
CONTINUOUS
 62
     7
100
AcDbVertex
100
AcDb2dVertex
 10
50.665887
 20
52.22904
 30
0.0
  0
VERTEX
  5
27A
330
234
100
AcDbEntity
  8
1
  6
CONTINUOUS
 62
     7
100
AcDbVertex
100
AcDb2dVertex
 10
49.477393
 20
52.895736
 30
0.0
  0
VERTEX
  5
27B
330
234
100
AcDbEntity
  8
1
  6
CONTINUOUS
 62
     7
100
AcDbVertex
100
AcDb2dVertex
 10
48.569097
 20
53.943571
 30
0.0
  0
VERTEX
  5
27C
330
234
100
AcDbEntity
  8
1
  6
CONTINUOUS
 62
     7
100
AcDbVertex
100
AcDb2dVertex
 10
48.084371
 20
55.182781
 30
0.0
  0
VERTEX
  5
27D
330
234
100
AcDbEntity
  8
1
  6
CONTINUOUS
 62
     7
100
AcDbVertex
100
AcDb2dVertex
 10
48.002713
 20
56.147294
 30
0.0
  0
VERTEX
  5
27E
330
234
100
AcDbEntity
  8
1
  6
CONTINUOUS
 62
     7
100
AcDbVertex
100
AcDb2dVertex
 10
48.161699
 20
57.12581
 30
0.0
  0
VERTEX
  5
27F
330
234
100
AcDbEntity
  8
1
  6
CONTINUOUS
 62
     7
100
AcDbVertex
100
AcDb2dVertex
 10
48.590992
 20
58.092525
 30
0.0
  0
VERTEX
  5
280
330
234
100
AcDbEntity
  8
1
  6
CONTINUOUS
 62
     7
100
AcDbVertex
100
AcDb2dVertex
 10
49.39538
 20
59.035779
 30
0.0
  0
VERTEX
  5
281
330
234
100
AcDbEntity
  8
1
  6
CONTINUOUS
 62
     7
100
AcDbVertex
100
AcDb2dVertex
 10
50.436585
 20
59.681811
 30
0.0
  0
VERTEX
  5
282
330
234
100
AcDbEntity
  8
1
  6
CONTINUOUS
 62
     7
100
AcDbVertex
100
AcDb2dVertex
 10
51.555983
 20
59.97528
 30
0.0
  0
VERTEX
  5
283
330
234
100
AcDbEntity
  8
1
  6
CONTINUOUS
 62
     7
100
AcDbVertex
100
AcDb2dVertex
 10
52.63088
 20
60.0
 30
0.0
  0
VERTEX
  5
284
330
234
100
AcDbEntity
  8
1
  6
CONTINUOUS
 62
     7
100
AcDbVertex
100
AcDb2dVertex
 10
53.483867
 20
60.0
 30
0.0
  0
VERTEX
  5
285
330
234
100
AcDbEntity
  8
1
  6
CONTINUOUS
 62
     7
100
AcDbVertex
100
AcDb2dVertex
 10
54.336854
 20
60.0
 30
0.0
  0
VERTEX
  5
286
330
234
100
AcDbEntity
  8
1
  6
CONTINUOUS
 62
     7
100
AcDbVertex
100
AcDb2dVertex
 10
55.189841
 20
60.0
 30
0.0
  0
VERTEX
  5
287
330
234
100
AcDbEntity
  8
1
  6
CONTINUOUS
 62
     7
100
AcDbVertex
100
AcDb2dVertex
 10
56.0
 20
60.0
 30
0.0
  0
VERTEX
  5
288
330
234
100
AcDbEntity
  8
1
  6
CONTINUOUS
 62
     7
100
AcDbVertex
100
AcDb2dVertex
 10
56.0
 20
60.042828
 30
0.0
  0
VERTEX
  5
289
330
234
100
AcDbEntity
  8
1
  6
CONTINUOUS
 62
     7
100
AcDbVertex
100
AcDb2dVertex
 10
56.0
 20
60.895815
 30
0.0
  0
VERTEX
  5
28A
330
234
100
AcDbEntity
  8
1
  6
CONTINUOUS
 62
     7
100
AcDbVertex
100
AcDb2dVertex
 10
56.0
 20
65.672543
 30
0.0
  0
VERTEX
  5
28B
330
234
100
AcDbEntity
  8
1
  6
CONTINUOUS
 62
     7
100
AcDbVertex
100
AcDb2dVertex
 10
56.0
 20
67.774303
 30
0.0
  0
VERTEX
  5
28C
330
234
100
AcDbEntity
  8
1
  6
CONTINUOUS
 62
     7
100
AcDbVertex
100
AcDb2dVertex
 10
56.0
 20
67.936708
 30
0.0
  0
VERTEX
  5
28D
330
234
100
AcDbEntity
  8
1
  6
CONTINUOUS
 62
     7
100
AcDbVertex
100
AcDb2dVertex
 10
56.0
 20
68.0
 30
0.0
  0
VERTEX
  5
28E
330
234
100
AcDbEntity
  8
1
  6
CONTINUOUS
 62
     7
100
AcDbVertex
100
AcDb2dVertex
 10
55.99949
 20
68.0
 30
0.0
  0
VERTEX
  5
28F
330
234
100
AcDbEntity
  8
1
  6
CONTINUOUS
 62
     7
100
AcDbVertex
100
AcDb2dVertex
 10
55.935688
 20
68.0
 30
0.0
  0
VERTEX
  5
290
330
234
100
AcDbEntity
  8
1
  6
CONTINUOUS
 62
     7
100
AcDbVertex
100
AcDb2dVertex
 10
55.707824
 20
68.0
 30
0.0
  0
VERTEX
  5
291
330
234
100
AcDbEntity
  8
1
  6
CONTINUOUS
 62
     7
100
AcDbVertex
100
AcDb2dVertex
 10
55.300923
 20
68.0
 30
0.0
  0
VERTEX
  5
292
330
234
100
AcDbEntity
  8
1
  6
CONTINUOUS
 62
     7
100
AcDbVertex
100
AcDb2dVertex
 10
54.574315
 20
68.0
 30
0.0
  0
VERTEX
  5
293
330
234
100
AcDbEntity
  8
1
  6
CONTINUOUS
 62
     7
100
AcDbVertex
100
AcDb2dVertex
 10
53.380133
 20
68.0
 30
0.0
  0
VERTEX
  5
294
330
234
100
AcDbEntity
  8
1
  6
CONTINUOUS
 62
     7
100
AcDbVertex
100
AcDb2dVertex
 10
52.185951
 20
68.0
 30
0.0
  0
VERTEX
  5
295
330
234
100
AcDbEntity
  8
1
  6
CONTINUOUS
 62
     7
100
AcDbVertex
100
AcDb2dVertex
 10
50.954719
 20
68.138991
 30
0.0
  0
VERTEX
  5
296
330
234
100
AcDbEntity
  8
1
  6
CONTINUOUS
 62
     7
100
AcDbVertex
100
AcDb2dVertex
 10
49.733006
 20
68.704436
 30
0.0
  0
VERTEX
  5
297
330
234
100
AcDbEntity
  8
1
  6
CONTINUOUS
 62
     7
100
AcDbVertex
100
AcDb2dVertex
 10
48.705083
 20
69.732067
 30
0.0
  0
VERTEX
  5
298
330
234
100
AcDbEntity
  8
1
  6
CONTINUOUS
 62
     7
100
AcDbVertex
100
AcDb2dVertex
 10
48.123499
 20
71.013723
 30
0.0
  0
VERTEX
  5
299
330
234
100
AcDbEntity
  8
1
  6
CONTINUOUS
 62
     7
100
AcDbVertex
100
AcDb2dVertex
 10
48.011489
 20
72.302958
 30
0.0
  0
VERTEX
  5
29A
330
234
100
AcDbEntity
  8
1
  6
CONTINUOUS
 62
     7
100
AcDbVertex
100
AcDb2dVertex
 10
48.31436
 20
73.554368
 30
0.0
  0
VERTEX
  5
29B
330
234
100
AcDbEntity
  8
1
  6
CONTINUOUS
 62
     7
100
AcDbVertex
100
AcDb2dVertex
 10
49.056938
 20
74.708946
 30
0.0
  0
VERTEX
  5
29C
330
234
100
AcDbEntity
  8
1
  6
CONTINUOUS
 62
     7
100
AcDbVertex
100
AcDb2dVertex
 10
50.154858
 20
75.549007
 30
0.0
  0
VERTEX
  5
29D
330
234
100
AcDbEntity
  8
1
  6
CONTINUOUS
 62
     7
100
AcDbVertex
100
AcDb2dVertex
 10
51.403875
 20
75.95533
 30
0.0
  0
VERTEX
  5
29E
330
234
100
AcDbEntity
  8
1
  6
CONTINUOUS
 62
     7
100
AcDbVertex
100
AcDb2dVertex
 10
52.669622
 20
76.0
 30
0.0
  0
VERTEX
  5
29F
330
234
100
AcDbEntity
  8
1
  6
CONTINUOUS
 62
     7
100
AcDbVertex
100
AcDb2dVertex
 10
53.92067
 20
76.0
 30
0.0
  0
VERTEX
  5
2A0
330
234
100
AcDbEntity
  8
1
  6
CONTINUOUS
 62
     7
100
AcDbVertex
100
AcDb2dVertex
 10
55.171717
 20
76.0
 30
0.0
  0
VERTEX
  5
2A1
330
234
100
AcDbEntity
  8
1
  6
CONTINUOUS
 62
     7
100
AcDbVertex
100
AcDb2dVertex
 10
55.641484
 20
76.0
 30
0.0
  0
VERTEX
  5
2A2
330
234
100
AcDbEntity
  8
1
  6
CONTINUOUS
 62
     7
100
AcDbVertex
100
AcDb2dVertex
 10
55.848182
 20
76.0
 30
0.0
  0
VERTEX
  5
2A3
330
234
100
AcDbEntity
  8
1
  6
CONTINUOUS
 62
     7
100
AcDbVertex
100
AcDb2dVertex
 10
55.939129
 20
76.0
 30
0.0
  0
VERTEX
  5
2A4
330
234
100
AcDbEntity
  8
1
  6
CONTINUOUS
 62
     7
100
AcDbVertex
100
AcDb2dVertex
 10
56.0
 20
76.0
 30
0.0
  0
VERTEX
  5
2A5
330
234
100
AcDbEntity
  8
1
  6
CONTINUOUS
 62
     7
100
AcDbVertex
100
AcDb2dVertex
 10
56.0
 20
76.010587
 30
0.0
  0
VERTEX
  5
2A6
330
234
100
AcDbEntity
  8
1
  6
CONTINUOUS
 62
     7
100
AcDbVertex
100
AcDb2dVertex
 10
56.0
 20
76.669699
 30
0.0
  0
VERTEX
  5
2A7
330
234
100
AcDbEntity
  8
1
  6
CONTINUOUS
 62
     7
100
AcDbVertex
100
AcDb2dVertex
 10
56.0
 20
77.846684
 30
0.0
  0
VERTEX
  5
2A8
330
234
100
AcDbEntity
  8
1
  6
CONTINUOUS
 62
     7
100
AcDbVertex
100
AcDb2dVertex
 10
56.0
 20
79.948444
 30
0.0
  0
VERTEX
  5
2A9
330
234
100
AcDbEntity
  8
1
  6
CONTINUOUS
 62
     7
100
AcDbVertex
100
AcDb2dVertex
 10
56.0
 20
83.701587
 30
0.0
  0
VERTEX
  5
2AA
330
234
100
AcDbEntity
  8
1
  6
CONTINUOUS
 62
     7
100
AcDbVertex
100
AcDb2dVertex
 10
56.0
 20
117.821068
 30
0.0
  0
VERTEX
  5
2AB
330
234
100
AcDbEntity
  8
1
  6
CONTINUOUS
 62
     7
100
AcDbVertex
100
AcDb2dVertex
 10
56.0
 20
134.880808
 30
0.0
  0
VERTEX
  5
2AC
330
234
100
AcDbEntity
  8
1
  6
CONTINUOUS
 62
     7
100
AcDbVertex
100
AcDb2dVertex
 10
56.0
 20
147.675613
 30
0.0
  0
VERTEX
  5
2AD
330
234
100
AcDbEntity
  8
1
  6
CONTINUOUS
 62
     7
100
AcDbVertex
100
AcDb2dVertex
 10
56.0
 20
148.0
 30
0.0
  0
VERTEX
  5
2AE
330
234
100
AcDbEntity
  8
1
  6
CONTINUOUS
 62
     7
100
AcDbVertex
100
AcDb2dVertex
 10
55.897893
 20
148.0
 30
0.0
  0
VERTEX
  5
2AF
330
234
100
AcDbEntity
  8
1
  6
CONTINUOUS
 62
     7
100
AcDbVertex
100
AcDb2dVertex
 10
55.4714
 20
148.0
 30
0.0
  0
VERTEX
  5
2B0
330
234
100
AcDbEntity
  8
1
  6
CONTINUOUS
 62
     7
100
AcDbVertex
100
AcDb2dVertex
 10
55.044906
 20
148.0
 30
0.0
  0
VERTEX
  5
2B1
330
234
100
AcDbEntity
  8
1
  6
CONTINUOUS
 62
     7
100
AcDbVertex
100
AcDb2dVertex
 10
54.618413
 20
148.0
 30
0.0
  0
VERTEX
  5
2B2
330
234
100
AcDbEntity
  8
1
  6
CONTINUOUS
 62
     7
100
AcDbVertex
100
AcDb2dVertex
 10
54.191919
 20
148.0
 30
0.0
  0
VERTEX
  5
2B3
330
234
100
AcDbEntity
  8
1
  6
CONTINUOUS
 62
     7
100
AcDbVertex
100
AcDb2dVertex
 10
52.059452
 20
148.0
 30
0.0
  0
VERTEX
  5
2B4
330
234
100
AcDbEntity
  8
1
  6
CONTINUOUS
 62
     7
100
AcDbVertex
100
AcDb2dVertex
 10
51.081307
 20
148.106929
 30
0.0
  0
VERTEX
  5
2B5
330
234
100
AcDbEntity
  8
1
  6
CONTINUOUS
 62
     7
100
AcDbVertex
100
AcDb2dVertex
 10
50.093662
 20
148.483486
 30
0.0
  0
VERTEX
  5
2B6
330
234
100
AcDbEntity
  8
1
  6
CONTINUOUS
 62
     7
100
AcDbVertex
100
AcDb2dVertex
 10
49.208751
 20
149.134877
 30
0.0
  0
VERTEX
  5
2B7
330
234
100
AcDbEntity
  8
1
  6
CONTINUOUS
 62
     7
100
AcDbVertex
100
AcDb2dVertex
 10
48.533486
 20
150.004185
 30
0.0
  0
VERTEX
  5
2B8
330
234
100
AcDbEntity
  8
1
  6
CONTINUOUS
 62
     7
100
AcDbVertex
100
AcDb2dVertex
 10
48.13035
 20
150.987178
 30
0.0
  0
VERTEX
  5
2B9
330
234
100
AcDbEntity
  8
1
  6
CONTINUOUS
 62
     7
100
AcDbVertex
100
AcDb2dVertex
 10
48.000111
 20
151.970229
 30
0.0
  0
VERTEX
  5
2BA
330
234
100
AcDbEntity
  8
1
  6
CONTINUOUS
 62
     7
100
AcDbVertex
100
AcDb2dVertex
 10
48.114465
 20
152.950061
 30
0.0
  0
VERTEX
  5
2BB
330
234
100
AcDbEntity
  8
1
  6
CONTINUOUS
 62
     7
100
AcDbVertex
100
AcDb2dVertex
 10
48.499878
 20
153.93627
 30
0.0
  0
VERTEX
  5
2BC
330
234
100
AcDbEntity
  8
1
  6
CONTINUOUS
 62
     7
100
AcDbVertex
100
AcDb2dVertex
 10
49.159287
 20
154.816088
 30
0.0
  0
VERTEX
  5
2BD
330
234
100
AcDbEntity
  8
1
  6
CONTINUOUS
 62
     7
100
AcDbVertex
100
AcDb2dVertex
 10
50.033903
 20
155.483456
 30
0.0
  0
VERTEX
  5
2BE
330
234
100
AcDbEntity
  8
1
  6
CONTINUOUS
 62
     7
100
AcDbVertex
100
AcDb2dVertex
 10
51.018561
 20
155.877728
 30
0.0
  0
VERTEX
  5
2BF
330
234
100
AcDbEntity
  8
1
  6
CONTINUOUS
 62
     7
100
AcDbVertex
100
AcDb2dVertex
 10
52.0
 20
156.0
 30
0.0
  0
VERTEX
  5
2C0
330
234
100
AcDbEntity
  8
1
  6
CONTINUOUS
 62
     7
100
AcDbVertex
100
AcDb2dVertex
 10
55.791053
 20
156.0
 30
0.0
  0
VERTEX
  5
2C1
330
234
100
AcDbEntity
  8
1
  6
CONTINUOUS
 62
     7
100
AcDbVertex
100
AcDb2dVertex
 10
55.92374
 20
156.0
 30
0.0
  0
VERTEX
  5
2C2
330
234
100
AcDbEntity
  8
1
  6
CONTINUOUS
 62
     7
100
AcDbVertex
100
AcDb2dVertex
 10
55.982122
 20
156.0
 30
0.0
  0
VERTEX
  5
2C3
330
234
100
AcDbEntity
  8
1
  6
CONTINUOUS
 62
     7
100
AcDbVertex
100
AcDb2dVertex
 10
55.996508
 20
156.0
 30
0.0
  0
VERTEX
  5
2C4
330
234
100
AcDbEntity
  8
1
  6
CONTINUOUS
 62
     7
100
AcDbVertex
100
AcDb2dVertex
 10
55.998493
 20
156.0
 30
0.0
  0
VERTEX
  5
2C5
330
234
100
AcDbEntity
  8
1
  6
CONTINUOUS
 62
     7
100
AcDbVertex
100
AcDb2dVertex
 10
55.999366
 20
156.0
 30
0.0
  0
VERTEX
  5
2C6
330
234
100
AcDbEntity
  8
1
  6
CONTINUOUS
 62
     7
100
AcDbVertex
100
AcDb2dVertex
 10
55.99975
 20
156.0
 30
0.0
  0
VERTEX
  5
2C7
330
234
100
AcDbEntity
  8
1
  6
CONTINUOUS
 62
     7
100
AcDbVertex
100
AcDb2dVertex
 10
55.99992
 20
156.0
 30
0.0
  0
VERTEX
  5
2C8
330
234
100
AcDbEntity
  8
1
  6
CONTINUOUS
 62
     7
100
AcDbVertex
100
AcDb2dVertex
 10
56.0
 20
156.0
 30
0.0
  0
VERTEX
  5
2C9
330
234
100
AcDbEntity
  8
1
  6
CONTINUOUS
 62
     7
100
AcDbVertex
100
AcDb2dVertex
 10
56.0
 20
156.000052
 30
0.0
  0
VERTEX
  5
2CA
330
234
100
AcDbEntity
  8
1
  6
CONTINUOUS
 62
     7
100
AcDbVertex
100
AcDb2dVertex
 10
56.0
 20
156.002837
 30
0.0
  0
VERTEX
  5
2CB
330
234
100
AcDbEntity
  8
1
  6
CONTINUOUS
 62
     7
100
AcDbVertex
100
AcDb2dVertex
 10
56.0
 20
156.007811
 30
0.0
  0
VERTEX
  5
2CC
330
234
100
AcDbEntity
  8
1
  6
CONTINUOUS
 62
     7
100
AcDbVertex
100
AcDb2dVertex
 10
56.0
 20
156.027994
 30
0.0
  0
VERTEX
  5
2CD
330
234
100
AcDbEntity
  8
1
  6
CONTINUOUS
 62
     7
100
AcDbVertex
100
AcDb2dVertex
 10
56.0
 20
156.738817
 30
0.0
  0
VERTEX
  5
2CE
330
234
100
AcDbEntity
  8
1
  6
CONTINUOUS
 62
     7
100
AcDbVertex
100
AcDb2dVertex
 10
56.0
 20
157.68658
 30
0.0
  0
VERTEX
  5
2CF
330
234
100
AcDbEntity
  8
1
  6
CONTINUOUS
 62
     7
100
AcDbVertex
100
AcDb2dVertex
 10
56.0
 20
159.582107
 30
0.0
  0
VERTEX
  5
2D0
330
234
100
AcDbEntity
  8
1
  6
CONTINUOUS
 62
     7
100
AcDbVertex
100
AcDb2dVertex
 10
56.0
 20
163.847042
 30
0.0
  0
VERTEX
  5
2D1
330
234
100
AcDbEntity
  8
1
  6
CONTINUOUS
 62
     7
100
AcDbVertex
100
AcDb2dVertex
 10
56.0
 20
163.946557
 30
0.0
  0
VERTEX
  5
2D2
330
234
100
AcDbEntity
  8
1
  6
CONTINUOUS
 62
     7
100
AcDbVertex
100
AcDb2dVertex
 10
56.0
 20
164.0
 30
0.0
  0
VERTEX
  5
2D3
330
234
100
AcDbEntity
  8
1
  6
CONTINUOUS
 62
     7
100
AcDbVertex
100
AcDb2dVertex
 10
55.975253
 20
164.0
 30
0.0
  0
VERTEX
  5
2D4
330
234
100
AcDbEntity
  8
1
  6
CONTINUOUS
 62
     7
100
AcDbVertex
100
AcDb2dVertex
 10
55.442136
 20
164.0
 30
0.0
  0
VERTEX
  5
2D5
330
234
100
AcDbEntity
  8
1
  6
CONTINUOUS
 62
     7
100
AcDbVertex
100
AcDb2dVertex
 10
54.731313
 20
164.0
 30
0.0
  0
VERTEX
  5
2D6
330
234
100
AcDbEntity
  8
1
  6
CONTINUOUS
 62
     7
100
AcDbVertex
100
AcDb2dVertex
 10
37.671573
 20
164.0
 30
0.0
  0
VERTEX
  5
2D7
330
234
100
AcDbEntity
  8
1
  6
CONTINUOUS
 62
     7
100
AcDbVertex
100
AcDb2dVertex
 10
-53.313708
 20
164.0
 30
0.0
  0
VERTEX
  5
2D8
330
234
100
AcDbEntity
  8
1
  6
CONTINUOUS
 62
     7
100
AcDbVertex
100
AcDb2dVertex
 10
-54.735354
 20
164.0
 30
0.0
  0
VERTEX
  5
2D9
330
234
100
AcDbEntity
  8
1
  6
CONTINUOUS
 62
     7
100
AcDbVertex
100
AcDb2dVertex
 10
-55.019683
 20
164.0
 30
0.0
  0
VERTEX
  5
2DA
330
234
100
AcDbEntity
  8
1
  6
CONTINUOUS
 62
     7
100
AcDbVertex
100
AcDb2dVertex
 10
-55.304012
 20
164.0
 30
0.0
  0
VERTEX
  5
2DB
330
234
100
AcDbEntity
  8
1
  6
CONTINUOUS
 62
     7
100
AcDbVertex
100
AcDb2dVertex
 10
-55.588341
 20
164.0
 30
0.0
  0
VERTEX
  5
2DC
330
234
100
AcDbEntity
  8
1
  6
CONTINUOUS
 62
     7
100
AcDbVertex
100
AcDb2dVertex
 10
-55.87267
 20
164.0
 30
0.0
  0
VERTEX
  5
2DD
330
234
100
AcDbEntity
  8
1
  6
CONTINUOUS
 62
     7
100
AcDbVertex
100
AcDb2dVertex
 10
-56.0
 20
164.0
 30
0.0
  0
VERTEX
  5
2DE
330
234
100
AcDbEntity
  8
1
  6
CONTINUOUS
 62
     7
100
AcDbVertex
100
AcDb2dVertex
 10
-56.0
 20
163.843001
 30
0.0
  0
VERTEX
  5
2DF
330
234
100
AcDbEntity
  8
1
  6
CONTINUOUS
 62
     7
100
AcDbVertex
100
AcDb2dVertex
 10
-56.0
 20
160.999711
 30
0.0
  0
VERTEX
  5
2E0
330
234
100
AcDbEntity
  8
1
  6
CONTINUOUS
 62
     7
100
AcDbVertex
100
AcDb2dVertex
 10
-56.0
 20
157.417166
 30
0.0
  0
VERTEX
  5
2E1
330
234
100
AcDbEntity
  8
1
  6
CONTINUOUS
 62
     7
100
AcDbVertex
100
AcDb2dVertex
 10
-56.0
 20
157.015044
 30
0.0
  0
VERTEX
  5
2E2
330
234
100
AcDbEntity
  8
1
  6
CONTINUOUS
 62
     7
100
AcDbVertex
100
AcDb2dVertex
 10
-56.0
 20
156.612921
 30
0.0
  0
VERTEX
  5
2E3
330
234
100
AcDbEntity
  8
1
  6
CONTINUOUS
 62
     7
100
AcDbVertex
100
AcDb2dVertex
 10
-56.0
 20
156.210799
 30
0.0
  0
VERTEX
  5
2E4
330
234
100
AcDbEntity
  8
1
  6
CONTINUOUS
 62
     7
100
AcDbVertex
100
AcDb2dVertex
 10
-56.0
 20
156.0
 30
0.0
  0
VERTEX
  5
2E5
330
234
100
AcDbEntity
  8
1
  6
CONTINUOUS
 62
     7
100
AcDbVertex
100
AcDb2dVertex
 10
-55.808676
 20
156.0
 30
0.0
  0
VERTEX
  5
2E6
330
234
100
AcDbEntity
  8
1
  6
CONTINUOUS
 62
     7
100
AcDbVertex
100
AcDb2dVertex
 10
-55.406554
 20
156.0
 30
0.0
  0
VERTEX
  5
2E7
330
234
100
AcDbEntity
  8
1
  6
CONTINUOUS
 62
     7
100
AcDbVertex
100
AcDb2dVertex
 10
-55.004431
 20
156.0
 30
0.0
  0
VERTEX
  5
2E8
330
234
100
AcDbEntity
  8
1
  6
CONTINUOUS
 62
     7
100
AcDbVertex
100
AcDb2dVertex
 10
-54.602309
 20
156.0
 30
0.0
  0
VERTEX
  5
2E9
330
234
100
AcDbEntity
  8
1
  6
CONTINUOUS
 62
     7
100
AcDbVertex
100
AcDb2dVertex
 10
-53.322828
 20
156.0
 30
0.0
  0
VERTEX
  5
2EA
330
234
100
AcDbEntity
  8
1
  6
CONTINUOUS
 62
     7
100
AcDbVertex
100
AcDb2dVertex
 10
-52.043348
 20
156.0
 30
0.0
  0
VERTEX
  5
2EB
330
234
100
AcDbEntity
  8
1
  6
CONTINUOUS
 62
     7
100
AcDbVertex
100
AcDb2dVertex
 10
-50.714377
 20
155.787766
 30
0.0
  0
VERTEX
  5
2EC
330
234
100
AcDbEntity
  8
1
  6
CONTINUOUS
 62
     7
100
AcDbVertex
100
AcDb2dVertex
 10
-49.44202
 20
155.075181
 30
0.0
  0
VERTEX
  5
2ED
330
234
100
AcDbEntity
  8
1
  6
CONTINUOUS
 62
     7
100
AcDbVertex
100
AcDb2dVertex
 10
-48.497633
 20
153.932208
 30
0.0
  0
VERTEX
  5
2EE
330
234
100
AcDbEntity
  8
1
  6
CONTINUOUS
 62
     7
100
AcDbVertex
100
AcDb2dVertex
 10
-48.085135
 20
152.820872
 30
0.0
  0
VERTEX
  5
2EF
330
234
100
AcDbEntity
  8
1
  6
CONTINUOUS
 62
     7
100
AcDbVertex
100
AcDb2dVertex
 10
-48.009411
 20
151.725768
 30
0.0
  0
VERTEX
  5
2F0
330
234
100
AcDbEntity
  8
1
  6
CONTINUOUS
 62
     7
100
AcDbVertex
100
AcDb2dVertex
 10
-48.249841
 20
150.608488
 30
0.0
  0
VERTEX
  5
2F1
330
234
100
AcDbEntity
  8
1
  6
CONTINUOUS
 62
     7
100
AcDbVertex
100
AcDb2dVertex
 10
-48.842498
 20
149.544357
 30
0.0
  0
VERTEX
  5
2F2
330
234
100
AcDbEntity
  8
1
  6
CONTINUOUS
 62
     7
100
AcDbVertex
100
AcDb2dVertex
 10
-49.747351
 20
148.694615
 30
0.0
  0
VERTEX
  5
2F3
330
234
100
AcDbEntity
  8
1
  6
CONTINUOUS
 62
     7
100
AcDbVertex
100
AcDb2dVertex
 10
-50.835468
 20
148.17327
 30
0.0
  0
VERTEX
  5
2F4
330
234
100
AcDbEntity
  8
1
  6
CONTINUOUS
 62
     7
100
AcDbVertex
100
AcDb2dVertex
 10
-51.944867
 20
148.00038
 30
0.0
  0
VERTEX
  5
2F5
330
234
100
AcDbEntity
  8
1
  6
CONTINUOUS
 62
     7
100
AcDbVertex
100
AcDb2dVertex
 10
-53.011255
 20
148.0
 30
0.0
  0
VERTEX
  5
2F6
330
234
100
AcDbEntity
  8
1
  6
CONTINUOUS
 62
     7
100
AcDbVertex
100
AcDb2dVertex
 10
-55.258228
 20
148.0
 30
0.0
  0
VERTEX
  5
2F7
330
234
100
AcDbEntity
  8
1
  6
CONTINUOUS
 62
     7
100
AcDbVertex
100
AcDb2dVertex
 10
-55.611324
 20
148.0
 30
0.0
  0
VERTEX
  5
2F8
330
234
100
AcDbEntity
  8
1
  6
CONTINUOUS
 62
     7
100
AcDbVertex
100
AcDb2dVertex
 10
-55.964419
 20
148.0
 30
0.0
  0
VERTEX
  5
2F9
330
234
100
AcDbEntity
  8
1
  6
CONTINUOUS
 62
     7
100
AcDbVertex
100
AcDb2dVertex
 10
-56.0
 20
148.0
 30
0.0
  0
VERTEX
  5
2FA
330
234
100
AcDbEntity
  8
1
  6
CONTINUOUS
 62
     7
100
AcDbVertex
100
AcDb2dVertex
 10
-56.0
 20
147.682485
 30
0.0
  0
VERTEX
  5
2FB
330
234
100
AcDbEntity
  8
1
  6
CONTINUOUS
 62
     7
100
AcDbVertex
100
AcDb2dVertex
 10
-56.0
 20
147.329389
 30
0.0
  0
VERTEX
  5
2FC
330
234
100
AcDbEntity
  8
1
  6
CONTINUOUS
 62
     7
100
AcDbVertex
100
AcDb2dVertex
 10
-56.0
 20
146.976294
 30
0.0
  0
VERTEX
  5
2FD
330
234
100
AcDbEntity
  8
1
  6
CONTINUOUS
 62
     7
100
AcDbVertex
100
AcDb2dVertex
 10
-56.0
 20
143.823654
 30
0.0
  0
VERTEX
  5
2FE
330
234
100
AcDbEntity
  8
1
  6
CONTINUOUS
 62
     7
100
AcDbVertex
100
AcDb2dVertex
 10
-56.0
 20
138.193939
 30
0.0
  0
VERTEX
  5
2FF
330
234
100
AcDbEntity
  8
1
  6
CONTINUOUS
 62
     7
100
AcDbVertex
100
AcDb2dVertex
 10
-56.0
 20
121.134199
 30
0.0
  0
VERTEX
  5
300
330
234
100
AcDbEntity
  8
1
  6
CONTINUOUS
 62
     7
100
AcDbVertex
100
AcDb2dVertex
 10
-56.0
 20
87.014719
 30
0.0
  0
VERTEX
  5
301
330
234
100
AcDbEntity
  8
1
  6
CONTINUOUS
 62
     7
100
AcDbVertex
100
AcDb2dVertex
 10
-56.0
 20
52.895238
 30
0.0
  0
VERTEX
  5
302
330
234
100
AcDbEntity
  8
1
  6
CONTINUOUS
 62
     7
100
AcDbVertex
100
AcDb2dVertex
 10
-56.0
 20
46.876562
 30
0.0
  0
VERTEX
  5
303
330
234
100
AcDbEntity
  8
1
  6
CONTINUOUS
 62
     7
100
AcDbVertex
100
AcDb2dVertex
 10
-56.0
 20
44.228344
 30
0.0
  0
VERTEX
  5
304
330
234
100
AcDbEntity
  8
1
  6
CONTINUOUS
 62
     7
100
AcDbVertex
100
AcDb2dVertex
 10
-56.0
 20
44.0
 30
0.0
  0
VERTEX
  5
305
330
234
100
AcDbEntity
  8
1
  6
CONTINUOUS
 62
     7
100
AcDbVertex
100
AcDb2dVertex
 10
-55.812196
 20
44.0
 30
0.0
  0
VERTEX
  5
306
330
234
100
AcDbEntity
  8
1
  6
CONTINUOUS
 62
     7
100
AcDbVertex
100
AcDb2dVertex
 10
-55.396047
 20
44.0
 30
0.0
  0
VERTEX
  5
307
330
234
100
AcDbEntity
  8
1
  6
CONTINUOUS
 62
     7
100
AcDbVertex
100
AcDb2dVertex
 10
-54.979899
 20
44.0
 30
0.0
  0
VERTEX
  5
308
330
234
100
AcDbEntity
  8
1
  6
CONTINUOUS
 62
     7
100
AcDbVertex
100
AcDb2dVertex
 10
-54.56375
 20
44.0
 30
0.0
  0
VERTEX
  5
309
330
234
100
AcDbEntity
  8
1
  6
CONTINUOUS
 62
     7
100
AcDbVertex
100
AcDb2dVertex
 10
-54.147602
 20
44.0
 30
0.0
  0
VERTEX
  5
30A
330
234
100
AcDbEntity
  8
1
  6
CONTINUOUS
 62
     7
100
AcDbVertex
100
AcDb2dVertex
 10
-52.965362
 20
44.0
 30
0.0
  0
VERTEX
  5
30B
330
234
100
AcDbEntity
  8
1
  6
CONTINUOUS
 62
     7
100
AcDbVertex
100
AcDb2dVertex
 10
-51.780823
 20
43.993991
 30
0.0
  0
VERTEX
  5
30C
330
234
100
AcDbEntity
  8
1
  6
CONTINUOUS
 62
     7
100
AcDbVertex
100
AcDb2dVertex
 10
-50.543395
 20
43.725359
 30
0.0
  0
VERTEX
  5
30D
330
234
100
AcDbEntity
  8
1
  6
CONTINUOUS
 62
     7
100
AcDbVertex
100
AcDb2dVertex
 10
-49.38338
 20
43.025442
 30
0.0
  0
VERTEX
  5
30E
330
234
100
AcDbEntity
  8
1
  6
CONTINUOUS
 62
     7
100
AcDbVertex
100
AcDb2dVertex
 10
-48.483969
 20
41.90723
 30
0.0
  0
VERTEX
  5
30F
330
234
100
AcDbEntity
  8
1
  6
CONTINUOUS
 62
     7
100
AcDbVertex
100
AcDb2dVertex
 10
-48.04739
 20
40.613898
 30
0.0
  0
VERTEX
  5
310
330
234
100
AcDbEntity
  8
1
  6
CONTINUOUS
 62
     7
100
AcDbVertex
100
AcDb2dVertex
 10
-48.054417
 20
39.342445
 30
0.0
  0
VERTEX
  5
311
330
234
100
AcDbEntity
  8
1
  6
CONTINUOUS
 62
     7
100
AcDbVertex
100
AcDb2dVertex
 10
-48.415187
 20
38.225425
 30
0.0
  0
VERTEX
  5
312
330
234
100
AcDbEntity
  8
1
  6
CONTINUOUS
 62
     7
100
AcDbVertex
100
AcDb2dVertex
 10
-49.125691
 20
37.218211
 30
0.0
  0
VERTEX
  5
313
330
234
100
AcDbEntity
  8
1
  6
CONTINUOUS
 62
     7
100
AcDbVertex
100
AcDb2dVertex
 10
-50.111874
 20
36.473673
 30
0.0
  0
VERTEX
  5
314
330
234
100
AcDbEntity
  8
1
  6
CONTINUOUS
 62
     7
100
AcDbVertex
100
AcDb2dVertex
 10
-51.225155
 20
36.075766
 30
0.0
  0
VERTEX
  5
315
330
234
100
AcDbEntity
  8
1
  6
CONTINUOUS
 62
     7
100
AcDbVertex
100
AcDb2dVertex
 10
-52.31443
 20
36.0
 30
0.0
  0
VERTEX
  5
316
330
234
100
AcDbEntity
  8
1
  6
CONTINUOUS
 62
     7
100
AcDbVertex
100
AcDb2dVertex
 10
-53.380664
 20
36.0
 30
0.0
  0
VERTEX
  5
317
330
234
100
AcDbEntity
  8
1
  6
CONTINUOUS
 62
     7
100
AcDbVertex
100
AcDb2dVertex
 10
-55.513131
 20
36.0
 30
0.0
  0
VERTEX
  5
318
330
234
100
AcDbEntity
  8
1
  6
CONTINUOUS
 62
     7
100
AcDbVertex
100
AcDb2dVertex
 10
-55.794003
 20
36.0
 30
0.0
  0
VERTEX
  5
319
330
234
100
AcDbEntity
  8
1
  6
CONTINUOUS
 62
     7
100
AcDbVertex
100
AcDb2dVertex
 10
-56.0
 20
36.0
 30
0.0
  0
VERTEX
  5
31A
330
234
100
AcDbEntity
  8
1
  6
CONTINUOUS
 62
     7
100
AcDbVertex
100
AcDb2dVertex
 10
-56.0
 20
35.925126
 30
0.0
  0
VERTEX
  5
31B
330
234
100
AcDbEntity
  8
1
  6
CONTINUOUS
 62
     7
100
AcDbVertex
100
AcDb2dVertex
 10
-56.0
 20
35.644254
 30
0.0
  0
VERTEX
  5
31C
330
234
100
AcDbEntity
  8
1
  6
CONTINUOUS
 62
     7
100
AcDbVertex
100
AcDb2dVertex
 10
-56.0
 20
35.363382
 30
0.0
  0
VERTEX
  5
31D
330
234
100
AcDbEntity
  8
1
  6
CONTINUOUS
 62
     7
100
AcDbVertex
100
AcDb2dVertex
 10
-56.0
 20
34.480643
 30
0.0
  0
VERTEX
  5
31E
330
234
100
AcDbEntity
  8
1
  6
CONTINUOUS
 62
     7
100
AcDbVertex
100
AcDb2dVertex
 10
-56.0
 20
32.904323
 30
0.0
  0
VERTEX
  5
31F
330
234
100
AcDbEntity
  8
1
  6
CONTINUOUS
 62
     7
100
AcDbVertex
100
AcDb2dVertex
 10
-56.0
 20
30.089466
 30
0.0
  0
VERTEX
  5
320
330
234
100
AcDbEntity
  8
1
  6
CONTINUOUS
 62
     7
100
AcDbVertex
100
AcDb2dVertex
 10
-56.0
 20
7.343146
 30
0.0
  0
VERTEX
  5
321
330
234
100
AcDbEntity
  8
1
  6
CONTINUOUS
 62
     7
100
AcDbVertex
100
AcDb2dVertex
 10
-56.0
 20
-26.776335
 30
0.0
  0
VERTEX
  5
322
330
234
100
AcDbEntity
  8
1
  6
CONTINUOUS
 62
     7
100
AcDbVertex
100
AcDb2dVertex
 10
-56.0
 20
-32.795011
 30
0.0
  0
VERTEX
  5
323
330
234
100
AcDbEntity
  8
1
  6
CONTINUOUS
 62
     7
100
AcDbVertex
100
AcDb2dVertex
 10
-56.0
 20
-35.443229
 30
0.0
  0
VERTEX
  5
324
330
234
100
AcDbEntity
  8
1
  6
CONTINUOUS
 62
     7
100
AcDbVertex
100
AcDb2dVertex
 10
-56.0
 20
-35.734533
 30
0.0
  0
VERTEX
  5
325
330
234
100
AcDbEntity
  8
1
  6
CONTINUOUS
 62
     7
100
AcDbVertex
100
AcDb2dVertex
 10
-56.0
 20
-36.0
 30
0.0
  0
VERTEX
  5
326
330
234
100
AcDbEntity
  8
1
  6
CONTINUOUS
 62
     7
100
AcDbVertex
100
AcDb2dVertex
 10
-55.974163
 20
-36.0
 30
0.0
  0
VERTEX
  5
327
330
234
100
AcDbEntity
  8
1
  6
CONTINUOUS
 62
     7
100
AcDbVertex
100
AcDb2dVertex
 10
-55.682859
 20
-36.0
 30
0.0
  0
VERTEX
  5
328
330
234
100
AcDbEntity
  8
1
  6
CONTINUOUS
 62
     7
100
AcDbVertex
100
AcDb2dVertex
 10
-55.391556
 20
-36.0
 30
0.0
  0
VERTEX
  5
329
330
234
100
AcDbEntity
  8
1
  6
CONTINUOUS
 62
     7
100
AcDbVertex
100
AcDb2dVertex
 10
-54.476029
 20
-36.0
 30
0.0
  0
VERTEX
  5
32A
330
234
100
AcDbEntity
  8
1
  6
CONTINUOUS
 62
     7
100
AcDbVertex
100
AcDb2dVertex
 10
-53.293789
 20
-36.0
 30
0.0
  0
VERTEX
  5
32B
330
234
100
AcDbEntity
  8
1
  6
CONTINUOUS
 62
     7
100
AcDbVertex
100
AcDb2dVertex
 10
-52.111549
 20
-36.0
 30
0.0
  0
VERTEX
  5
32C
330
234
100
AcDbEntity
  8
1
  6
CONTINUOUS
 62
     7
100
AcDbVertex
100
AcDb2dVertex
 10
-50.888779
 20
-36.15745
 30
0.0
  0
VERTEX
  5
32D
330
234
100
AcDbEntity
  8
1
  6
CONTINUOUS
 62
     7
100
AcDbVertex
100
AcDb2dVertex
 10
-49.684864
 20
-36.738076
 30
0.0
  0
VERTEX
  5
32E
330
234
100
AcDbEntity
  8
1
  6
CONTINUOUS
 62
     7
100
AcDbVertex
100
AcDb2dVertex
 10
-48.680259
 20
-37.768561
 30
0.0
  0
VERTEX
  5
32F
330
234
100
AcDbEntity
  8
1
  6
CONTINUOUS
 62
     7
100
AcDbVertex
100
AcDb2dVertex
 10
-48.116751
 20
-39.040638
 30
0.0
  0
VERTEX
  5
330
330
234
100
AcDbEntity
  8
1
  6
CONTINUOUS
 62
     7
100
AcDbVertex
100
AcDb2dVertex
 10
-48.012526
 20
-40.316305
 30
0.0
  0
VERTEX
  5
331
330
234
100
AcDbEntity
  8
1
  6
CONTINUOUS
 62
     7
100
AcDbVertex
100
AcDb2dVertex
 10
-48.266049
 20
-41.434437
 30
0.0
  0
VERTEX
  5
332
330
234
100
AcDbEntity
  8
1
  6
CONTINUOUS
 62
     7
100
AcDbVertex
100
AcDb2dVertex
 10
-48.872095
 20
-42.493233
 30
0.0
  0
VERTEX
  5
333
330
234
100
AcDbEntity
  8
1
  6
CONTINUOUS
 62
     7
100
AcDbVertex
100
AcDb2dVertex
 10
-49.786815
 20
-43.331938
 30
0.0
  0
VERTEX
  5
334
330
234
100
AcDbEntity
  8
1
  6
CONTINUOUS
 62
     7
100
AcDbVertex
100
AcDb2dVertex
 10
-50.87871
 20
-43.839623
 30
0.0
  0
VERTEX
  5
335
330
234
100
AcDbEntity
  8
1
  6
CONTINUOUS
 62
     7
100
AcDbVertex
100
AcDb2dVertex
 10
-51.985993
 20
-43.999975
 30
0.0
  0
VERTEX
  5
336
330
234
100
AcDbEntity
  8
1
  6
CONTINUOUS
 62
     7
100
AcDbVertex
100
AcDb2dVertex
 10
-53.052237
 20
-44.0
 30
0.0
  0
VERTEX
  5
337
330
234
100
AcDbEntity
  8
1
  6
CONTINUOUS
 62
     7
100
AcDbVertex
100
AcDb2dVertex
 10
-55.184704
 20
-44.0
 30
0.0
  0
VERTEX
  5
338
330
234
100
AcDbEntity
  8
1
  6
CONTINUOUS
 62
     7
100
AcDbVertex
100
AcDb2dVertex
 10
-55.813856
 20
-44.0
 30
0.0
  0
VERTEX
  5
339
330
234
100
AcDbEntity
  8
1
  6
CONTINUOUS
 62
     7
100
AcDbVertex
100
AcDb2dVertex
 10
-56.0
 20
-44.0
 30
0.0
  0
VERTEX
  5
33A
330
234
100
AcDbEntity
  8
1
  6
CONTINUOUS
 62
     7
100
AcDbVertex
100
AcDb2dVertex
 10
-56.0
 20
-44.061023
 30
0.0
  0
VERTEX
  5
33B
330
234
100
AcDbEntity
  8
1
  6
CONTINUOUS
 62
     7
100
AcDbVertex
100
AcDb2dVertex
 10
-56.0
 20
-44.30819
 30
0.0
  0
VERTEX
  5
33C
330
234
100
AcDbEntity
  8
1
  6
CONTINUOUS
 62
     7
100
AcDbVertex
100
AcDb2dVertex
 10
-56.0
 20
-45.19093
 30
0.0
  0
VERTEX
  5
33D
330
234
100
AcDbEntity
  8
1
  6
CONTINUOUS
 62
     7
100
AcDbVertex
100
AcDb2dVertex
 10
-56.0
 20
-46.76725
 30
0.0
  0
VERTEX
  5
33E
330
234
100
AcDbEntity
  8
1
  6
CONTINUOUS
 62
     7
100
AcDbVertex
100
AcDb2dVertex
 10
-56.0
 20
-49.582107
 30
0.0
  0
VERTEX
  5
33F
330
234
100
AcDbEntity
  8
1
  6
CONTINUOUS
 62
     7
100
AcDbVertex
100
AcDb2dVertex
 10
-56.0
 20
-72.328427
 30
0.0
  0
VERTEX
  5
340
330
234
100
AcDbEntity
  8
1
  6
CONTINUOUS
 62
     7
100
AcDbVertex
100
AcDb2dVertex
 10
-56.0
 20
-140.567388
 30
0.0
  0
VERTEX
  5
341
330
234
100
AcDbEntity
  8
1
  6
CONTINUOUS
 62
     7
100
AcDbVertex
100
AcDb2dVertex
 10
-56.0
 20
-144.832323
 30
0.0
  0
VERTEX
  5
342
330
234
100
AcDbEntity
  8
1
  6
CONTINUOUS
 62
     7
100
AcDbVertex
100
AcDb2dVertex
 10
-56.0
 20
-145.543146
 30
0.0
  0
VERTEX
  5
343
330
234
100
AcDbEntity
  8
1
  6
CONTINUOUS
 62
     7
100
AcDbVertex
100
AcDb2dVertex
 10
-56.0
 20
-146.253968
 30
0.0
  0
VERTEX
  5
344
330
234
100
AcDbEntity
  8
1
  6
CONTINUOUS
 62
     7
100
AcDbVertex
100
AcDb2dVertex
 10
-56.0
 20
-146.964791
 30
0.0
  0
VERTEX
  5
345
330
234
100
AcDbEntity
  8
1
  6
CONTINUOUS
 62
     7
100
AcDbVertex
100
AcDb2dVertex
 10
-56.0
 20
-147.675613
 30
0.0
  0
VERTEX
  5
346
330
234
100
AcDbEntity
  8
1
  6
CONTINUOUS
 62
     7
100
AcDbVertex
100
AcDb2dVertex
 10
-56.0
 20
-148.0
 30
0.0
  0
VERTEX
  5
347
330
234
100
AcDbEntity
  8
1
  6
CONTINUOUS
 62
     7
100
AcDbVertex
100
AcDb2dVertex
 10
-55.613564
 20
-148.0
 30
0.0
  0
VERTEX
  5
348
330
234
100
AcDbEntity
  8
1
  6
CONTINUOUS
 62
     7
100
AcDbVertex
100
AcDb2dVertex
 10
-54.902742
 20
-148.0
 30
0.0
  0
VERTEX
  5
349
330
234
100
AcDbEntity
  8
1
  6
CONTINUOUS
 62
     7
100
AcDbVertex
100
AcDb2dVertex
 10
-53.836508
 20
-148.0
 30
0.0
  0
VERTEX
  5
34A
330
234
100
AcDbEntity
  8
1
  6
CONTINUOUS
 62
     7
100
AcDbVertex
100
AcDb2dVertex
 10
-52.770274
 20
-148.0
 30
0.0
  0
VERTEX
  5
34B
330
234
100
AcDbEntity
  8
1
  6
CONTINUOUS
 62
     7
100
AcDbVertex
100
AcDb2dVertex
 10
-51.699858
 20
-148.011277
 30
0.0
  0
VERTEX
  5
34C
330
234
100
AcDbEntity
  8
1
  6
CONTINUOUS
 62
     7
100
AcDbVertex
100
AcDb2dVertex
 10
-50.582029
 20
-148.259765
 30
0.0
  0
VERTEX
  5
34D
330
234
100
AcDbEntity
  8
1
  6
CONTINUOUS
 62
     7
100
AcDbVertex
100
AcDb2dVertex
 10
-49.521155
 20
-148.86068
 30
0.0
  0
VERTEX
  5
34E
330
234
100
AcDbEntity
  8
1
  6
CONTINUOUS
 62
     7
100
AcDbVertex
100
AcDb2dVertex
 10
-48.678194
 20
-149.771637
 30
0.0
  0
VERTEX
  5
34F
330
234
100
AcDbEntity
  8
1
  6
CONTINUOUS
 62
     7
100
AcDbVertex
100
AcDb2dVertex
 10
-48.165263
 20
-150.862111
 30
0.0
  0
VERTEX
  5
350
330
234
100
AcDbEntity
  8
1
  6
CONTINUOUS
 62
     7
100
AcDbVertex
100
AcDb2dVertex
 10
-48.000111
 20
-151.970229
 30
0.0
  0
VERTEX
  5
351
330
234
100
AcDbEntity
  8
1
  6
CONTINUOUS
 62
     7
100
AcDbVertex
100
AcDb2dVertex
 10
-48.114465
 20
-152.950061
 30
0.0
  0
VERTEX
  5
352
330
234
100
AcDbEntity
  8
1
  6
CONTINUOUS
 62
     7
100
AcDbVertex
100
AcDb2dVertex
 10
-48.499878
 20
-153.93627
 30
0.0
  0
VERTEX
  5
353
330
234
100
AcDbEntity
  8
1
  6
CONTINUOUS
 62
     7
100
AcDbVertex
100
AcDb2dVertex
 10
-49.159287
 20
-154.816088
 30
0.0
  0
VERTEX
  5
354
330
234
100
AcDbEntity
  8
1
  6
CONTINUOUS
 62
     7
100
AcDbVertex
100
AcDb2dVertex
 10
-50.033903
 20
-155.483456
 30
0.0
  0
VERTEX
  5
355
330
234
100
AcDbEntity
  8
1
  6
CONTINUOUS
 62
     7
100
AcDbVertex
100
AcDb2dVertex
 10
-51.018561
 20
-155.877728
 30
0.0
  0
VERTEX
  5
356
330
234
100
AcDbEntity
  8
1
  6
CONTINUOUS
 62
     7
100
AcDbVertex
100
AcDb2dVertex
 10
-52.0
 20
-156.0
 30
0.0
  0
SEQEND
  5
357
330
234
100
AcDbEntity
  8
1
  6
CONTINUOUS
 62
     7
  0
POLYLINE
  5
358
330
1F
100
AcDbEntity
  8
1
  6
CONTINUOUS
 62
   252
100
AcDb2dPolyline
 66
     1
 10
0.0
 20
0.0
 30
0.0
  0
VERTEX
  5
359
330
358
100
AcDbEntity
  8
1
  6
CONTINUOUS
 62
   252
100
AcDbVertex
100
AcDb2dVertex
 10
-56.0
 20
36.0
 30
0.0
  0
VERTEX
  5
35A
330
358
100
AcDbEntity
  8
1
  6
CONTINUOUS
 62
   252
100
AcDbVertex
100
AcDb2dVertex
 10
-56.0
 20
-4.32
 30
0.0
  0
VERTEX
  5
35B
330
358
100
AcDbEntity
  8
1
  6
CONTINUOUS
 62
   252
100
AcDbVertex
100
AcDb2dVertex
 10
-56.0
 20
-36.0
 30
0.0
  0
SEQEND
  5
35C
330
358
100
AcDbEntity
  8
1
  6
CONTINUOUS
 62
   252
  0
POLYLINE
  5
35D
330
1F
100
AcDbEntity
  8
1
  6
CONTINUOUS
 62
   252
100
AcDb2dPolyline
 66
     1
 10
0.0
 20
0.0
 30
0.0
  0
VERTEX
  5
35E
330
35D
100
AcDbEntity
  8
1
  6
CONTINUOUS
 62
   252
100
AcDbVertex
100
AcDb2dVertex
 10
56.0
 20
52.0
 30
0.0
  0
VERTEX
  5
35F
330
35D
100
AcDbEntity
  8
1
  6
CONTINUOUS
 62
   252
100
AcDbVertex
100
AcDb2dVertex
 10
54.792893
 20
52.0
 30
0.0
  0
VERTEX
  5
360
330
35D
100
AcDbEntity
  8
1
  6
CONTINUOUS
 62
   252
100
AcDbVertex
100
AcDb2dVertex
 10
53.585786
 20
52.0
 30
0.0
  0
VERTEX
  5
361
330
35D
100
AcDbEntity
  8
1
  6
CONTINUOUS
 62
   252
100
AcDbVertex
100
AcDb2dVertex
 10
52.37868
 20
52.0
 30
0.0
  0
VERTEX
  5
362
330
35D
100
AcDbEntity
  8
1
  6
CONTINUOUS
 62
   252
100
AcDbVertex
100
AcDb2dVertex
 10
51.144461
 20
52.092564
 30
0.0
  0
VERTEX
  5
363
330
35D
100
AcDbEntity
  8
1
  6
CONTINUOUS
 62
   252
100
AcDbVertex
100
AcDb2dVertex
 10
49.894945
 20
52.598714
 30
0.0
  0
VERTEX
  5
364
330
35D
100
AcDbEntity
  8
1
  6
CONTINUOUS
 62
   252
100
AcDbVertex
100
AcDb2dVertex
 10
48.850424
 20
53.5342
 30
0.0
  0
VERTEX
  5
365
330
35D
100
AcDbEntity
  8
1
  6
CONTINUOUS
 62
   252
100
AcDbVertex
100
AcDb2dVertex
 10
48.202
 20
54.744931
 30
0.0
  0
VERTEX
  5
366
330
35D
100
AcDbEntity
  8
1
  6
CONTINUOUS
 62
   252
100
AcDbVertex
100
AcDb2dVertex
 10
48.0
 20
56.0
 30
0.0
  0
VERTEX
  5
367
330
35D
100
AcDbEntity
  8
1
  6
CONTINUOUS
 62
   252
100
AcDbVertex
100
AcDb2dVertex
 10
48.202
 20
57.255069
 30
0.0
  0
VERTEX
  5
368
330
35D
100
AcDbEntity
  8
1
  6
CONTINUOUS
 62
   252
100
AcDbVertex
100
AcDb2dVertex
 10
48.850424
 20
58.4658
 30
0.0
  0
VERTEX
  5
369
330
35D
100
AcDbEntity
  8
1
  6
CONTINUOUS
 62
   252
100
AcDbVertex
100
AcDb2dVertex
 10
49.894945
 20
59.401286
 30
0.0
  0
VERTEX
  5
36A
330
35D
100
AcDbEntity
  8
1
  6
CONTINUOUS
 62
   252
100
AcDbVertex
100
AcDb2dVertex
 10
51.144461
 20
59.907436
 30
0.0
  0
VERTEX
  5
36B
330
35D
100
AcDbEntity
  8
1
  6
CONTINUOUS
 62
   252
100
AcDbVertex
100
AcDb2dVertex
 10
52.37868
 20
60.0
 30
0.0
  0
VERTEX
  5
36C
330
35D
100
AcDbEntity
  8
1
  6
CONTINUOUS
 62
   252
100
AcDbVertex
100
AcDb2dVertex
 10
53.585786
 20
60.0
 30
0.0
  0
VERTEX
  5
36D
330
35D
100
AcDbEntity
  8
1
  6
CONTINUOUS
 62
   252
100
AcDbVertex
100
AcDb2dVertex
 10
54.792893
 20
60.0
 30
0.0
  0
VERTEX
  5
36E
330
35D
100
AcDbEntity
  8
1
  6
CONTINUOUS
 62
   252
100
AcDbVertex
100
AcDb2dVertex
 10
56.0
 20
60.0
 30
0.0
  0
SEQEND
  5
36F
330
35D
100
AcDbEntity
  8
1
  6
CONTINUOUS
 62
   252
  0
POLYLINE
  5
370
330
1F
100
AcDbEntity
  8
1
  6
CONTINUOUS
 62
   252
100
AcDb2dPolyline
 66
     1
 10
0.0
 20
0.0
 30
0.0
  0
VERTEX
  5
371
330
370
100
AcDbEntity
  8
1
  6
CONTINUOUS
 62
   252
100
AcDbVertex
100
AcDb2dVertex
 10
56.0
 20
-164.0
 30
0.0
  0
VERTEX
  5
372
330
370
100
AcDbEntity
  8
1
  6
CONTINUOUS
 62
   252
100
AcDbVertex
100
AcDb2dVertex
 10
56.0
 20
-159.52
 30
0.0
  0
VERTEX
  5
373
330
370
100
AcDbEntity
  8
1
  6
CONTINUOUS
 62
   252
100
AcDbVertex
100
AcDb2dVertex
 10
56.0
 20
-156.0
 30
0.0
  0
SEQEND
  5
374
330
370
100
AcDbEntity
  8
1
  6
CONTINUOUS
 62
   252
  0
POLYLINE
  5
375
330
1F
100
AcDbEntity
  8
1
  6
CONTINUOUS
 62
   252
100
AcDb2dPolyline
 66
     1
 10
0.0
 20
0.0
 30
0.0
  0
VERTEX
  5
376
330
375
100
AcDbEntity
  8
1
  6
CONTINUOUS
 62
   252
100
AcDbVertex
100
AcDb2dVertex
 10
56.0
 20
164.0
 30
0.0
  0
VERTEX
  5
377
330
375
100
AcDbEntity
  8
1
  6
CONTINUOUS
 62
   252
100
AcDbVertex
100
AcDb2dVertex
 10
-6.72
 20
164.0
 30
0.0
  0
VERTEX
  5
378
330
375
100
AcDbEntity
  8
1
  6
CONTINUOUS
 62
   252
100
AcDbVertex
100
AcDb2dVertex
 10
-56.0
 20
164.0
 30
0.0
  0
SEQEND
  5
379
330
375
100
AcDbEntity
  8
1
  6
CONTINUOUS
 62
   252
  0
POLYLINE
  5
37A
330
1F
100
AcDbEntity
  8
1
  6
CONTINUOUS
 62
   252
100
AcDb2dPolyline
 66
     1
 10
0.0
 20
0.0
 30
0.0
  0
VERTEX
  5
37B
330
37A
100
AcDbEntity
  8
1
  6
CONTINUOUS
 62
   252
100
AcDbVertex
100
AcDb2dVertex
 10
-52.0
 20
-156.0
 30
0.0
  0
VERTEX
  5
37C
330
37A
100
AcDbEntity
  8
1
  6
CONTINUOUS
 62
   252
100
AcDbVertex
100
AcDb2dVertex
 10
-54.24
 20
-156.0
 30
0.0
  0
VERTEX
  5
37D
330
37A
100
AcDbEntity
  8
1
  6
CONTINUOUS
 62
   252
100
AcDbVertex
100
AcDb2dVertex
 10
-56.0
 20
-156.0
 30
0.0
  0
SEQEND
  5
37E
330
37A
100
AcDbEntity
  8
1
  6
CONTINUOUS
 62
   252
  0
POLYLINE
  5
37F
330
1F
100
AcDbEntity
  8
1
  6
CONTINUOUS
 62
   252
100
AcDb2dPolyline
 66
     1
 10
0.0
 20
0.0
 30
0.0
  0
VERTEX
  5
380
330
37F
100
AcDbEntity
  8
1
  6
CONTINUOUS
 62
   252
100
AcDbVertex
100
AcDb2dVertex
 10
-56.0
 20
-164.0
 30
0.0
  0
VERTEX
  5
381
330
37F
100
AcDbEntity
  8
1
  6
CONTINUOUS
 62
   252
100
AcDbVertex
100
AcDb2dVertex
 10
6.72
 20
-164.0
 30
0.0
  0
VERTEX
  5
382
330
37F
100
AcDbEntity
  8
1
  6
CONTINUOUS
 62
   252
100
AcDbVertex
100
AcDb2dVertex
 10
56.0
 20
-164.0
 30
0.0
  0
SEQEND
  5
383
330
37F
100
AcDbEntity
  8
1
  6
CONTINUOUS
 62
   252
  0
POLYLINE
  5
384
330
1F
100
AcDbEntity
  8
1
  6
CONTINUOUS
 62
   252
100
AcDb2dPolyline
 66
     1
 10
0.0
 20
0.0
 30
0.0
  0
VERTEX
  5
385
330
384
100
AcDbEntity
  8
1
  6
CONTINUOUS
 62
   252
100
AcDbVertex
100
AcDb2dVertex
 10
56.0
 20
-156.0
 30
0.0
  0
VERTEX
  5
386
330
384
100
AcDbEntity
  8
1
  6
CONTINUOUS
 62
   252
100
AcDbVertex
100
AcDb2dVertex
 10
54.792893
 20
-156.0
 30
0.0
  0
VERTEX
  5
387
330
384
100
AcDbEntity
  8
1
  6
CONTINUOUS
 62
   252
100
AcDbVertex
100
AcDb2dVertex
 10
53.585786
 20
-156.0
 30
0.0
  0
VERTEX
  5
388
330
384
100
AcDbEntity
  8
1
  6
CONTINUOUS
 62
   252
100
AcDbVertex
100
AcDb2dVertex
 10
52.37868
 20
-156.0
 30
0.0
  0
VERTEX
  5
389
330
384
100
AcDbEntity
  8
1
  6
CONTINUOUS
 62
   252
100
AcDbVertex
100
AcDb2dVertex
 10
51.144461
 20
-155.907436
 30
0.0
  0
VERTEX
  5
38A
330
384
100
AcDbEntity
  8
1
  6
CONTINUOUS
 62
   252
100
AcDbVertex
100
AcDb2dVertex
 10
49.894945
 20
-155.401286
 30
0.0
  0
VERTEX
  5
38B
330
384
100
AcDbEntity
  8
1
  6
CONTINUOUS
 62
   252
100
AcDbVertex
100
AcDb2dVertex
 10
48.850424
 20
-154.4658
 30
0.0
  0
VERTEX
  5
38C
330
384
100
AcDbEntity
  8
1
  6
CONTINUOUS
 62
   252
100
AcDbVertex
100
AcDb2dVertex
 10
48.202
 20
-153.255069
 30
0.0
  0
VERTEX
  5
38D
330
384
100
AcDbEntity
  8
1
  6
CONTINUOUS
 62
   252
100
AcDbVertex
100
AcDb2dVertex
 10
48.0
 20
-152.0
 30
0.0
  0
VERTEX
  5
38E
330
384
100
AcDbEntity
  8
1
  6
CONTINUOUS
 62
   252
100
AcDbVertex
100
AcDb2dVertex
 10
48.202
 20
-150.744931
 30
0.0
  0
VERTEX
  5
38F
330
384
100
AcDbEntity
  8
1
  6
CONTINUOUS
 62
   252
100
AcDbVertex
100
AcDb2dVertex
 10
48.850424
 20
-149.5342
 30
0.0
  0
VERTEX
  5
390
330
384
100
AcDbEntity
  8
1
  6
CONTINUOUS
 62
   252
100
AcDbVertex
100
AcDb2dVertex
 10
49.894945
 20
-148.598714
 30
0.0
  0
VERTEX
  5
391
330
384
100
AcDbEntity
  8
1
  6
CONTINUOUS
 62
   252
100
AcDbVertex
100
AcDb2dVertex
 10
51.144461
 20
-148.092564
 30
0.0
  0
VERTEX
  5
392
330
384
100
AcDbEntity
  8
1
  6
CONTINUOUS
 62
   252
100
AcDbVertex
100
AcDb2dVertex
 10
52.37868
 20
-148.0
 30
0.0
  0
VERTEX
  5
393
330
384
100
AcDbEntity
  8
1
  6
CONTINUOUS
 62
   252
100
AcDbVertex
100
AcDb2dVertex
 10
53.585786
 20
-148.0
 30
0.0
  0
VERTEX
  5
394
330
384
100
AcDbEntity
  8
1
  6
CONTINUOUS
 62
   252
100
AcDbVertex
100
AcDb2dVertex
 10
54.792893
 20
-148.0
 30
0.0
  0
VERTEX
  5
395
330
384
100
AcDbEntity
  8
1
  6
CONTINUOUS
 62
   252
100
AcDbVertex
100
AcDb2dVertex
 10
56.0
 20
-148.0
 30
0.0
  0
SEQEND
  5
396
330
384
100
AcDbEntity
  8
1
  6
CONTINUOUS
 62
   252
  0
POLYLINE
  5
397
330
1F
100
AcDbEntity
  8
1
  6
CONTINUOUS
 62
   252
100
AcDb2dPolyline
 66
     1
 10
0.0
 20
0.0
 30
0.0
  0
VERTEX
  5
398
330
397
100
AcDbEntity
  8
1
  6
CONTINUOUS
 62
   252
100
AcDbVertex
100
AcDb2dVertex
 10
-56.0
 20
-36.0
 30
0.0
  0
VERTEX
  5
399
330
397
100
AcDbEntity
  8
1
  6
CONTINUOUS
 62
   252
100
AcDbVertex
100
AcDb2dVertex
 10
-54.792893
 20
-36.0
 30
0.0
  0
VERTEX
  5
39A
330
397
100
AcDbEntity
  8
1
  6
CONTINUOUS
 62
   252
100
AcDbVertex
100
AcDb2dVertex
 10
-53.585786
 20
-36.0
 30
0.0
  0
VERTEX
  5
39B
330
397
100
AcDbEntity
  8
1
  6
CONTINUOUS
 62
   252
100
AcDbVertex
100
AcDb2dVertex
 10
-52.37868
 20
-36.0
 30
0.0
  0
VERTEX
  5
39C
330
397
100
AcDbEntity
  8
1
  6
CONTINUOUS
 62
   252
100
AcDbVertex
100
AcDb2dVertex
 10
-51.144461
 20
-36.092564
 30
0.0
  0
VERTEX
  5
39D
330
397
100
AcDbEntity
  8
1
  6
CONTINUOUS
 62
   252
100
AcDbVertex
100
AcDb2dVertex
 10
-49.894945
 20
-36.598714
 30
0.0
  0
VERTEX
  5
39E
330
397
100
AcDbEntity
  8
1
  6
CONTINUOUS
 62
   252
100
AcDbVertex
100
AcDb2dVertex
 10
-48.850424
 20
-37.5342
 30
0.0
  0
VERTEX
  5
39F
330
397
100
AcDbEntity
  8
1
  6
CONTINUOUS
 62
   252
100
AcDbVertex
100
AcDb2dVertex
 10
-48.202
 20
-38.744931
 30
0.0
  0
VERTEX
  5
3A0
330
397
100
AcDbEntity
  8
1
  6
CONTINUOUS
 62
   252
100
AcDbVertex
100
AcDb2dVertex
 10
-48.0
 20
-40.0
 30
0.0
  0
VERTEX
  5
3A1
330
397
100
AcDbEntity
  8
1
  6
CONTINUOUS
 62
   252
100
AcDbVertex
100
AcDb2dVertex
 10
-48.202
 20
-41.255069
 30
0.0
  0
VERTEX
  5
3A2
330
397
100
AcDbEntity
  8
1
  6
CONTINUOUS
 62
   252
100
AcDbVertex
100
AcDb2dVertex
 10
-48.850424
 20
-42.4658
 30
0.0
  0
VERTEX
  5
3A3
330
397
100
AcDbEntity
  8
1
  6
CONTINUOUS
 62
   252
100
AcDbVertex
100
AcDb2dVertex
 10
-49.894945
 20
-43.401286
 30
0.0
  0
VERTEX
  5
3A4
330
397
100
AcDbEntity
  8
1
  6
CONTINUOUS
 62
   252
100
AcDbVertex
100
AcDb2dVertex
 10
-51.144461
 20
-43.907436
 30
0.0
  0
VERTEX
  5
3A5
330
397
100
AcDbEntity
  8
1
  6
CONTINUOUS
 62
   252
100
AcDbVertex
100
AcDb2dVertex
 10
-52.37868
 20
-44.0
 30
0.0
  0
VERTEX
  5
3A6
330
397
100
AcDbEntity
  8
1
  6
CONTINUOUS
 62
   252
100
AcDbVertex
100
AcDb2dVertex
 10
-53.585786
 20
-44.0
 30
0.0
  0
VERTEX
  5
3A7
330
397
100
AcDbEntity
  8
1
  6
CONTINUOUS
 62
   252
100
AcDbVertex
100
AcDb2dVertex
 10
-54.792893
 20
-44.0
 30
0.0
  0
VERTEX
  5
3A8
330
397
100
AcDbEntity
  8
1
  6
CONTINUOUS
 62
   252
100
AcDbVertex
100
AcDb2dVertex
 10
-56.0
 20
-44.0
 30
0.0
  0
SEQEND
  5
3A9
330
397
100
AcDbEntity
  8
1
  6
CONTINUOUS
 62
   252
  0
POLYLINE
  5
3AA
330
1F
100
AcDbEntity
  8
1
  6
CONTINUOUS
 62
   252
100
AcDb2dPolyline
 66
     1
 10
0.0
 20
0.0
 30
0.0
  0
VERTEX
  5
3AB
330
3AA
100
AcDbEntity
  8
1
  6
CONTINUOUS
 62
   252
100
AcDbVertex
100
AcDb2dVertex
 10
-56.0
 20
-156.0
 30
0.0
  0
VERTEX
  5
3AC
330
3AA
100
AcDbEntity
  8
1
  6
CONTINUOUS
 62
   252
100
AcDbVertex
100
AcDb2dVertex
 10
-56.0
 20
-160.48
 30
0.0
  0
VERTEX
  5
3AD
330
3AA
100
AcDbEntity
  8
1
  6
CONTINUOUS
 62
   252
100
AcDbVertex
100
AcDb2dVertex
 10
-56.0
 20
-164.0
 30
0.0
  0
SEQEND
  5
3AE
330
3AA
100
AcDbEntity
  8
1
  6
CONTINUOUS
 62
   252
  0
POLYLINE
  5
3AF
330
1F
100
AcDbEntity
  8
1
  6
CONTINUOUS
 62
   252
100
AcDb2dPolyline
 66
     1
 10
0.0
 20
0.0
 30
0.0
  0
VERTEX
  5
3B0
330
3AF
100
AcDbEntity
  8
1
  6
CONTINUOUS
 62
   252
100
AcDbVertex
100
AcDb2dVertex
 10
-56.0
 20
-44.0
 30
0.0
  0
VERTEX
  5
3B1
330
3AF
100
AcDbEntity
  8
1
  6
CONTINUOUS
 62
   252
100
AcDbVertex
100
AcDb2dVertex
 10
-56.0
 20
-102.24
 30
0.0
  0
VERTEX
  5
3B2
330
3AF
100
AcDbEntity
  8
1
  6
CONTINUOUS
 62
   252
100
AcDbVertex
100
AcDb2dVertex
 10
-56.0
 20
-148.0
 30
0.0
  0
SEQEND
  5
3B3
330
3AF
100
AcDbEntity
  8
1
  6
CONTINUOUS
 62
   252
  0
POLYLINE
  5
3B4
330
1F
100
AcDbEntity
  8
1
  6
CONTINUOUS
 62
   252
100
AcDb2dPolyline
 66
     1
 10
0.0
 20
0.0
 30
0.0
  0
VERTEX
  5
3B5
330
3B4
100
AcDbEntity
  8
1
  6
CONTINUOUS
 62
   252
100
AcDbVertex
100
AcDb2dVertex
 10
-56.0
 20
-164.0
 30
0.0
  0
VERTEX
  5
3B6
330
3B4
100
AcDbEntity
  8
1
  6
CONTINUOUS
 62
   252
100
AcDbVertex
100
AcDb2dVertex
 10
6.72
 20
-164.0
 30
0.0
  0
VERTEX
  5
3B7
330
3B4
100
AcDbEntity
  8
1
  6
CONTINUOUS
 62
   252
100
AcDbVertex
100
AcDb2dVertex
 10
56.0
 20
-164.0
 30
0.0
  0
SEQEND
  5
3B8
330
3B4
100
AcDbEntity
  8
1
  6
CONTINUOUS
 62
   252
  0
POLYLINE
  5
3B9
330
1F
100
AcDbEntity
  8
1
  6
CONTINUOUS
 62
   252
100
AcDb2dPolyline
 66
     1
 10
0.0
 20
0.0
 30
0.0
  0
VERTEX
  5
3BA
330
3B9
100
AcDbEntity
  8
1
  6
CONTINUOUS
 62
   252
100
AcDbVertex
100
AcDb2dVertex
 10
-56.0
 20
164.0
 30
0.0
  0
VERTEX
  5
3BB
330
3B9
100
AcDbEntity
  8
1
  6
CONTINUOUS
 62
   252
100
AcDbVertex
100
AcDb2dVertex
 10
-56.0
 20
159.52
 30
0.0
  0
VERTEX
  5
3BC
330
3B9
100
AcDbEntity
  8
1
  6
CONTINUOUS
 62
   252
100
AcDbVertex
100
AcDb2dVertex
 10
-56.0
 20
156.0
 30
0.0
  0
SEQEND
  5
3BD
330
3B9
100
AcDbEntity
  8
1
  6
CONTINUOUS
 62
   252
  0
ENDSEC
  0
SECTION
  2
OBJECTS
  0
DICTIONARY
  5
C
330
0
100
AcDbDictionary
  3
ACAD_GROUP
350
D
  3
ACAD_IMAGE_VARS
350
5E
  3
ACAD_LAYOUT
350
1A
  3
ACAD_MATERIAL
350
43
  3
ACAD_MLEADERSTYLE
350
5B
  3
ACAD_MLINESTYLE
350
17
  3
ACAD_PLOTSETTINGS
350
19
  3
ACAD_SCALELIST
350
47
  3
ACAD_VISUALSTYLE
350
2A
  3
ACDBHEADERROUNDTRIPXREC
350
3D5
  3
ACDBVARIABLEDICTIONARY
350
3F6
  3
DWGPROPS
350
3FD
  0
DICTIONARY
  5
3FE
330
8
100
AcDbDictionary
280
     1
  3
ACAD_XREC_ROUNDTRIP
360
3FF
  0
DICTIONARY
  5
D
102
{ACAD_REACTORS
330
C
102
}
330
C
100
AcDbDictionary
  0
RASTERVARIABLES
  5
5E
102
{ACAD_REACTORS
330
C
102
}
330
C
100
AcDbRasterVariables
 90
        0
 70
     0
 71
     1
 72
     1
  0
DICTIONARY
  5
1A
102
{ACAD_REACTORS
330
C
102
}
330
C
100
AcDbDictionary
  0
DICTIONARY
  5
43
102
{ACAD_REACTORS
330
C
102
}
330
C
100
AcDbDictionary
  3
BYBLOCK
350
45
  3
BYLAYER
350
44
  3
GLOBAL
350
46
  0
DICTIONARY
  5
5B
102
{ACAD_REACTORS
330
C
102
}
330
C
100
AcDbDictionary
  3
STANDARD
350
5C
  0
DICTIONARY
  5
17
102
{ACAD_REACTORS
330
C
102
}
330
C
100
AcDbDictionary
  3
STANDARD
350
18
  0
DICTIONARY
  5
19
102
{ACAD_REACTORS
330
C
102
}
330
C
100
AcDbDictionary
  0
DICTIONARY
  5
47
102
{ACAD_REACTORS
330
C
102
}
330
C
100
AcDbDictionary
  3
A0
350
48
  3
A1
350
49
  3
A2
350
4A
  3
A3
350
4B
  3
A4
350
4C
  3
A5
350
4D
  3
A6
350
4E
  3
A7
350
4F
  3
A8
350
50
  3
A9
350
51
  3
B1
350
52
  3
B2
350
53
  3
B3
350
54
  3
B4
350
55
  3
B5
350
56
  3
B6
350
57
  3
B7
350
58
  0
DICTIONARY
  5
2A
102
{ACAD_REACTORS
330
C
102
}
330
C
100
AcDbDictionary
  3
2DWIREFRAME
350
2F
  3
BASIC
350
32
  3
BRIGHTEN
350
36
  3
COLORCHANGE
350
3A
  3
CONCEPTUAL
350
34
  3
DIM
350
35
  3
EDGECOLOROFF
350
3D
  3
FACEPATTERN
350
39
  3
FLAT
350
2B
  3
FLATWITHEDGES
350
2C
  3
GOURAUD
350
2D
  3
GOURAUDWITHEDGES
350
2E
  3
HIDDEN
350
31
  3
JITTEROFF
350
3B
  3
LINEPATTERN
350
38
  3
OVERHANGOFF
350
3C
  3
REALISTIC
350
33
  3
SHADED
350
42
  3
SHADED_WITH_EDGES
350
41
  3
SHADES_OF_GRAY
350
3E
  3
SKETCHY
350
3F
  3
THICKEN
350
37
  3
WIREFRAME
350
30
  3
X-RAY
350
40
  0
DICTIONARY
  5
3D5
102
{ACAD_REACTORS
330
C
102
}
330
C
100
AcDbDictionary
  3
CEPSNID
350
3DF
  3
CEPSNTYPE
350
3DE
  3
DIMSTYLEDATA
350
3F5
  3
FINGERPRINTGUID
350
3E0
  3
HYPERLINKBASE
350
3D8
  3
INSUNITS
350
3DD
  3
LAYOUTDICT
350
3DA
  3
LWETCUNION
350
3DC
  3
PLOTSETDICT
350
3DB
  3
PSVPSCALE
350
3E2
  3
PUCSBASE
350
3E5
  3
PUCSORGBACK
350
3EB
  3
PUCSORGBOTTOM
350
3E7
  3
PUCSORGFRONT
350
3EA
  3
PUCSORGLEFT
350
3E8
  3
PUCSORGRIGHT
350
3E9
  3
PUCSORGTOP
350
3E6
  3
PUCSORTHOREF
350
3E3
  3
PUCSORTHOVIEW
350
3E4
  3
STYLESHEET
350
3D9
  3
TSTACKALIGN
350
3D6
  3
TSTACKSIZE
350
3D7
  3
UCSBASE
350
3EE
  3
UCSORGBACK
350
3F4
  3
UCSORGBOTTOM
350
3F0
  3
UCSORGFRONT
350
3F3
  3
UCSORGLEFT
350
3F1
  3
UCSORGRIGHT
350
3F2
  3
UCSORGTOP
350
3EF
  3
UCSORTHOREF
350
3EC
  3
UCSORTHOVIEW
350
3ED
  3
VERSIONGUID
350
3E1
  0
DICTIONARY
  5
3F6
102
{ACAD_REACTORS
330
C
102
}
330
C
100
AcDbDictionary
  3
CANNOSCALE
350
400
  3
CMLEADERSTYLE
350
3F8
  3
CTABLESTYLE
350
3F7
  3
DIMASSOC
350
3FB
  3
HIDETEXT
350
3FC
  3
MSLTSCALE
350
401
  0
XRECORD
  5
3FD
102
{ACAD_REACTORS
330
C
102
}
330
C
100
AcDbXrecord
  1
DWGPROPS COOKIE
  2

  3

  4

  6

  7

  8
lsorp
  9

300
=
301
=
302
=
303
=
304
=
305
=
306
=
307
=
308
=
309
=
 40
0.0
 41
2460605.763102
 42
2460605.763102
  1

 90
        0
  0
XRECORD
  5
3FF
102
{ACAD_REACTORS
330
3FE
102
}
330
3FE
100
AcDbXrecord
102
VTR_0.000_0.000_1.000_1.000_VISUALSTYLE
340
2F
102
VTR_0.000_0.000_1.000_1.000_GRIDDISPLAY
 70
     3
102
VTR_0.000_0.000_1.000_1.000_GRIDMAJOR
 70
     5
102
VTR_0.000_0.000_1.000_1.000_DEFAULTLIGHTING
280
     1
102
VTR_0.000_0.000_1.000_1.000_DEFAULTLIGHTINGTYPE
 70
     1
102
VTR_0.000_0.000_1.000_1.000_BRIGHTNESS
141
0.0
102
VTR_0.000_0.000_1.000_1.000_CONTRAST
142
0.0
102
VTR_0.000_0.000_0.500_1.000_VISUALSTYLE
340
2F
102
VTR_0.000_0.000_0.500_1.000_GRIDDISPLAY
 70
     3
102
VTR_0.000_0.000_0.500_1.000_GRIDMAJOR
 70
     5
102
VTR_0.000_0.000_0.500_1.000_DEFAULTLIGHTING
280
     1
102
VTR_0.000_0.000_0.500_1.000_DEFAULTLIGHTINGTYPE
 70
     1
102
VTR_0.000_0.000_0.500_1.000_BRIGHTNESS
141
0.0
102
VTR_0.000_0.000_0.500_1.000_CONTRAST
142
0.0
102
VTR_0.500_0.000_1.000_1.000_VISUALSTYLE
340
2F
102
VTR_0.500_0.000_1.000_1.000_GRIDDISPLAY
 70
     3
102
VTR_0.500_0.000_1.000_1.000_GRIDMAJOR
 70
     5
102
VTR_0.500_0.000_1.000_1.000_DEFAULTLIGHTING
280
     1
102
VTR_0.500_0.000_1.000_1.000_DEFAULTLIGHTINGTYPE
 70
     1
102
VTR_0.500_0.000_1.000_1.000_BRIGHTNESS
141
0.0
102
VTR_0.500_0.000_1.000_1.000_CONTRAST
142
0.0
102
VTR_0.000_0.500_1.000_1.000_VISUALSTYLE
340
2F
102
VTR_0.000_0.500_1.000_1.000_GRIDDISPLAY
 70
     3
102
VTR_0.000_0.500_1.000_1.000_GRIDMAJOR
 70
     5
102
VTR_0.000_0.500_1.000_1.000_DEFAULTLIGHTING
280
     1
102
VTR_0.000_0.500_1.000_1.000_DEFAULTLIGHTINGTYPE
 70
     1
102
VTR_0.000_0.500_1.000_1.000_BRIGHTNESS
141
0.0
102
VTR_0.000_0.500_1.000_1.000_CONTRAST
142
0.0
102
VTR_0.000_0.000_1.000_0.500_VISUALSTYLE
340
2F
102
VTR_0.000_0.000_1.000_0.500_GRIDDISPLAY
 70
     3
102
VTR_0.000_0.000_1.000_0.500_GRIDMAJOR
 70
     5
102
VTR_0.000_0.000_1.000_0.500_DEFAULTLIGHTING
280
     1
102
VTR_0.000_0.000_1.000_0.500_DEFAULTLIGHTINGTYPE
 70
     1
102
VTR_0.000_0.000_1.000_0.500_BRIGHTNESS
141
0.0
102
VTR_0.000_0.000_1.000_0.500_CONTRAST
142
0.0
102
VTR_0.000_0.500_0.500_1.000_VISUALSTYLE
340
2F
102
VTR_0.000_0.500_0.500_1.000_GRIDDISPLAY
 70
     3
102
VTR_0.000_0.500_0.500_1.000_GRIDMAJOR
 70
     5
102
VTR_0.000_0.500_0.500_1.000_DEFAULTLIGHTING
280
     1
102
VTR_0.000_0.500_0.500_1.000_DEFAULTLIGHTINGTYPE
 70
     1
102
VTR_0.000_0.500_0.500_1.000_BRIGHTNESS
141
0.0
102
VTR_0.000_0.500_0.500_1.000_CONTRAST
142
0.0
102
VTR_0.000_0.000_0.500_0.500_VISUALSTYLE
340
2F
102
VTR_0.000_0.000_0.500_0.500_GRIDDISPLAY
 70
     3
102
VTR_0.000_0.000_0.500_0.500_GRIDMAJOR
 70
     5
102
VTR_0.000_0.000_0.500_0.500_DEFAULTLIGHTING
280
     1
102
VTR_0.000_0.000_0.500_0.500_DEFAULTLIGHTINGTYPE
 70
     1
102
VTR_0.000_0.000_0.500_0.500_BRIGHTNESS
141
0.0
102
VTR_0.000_0.000_0.500_0.500_CONTRAST
142
0.0
102
VTR_0.500_0.000_1.000_0.500_VISUALSTYLE
340
2F
102
VTR_0.500_0.000_1.000_0.500_GRIDDISPLAY
 70
     3
102
VTR_0.500_0.000_1.000_0.500_GRIDMAJOR
 70
     5
102
VTR_0.500_0.000_1.000_0.500_DEFAULTLIGHTING
280
     1
102
VTR_0.500_0.000_1.000_0.500_DEFAULTLIGHTINGTYPE
 70
     1
102
VTR_0.500_0.000_1.000_0.500_BRIGHTNESS
141
0.0
102
VTR_0.500_0.000_1.000_0.500_CONTRAST
142
0.0
102
VTR_0.500_0.500_1.000_1.000_VISUALSTYLE
340
2F
102
VTR_0.500_0.500_1.000_1.000_GRIDDISPLAY
 70
     3
102
VTR_0.500_0.500_1.000_1.000_GRIDMAJOR
 70
     5
102
VTR_0.500_0.500_1.000_1.000_DEFAULTLIGHTING
280
     1
102
VTR_0.500_0.500_1.000_1.000_DEFAULTLIGHTINGTYPE
 70
     1
102
VTR_0.500_0.500_1.000_1.000_BRIGHTNESS
141
0.0
102
VTR_0.500_0.500_1.000_1.000_CONTRAST
142
0.0
102
VTR_0.000_0.500_0.333_1.000_VISUALSTYLE
340
2F
102
VTR_0.000_0.500_0.333_1.000_GRIDDISPLAY
 70
     3
102
VTR_0.000_0.500_0.333_1.000_GRIDMAJOR
 70
     5
102
VTR_0.000_0.500_0.333_1.000_DEFAULTLIGHTING
280
     1
102
VTR_0.000_0.500_0.333_1.000_DEFAULTLIGHTINGTYPE
 70
     1
102
VTR_0.000_0.500_0.333_1.000_BRIGHTNESS
141
0.0
102
VTR_0.000_0.500_0.333_1.000_CONTRAST
142
0.0
102
VTR_0.000_0.000_0.333_0.500_VISUALSTYLE
340
2F
102
VTR_0.000_0.000_0.333_0.500_GRIDDISPLAY
 70
     3
102
VTR_0.000_0.000_0.333_0.500_GRIDMAJOR
 70
     5
102
VTR_0.000_0.000_0.333_0.500_DEFAULTLIGHTING
280
     1
102
VTR_0.000_0.000_0.333_0.500_DEFAULTLIGHTINGTYPE
 70
     1
102
VTR_0.000_0.000_0.333_0.500_BRIGHTNESS
141
0.0
102
VTR_0.000_0.000_0.333_0.500_CONTRAST
142
0.0
102
VTR_0.333_0.500_0.667_1.000_VISUALSTYLE
340
2F
102
VTR_0.333_0.500_0.667_1.000_GRIDDISPLAY
 70
     3
102
VTR_0.333_0.500_0.667_1.000_GRIDMAJOR
 70
     5
102
VTR_0.333_0.500_0.667_1.000_DEFAULTLIGHTING
280
     1
102
VTR_0.333_0.500_0.667_1.000_DEFAULTLIGHTINGTYPE
 70
     1
102
VTR_0.333_0.500_0.667_1.000_BRIGHTNESS
141
0.0
102
VTR_0.333_0.500_0.667_1.000_CONTRAST
142
0.0
102
VTR_0.333_0.000_0.667_0.500_VISUALSTYLE
340
2F
102
VTR_0.333_0.000_0.667_0.500_GRIDDISPLAY
 70
     3
102
VTR_0.333_0.000_0.667_0.500_GRIDMAJOR
 70
     5
102
VTR_0.333_0.000_0.667_0.500_DEFAULTLIGHTING
280
     1
102
VTR_0.333_0.000_0.667_0.500_DEFAULTLIGHTINGTYPE
 70
     1
102
VTR_0.333_0.000_0.667_0.500_BRIGHTNESS
141
0.0
102
VTR_0.333_0.000_0.667_0.500_CONTRAST
142
0.0
102
VTR_0.667_0.500_1.000_1.000_VISUALSTYLE
340
2F
102
VTR_0.667_0.500_1.000_1.000_GRIDDISPLAY
 70
     3
102
VTR_0.667_0.500_1.000_1.000_GRIDMAJOR
 70
     5
102
VTR_0.667_0.500_1.000_1.000_DEFAULTLIGHTING
280
     1
102
VTR_0.667_0.500_1.000_1.000_DEFAULTLIGHTINGTYPE
 70
     1
102
VTR_0.667_0.500_1.000_1.000_BRIGHTNESS
141
0.0
102
VTR_0.667_0.500_1.000_1.000_CONTRAST
142
0.0
102
VTR_0.667_0.000_1.000_0.500_VISUALSTYLE
340
2F
102
VTR_0.667_0.000_1.000_0.500_GRIDDISPLAY
 70
     3
102
VTR_0.667_0.000_1.000_0.500_GRIDMAJOR
 70
     5
102
VTR_0.667_0.000_1.000_0.500_DEFAULTLIGHTING
280
     1
102
VTR_0.667_0.000_1.000_0.500_DEFAULTLIGHTINGTYPE
 70
     1
102
VTR_0.667_0.000_1.000_0.500_BRIGHTNESS
141
0.0
102
VTR_0.667_0.000_1.000_0.500_CONTRAST
142
0.0
  0
MATERIAL
  5
45
102
{ACAD_REACTORS
330
43
102
}
102
{ACAD_XDICTIONARY
360
404
102
}
330
43
100
AcDbMaterial
  1
BYBLOCK
  0
MATERIAL
  5
44
102
{ACAD_REACTORS
330
43
102
}
102
{ACAD_XDICTIONARY
360
402
102
}
330
43
100
AcDbMaterial
  1
BYLAYER
  0
MATERIAL
  5
46
102
{ACAD_REACTORS
330
43
102
}
102
{ACAD_XDICTIONARY
360
406
102
}
330
43
100
AcDbMaterial
  1
GLOBAL
  0
ACAD_PROXY_OBJECT
  5
5C
102
{ACAD_REACTORS
330
5B
102
}
330
5B
100
AcDbProxyObject
 90
      499
 91
      505
 93
      610
310
40901902A4063FBFFFFFE056BD1B81E855B9FC0AD7A3703D0AD73F4214DD185B99185C9900AD7A3703D0AC73F90141901A02B5E8DC0F42B1CFC02B5E8DC0F42B1CFE5764000000000000300FC0
340
14
340
0
340
11
340
0
 94
        0
1001
ACAD_MLEADERVER
1070
     2
  0
MLINESTYLE
  5
18
102
{ACAD_REACTORS
330
17
102
}
330
17
100
AcDbMlineStyle
  2
Standard
 70
     0
  3

 62
   256
 51
90.0
 52
90.0
 71
     2
 49
0.5
 62
   256
  6
BYLAYER
 49
-0.5
 62
   256
  6
BYLAYER
  0
ACAD_PROXY_OBJECT
  5
48
102
{ACAD_REACTORS
330
47
102
}
330
47
100
AcDbProxyObject
 90
      499
 91
      503
 93
       41
310
903313A31580
  0
ACAD_PROXY_OBJECT
  5
49
102
{ACAD_REACTORS
330
47
102
}
330
47
100
AcDbProxyObject
 90
      499
 91
      503
 93
      257
310
90E312F31323822203D2031272D3022000000000000200FC000000000000284000
  0
ACAD_PROXY_OBJECT
  5
4A
102
{ACAD_REACTORS
330
47
102
}
330
47
100
AcDbProxyObject
 90
      499
 91
      503
 93
      249
310
90D312F363422203D2031272D3022000000000000240FC000000000000284000
  0
ACAD_PROXY_OBJECT
  5
4B
102
{ACAD_REACTORS
330
47
102
}
330
47
100
AcDbProxyObject
 90
      499
 91
      503
 93
      249
310
90D312F333222203D2031272D3022000000000000280FC000000000000284000
  0
ACAD_PROXY_OBJECT
  5
4C
102
{ACAD_REACTORS
330
47
102
}
330
47
100
AcDbProxyObject
 90
      499
 91
      503
 93
      249
310
90D312F313622203D2031272D30220000000000002C0FC000000000000284000
  0
ACAD_PROXY_OBJECT
  5
4D
102
{ACAD_REACTORS
330
47
102
}
330
47
100
AcDbProxyObject
 90
      499
 91
      503
 93
      249
310
90D332F333222203D2031272D30220000000000002E0FC000000000000284000
  0
ACAD_PROXY_OBJECT
  5
4E
102
{ACAD_REACTORS
330
47
102
}
330
47
100
AcDbProxyObject
 90
      499
 91
      503
 93
      241
310
90C312F3822203D2031272D3022000000000000300FC000000000000284000
  0
ACAD_PROXY_OBJECT
  5
4F
102
{ACAD_REACTORS
330
47
102
}
330
47
100
AcDbProxyObject
 90
      499
 91
      503
 93
      249
310
90D332F313622203D2031272D3022000000000000320FC000000000000284000
  0
ACAD_PROXY_OBJECT
  5
50
102
{ACAD_REACTORS
330
47
102
}
330
47
100
AcDbProxyObject
 90
      499
 91
      503
 93
      241
310
90C312F3422203D2031272D3022000000000000340FC000000000000284000
  0
ACAD_PROXY_OBJECT
  5
51
102
{ACAD_REACTORS
330
47
102
}
330
47
100
AcDbProxyObject
 90
      499
 91
      503
 93
      241
310
90C332F3822203D2031272D3022000000000000360FC000000000000284000
  0
ACAD_PROXY_OBJECT
  5
52
102
{ACAD_REACTORS
330
47
102
}
330
47
100
AcDbProxyObject
 90
      499
 91
      503
 93
      241
310
90C312F3222203D2031272D3022000000000000380FC000000000000284000
  0
ACAD_PROXY_OBJECT
  5
53
102
{ACAD_REACTORS
330
47
102
}
330
47
100
AcDbProxyObject
 90
      499
 91
      503
 93
      241
310
90C332F3422203D2031272D30220000000000003A0FC000000000000284000
  0
ACAD_PROXY_OBJECT
  5
54
102
{ACAD_REACTORS
330
47
102
}
330
47
100
AcDbProxyObject
 90
      499
 91
      503
 93
      161
310
90A3122203D2031272D30224000000000000284000
  0
ACAD_PROXY_OBJECT
  5
55
102
{ACAD_REACTORS
330
47
102
}
330
47
100
AcDbProxyObject
 90
      499
 91
      503
 93
      257
310
90E312D312F3222203D2031272D30220000000000003E0FC000000000000284000
  0
ACAD_PROXY_OBJECT
  5
56
102
{ACAD_REACTORS
330
47
102
}
330
47
100
AcDbProxyObject
 90
      499
 91
      503
 93
      225
310
90A3322203D2031272D302200000000000002100000000000000284000
  0
ACAD_PROXY_OBJECT
  5
57
102
{ACAD_REACTORS
330
47
102
}
330
47
100
AcDbProxyObject
 90
      499
 91
      503
 93
      225
310
90A3622203D2031272D302200000000000006100000000000000284000
  0
ACAD_PROXY_OBJECT
  5
58
102
{ACAD_REACTORS
330
47
102
}
330
47
100
AcDbProxyObject
 90
      499
 91
      503
 93
      249
310
90D31272D3022203D2031272D30220000000000000A100000000000000284000
  0
ACAD_PROXY_OBJECT
  5
2F
102
{ACAD_REACTORS
330
2A
102
}
330
2A
100
AcDbProxyObject
 90
      499
 91
      501
 93
      436
310
42CC9915DA5C99599C985B595049028333333333333E33F0000000000000F90107901411070040501600405405064090741402480A0340
1001
ACAD
1000
AcDbSavedByObjectVersion
1070
     0
  0
ACAD_PROXY_OBJECT
  5
32
102
{ACAD_REACTORS
330
2A
102
}
330
2A
100
AcDbProxyObject
 90
      499
 91
      501
 93
      388
310
4150985CDA58D07406404333333333333E33F0000000000000F90107A41107004050150841D405064090741402480A0350
1001
ACAD
1000
AcDbSavedByObjectVersion
1070
     0
  0
ACAD_PROXY_OBJECT
  5
36
102
{ACAD_REACTORS
330
2A
102
}
330
2A
100
AcDbProxyObject
 90
      499
 91
      501
 93
      428
310
42109C9A59DA1D195B90C409028333333333333E33F0000000000000F9010790141107004050150841D405064090741402480A029950
1001
ACAD
1000
AcDbSavedByObjectVersion
1070
     0
  0
ACAD_PROXY_OBJECT
  5
3A
102
{ACAD_REACTORS
330
2A
102
}
330
2A
100
AcDbProxyObject
 90
      499
 91
      501
 93
      452
310
42D0DBDB1BDC90DA185B99D95104090240C333333333333E33F0000000000000F90108901411070040501508421405064090741402480A0350
1001
ACAD
1000
AcDbSavedByObjectVersion
1070
     0
  0
ACAD_PROXY_OBJECT
  5
34
102
{ACAD_REACTORS
330
2A
102
}
330
2A
100
AcDbProxyObject
 90
      499
 91
      501
 93
      500
310
4290DBDB98D95C1D1D585B10940D028333333333333E33F0000000000000F90107902409070040501000000000018199010841D405064090740C02480A0340
1001
ACAD
1000
AcDbSavedByObjectVersion
1070
     0
  0
ACAD_PROXY_OBJECT
  5
35
102
{ACAD_REACTORS
330
2A
102
}
330
2A
100
AcDbProxyObject
 90
      499
 91
      501
 93
      412
310
40D11A5B50B409028333333333333E33F0000000000000F9010790141107004050150841D405064090741402480A02677FFFFFD0
1001
ACAD
1000
AcDbSavedByObjectVersion
1070
     0
  0
ACAD_PROXY_OBJECT
  5
3D
102
{ACAD_REACTORS
330
2A
102
}
330
2A
100
AcDbProxyObject
 90
      499
 91
      501
 93
      452
310
43115919D950DBDB1BDC93D999916409028333333333333E33F0000000000000F9010790141107004050150841D405064090741402480A0350
1001
ACAD
1000
AcDbSavedByObjectVersion
1070
     0
  0
ACAD_PROXY_OBJECT
  5
39
102
{ACAD_REACTORS
330
2A
102
}
330
2A
100
AcDbProxyObject
 90
      499
 91
      501
 93
      444
310
42D19858D95C185D1D195C9B90F409028333333333333E33F0000000000000F9010790141107004050150841D405064090741402480A0350
1001
ACAD
1000
AcDbSavedByObjectVersion
1070
     0
  0
ACAD_PROXY_OBJECT
  5
2B
102
{ACAD_REACTORS
330
2A
102
}
330
2A
100
AcDbProxyObject
 90
      499
 91
      501
 93
      380
310
41119B185D240901404333333333333E33F0000000000000F9010740A907004050150841D405064090741402480A1B50
1001
ACAD
1000
AcDbSavedByObjectVersion
1070
     0
  0
ACAD_PROXY_OBJECT
  5
2C
102
{ACAD_REACTORS
330
2A
102
}
330
2A
100
AcDbProxyObject
 90
      499
 91
      501
 93
      468
310
43519B185D15DA5D1A115919D95CD0140901404333333333333E33F0000000000000F90107409019070040501600405405064090741402480A1B50
1001
ACAD
1000
AcDbSavedByObjectVersion
1070
     0
  0
ACAD_PROXY_OBJECT
  5
2D
102
{ACAD_REACTORS
330
2A
102
}
330
2A
100
AcDbProxyObject
 90
      499
 91
      501
 93
      404
310
41D1DBDD5C985D5910240902404333333333333E33F0000000000000F9010740A9070040501641D405064090741402480A1B50
1001
ACAD
1000
AcDbSavedByObjectVersion
1070
     0
  0
ACAD_PROXY_OBJECT
  5
2E
102
{ACAD_REACTORS
330
2A
102
}
330
2A
100
AcDbProxyObject
 90
      499
 91
      501
 93
      492
310
4411DBDD5C985D5915DA5D1A115919D95CD0340902404333333333333E33F0000000000000F90107409019070040501600405405064090741402480A1B50
1001
ACAD
1000
AcDbSavedByObjectVersion
1070
     0
  0
ACAD_PROXY_OBJECT
  5
31
102
{ACAD_REACTORS
330
2A
102
}
330
2A
100
AcDbProxyObject
 90
      499
 91
      501
 93
      476
310
41921A5919195B90640502408333333333333E33F0000000000000F901079024090700405020000000000001110200405405064090740C02480A0340
1001
ACAD
1000
AcDbSavedByObjectVersion
1070
     0
  0
ACAD_PROXY_OBJECT
  5
3B
102
{ACAD_REACTORS
330
2A
102
}
330
2A
100
AcDbProxyObject
 90
      499
 91
      501
 93
      428
310
42529A5D1D195C93D999914409028333333333333E33F0000000000000F9010790141107004050150A41D405064090741402480A0350
1001
ACAD
1000
AcDbSavedByObjectVersion
1070
     0
  0
ACAD_PROXY_OBJECT
  5
38
102
{ACAD_REACTORS
330
2A
102
}
330
2A
100
AcDbProxyObject
 90
      499
 91
      501
 93
      444
310
42D31A5B995C185D1D195C9B90E409028333333333333E33F0000000000000F9010790141107004050750841D405064090741402483A0350
1001
ACAD
1000
AcDbSavedByObjectVersion
1070
     0
  0
ACAD_PROXY_OBJECT
  5
3C
102
{ACAD_REACTORS
330
2A
102
}
330
2A
100
AcDbProxyObject
 90
      499
 91
      501
 93
      444
310
42D3DD995C9A185B99D3D999915409028333333333333E33F0000000000000F9010790141107004050150941D405064090741402480A0350
1001
ACAD
1000
AcDbSavedByObjectVersion
1070
     0
  0
ACAD_PROXY_OBJECT
  5
33
102
{ACAD_REACTORS
330
2A
102
}
330
2A
100
AcDbProxyObject
 90
      499
 91
      501
 93
      428
310
425499585B1A5CDD1A58D08409038333333333333E33F0000000000000F9010740A907004050150800405405064090740C02480A1B40
1001
ACAD
1000
AcDbSavedByObjectVersion
1070
     0
  0
ACAD_PROXY_OBJECT
  5
42
102
{ACAD_REACTORS
330
2A
102
}
330
2A
100
AcDbProxyObject
 90
      499
 91
      501
 93
      420
310
4194DA1859195911B40902404333333333333E33F0000000000000F9010740A41107004050150800405405064090840C02480A0B40
1001
ACAD
1000
AcDbSavedByObjectVersion
1070
     0
  0
ACAD_PROXY_OBJECT
  5
41
102
{ACAD_REACTORS
330
2A
102
}
330
2A
100
AcDbProxyObject
 90
      499
 91
      501
 93
      516
310
4454DA18591959081DDA5D1A08195919D95CD1A40902404333333333333E33F0000000000000F901074090142907004050250800405405064090740C02480A0B40
1001
ACAD
1000
AcDbSavedByObjectVersion
1070
     0
  0
ACAD_PROXY_OBJECT
  5
3E
102
{ACAD_REACTORS
330
2A
102
}
330
2A
100
AcDbProxyObject
 90
      499
 91
      501
 93
      532
310
4394DA1859195CC81BD98811DC985E5174090240C333333333333E33F0000000000000F901079024090741D01000000000000111010841D405064090740C02480A0340
1001
ACAD
1000
AcDbSavedByObjectVersion
1070
     0
  0
ACAD_PROXY_OBJECT
  5
3F
102
{ACAD_REACTORS
330
2A
102
}
330
2A
100
AcDbProxyObject
 90
      499
 91
      501
 93
      476
310
41D4DAD95D18DA1E51840502408333333333333E33F0000000000000F901079024090741D01000000000000111010B41D405064090741802480A0340
1001
ACAD
1000
AcDbSavedByObjectVersion
1070
     0
  0
ACAD_PROXY_OBJECT
  5
37
102
{ACAD_REACTORS
330
2A
102
}
330
2A
100
AcDbProxyObject
 90
      499
 91
      501
 93
      412
310
41D51A1A58DAD95B90D409028333333333333E33F0000000000000F9010790141107004050150C41D405064090741402480A0350
1001
ACAD
1000
AcDbSavedByObjectVersion
1070
     0
  0
ACAD_PROXY_OBJECT
  5
30
102
{ACAD_REACTORS
330
2A
102
}
330
2A
100
AcDbProxyObject
 90
      499
 91
      501
 93
      420
310
4255DA5C99599C985B595059028333333333333E33F0000000000000F90107901411070040501600405405064090740C02480A0340
1001
ACAD
1000
AcDbSavedByObjectVersion
1070
     0
  0
ACAD_PROXY_OBJECT
  5
40
102
{ACAD_REACTORS
330
2A
102
}
330
2A
100
AcDbProxyObject
 90
      499
 91
      501
 93
      404
310
41560B54985E51940902404000000000000E03F0000000000000F9010740501907004050150841D405064090740C02480A1B40
1001
ACAD
1000
AcDbSavedByObjectVersion
1070
     0
  0
XRECORD
  5
3DF
102
{ACAD_REACTORS
330
3D5
102
}
330
3D5
100
AcDbXrecord
340
0
  0
XRECORD
  5
3DE
102
{ACAD_REACTORS
330
3D5
102
}
330
3D5
100
AcDbXrecord
 90
        0
  0
XRECORD
  5
3F5
102
{ACAD_REACTORS
330
3D5
102
}
330
3D5
100
AcDbXrecord
1000
DSTYLE
1002
{
1070
   171
 70
     2
1070
   143
 40
25.4
1070
   274
 70
     2
1070
    41
 40
0.18
1070
   141
 40
0.09
1070
   271
 70
     4
1070
    43
 40
0.38
1070
   278
 70
    46
1070
    44
 40
0.18
1070
    42
 40
0.0625
1070
   147
 40
0.09
1070
    77
 70
     0
1070
   272
 70
     4
1070
    73
 70
     1
1070
   172
 70
     0
1070
    74
 70
     1
1070
   283
 70
     1
1070
   340
340
11
1070
   140
 40
0.18
1070
   284
 70
     0
1070
    78
 70
     0
1002
}
  0
XRECORD
  5
3E0
102
{ACAD_REACTORS
330
3D5
102
}
330
3D5
100
AcDbXrecord
  1
{c787b521-e00c-4214-a567-8ace66095691}
  0
XRECORD
  5
3D8
102
{ACAD_REACTORS
330
3D5
102
}
330
3D5
100
AcDbXrecord
  1

  0
XRECORD
  5
3DD
102
{ACAD_REACTORS
330
3D5
102
}
330
3D5
100
AcDbXrecord
 90
        4
  0
XRECORD
  5
3DA
102
{ACAD_REACTORS
330
3D5
102
}
330
3D5
100
AcDbXrecord
340
1A
  0
XRECORD
  5
3DC
102
{ACAD_REACTORS
330
3D5
102
}
330
3D5
100
AcDbXrecord
 90
    10781
  0
XRECORD
  5
3DB
102
{ACAD_REACTORS
330
3D5
102
}
330
3D5
100
AcDbXrecord
340
19
  0
XRECORD
  5
3E2
102
{ACAD_REACTORS
330
3D5
102
}
330
3D5
100
AcDbXrecord
 40
0.0
  0
XRECORD
  5
3E5
102
{ACAD_REACTORS
330
3D5
102
}
330
3D5
100
AcDbXrecord
340
0
  0
XRECORD
  5
3EB
102
{ACAD_REACTORS
330
3D5
102
}
330
3D5
100
AcDbXrecord
 10
0.0
 20
0.0
 30
0.0
  0
XRECORD
  5
3E7
102
{ACAD_REACTORS
330
3D5
102
}
330
3D5
100
AcDbXrecord
 10
0.0
 20
0.0
 30
0.0
  0
XRECORD
  5
3EA
102
{ACAD_REACTORS
330
3D5
102
}
330
3D5
100
AcDbXrecord
 10
0.0
 20
0.0
 30
0.0
  0
XRECORD
  5
3E8
102
{ACAD_REACTORS
330
3D5
102
}
330
3D5
100
AcDbXrecord
 10
0.0
 20
0.0
 30
0.0
  0
XRECORD
  5
3E9
102
{ACAD_REACTORS
330
3D5
102
}
330
3D5
100
AcDbXrecord
 10
0.0
 20
0.0
 30
0.0
  0
XRECORD
  5
3E6
102
{ACAD_REACTORS
330
3D5
102
}
330
3D5
100
AcDbXrecord
 10
0.0
 20
0.0
 30
0.0
  0
XRECORD
  5
3E3
102
{ACAD_REACTORS
330
3D5
102
}
330
3D5
100
AcDbXrecord
340
0
  0
XRECORD
  5
3E4
102
{ACAD_REACTORS
330
3D5
102
}
330
3D5
100
AcDbXrecord
 70
     0
  0
XRECORD
  5
3D9
102
{ACAD_REACTORS
330
3D5
102
}
330
3D5
100
AcDbXrecord
  1

  0
XRECORD
  5
3D6
102
{ACAD_REACTORS
330
3D5
102
}
330
3D5
100
AcDbXrecord
 90
        1
  0
XRECORD
  5
3D7
102
{ACAD_REACTORS
330
3D5
102
}
330
3D5
100
AcDbXrecord
 90
       70
  0
XRECORD
  5
3EE
102
{ACAD_REACTORS
330
3D5
102
}
330
3D5
100
AcDbXrecord
340
0
  0
XRECORD
  5
3F4
102
{ACAD_REACTORS
330
3D5
102
}
330
3D5
100
AcDbXrecord
 10
0.0
 20
0.0
 30
0.0
  0
XRECORD
  5
3F0
102
{ACAD_REACTORS
330
3D5
102
}
330
3D5
100
AcDbXrecord
 10
0.0
 20
0.0
 30
0.0
  0
XRECORD
  5
3F3
102
{ACAD_REACTORS
330
3D5
102
}
330
3D5
100
AcDbXrecord
 10
0.0
 20
0.0
 30
0.0
  0
XRECORD
  5
3F1
102
{ACAD_REACTORS
330
3D5
102
}
330
3D5
100
AcDbXrecord
 10
0.0
 20
0.0
 30
0.0
  0
XRECORD
  5
3F2
102
{ACAD_REACTORS
330
3D5
102
}
330
3D5
100
AcDbXrecord
 10
0.0
 20
0.0
 30
0.0
  0
XRECORD
  5
3EF
102
{ACAD_REACTORS
330
3D5
102
}
330
3D5
100
AcDbXrecord
 10
0.0
 20
0.0
 30
0.0
  0
XRECORD
  5
3EC
102
{ACAD_REACTORS
330
3D5
102
}
330
3D5
100
AcDbXrecord
340
0
  0
XRECORD
  5
3ED
102
{ACAD_REACTORS
330
3D5
102
}
330
3D5
100
AcDbXrecord
 70
     0
  0
XRECORD
  5
3E1
102
{ACAD_REACTORS
330
3D5
102
}
330
3D5
100
AcDbXrecord
  1
{FAEB1C32-E019-11D5-929B-00C0DF256EC4}
  0
DICTIONARYVAR
  5
400
102
{ACAD_REACTORS
330
3F6
102
}
330
3F6
100
DictionaryVariables
280
     0
  1
1:1
  0
DICTIONARYVAR
  5
3F8
102
{ACAD_REACTORS
330
3F6
102
}
330
3F6
100
DictionaryVariables
280
     0
  1
Standard
  0
DICTIONARYVAR
  5
3F7
102
{ACAD_REACTORS
330
3F6
102
}
330
3F6
100
DictionaryVariables
280
     0
  1
Standard
  0
DICTIONARYVAR
  5
3FB
102
{ACAD_REACTORS
330
3F6
102
}
330
3F6
100
DictionaryVariables
280
     0
  1
2
  0
DICTIONARYVAR
  5
3FC
102
{ACAD_REACTORS
330
3F6
102
}
330
3F6
100
DictionaryVariables
280
     0
  1
1
  0
DICTIONARYVAR
  5
401
102
{ACAD_REACTORS
330
3F6
102
}
330
3F6
100
DictionaryVariables
280
     0
  1
1
  0
DICTIONARY
  5
404
330
45
100
AcDbDictionary
280
     1
  3
ACAD_XREC_ROUNDTRIP
360
405
  0
DICTIONARY
  5
402
330
44
100
AcDbDictionary
280
     1
  3
ACAD_XREC_ROUNDTRIP
360
403
  0
DICTIONARY
  5
406
330
46
100
AcDbDictionary
280
     1
  3
ACAD_XREC_ROUNDTRIP
360
407
  0
XRECORD
  5
405
102
{ACAD_REACTORS
330
404
102
}
330
404
100
AcDbXrecord
102
MATERIAL
148
0.0
149
0.0
149
0.0
 93
        0
 94
      127
282
     0
 72
     1
 77
     1
171
     1
175
     1
179
     1
273
     0
  0
XRECORD
  5
403
102
{ACAD_REACTORS
330
402
102
}
330
402
100
AcDbXrecord
102
MATERIAL
148
0.0
149
0.0
149
0.0
 93
        0
 94
      127
282
     0
 72
     1
 77
     1
171
     1
175
     1
179
     1
273
     0
  0
XRECORD
  5
407
102
{ACAD_REACTORS
330
406
102
}
330
406
100
AcDbXrecord
102
MATERIAL
148
0.0
149
0.0
149
0.0
 93
        0
 94
      127
282
     0
 72
     1
 77
     1
171
     1
175
     1
179
     1
273
     0
  0
ENDSEC
  0
EOF
