  0
SECTION
  2
HEADER
  9
$ACADVER
  1
AC1014
  9
$ACADMAINTVER
 70
     9
  9
$DWGCODEPAGE
  3
ANSI_1252
  9
$INSBASE
 10
0.0
 20
0.0
 30
0.0
  9
$EXTMIN
 10
-0.5
 20
-0.5
 30
-0.5
  9
$EXTMAX
 10
5.0
 20
5.0
 30
5.0
  9
$LIMMIN
 10
-0.5
 20
-0.5
  9
$LIMMAX
 10
5.0
 20
5.0
  9
$ORTHOMODE
 70
     0
  9
$REGENMODE
 70
     1
  9
$FILLMODE
 70
     1
  9
$QTEXTMODE
 70
     0
  9
$MIRRTEXT
 70
     1
  9
$DRAGMODE
 70
     2
  9
$LTSCALE
 40
1.0
  9
$OSMODE
 70
    37
  9
$ATTMODE
 70
     1
  9
$TEXTSIZE
 40
0.2
  9
$TRACEWID
 40
0.05
  9
$TEXTSTYLE
  7
STANDARD
  9
$CLAYER
  8
0
  9
$CELTYPE
  6
BYLAYER
  9
$CECOLOR
 62
   256
  9
$CELTSCALE
 40
1.0
  9
$DELOBJ
 70
     1
  9
$DISPSILH
 70
     0
  9
$DIMSCALE
 40
1.0
  9
$DIMASZ
 40
0.18
  9
$DIMEXO
 40
0.0625
  9
$DIMDLI
 40
0.38
  9
$DIMRND
 40
0.0
  9
$DIMDLE
 40
0.0
  9
$DIMEXE
 40
0.18
  9
$DIMTP
 40
0.0
  9
$DIMTM
 40
0.0
  9
$DIMTXT
 40
0.18
  9
$DIMCEN
 40
0.09
  9
$DIMTSZ
 40
0.0
  9
$DIMTOL
 70
     0
  9
$DIMLIM
 70
     0
  9
$DIMTIH
 70
     1
  9
$DIMTOH
 70
     1
  9
$DIMSE1
 70
     0
  9
$DIMSE2
 70
     0
  9
$DIMTAD
 70
     0
  9
$DIMZIN
 70
     0
  9
$DIMBLK
  1

  9
$DIMASO
 70
     1
  9
$DIMSHO
 70
     1
  9
$DIMPOST
  1

  9
$DIMAPOST
  1

  9
$DIMALT
 70
     0
  9
$DIMALTD
 70
     2
  9
$DIMALTF
 40
25.4
  9
$DIMLFAC
 40
1.0
  9
$DIMTOFL
 70
     0
  9
$DIMTVP
 40
0.0
  9
$DIMTIX
 70
     0
  9
$DIMSOXD
 70
     0
  9
$DIMSAH
 70
     0
  9
$DIMBLK1
  1

  9
$DIMBLK2
  1

  9
$DIMSTYLE
  2
STANDARD
  9
$DIMCLRD
 70
     0
  9
$DIMCLRE
 70
     0
  9
$DIMCLRT
 70
     0
  9
$DIMTFAC
 40
1.0
  9
$DIMGAP
 40
0.09
  9
$DIMJUST
 70
     0
  9
$DIMSD1
 70
     0
  9
$DIMSD2
 70
     0
  9
$DIMTOLJ
 70
     1
  9
$DIMTZIN
 70
     0
  9
$DIMALTZ
 70
     0
  9
$DIMALTTZ
 70
     0
  9
$DIMFIT
 70
     3
  9
$DIMUPT
 70
     0
  9
$DIMUNIT
 70
     2
  9
$DIMDEC
 70
     4
  9
$DIMTDEC
 70
     4
  9
$DIMALTU
 70
     2
  9
$DIMALTTD
 70
     2
  9
$DIMTXSTY
  7
STANDARD
  9
$DIMAUNIT
 70
     0
  9
$LUNITS
 70
     2
  9
$LUPREC
 70
     4
  9
$SKETCHINC
 40
0.1
  9
$FILLETRAD
 40
0.0
  9
$AUNITS
 70
     0
  9
$AUPREC
 70
     0
  9
$MENU
  1
.
  9
$ELEVATION
 40
0.0
  9
$PELEVATION
 40
0.0
  9
$THICKNESS
 40
0.0
  9
$LIMCHECK
 70
     0
  9
$CHAMFERA
 40
0.0
  9
$CHAMFERB
 40
0.0
  9
$CHAMFERC
 40
0.0
  9
$CHAMFERD
 40
0.0
  9
$SKPOLY
 70
     0
  9
$TDCREATE
 40
2460594.645511169
  9
$TDUPDATE
 40
2460594.645511274
  9
$TDINDWG
 40
0.0000000116
  9
$TDUSRTIMER
 40
0.0000000116
  9
$USRTIMER
 70
     1
  9
$ANGBASE
 50
0.0
  9
$ANGDIR
 70
     0
  9
$PDMODE
 70
     0
  9
$PDSIZE
 40
0.0
  9
$PLINEWID
 40
0.0
  9
$COORDS
 70
     1
  9
$SPLFRAME
 70
     0
  9
$SPLINETYPE
 70
     6
  9
$SPLINESEGS
 70
     8
  9
$ATTDIA
 70
     0
  9
$ATTREQ
 70
     1
  9
$HANDLING
 70
     1
  9
$HANDSEED
  5
339
  9
$SURFTAB1
 70
     6
  9
$SURFTAB2
 70
     6
  9
$SURFTYPE
 70
     6
  9
$SURFU
 70
     6
  9
$SURFV
 70
     6
  9
$UCSNAME
  2

  9
$UCSORG
 10
0.0
 20
0.0
 30
0.0
  9
$UCSXDIR
 10
1.0
 20
0.0
 30
0.0
  9
$UCSYDIR
 10
0.0
 20
1.0
 30
0.0
  9
$PUCSNAME
  2

  9
$PUCSORG
 10
0.0
 20
0.0
 30
0.0
  9
$PUCSXDIR
 10
1.0
 20
0.0
 30
0.0
  9
$PUCSYDIR
 10
0.0
 20
1.0
 30
0.0
  9
$USERI1
 70
     0
  9
$USERI2
 70
     0
  9
$USERI3
 70
     0
  9
$USERI4
 70
     0
  9
$USERI5
 70
     0
  9
$USERR1
 40
0.0
  9
$USERR2
 40
0.0
  9
$USERR3
 40
0.0
  9
$USERR4
 40
0.0
  9
$USERR5
 40
0.0
  9
$WORLDVIEW
 70
     1
  9
$SHADEDGE
 70
     3
  9
$SHADEDIF
 70
    70
  9
$TILEMODE
 70
     1
  9
$MAXACTVP
 70
    64
  9
$PINSBASE
 10
0.0
 20
0.0
 30
0.0
  9
$PLIMCHECK
 70
     0
  9
$PEXTMIN
 10
-0.5
 20
-0.5
 30
-0.5
  9
$PEXTMAX
 10
5.0
 20
5.0
 30
5.0
  9
$PLIMMIN
 10
-0.5
 20
-0.5
  9
$PLIMMAX
 10
5.0
 20
5.0
  9
$UNITMODE
 70
     0
  9
$VISRETAIN
 70
     1
  9
$PLINEGEN
 70
     0
  9
$PSLTSCALE
 70
     1
  9
$TREEDEPTH
 70
  3020
  9
$PICKSTYLE
 70
     1
  9
$CMLSTYLE
  2
STANDARD
  9
$CMLJUST
 70
     0
  9
$CMLSCALE
 40
1.0
  9
$PROXYGRAPHICS
 70
     1
  9
$MEASUREMENT
 70
     1
  0
ENDSEC
  0
SECTION
  2
CLASSES
  0
CLASS
  1
ACDBDICTIONARYWDFLT
  2
AcDbDictionaryWithDefault
  3
ObjectDBX Classes
 90
        0
280
     0
281
     0
  0
CLASS
  1
VISUALSTYLE
  2
AcDbVisualStyle
  3
ObjectDBX Classes
 90
     4095
280
     0
281
     0
  0
CLASS
  1
MATERIAL
  2
AcDbMaterial
  3
ObjectDBX Classes
 90
     1153
280
     0
281
     0
  0
CLASS
  1
SCALE
  2
AcDbScale
  3
ObjectDBX Classes
 90
     1153
280
     0
281
     0
  0
CLASS
  1
TABLESTYLE
  2
AcDbTableStyle
  3
ObjectDBX Classes
 90
     4095
280
     0
281
     0
  0
CLASS
  1
MLEADERSTYLE
  2
AcDbMLeaderStyle
  3
ACDB_MLEADERSTYLE_CLASS
 90
     4095
280
     0
281
     0
  0
CLASS
  1
SUN
  2
AcDbSun
  3
SCENEOE
 90
     1153
280
     0
281
     0
  0
CLASS
  1
RASTERVARIABLES
  2
AcDbRasterVariables
  3
ISM
 90
        0
280
     0
281
     0
  0
CLASS
  1
DICTIONARYVAR
  2
AcDbDictionaryVar
  3
ObjectDBX Classes
 90
        0
280
     0
281
     0
  0
CLASS
  1
XRECORD
  2
AcDbXrecord
  3
ObjectDBX Classes
 90
        0
280
     0
281
     0
  0
CLASS
  1
LWPOLYLINE
  2
AcDbPolyline
  3
ObjectDBX Classes
 90
        0
280
     0
281
     1
  0
CLASS
  1
HATCH
  2
AcDbHatch
  3
ObjectDBX Classes
 90
        0
280
     0
281
     1
  0
CLASS
  1
ACDBPLACEHOLDER
  2
AcDbPlaceHolder
  3
ObjectDBX Classes
 90
        0
280
     0
281
     0
  0
CLASS
  1
LAYOUT
  2
AcDbLayout
  3
ObjectDBX Classes
 90
        0
280
     0
281
     0
  0
ENDSEC
  0
SECTION
  2
TABLES
  0
TABLE
  2
VPORT
  5
8
102
{ACAD_XDICTIONARY
360
32E
102
}
330
0
100
AcDbSymbolTable
 70
    16
  0
VPORT
  5
29
330
8
100
AcDbSymbolTableRecord
100
AcDbViewportTableRecord
  2
*ACTIVE
 70
     0
 10
0.0
 20
0.0
 11
1.0
 21
1.0
 12
0.0
 22
-48.0
 13
0.0
 23
0.0
 14
0.5
 24
0.5
 15
0.5
 25
0.5
 16
0.0
 26
0.0
 36
1.0
 17
0.0
 27
0.0
 37
0.0
 40
254.0
 41
0.069908
 42
50.0
 43
542.131662
 44
-542.131662
 50
0.0
 51
0.0
 71
     0
 72
   100
 73
     1
 74
     3
 75
     0
 76
     0
 77
     0
 78
     0
  0
VPORT
  5
2F6
330
8
100
AcDbSymbolTableRecord
100
AcDbViewportTableRecord
  2
L1
 70
     0
 10
0.0
 20
0.0
 11
1.0
 21
1.0
 12
0.0
 22
-48.0
 13
0.0
 23
0.0
 14
0.5
 24
0.5
 15
0.5
 25
0.5
 16
0.0
 26
0.0
 36
1.0
 17
0.0
 27
0.0
 37
0.0
 40
254.0
 41
0.069908
 42
50.0
 43
542.131662
 44
-542.131662
 50
0.0
 51
0.0
 71
     0
 72
   100
 73
     1
 74
     3
 75
     0
 76
     0
 77
     0
 78
     0
  0
VPORT
  5
2F7
330
8
100
AcDbSymbolTableRecord
100
AcDbViewportTableRecord
  2
L2
 70
     0
 10
0.0
 20
0.0
 11
0.5
 21
1.0
 12
0.0
 22
0.0
 13
0.0
 23
0.0
 14
0.5
 24
0.5
 15
0.5
 25
0.5
 16
0.0
 26
-1.0
 36
0.0
 17
0.0
 27
0.0
 37
0.0
 40
1583.142614
 41
0.011216
 42
50.0
 43
814.829862
 44
-814.829862
 50
0.0
 51
0.0
 71
     0
 72
   100
 73
     1
 74
     3
 75
     0
 76
     0
 77
     0
 78
     0
  0
VPORT
  5
2F8
330
8
100
AcDbSymbolTableRecord
100
AcDbViewportTableRecord
  2
L2
 70
     0
 10
0.5
 20
0.0
 11
1.0
 21
1.0
 12
0.0
 22
0.0
 13
0.0
 23
0.0
 14
0.5
 24
0.5
 15
0.5
 25
0.5
 16
1.0
 26
0.0
 36
0.0
 17
0.0
 27
0.0
 37
0.0
 40
1583.142614
 41
0.011216
 42
50.0
 43
801.694539
 44
-801.694539
 50
0.0
 51
0.0
 71
     0
 72
   100
 73
     1
 74
     3
 75
     0
 76
     0
 77
     0
 78
     0
  0
VPORT
  5
2F9
330
8
100
AcDbSymbolTableRecord
100
AcDbViewportTableRecord
  2
L3
 70
     0
 10
0.0
 20
0.5
 11
1.0
 21
1.0
 12
0.0
 22
-48.0
 13
0.0
 23
0.0
 14
0.5
 24
0.5
 15
0.5
 25
0.5
 16
0.0
 26
0.0
 36
1.0
 17
0.0
 27
0.0
 37
0.0
 40
254.0
 41
0.069908
 42
50.0
 43
542.131662
 44
-542.131662
 50
0.0
 51
0.0
 71
     0
 72
   100
 73
     1
 74
     3
 75
     0
 76
     0
 77
     0
 78
     0
  0
VPORT
  5
2FA
330
8
100
AcDbSymbolTableRecord
100
AcDbViewportTableRecord
  2
L3
 70
     0
 10
0.0
 20
0.0
 11
1.0
 21
0.5
 12
0.0
 22
0.0
 13
0.0
 23
0.0
 14
0.5
 24
0.5
 15
0.5
 25
0.5
 16
0.0
 26
-1.0
 36
0.0
 17
0.0
 27
0.0
 37
0.0
 40
1583.142614
 41
0.011216
 42
50.0
 43
814.829862
 44
-814.829862
 50
0.0
 51
0.0
 71
     0
 72
   100
 73
     1
 74
     3
 75
     0
 76
     0
 77
     0
 78
     0
  0
VPORT
  5
2FB
330
8
100
AcDbSymbolTableRecord
100
AcDbViewportTableRecord
  2
L4
 70
     0
 10
0.0
 20
0.5
 11
0.5
 21
1.0
 12
0.0
 22
-48.0
 13
0.0
 23
0.0
 14
0.5
 24
0.5
 15
0.5
 25
0.5
 16
0.0
 26
0.0
 36
1.0
 17
0.0
 27
0.0
 37
0.0
 40
254.0
 41
0.069908
 42
50.0
 43
542.131662
 44
-542.131662
 50
0.0
 51
0.0
 71
     0
 72
   100
 73
     1
 74
     3
 75
     0
 76
     0
 77
     0
 78
     0
  0
VPORT
  5
2FC
330
8
100
AcDbSymbolTableRecord
100
AcDbViewportTableRecord
  2
L4
 70
     0
 10
0.0
 20
0.0
 11
0.5
 21
0.5
 12
0.0
 22
0.0
 13
0.0
 23
0.0
 14
0.5
 24
0.5
 15
0.5
 25
0.5
 16
0.0
 26
-1.0
 36
0.0
 17
0.0
 27
0.0
 37
0.0
 40
1583.142614
 41
0.011216
 42
50.0
 43
814.829862
 44
-814.829862
 50
0.0
 51
0.0
 71
     0
 72
   100
 73
     1
 74
     3
 75
     0
 76
     0
 77
     0
 78
     0
  0
VPORT
  5
2FD
330
8
100
AcDbSymbolTableRecord
100
AcDbViewportTableRecord
  2
L4
 70
     0
 10
0.5
 20
0.0
 11
1.0
 21
0.5
 12
0.0
 22
0.0
 13
0.0
 23
0.0
 14
0.5
 24
0.5
 15
0.5
 25
0.5
 16
1.0
 26
0.0
 36
0.0
 17
0.0
 27
0.0
 37
0.0
 40
1583.142614
 41
0.011216
 42
50.0
 43
801.694539
 44
-801.694539
 50
0.0
 51
0.0
 71
     0
 72
   100
 73
     1
 74
     3
 75
     0
 76
     0
 77
     0
 78
     0
  0
VPORT
  5
2FE
330
8
100
AcDbSymbolTableRecord
100
AcDbViewportTableRecord
  2
L4
 70
     0
 10
0.5
 20
0.5
 11
1.0
 21
1.0
 12
0.0
 22
0.0
 13
0.0
 23
0.0
 14
0.5
 24
0.5
 15
0.5
 25
0.5
 16
0.5773502691896258
 26
-0.5773502691896258
 36
0.5773502691896258
 17
0.0
 27
0.0
 37
0.0
 40
1554.149487
 41
0.011425
 42
50.0
 43
809.406746
 44
-809.406746
 50
0.0
 51
0.0
 71
     0
 72
   100
 73
     1
 74
     3
 75
     0
 76
     0
 77
     0
 78
     0
  0
VPORT
  5
2FF
330
8
100
AcDbSymbolTableRecord
100
AcDbViewportTableRecord
  2
L6
 70
     0
 10
0.0
 20
0.5
 11
0.333333
 21
1.0
 12
0.0
 22
0.0
 13
0.0
 23
0.0
 14
0.5
 24
0.5
 15
0.5
 25
0.5
 16
0.7188730927569433
 26
-0.5850486126764433
 36
0.3754192287502549
 17
0.0
 27
0.0
 37
0.0
 40
1640.100147
 41
0.010827
 42
50.0
 43
849.180751
 44
-849.180751
 50
0.0
 51
0.0
 71
     0
 72
   100
 73
     1
 74
     3
 75
     0
 76
     0
 77
     0
 78
     0
  0
VPORT
  5
300
330
8
100
AcDbSymbolTableRecord
100
AcDbViewportTableRecord
  2
L6
 70
     0
 10
0.0
 20
0.0
 11
0.333333
 21
0.5
 12
0.0
 22
0.0
 13
0.0
 23
0.0
 14
0.5
 24
0.5
 15
0.5
 25
0.5
 16
-1.0
 26
0.0
 36
0.0
 17
0.0
 27
0.0
 37
0.0
 40
1583.142614
 41
0.011216
 42
50.0
 43
801.694539
 44
-801.694539
 50
0.0
 51
0.0
 71
     0
 72
   100
 73
     1
 74
     3
 75
     0
 76
     0
 77
     0
 78
     0
  0
VPORT
  5
301
330
8
100
AcDbSymbolTableRecord
100
AcDbViewportTableRecord
  2
L6
 70
     0
 10
0.333333
 20
0.5
 11
0.666667
 21
1.0
 12
0.0
 22
-48.0
 13
0.0
 23
0.0
 14
0.5
 24
0.5
 15
0.5
 25
0.5
 16
0.0
 26
0.0
 36
1.0
 17
0.0
 27
0.0
 37
0.0
 40
254.0
 41
0.069908
 42
50.0
 43
542.131662
 44
-542.131662
 50
0.0
 51
0.0
 71
     0
 72
   100
 73
     1
 74
     3
 75
     0
 76
     0
 77
     0
 78
     0
  0
VPORT
  5
302
330
8
100
AcDbSymbolTableRecord
100
AcDbViewportTableRecord
  2
L6
 70
     0
 10
0.333333
 20
0.0
 11
0.666667
 21
0.5
 12
0.0
 22
0.0
 13
0.0
 23
0.0
 14
0.5
 24
0.5
 15
0.5
 25
0.5
 16
0.0
 26
-1.0
 36
0.0
 17
0.0
 27
0.0
 37
0.0
 40
1583.142614
 41
0.011216
 42
50.0
 43
814.829862
 44
-814.829862
 50
0.0
 51
0.0
 71
     0
 72
   100
 73
     1
 74
     3
 75
     0
 76
     0
 77
     0
 78
     0
  0
VPORT
  5
303
330
8
100
AcDbSymbolTableRecord
100
AcDbViewportTableRecord
  2
L6
 70
     0
 10
0.666667
 20
0.5
 11
1.0
 21
1.0
 12
0.0
 22
0.0
 13
0.0
 23
0.0
 14
0.5
 24
0.5
 15
0.5
 25
0.5
 16
0.5773502691896258
 26
-0.5773502691896258
 36
0.5773502691896258
 17
0.0
 27
0.0
 37
0.0
 40
1554.149487
 41
0.011425
 42
50.0
 43
809.406746
 44
-809.406746
 50
0.0
 51
0.0
 71
     0
 72
   100
 73
     1
 74
     3
 75
     0
 76
     0
 77
     0
 78
     0
  0
VPORT
  5
304
330
8
100
AcDbSymbolTableRecord
100
AcDbViewportTableRecord
  2
L6
 70
     0
 10
0.666667
 20
0.0
 11
1.0
 21
0.5
 12
0.0
 22
0.0
 13
0.0
 23
0.0
 14
0.5
 24
0.5
 15
0.5
 25
0.5
 16
1.0
 26
0.0
 36
0.0
 17
0.0
 27
0.0
 37
0.0
 40
1583.142614
 41
0.011216
 42
50.0
 43
801.694539
 44
-801.694539
 50
0.0
 51
0.0
 71
     0
 72
   100
 73
     1
 74
     3
 75
     0
 76
     0
 77
     0
 78
     0
  0
ENDTAB
  0
TABLE
  2
LTYPE
  5
5
330
0
100
AcDbSymbolTable
 70
    10
  0
LTYPE
  5
14
330
5
100
AcDbSymbolTableRecord
100
AcDbLinetypeTableRecord
  2
BYBLOCK
 70
     0
  3

 72
    65
 73
     0
 40
0.0
  0
LTYPE
  5
15
330
5
100
AcDbSymbolTableRecord
100
AcDbLinetypeTableRecord
  2
BYLAYER
 70
     0
  3

 72
    65
 73
     0
 40
0.0
  0
LTYPE
  5
16
330
5
100
AcDbSymbolTableRecord
100
AcDbLinetypeTableRecord
  2
CONTINUOUS
 70
     0
  3
Solid line
 72
    65
 73
     0
 40
0.0
  0
LTYPE
  5
5F
330
5
100
AcDbSymbolTableRecord
100
AcDbLinetypeTableRecord
  2
ACAD_ISO04W100
 70
     0
  3
ISO long-dash dot ____ . ____ . ____ . ____ . _
 72
    65
 73
     4
 40
30.0
 49
24.0
 74
     4
 75
     0
340
0
 46
0.0
 50
0.0
 44
0.0
 45
0.0
 49
-3.0
 74
     4
 75
     0
340
0
 46
0.0
 50
0.0
 44
0.0
 45
0.0
 49
0.0
 74
     4
 75
     0
340
0
 46
0.0
 50
0.0
 44
0.0
 45
0.0
 49
-3.0
 74
     4
 75
     0
340
0
 46
0.0
 50
0.0
 44
0.0
 45
0.0
  0
LTYPE
  5
60
330
5
100
AcDbSymbolTableRecord
100
AcDbLinetypeTableRecord
  2
ACAD_ISO05W100
 70
     0
  3
ISO long-dash double-dot ____ .. ____ .. ____ . 
 72
    65
 73
     6
 40
33.0
 49
24.0
 74
     4
 75
     0
340
0
 46
0.0
 50
0.0
 44
0.0
 45
0.0
 49
-3.0
 74
     4
 75
     0
340
0
 46
0.0
 50
0.0
 44
0.0
 45
0.0
 49
0.0
 74
     4
 75
     0
340
0
 46
0.0
 50
0.0
 44
0.0
 45
0.0
 49
-3.0
 74
     4
 75
     0
340
0
 46
0.0
 50
0.0
 44
0.0
 45
0.0
 49
0.0
 74
     4
 75
     0
340
0
 46
0.0
 50
0.0
 44
0.0
 45
0.0
 49
-3.0
 74
     4
 75
     0
340
0
 46
0.0
 50
0.0
 44
0.0
 45
0.0
  0
LTYPE
  5
61
330
5
100
AcDbSymbolTableRecord
100
AcDbLinetypeTableRecord
  2
ACAD_ISO06W100
 70
     0
  3
ISO long-dash triple-dot ____ ... ____ ... ____
 72
    65
 73
     8
 40
36.0
 49
24.0
 74
     4
 75
     0
340
0
 46
0.0
 50
0.0
 44
0.0
 45
0.0
 49
-3.0
 74
     4
 75
     0
340
0
 46
0.0
 50
0.0
 44
0.0
 45
0.0
 49
0.0
 74
     4
 75
     0
340
0
 46
0.0
 50
0.0
 44
0.0
 45
0.0
 49
-3.0
 74
     4
 75
     0
340
0
 46
0.0
 50
0.0
 44
0.0
 45
0.0
 49
0.0
 74
     4
 75
     0
340
0
 46
0.0
 50
0.0
 44
0.0
 45
0.0
 49
-3.0
 74
     4
 75
     0
340
0
 46
0.0
 50
0.0
 44
0.0
 45
0.0
 49
0.0
 74
     4
 75
     0
340
0
 46
0.0
 50
0.0
 44
0.0
 45
0.0
 49
-3.0
 74
     4
 75
     0
340
0
 46
0.0
 50
0.0
 44
0.0
 45
0.0
  0
LTYPE
  5
62
330
5
100
AcDbSymbolTableRecord
100
AcDbLinetypeTableRecord
  2
ACAD_ISO09W100
 70
     0
  3
ISO long-dash double-short-dash ____ __ __ ____
 72
    65
 73
     6
 40
45.0
 49
24.0
 74
     4
 75
     0
340
0
 46
0.0
 50
0.0
 44
0.0
 45
0.0
 49
-3.0
 74
     4
 75
     0
340
0
 46
0.0
 50
0.0
 44
0.0
 45
0.0
 49
6.0
 74
     4
 75
     0
340
0
 46
0.0
 50
0.0
 44
0.0
 45
0.0
 49
-3.0
 74
     4
 75
     0
340
0
 46
0.0
 50
0.0
 44
0.0
 45
0.0
 49
6.0
 74
     4
 75
     0
340
0
 46
0.0
 50
0.0
 44
0.0
 45
0.0
 49
-3.0
 74
     4
 75
     0
340
0
 46
0.0
 50
0.0
 44
0.0
 45
0.0
  0
LTYPE
  5
63
330
5
100
AcDbSymbolTableRecord
100
AcDbLinetypeTableRecord
  2
CENTER
 70
     0
  3
____ _ ____ _ ____ _ ____
 72
    65
 73
     4
 40
47.4
 49
22.0
 74
     4
 75
     0
340
0
 46
0.0
 50
0.0
 44
0.0
 45
0.0
 49
-8.5
 74
     4
 75
     0
340
0
 46
0.0
 50
0.0
 44
0.0
 45
0.0
 49
8.5
 74
     4
 75
     0
340
0
 46
0.0
 50
0.0
 44
0.0
 45
0.0
 49
-8.5
 74
     4
 75
     0
340
0
 46
0.0
 50
0.0
 44
0.0
 45
0.0
  0
LTYPE
  5
64
330
5
100
AcDbSymbolTableRecord
100
AcDbLinetypeTableRecord
  2
DASHDOT
 70
     0
  3
_._._._._._._._._._._._._._._._.
 72
    65
 73
     4
 40
70.0
 49
31.0
 74
     4
 75
     0
340
0
 46
0.0
 50
0.0
 44
0.0
 45
0.0
 49
-13.0
 74
     4
 75
     0
340
0
 46
0.0
 50
0.0
 44
0.0
 45
0.0
 49
13.0
 74
     4
 75
     0
340
0
 46
0.0
 50
0.0
 44
0.0
 45
0.0
 49
-13.0
 74
     4
 75
     0
340
0
 46
0.0
 50
0.0
 44
0.0
 45
0.0
  0
LTYPE
  5
65
330
5
100
AcDbSymbolTableRecord
100
AcDbLinetypeTableRecord
  2
DASHED
 70
     0
  3
__ __ __ __ __ __ __ __ __
 72
    65
 73
     2
 40
25.72
 49
12.86
 74
     4
 75
     0
340
0
 46
0.0
 50
0.0
 44
0.0
 45
0.0
 49
-12.86
 74
     4
 75
     0
340
0
 46
0.0
 50
0.0
 44
0.0
 45
0.0
  0
LTYPE
  5
66
330
5
100
AcDbSymbolTableRecord
100
AcDbLinetypeTableRecord
  2
DOT
 70
     0
  3
.........................
 72
    65
 73
     2
 40
10.0
 49
0.0
 74
     4
 75
     0
340
0
 46
0.0
 50
0.0
 44
0.0
 45
0.0
 49
-10.0
 74
     4
 75
     0
340
0
 46
0.0
 50
0.0
 44
0.0
 45
0.0
  0
LTYPE
  5
67
330
5
100
AcDbSymbolTableRecord
100
AcDbLinetypeTableRecord
  2
PHANTOM
 70
     0
  3
____ _ _ ____ _ _ _____ _ _ ____
 72
    65
 73
     6
 40
50.5
 49
18.0
 74
     4
 75
     0
340
0
 46
0.0
 50
0.0
 44
0.0
 45
0.0
 49
-6.5
 74
     4
 75
     0
340
0
 46
0.0
 50
0.0
 44
0.0
 45
0.0
 49
6.5
 74
     4
 75
     0
340
0
 46
0.0
 50
0.0
 44
0.0
 45
0.0
 49
-6.5
 74
     4
 75
     0
340
0
 46
0.0
 50
0.0
 44
0.0
 45
0.0
 49
6.5
 74
     4
 75
     0
340
0
 46
0.0
 50
0.0
 44
0.0
 45
0.0
 49
-6.5
 74
     4
 75
     0
340
0
 46
0.0
 50
0.0
 44
0.0
 45
0.0
  0
ENDTAB
  0
TABLE
  2
LAYER
  5
2
330
0
100
AcDbSymbolTable
 70
     3
  0
LAYER
  5
10
330
2
100
AcDbSymbolTableRecord
100
AcDbLayerTableRecord
  2
0
 70
     0
 62
     7
  6
CONTINUOUS
  0
LAYER
  5
69
330
2
100
AcDbSymbolTableRecord
100
AcDbLayerTableRecord
  2
61
 70
     0
 62
     7
  6
CONTINUOUS
  0
LAYER
  5
6B
330
2
100
AcDbSymbolTableRecord
100
AcDbLayerTableRecord
  2
1
 70
     0
 62
     7
  6
CONTINUOUS
  0
ENDTAB
  0
TABLE
  2
STYLE
  5
3
330
0
100
AcDbSymbolTable
 70
     1
  0
STYLE
  5
11
330
3
100
AcDbSymbolTableRecord
100
AcDbTextStyleTableRecord
  2
STANDARD
 70
     0
 40
0.0
 41
1.0
 50
0.0
 71
     0
 42
0.2
  3
txt
  4

  0
ENDTAB
  0
TABLE
  2
VIEW
  5
6
330
0
100
AcDbSymbolTable
 70
     8
  0
VIEW
  5
2EE
330
6
100
AcDbSymbolTableRecord
100
AcDbViewTableRecord
  2
TOP
 70
     0
 40
254.0
 10
0.0
 20
-48.0
 41
386.588
 11
0.0
 21
0.0
 31
1.0
 12
0.0
 22
0.0
 32
0.0
 42
50.0
 43
542.131662
 44
-542.131662
 50
0.0
 71
     0
  0
VIEW
  5
2EF
330
6
100
AcDbSymbolTableRecord
100
AcDbViewTableRecord
  2
FRONT
 70
     0
 40
1583.142614
 10
0.0
 20
0.0
 41
386.588
 11
0.0
 21
-1.0
 31
0.0
 12
0.0
 22
0.0
 32
0.0
 42
50.0
 43
814.829862
 44
-814.829862
 50
0.0
 71
     0
  0
VIEW
  5
2F0
330
6
100
AcDbSymbolTableRecord
100
AcDbViewTableRecord
  2
RIGHT
 70
     0
 40
1583.142614
 10
0.0
 20
0.0
 41
254.0
 11
1.0
 21
0.0
 31
0.0
 12
0.0
 22
0.0
 32
0.0
 42
50.0
 43
801.694539
 44
-801.694539
 50
0.0
 71
     0
  0
VIEW
  5
2F1
330
6
100
AcDbSymbolTableRecord
100
AcDbViewTableRecord
  2
BACK
 70
     0
 40
1583.142614
 10
0.0
 20
0.0
 41
386.588
 11
0.0
 21
1.0
 31
0.0
 12
0.0
 22
0.0
 32
0.0
 42
50.0
 43
814.829862
 44
-814.829862
 50
0.0
 71
     0
  0
VIEW
  5
2F2
330
6
100
AcDbSymbolTableRecord
100
AcDbViewTableRecord
  2
BOTTOM
 70
     0
 40
254.0
 10
0.0
 20
0.0
 41
386.588
 11
0.0
 21
0.0
 31
-1.0
 12
0.0
 22
0.0
 32
0.0
 42
50.0
 43
791.571307
 44
-791.571307
 50
180.0
 71
     0
  0
VIEW
  5
2F3
330
6
100
AcDbSymbolTableRecord
100
AcDbViewTableRecord
  2
LEFT
 70
     0
 40
1583.142614
 10
0.0
 20
0.0
 41
254.0
 11
-1.0
 21
0.0
 31
0.0
 12
0.0
 22
0.0
 32
0.0
 42
50.0
 43
801.694539
 44
-801.694539
 50
0.0
 71
     0
  0
VIEW
  5
2F4
330
6
100
AcDbSymbolTableRecord
100
AcDbViewTableRecord
  2
ISOMETRIC
 70
     0
 40
1554.149487
 10
0.0
 20
0.0
 41
452.964119
 11
0.5773502691896258
 21
-0.5773502691896258
 31
0.5773502691896258
 12
0.0
 22
0.0
 32
0.0
 42
50.0
 43
809.406746
 44
-809.406746
 50
0.0
 71
     0
  0
VIEW
  5
2F5
330
6
100
AcDbSymbolTableRecord
100
AcDbViewTableRecord
  2
TRIMETRIC
 70
     0
 40
1640.100147
 10
0.0
 20
0.0
 41
441.025283
 11
0.7188730927569433
 21
-0.5850486126764433
 31
0.3754192287502549
 12
0.0
 22
0.0
 32
0.0
 42
50.0
 43
849.180751
 44
-849.180751
 50
0.0
 71
     0
  0
ENDTAB
  0
TABLE
  2
UCS
  5
7
330
0
100
AcDbSymbolTable
 70
     0
  0
ENDTAB
  0
TABLE
  2
APPID
  5
9
330
0
100
AcDbSymbolTable
 70
     2
  0
APPID
  5
12
330
9
100
AcDbSymbolTableRecord
100
AcDbRegAppTableRecord
  2
ACAD
 70
     0
  0
APPID
  5
338
330
9
100
AcDbSymbolTableRecord
100
AcDbRegAppTableRecord
  2
ACAD_MLEADERVER
 70
     0
  0
ENDTAB
  0
TABLE
  2
DIMSTYLE
  5
A
330
0
100
AcDbSymbolTable
 70
     1
  0
DIMSTYLE
105
27
330
A
100
AcDbSymbolTableRecord
100
AcDbDimStyleTableRecord
  2
STANDARD
 70
     0
  3

  4

  5

  6

  7

 40
1.0
 41
0.18
 42
0.0625
 43
0.38
 44
0.18
 45
0.0
 46
0.0
 47
0.0
 48
0.0
140
0.18
141
0.09
142
0.0
143
25.4
144
1.0
145
0.0
146
1.0
147
0.09
 71
     0
 72
     0
 73
     1
 74
     1
 75
     0
 76
     0
 77
     0
 78
     0
170
     0
171
     2
172
     0
173
     0
174
     0
175
     0
176
     0
177
     0
178
     0
270
     2
271
     4
272
     4
273
     2
274
     2
340
11
275
     0
280
     0
281
     0
282
     0
283
     1
284
     0
285
     0
286
     0
287
     3
288
     0
  0
ENDTAB
  0
TABLE
  2
BLOCK_RECORD
  5
1
330
0
100
AcDbSymbolTable
 70
     0
  0
BLOCK_RECORD
  5
1F
330
1
100
AcDbSymbolTableRecord
100
AcDbBlockTableRecord
  2
*MODEL_SPACE
  0
BLOCK_RECORD
  5
1B
330
1
100
AcDbSymbolTableRecord
100
AcDbBlockTableRecord
  2
*PAPER_SPACE
  0
ENDTAB
  0
ENDSEC
  0
SECTION
  2
BLOCKS
  0
BLOCK
  5
20
330
1F
100
AcDbEntity
  8
0
100
AcDbBlockBegin
  2
*MODEL_SPACE
 70
     0
 10
0.0
 20
0.0
 30
0.0
  3
*MODEL_SPACE
  1

  0
ENDBLK
  5
21
330
1F
100
AcDbEntity
  8
0
100
AcDbBlockEnd
  0
BLOCK
  5
1C
330
1B
100
AcDbEntity
 67
     1
  8
0
100
AcDbBlockBegin
  2
*PAPER_SPACE
 70
     0
 10
0.0
 20
0.0
 30
0.0
  3
*PAPER_SPACE
  1

  0
ENDBLK
  5
1D
330
1B
100
AcDbEntity
 67
     1
  8
0
100
AcDbBlockEnd
  0
ENDSEC
  0
SECTION
  2
ENTITIES
  0
POINT
  5
68
330
1F
100
AcDbEntity
  8
61
  6
CONTINUOUS
 62
    23
100
AcDbPoint
 10
0.0
 20
0.0
 30
0.0
  0
LINE
  5
6A
330
1F
100
AcDbEntity
  8
1
  6
CONTINUOUS
 62
   163
100
AcDbLine
 10
105.820443
 20
31.052191
 30
0.0
 11
105.820443
 21
-18.947809
 31
0.0
  0
LINE
  5
6C
330
1F
100
AcDbEntity
  8
1
  6
CONTINUOUS
 62
   163
100
AcDbLine
 10
111.820443
 20
-128.947809
 30
0.0
 11
106.820443
 21
-128.947809
 31
0.0
  0
LINE
  5
6D
330
1F
100
AcDbEntity
  8
1
  6
CONTINUOUS
 62
   163
100
AcDbLine
 10
105.820443
 20
-78.947809
 30
0.0
 11
105.820443
 21
-128.947809
 31
0.0
  0
LINE
  5
6E
330
1F
100
AcDbEntity
  8
1
  6
CONTINUOUS
 62
   163
100
AcDbLine
 10
-106.0
 20
31.052191
 30
0.0
 11
-106.0
 21
-18.947809
 31
0.0
  0
LINE
  5
6F
330
1F
100
AcDbEntity
  8
1
  6
CONTINUOUS
 62
   163
100
AcDbLine
 10
-106.0
 20
-78.947809
 30
0.0
 11
-112.0
 21
-78.947809
 31
0.0
  0
LINE
  5
70
330
1F
100
AcDbEntity
  8
1
  6
CONTINUOUS
 62
   163
100
AcDbLine
 10
-127.0
 20
-72.5
 30
0.0
 11
-127.0
 21
-74.889908
 31
0.0
  0
LINE
  5
71
330
1F
100
AcDbEntity
  8
1
  6
CONTINUOUS
 62
   163
100
AcDbLine
 10
127.0
 20
56.5
 30
0.0
 11
126.233214
 21
56.5
 31
0.0
  0
LINE
  5
72
330
1F
100
AcDbEntity
  8
1
  6
CONTINUOUS
 62
   163
100
AcDbLine
 10
-112.0
 20
-78.947809
 30
0.0
 11
-112.0
 21
-128.947809
 31
0.0
  0
LINE
  5
73
330
1F
100
AcDbEntity
  8
1
  6
CONTINUOUS
 62
   163
100
AcDbLine
 10
-106.0
 20
-128.947809
 30
0.0
 11
-106.0
 21
-78.947809
 31
0.0
  0
LINE
  5
74
330
1F
100
AcDbEntity
  8
1
  6
CONTINUOUS
 62
   163
100
AcDbLine
 10
-112.0
 20
31.052191
 30
0.0
 11
-106.0
 21
31.052191
 31
0.0
  0
LINE
  5
75
330
1F
100
AcDbEntity
  8
1
  6
CONTINUOUS
 62
   163
100
AcDbLine
 10
-112.0
 20
-128.947809
 30
0.0
 11
-106.0
 21
-128.947809
 31
0.0
  0
LINE
  5
76
330
1F
100
AcDbEntity
  8
1
  6
CONTINUOUS
 62
   163
100
AcDbLine
 10
-112.0
 20
-18.947809
 30
0.0
 11
-112.0
 21
31.052191
 31
0.0
  0
LINE
  5
77
330
1F
100
AcDbEntity
  8
1
  6
CONTINUOUS
 62
   163
100
AcDbLine
 10
111.820443
 20
31.052191
 30
0.0
 11
111.820443
 21
-18.947809
 31
0.0
  0
LINE
  5
78
330
1F
100
AcDbEntity
  8
1
  6
CONTINUOUS
 62
   163
100
AcDbLine
 10
111.820443
 20
-78.947809
 30
0.0
 11
111.820443
 21
-128.947809
 31
0.0
  0
LINE
  5
79
330
1F
100
AcDbEntity
  8
1
  6
CONTINUOUS
 62
   163
100
AcDbLine
 10
111.820443
 20
-128.947809
 30
0.0
 11
105.820443
 21
-128.947809
 31
0.0
  0
LINE
  5
7A
330
1F
100
AcDbEntity
  8
1
  6
CONTINUOUS
 62
   163
100
AcDbLine
 10
111.820443
 20
-78.947809
 30
0.0
 11
105.820443
 21
-78.947809
 31
0.0
  0
LINE
  5
7B
330
1F
100
AcDbEntity
  8
1
  6
CONTINUOUS
 62
   163
100
AcDbLine
 10
111.820443
 20
-18.947809
 30
0.0
 11
105.820443
 21
-18.947809
 31
0.0
  0
LINE
  5
7C
330
1F
100
AcDbEntity
  8
1
  6
CONTINUOUS
 62
   163
100
AcDbLine
 10
111.820443
 20
31.052191
 30
0.0
 11
105.820443
 21
31.052191
 31
0.0
  0
LINE
  5
7D
330
1F
100
AcDbEntity
  8
1
  6
CONTINUOUS
 62
   163
100
AcDbLine
 10
-106.0
 20
-18.947809
 30
0.0
 11
-112.0
 21
-18.947809
 31
0.0
  0
LINE
  5
7E
330
1F
100
AcDbEntity
  8
1
  6
CONTINUOUS
 62
   252
100
AcDbLine
 10
-112.0
 20
-128.947809
 30
0.0
 11
-106.0
 21
-128.947809
 31
0.0
  0
LINE
  5
7F
330
1F
100
AcDbEntity
  8
1
  6
CONTINUOUS
 62
   252
100
AcDbLine
 10
-106.0
 20
31.052191
 30
0.0
 11
-112.0
 21
31.052191
 31
0.0
  0
LINE
  5
80
330
1F
100
AcDbEntity
  8
1
  6
CONTINUOUS
 62
   252
100
AcDbLine
 10
111.820443
 20
-18.947809
 30
0.0
 11
111.820443
 21
31.052191
 31
0.0
  0
LINE
  5
81
330
1F
100
AcDbEntity
  8
1
  6
CONTINUOUS
 62
   252
100
AcDbLine
 10
111.820443
 20
-18.947809
 30
0.0
 11
111.820443
 21
31.052191
 31
0.0
  0
LINE
  5
82
330
1F
100
AcDbEntity
  8
1
  6
CONTINUOUS
 62
   252
100
AcDbLine
 10
-112.0
 20
-78.947809
 30
0.0
 11
-112.0
 21
-128.947809
 31
0.0
  0
LINE
  5
83
330
1F
100
AcDbEntity
  8
1
  6
CONTINUOUS
 62
   252
100
AcDbLine
 10
-106.0
 20
-18.947809
 30
0.0
 11
-106.0
 21
31.052191
 31
0.0
  0
LINE
  5
84
330
1F
100
AcDbEntity
  8
1
  6
CONTINUOUS
 62
   252
100
AcDbLine
 10
-112.0
 20
-78.947809
 30
0.0
 11
-112.0
 21
-128.947809
 31
0.0
  0
LINE
  5
85
330
1F
100
AcDbEntity
  8
1
  6
CONTINUOUS
 62
   252
100
AcDbLine
 10
-112.0
 20
31.052191
 30
0.0
 11
-112.0
 21
-18.947809
 31
0.0
  0
LINE
  5
86
330
1F
100
AcDbEntity
  8
1
  6
CONTINUOUS
 62
   252
100
AcDbLine
 10
-106.0
 20
-128.947809
 30
0.0
 11
-106.0
 21
-78.947809
 31
0.0
  0
LINE
  5
87
330
1F
100
AcDbEntity
  8
1
  6
CONTINUOUS
 62
   252
100
AcDbLine
 10
105.820443
 20
-128.947809
 30
0.0
 11
111.820443
 21
-128.947809
 31
0.0
  0
LINE
  5
88
330
1F
100
AcDbEntity
  8
1
  6
CONTINUOUS
 62
   252
100
AcDbLine
 10
111.820443
 20
-128.947809
 30
0.0
 11
111.820443
 21
-78.947809
 31
0.0
  0
LINE
  5
89
330
1F
100
AcDbEntity
  8
1
  6
CONTINUOUS
 62
   252
100
AcDbLine
 10
-106.0
 20
-128.947809
 30
0.0
 11
-106.0
 21
-78.947809
 31
0.0
  0
LINE
  5
8A
330
1F
100
AcDbEntity
  8
1
  6
CONTINUOUS
 62
   252
100
AcDbLine
 10
-112.0
 20
31.052191
 30
0.0
 11
-112.0
 21
-18.947809
 31
0.0
  0
LINE
  5
8B
330
1F
100
AcDbEntity
  8
1
  6
CONTINUOUS
 62
   252
100
AcDbLine
 10
-112.0
 20
-18.947809
 30
0.0
 11
-106.0
 21
-18.947809
 31
0.0
  0
LINE
  5
8C
330
1F
100
AcDbEntity
  8
1
  6
CONTINUOUS
 62
   252
100
AcDbLine
 10
-112.0
 20
-18.947809
 30
0.0
 11
-106.0
 21
-18.947809
 31
0.0
  0
LINE
  5
8D
330
1F
100
AcDbEntity
  8
1
  6
CONTINUOUS
 62
   252
100
AcDbLine
 10
-106.0
 20
-78.947809
 30
0.0
 11
-112.0
 21
-78.947809
 31
0.0
  0
LINE
  5
8E
330
1F
100
AcDbEntity
  8
1
  6
CONTINUOUS
 62
   252
100
AcDbLine
 10
105.820443
 20
-128.947809
 30
0.0
 11
111.820443
 21
-128.947809
 31
0.0
  0
LINE
  5
8F
330
1F
100
AcDbEntity
  8
1
  6
CONTINUOUS
 62
   252
100
AcDbLine
 10
111.820443
 20
-128.947809
 30
0.0
 11
111.820443
 21
-78.947809
 31
0.0
  0
LINE
  5
90
330
1F
100
AcDbEntity
  8
1
  6
CONTINUOUS
 62
   252
100
AcDbLine
 10
-106.0
 20
-18.947809
 30
0.0
 11
-106.0
 21
31.052191
 31
0.0
  0
LINE
  5
91
330
1F
100
AcDbEntity
  8
1
  6
CONTINUOUS
 62
   252
100
AcDbLine
 10
-112.0
 20
-128.947809
 30
0.0
 11
-106.0
 21
-128.947809
 31
0.0
  0
LINE
  5
92
330
1F
100
AcDbEntity
  8
1
  6
CONTINUOUS
 62
   252
100
AcDbLine
 10
-106.0
 20
31.052191
 30
0.0
 11
-112.0
 21
31.052191
 31
0.0
  0
LINE
  5
93
330
1F
100
AcDbEntity
  8
1
  6
CONTINUOUS
 62
   252
100
AcDbLine
 10
-106.0
 20
-78.947809
 30
0.0
 11
-112.0
 21
-78.947809
 31
0.0
  0
LINE
  5
94
330
1F
100
AcDbEntity
  8
1
  6
CONTINUOUS
 62
   252
100
AcDbLine
 10
111.820443
 20
31.052191
 30
0.0
 11
105.820443
 21
31.052191
 31
0.0
  0
LINE
  5
95
330
1F
100
AcDbEntity
  8
1
  6
CONTINUOUS
 62
   252
100
AcDbLine
 10
105.820443
 20
31.052191
 30
0.0
 11
105.820443
 21
-18.947809
 31
0.0
  0
LINE
  5
96
330
1F
100
AcDbEntity
  8
1
  6
CONTINUOUS
 62
   252
100
AcDbLine
 10
111.820443
 20
-78.947809
 30
0.0
 11
105.820443
 21
-78.947809
 31
0.0
  0
LINE
  5
97
330
1F
100
AcDbEntity
  8
1
  6
CONTINUOUS
 62
   252
100
AcDbLine
 10
111.820443
 20
31.052191
 30
0.0
 11
105.820443
 21
31.052191
 31
0.0
  0
LINE
  5
98
330
1F
100
AcDbEntity
  8
1
  6
CONTINUOUS
 62
   252
100
AcDbLine
 10
105.820443
 20
31.052191
 30
0.0
 11
105.820443
 21
-18.947809
 31
0.0
  0
LINE
  5
99
330
1F
100
AcDbEntity
  8
1
  6
CONTINUOUS
 62
   252
100
AcDbLine
 10
111.820443
 20
-78.947809
 30
0.0
 11
105.820443
 21
-78.947809
 31
0.0
  0
LINE
  5
9A
330
1F
100
AcDbEntity
  8
1
  6
CONTINUOUS
 62
   252
100
AcDbLine
 10
105.820443
 20
-78.947809
 30
0.0
 11
105.820443
 21
-128.947809
 31
0.0
  0
LINE
  5
9B
330
1F
100
AcDbEntity
  8
1
  6
CONTINUOUS
 62
   252
100
AcDbLine
 10
105.820443
 20
-18.947809
 30
0.0
 11
111.820443
 21
-18.947809
 31
0.0
  0
LINE
  5
9C
330
1F
100
AcDbEntity
  8
1
  6
CONTINUOUS
 62
   252
100
AcDbLine
 10
105.820443
 20
-18.947809
 30
0.0
 11
111.820443
 21
-18.947809
 31
0.0
  0
LINE
  5
9D
330
1F
100
AcDbEntity
  8
1
  6
CONTINUOUS
 62
   252
100
AcDbLine
 10
105.820443
 20
-78.947809
 30
0.0
 11
105.820443
 21
-128.947809
 31
0.0
  0
CIRCLE
  5
9E
330
1F
100
AcDbEntity
  8
1
  6
CONTINUOUS
 62
     7
100
AcDbCircle
 10
-64.0
 20
63.0
 30
0.0
 40
2.2
  0
CIRCLE
  5
9F
330
1F
100
AcDbEntity
  8
1
  6
CONTINUOUS
 62
     7
100
AcDbCircle
 10
64.0
 20
63.0
 30
0.0
 40
2.2
  0
CIRCLE
  5
A0
330
1F
100
AcDbEntity
  8
1
  6
CONTINUOUS
 62
   252
100
AcDbCircle
 10
64.0
 20
63.0
 30
0.0
 40
2.2
  0
CIRCLE
  5
A1
330
1F
100
AcDbEntity
  8
1
  6
CONTINUOUS
 62
   252
100
AcDbCircle
 10
-64.0
 20
63.0
 30
0.0
 40
2.2
  0
CIRCLE
  5
A2
330
1F
100
AcDbEntity
  8
1
  6
CONTINUOUS
 62
   252
100
AcDbCircle
 10
64.0
 20
63.0
 30
0.0
 40
2.2
  0
CIRCLE
  5
A3
330
1F
100
AcDbEntity
  8
1
  6
CONTINUOUS
 62
   252
100
AcDbCircle
 10
-64.0
 20
63.0
 30
0.0
 40
2.2
  0
CIRCLE
  5
A4
330
1F
100
AcDbEntity
  8
1
  6
CONTINUOUS
 62
   252
100
AcDbCircle
 10
-47.985714
 20
0.5
 30
0.0
 40
1.999999999999999
  0
CIRCLE
  5
A5
330
1F
100
AcDbEntity
  8
1
  6
CONTINUOUS
 62
   252
100
AcDbCircle
 10
-47.985714
 20
0.5
 30
0.0
 40
1.999999999999999
  0
CIRCLE
  5
A6
330
1F
100
AcDbEntity
  8
1
  6
CONTINUOUS
 62
   252
100
AcDbCircle
 10
52.014286
 20
-99.5
 30
0.0
 40
2.0
  0
CIRCLE
  5
A7
330
1F
100
AcDbEntity
  8
1
  6
CONTINUOUS
 62
   252
100
AcDbCircle
 10
52.014286
 20
0.5
 30
0.0
 40
2.0
  0
CIRCLE
  5
A8
330
1F
100
AcDbEntity
  8
1
  6
CONTINUOUS
 62
   252
100
AcDbCircle
 10
-47.985714
 20
-99.5
 30
0.0
 40
2.0
  0
CIRCLE
  5
A9
330
1F
100
AcDbEntity
  8
1
  6
CONTINUOUS
 62
   252
100
AcDbCircle
 10
52.014286
 20
-99.5
 30
0.0
 40
2.0
  0
CIRCLE
  5
AA
330
1F
100
AcDbEntity
  8
1
  6
CONTINUOUS
 62
   252
100
AcDbCircle
 10
52.014286
 20
0.5
 30
0.0
 40
2.0
  0
CIRCLE
  5
AB
330
1F
100
AcDbEntity
  8
1
  6
CONTINUOUS
 62
   252
100
AcDbCircle
 10
-47.985714
 20
-99.5
 30
0.0
 40
2.0
  0
POLYLINE
  5
AC
330
1F
100
AcDbEntity
  8
1
  6
CONTINUOUS
 62
     7
100
AcDb2dPolyline
 66
     1
 10
0.0
 20
0.0
 30
0.0
 70
     1
  0
VERTEX
  5
AD
330
AC
100
AcDbEntity
  8
1
  6
CONTINUOUS
 62
     7
100
AcDbVertex
100
AcDb2dVertex
 10
115.5
 20
61.0
 30
0.0
  0
VERTEX
  5
AE
330
AC
100
AcDbEntity
  8
1
  6
CONTINUOUS
 62
     7
100
AcDbVertex
100
AcDb2dVertex
 10
115.657119
 20
59.821278
 30
0.0
  0
VERTEX
  5
AF
330
AC
100
AcDbEntity
  8
1
  6
CONTINUOUS
 62
     7
100
AcDbVertex
100
AcDb2dVertex
 10
116.163741
 20
58.647743
 30
0.0
  0
VERTEX
  5
B0
330
AC
100
AcDbEntity
  8
1
  6
CONTINUOUS
 62
     7
100
AcDbVertex
100
AcDb2dVertex
 10
117.012949
 20
57.634361
 30
0.0
  0
VERTEX
  5
B1
330
AC
100
AcDbEntity
  8
1
  6
CONTINUOUS
 62
     7
100
AcDbVertex
100
AcDb2dVertex
 10
118.109605
 20
56.916324
 30
0.0
  0
VERTEX
  5
B2
330
AC
100
AcDbEntity
  8
1
  6
CONTINUOUS
 62
     7
100
AcDbVertex
100
AcDb2dVertex
 10
119.302806
 20
56.554337
 30
0.0
  0
VERTEX
  5
B3
330
AC
100
AcDbEntity
  8
1
  6
CONTINUOUS
 62
     7
100
AcDbVertex
100
AcDb2dVertex
 10
120.535878
 20
56.5
 30
0.0
  0
VERTEX
  5
B4
330
AC
100
AcDbEntity
  8
1
  6
CONTINUOUS
 62
     7
100
AcDbVertex
100
AcDb2dVertex
 10
126.529669
 20
56.5
 30
0.0
  0
VERTEX
  5
B5
330
AC
100
AcDbEntity
  8
1
  6
CONTINUOUS
 62
     7
100
AcDbVertex
100
AcDb2dVertex
 10
127.0
 20
56.5
 30
0.0
  0
VERTEX
  5
B6
330
AC
100
AcDbEntity
  8
1
  6
CONTINUOUS
 62
     7
100
AcDbVertex
100
AcDb2dVertex
 10
127.0
 20
56.406435
 30
0.0
  0
VERTEX
  5
B7
330
AC
100
AcDbEntity
  8
1
  6
CONTINUOUS
 62
     7
100
AcDbVertex
100
AcDb2dVertex
 10
127.0
 20
55.842539
 30
0.0
  0
VERTEX
  5
B8
330
AC
100
AcDbEntity
  8
1
  6
CONTINUOUS
 62
     7
100
AcDbVertex
100
AcDb2dVertex
 10
127.0
 20
55.278643
 30
0.0
  0
VERTEX
  5
B9
330
AC
100
AcDbEntity
  8
1
  6
CONTINUOUS
 62
     7
100
AcDbVertex
100
AcDb2dVertex
 10
127.0
 20
54.714747
 30
0.0
  0
VERTEX
  5
BA
330
AC
100
AcDbEntity
  8
1
  6
CONTINUOUS
 62
     7
100
AcDbVertex
100
AcDb2dVertex
 10
127.0
 20
54.150852
 30
0.0
  0
VERTEX
  5
BB
330
AC
100
AcDbEntity
  8
1
  6
CONTINUOUS
 62
     7
100
AcDbVertex
100
AcDb2dVertex
 10
127.0
 20
51.935546
 30
0.0
  0
VERTEX
  5
BC
330
AC
100
AcDbEntity
  8
1
  6
CONTINUOUS
 62
     7
100
AcDbVertex
100
AcDb2dVertex
 10
127.0
 20
47.979644
 30
0.0
  0
VERTEX
  5
BD
330
AC
100
AcDbEntity
  8
1
  6
CONTINUOUS
 62
     7
100
AcDbVertex
100
AcDb2dVertex
 10
127.0
 20
38.988957
 30
0.0
  0
VERTEX
  5
BE
330
AC
100
AcDbEntity
  8
1
  6
CONTINUOUS
 62
     7
100
AcDbVertex
100
AcDb2dVertex
 10
127.0
 20
7.02207
 30
0.0
  0
VERTEX
  5
BF
330
AC
100
AcDbEntity
  8
1
  6
CONTINUOUS
 62
     7
100
AcDbVertex
100
AcDb2dVertex
 10
127.0
 20
-56.911704
 30
0.0
  0
VERTEX
  5
C0
330
AC
100
AcDbEntity
  8
1
  6
CONTINUOUS
 62
     7
100
AcDbVertex
100
AcDb2dVertex
 10
127.0
 20
-62.905495
 30
0.0
  0
VERTEX
  5
C1
330
AC
100
AcDbEntity
  8
1
  6
CONTINUOUS
 62
     7
100
AcDbVertex
100
AcDb2dVertex
 10
127.0
 20
-63.404978
 30
0.0
  0
VERTEX
  5
C2
330
AC
100
AcDbEntity
  8
1
  6
CONTINUOUS
 62
     7
100
AcDbVertex
100
AcDb2dVertex
 10
127.0
 20
-63.47866
 30
0.0
  0
VERTEX
  5
C3
330
AC
100
AcDbEntity
  8
1
  6
CONTINUOUS
 62
     7
100
AcDbVertex
100
AcDb2dVertex
 10
127.0
 20
-63.5
 30
0.0
  0
VERTEX
  5
C4
330
AC
100
AcDbEntity
  8
1
  6
CONTINUOUS
 62
     7
100
AcDbVertex
100
AcDb2dVertex
 10
126.947657
 20
-63.5
 30
0.0
  0
VERTEX
  5
C5
330
AC
100
AcDbEntity
  8
1
  6
CONTINUOUS
 62
     7
100
AcDbVertex
100
AcDb2dVertex
 10
126.831871
 20
-63.5
 30
0.0
  0
VERTEX
  5
C6
330
AC
100
AcDbEntity
  8
1
  6
CONTINUOUS
 62
     7
100
AcDbVertex
100
AcDb2dVertex
 10
126.625109
 20
-63.5
 30
0.0
  0
VERTEX
  5
C7
330
AC
100
AcDbEntity
  8
1
  6
CONTINUOUS
 62
     7
100
AcDbVertex
100
AcDb2dVertex
 10
126.255891
 20
-63.5
 30
0.0
  0
VERTEX
  5
C8
330
AC
100
AcDbEntity
  8
1
  6
CONTINUOUS
 62
     7
100
AcDbVertex
100
AcDb2dVertex
 10
125.596574
 20
-63.5
 30
0.0
  0
VERTEX
  5
C9
330
AC
100
AcDbEntity
  8
1
  6
CONTINUOUS
 62
     7
100
AcDbVertex
100
AcDb2dVertex
 10
124.26462
 20
-63.5
 30
0.0
  0
VERTEX
  5
CA
330
AC
100
AcDbEntity
  8
1
  6
CONTINUOUS
 62
     7
100
AcDbVertex
100
AcDb2dVertex
 10
122.932667
 20
-63.5
 30
0.0
  0
VERTEX
  5
CB
330
AC
100
AcDbEntity
  8
1
  6
CONTINUOUS
 62
     7
100
AcDbVertex
100
AcDb2dVertex
 10
121.600713
 20
-63.5
 30
0.0
  0
VERTEX
  5
CC
330
AC
100
AcDbEntity
  8
1
  6
CONTINUOUS
 62
     7
100
AcDbVertex
100
AcDb2dVertex
 10
120.26876
 20
-63.5
 30
0.0
  0
VERTEX
  5
CD
330
AC
100
AcDbEntity
  8
1
  6
CONTINUOUS
 62
     7
100
AcDbVertex
100
AcDb2dVertex
 10
118.918153
 20
-63.631979
 30
0.0
  0
VERTEX
  5
CE
330
AC
100
AcDbEntity
  8
1
  6
CONTINUOUS
 62
     7
100
AcDbVertex
100
AcDb2dVertex
 10
117.616658
 20
-64.182975
 30
0.0
  0
VERTEX
  5
CF
330
AC
100
AcDbEntity
  8
1
  6
CONTINUOUS
 62
     7
100
AcDbVertex
100
AcDb2dVertex
 10
116.446741
 20
-65.238777
 30
0.0
  0
VERTEX
  5
D0
330
AC
100
AcDbEntity
  8
1
  6
CONTINUOUS
 62
     7
100
AcDbVertex
100
AcDb2dVertex
 10
115.729373
 20
-66.58164
 30
0.0
  0
VERTEX
  5
D1
330
AC
100
AcDbEntity
  8
1
  6
CONTINUOUS
 62
     7
100
AcDbVertex
100
AcDb2dVertex
 10
115.502519
 20
-68.150536
 30
0.0
  0
VERTEX
  5
D2
330
AC
100
AcDbEntity
  8
1
  6
CONTINUOUS
 62
     7
100
AcDbVertex
100
AcDb2dVertex
 10
115.830271
 20
-69.692148
 30
0.0
  0
VERTEX
  5
D3
330
AC
100
AcDbEntity
  8
1
  6
CONTINUOUS
 62
     7
100
AcDbVertex
100
AcDb2dVertex
 10
116.633122
 20
-70.985655
 30
0.0
  0
VERTEX
  5
D4
330
AC
100
AcDbEntity
  8
1
  6
CONTINUOUS
 62
     7
100
AcDbVertex
100
AcDb2dVertex
 10
117.877226
 20
-71.96785
 30
0.0
  0
VERTEX
  5
D5
330
AC
100
AcDbEntity
  8
1
  6
CONTINUOUS
 62
     7
100
AcDbVertex
100
AcDb2dVertex
 10
119.375816
 20
-72.4565
 30
0.0
  0
VERTEX
  5
D6
330
AC
100
AcDbEntity
  8
1
  6
CONTINUOUS
 62
     7
100
AcDbVertex
100
AcDb2dVertex
 10
120.88273
 20
-72.5
 30
0.0
  0
VERTEX
  5
D7
330
AC
100
AcDbEntity
  8
1
  6
CONTINUOUS
 62
     7
100
AcDbVertex
100
AcDb2dVertex
 10
124.658819
 20
-72.5
 30
0.0
  0
VERTEX
  5
D8
330
AC
100
AcDbEntity
  8
1
  6
CONTINUOUS
 62
     7
100
AcDbVertex
100
AcDb2dVertex
 10
125.252204
 20
-72.5
 30
0.0
  0
VERTEX
  5
D9
330
AC
100
AcDbEntity
  8
1
  6
CONTINUOUS
 62
     7
100
AcDbVertex
100
AcDb2dVertex
 10
125.845589
 20
-72.5
 30
0.0
  0
VERTEX
  5
DA
330
AC
100
AcDbEntity
  8
1
  6
CONTINUOUS
 62
     7
100
AcDbVertex
100
AcDb2dVertex
 10
126.438975
 20
-72.5
 30
0.0
  0
VERTEX
  5
DB
330
AC
100
AcDbEntity
  8
1
  6
CONTINUOUS
 62
     7
100
AcDbVertex
100
AcDb2dVertex
 10
127.0
 20
-72.5
 30
0.0
  0
VERTEX
  5
DC
330
AC
100
AcDbEntity
  8
1
  6
CONTINUOUS
 62
     7
100
AcDbVertex
100
AcDb2dVertex
 10
127.0
 20
-72.53236
 30
0.0
  0
VERTEX
  5
DD
330
AC
100
AcDbEntity
  8
1
  6
CONTINUOUS
 62
     7
100
AcDbVertex
100
AcDb2dVertex
 10
127.0
 20
-73.125746
 30
0.0
  0
VERTEX
  5
DE
330
AC
100
AcDbEntity
  8
1
  6
CONTINUOUS
 62
     7
100
AcDbVertex
100
AcDb2dVertex
 10
127.0
 20
-75.373417
 30
0.0
  0
VERTEX
  5
DF
330
AC
100
AcDbEntity
  8
1
  6
CONTINUOUS
 62
     7
100
AcDbVertex
100
AcDb2dVertex
 10
127.0
 20
-102.345478
 30
0.0
  0
VERTEX
  5
E0
330
AC
100
AcDbEntity
  8
1
  6
CONTINUOUS
 62
     7
100
AcDbVertex
100
AcDb2dVertex
 10
127.0
 20
-120.326852
 30
0.0
  0
VERTEX
  5
E1
330
AC
100
AcDbEntity
  8
1
  6
CONTINUOUS
 62
     7
100
AcDbVertex
100
AcDb2dVertex
 10
127.0
 20
-121.450688
 30
0.0
  0
VERTEX
  5
E2
330
AC
100
AcDbEntity
  8
1
  6
CONTINUOUS
 62
     7
100
AcDbVertex
100
AcDb2dVertex
 10
127.0
 20
-122.574524
 30
0.0
  0
VERTEX
  5
E3
330
AC
100
AcDbEntity
  8
1
  6
CONTINUOUS
 62
     7
100
AcDbVertex
100
AcDb2dVertex
 10
127.0
 20
-123.69836
 30
0.0
  0
VERTEX
  5
E4
330
AC
100
AcDbEntity
  8
1
  6
CONTINUOUS
 62
     7
100
AcDbVertex
100
AcDb2dVertex
 10
127.0
 20
-124.822196
 30
0.0
  0
VERTEX
  5
E5
330
AC
100
AcDbEntity
  8
1
  6
CONTINUOUS
 62
     7
100
AcDbVertex
100
AcDb2dVertex
 10
127.0
 20
-125.946032
 30
0.0
  0
VERTEX
  5
E6
330
AC
100
AcDbEntity
  8
1
  6
CONTINUOUS
 62
     7
100
AcDbVertex
100
AcDb2dVertex
 10
127.0
 20
-127.069867
 30
0.0
  0
VERTEX
  5
E7
330
AC
100
AcDbEntity
  8
1
  6
CONTINUOUS
 62
     7
100
AcDbVertex
100
AcDb2dVertex
 10
127.0
 20
-127.5
 30
0.0
  0
VERTEX
  5
E8
330
AC
100
AcDbEntity
  8
1
  6
CONTINUOUS
 62
     7
100
AcDbVertex
100
AcDb2dVertex
 10
126.306297
 20
-127.5
 30
0.0
  0
VERTEX
  5
E9
330
AC
100
AcDbEntity
  8
1
  6
CONTINUOUS
 62
     7
100
AcDbVertex
100
AcDb2dVertex
 10
125.182461
 20
-127.5
 30
0.0
  0
VERTEX
  5
EA
330
AC
100
AcDbEntity
  8
1
  6
CONTINUOUS
 62
     7
100
AcDbVertex
100
AcDb2dVertex
 10
123.898077
 20
-127.5
 30
0.0
  0
VERTEX
  5
EB
330
AC
100
AcDbEntity
  8
1
  6
CONTINUOUS
 62
     7
100
AcDbVertex
100
AcDb2dVertex
 10
122.613693
 20
-127.5
 30
0.0
  0
VERTEX
  5
EC
330
AC
100
AcDbEntity
  8
1
  6
CONTINUOUS
 62
     7
100
AcDbVertex
100
AcDb2dVertex
 10
121.329309
 20
-127.5
 30
0.0
  0
VERTEX
  5
ED
330
AC
100
AcDbEntity
  8
1
  6
CONTINUOUS
 62
     7
100
AcDbVertex
100
AcDb2dVertex
 10
120.044925
 20
-127.5
 30
0.0
  0
VERTEX
  5
EE
330
AC
100
AcDbEntity
  8
1
  6
CONTINUOUS
 62
     7
100
AcDbVertex
100
AcDb2dVertex
 10
118.738839
 20
-127.680339
 30
0.0
  0
VERTEX
  5
EF
330
AC
100
AcDbEntity
  8
1
  6
CONTINUOUS
 62
     7
100
AcDbVertex
100
AcDb2dVertex
 10
117.500869
 20
-128.257762
 30
0.0
  0
VERTEX
  5
F0
330
AC
100
AcDbEntity
  8
1
  6
CONTINUOUS
 62
     7
100
AcDbVertex
100
AcDb2dVertex
 10
116.501596
 20
-129.169599
 30
0.0
  0
VERTEX
  5
F1
330
AC
100
AcDbEntity
  8
1
  6
CONTINUOUS
 62
     7
100
AcDbVertex
100
AcDb2dVertex
 10
115.758265
 20
-130.497439
 30
0.0
  0
VERTEX
  5
F2
330
AC
100
AcDbEntity
  8
1
  6
CONTINUOUS
 62
     7
100
AcDbVertex
100
AcDb2dVertex
 10
115.500388
 20
-132.059077
 30
0.0
  0
VERTEX
  5
F3
330
AC
100
AcDbEntity
  8
1
  6
CONTINUOUS
 62
     7
100
AcDbVertex
100
AcDb2dVertex
 10
115.79787
 20
-133.610001
 30
0.0
  0
VERTEX
  5
F4
330
AC
100
AcDbEntity
  8
1
  6
CONTINUOUS
 62
     7
100
AcDbVertex
100
AcDb2dVertex
 10
116.574732
 20
-134.918482
 30
0.0
  0
VERTEX
  5
F5
330
AC
100
AcDbEntity
  8
1
  6
CONTINUOUS
 62
     7
100
AcDbVertex
100
AcDb2dVertex
 10
117.797003
 20
-135.923876
 30
0.0
  0
VERTEX
  5
F6
330
AC
100
AcDbEntity
  8
1
  6
CONTINUOUS
 62
     7
100
AcDbVertex
100
AcDb2dVertex
 10
119.288471
 20
-136.443391
 30
0.0
  0
VERTEX
  5
F7
330
AC
100
AcDbEntity
  8
1
  6
CONTINUOUS
 62
     7
100
AcDbVertex
100
AcDb2dVertex
 10
120.797361
 20
-136.5
 30
0.0
  0
VERTEX
  5
F8
330
AC
100
AcDbEntity
  8
1
  6
CONTINUOUS
 62
     7
100
AcDbVertex
100
AcDb2dVertex
 10
122.295809
 20
-136.5
 30
0.0
  0
VERTEX
  5
F9
330
AC
100
AcDbEntity
  8
1
  6
CONTINUOUS
 62
     7
100
AcDbVertex
100
AcDb2dVertex
 10
126.29167
 20
-136.5
 30
0.0
  0
VERTEX
  5
FA
330
AC
100
AcDbEntity
  8
1
  6
CONTINUOUS
 62
     7
100
AcDbVertex
100
AcDb2dVertex
 10
126.891049
 20
-136.5
 30
0.0
  0
VERTEX
  5
FB
330
AC
100
AcDbEntity
  8
1
  6
CONTINUOUS
 62
     7
100
AcDbVertex
100
AcDb2dVertex
 10
127.0
 20
-136.5
 30
0.0
  0
VERTEX
  5
FC
330
AC
100
AcDbEntity
  8
1
  6
CONTINUOUS
 62
     7
100
AcDbVertex
100
AcDb2dVertex
 10
127.0
 20
-136.990428
 30
0.0
  0
VERTEX
  5
FD
330
AC
100
AcDbEntity
  8
1
  6
CONTINUOUS
 62
     7
100
AcDbVertex
100
AcDb2dVertex
 10
127.0
 20
-137.589807
 30
0.0
  0
VERTEX
  5
FE
330
AC
100
AcDbEntity
  8
1
  6
CONTINUOUS
 62
     7
100
AcDbVertex
100
AcDb2dVertex
 10
127.0
 20
-138.189186
 30
0.0
  0
VERTEX
  5
FF
330
AC
100
AcDbEntity
  8
1
  6
CONTINUOUS
 62
     7
100
AcDbVertex
100
AcDb2dVertex
 10
127.0
 20
-138.788565
 30
0.0
  0
VERTEX
  5
100
330
AC
100
AcDbEntity
  8
1
  6
CONTINUOUS
 62
     7
100
AcDbVertex
100
AcDb2dVertex
 10
127.0
 20
-141.785461
 30
0.0
  0
VERTEX
  5
101
330
AC
100
AcDbEntity
  8
1
  6
CONTINUOUS
 62
     7
100
AcDbVertex
100
AcDb2dVertex
 10
127.0
 20
-147.779252
 30
0.0
  0
VERTEX
  5
102
330
AC
100
AcDbEntity
  8
1
  6
CONTINUOUS
 62
     7
100
AcDbVertex
100
AcDb2dVertex
 10
127.0
 20
-163.762696
 30
0.0
  0
VERTEX
  5
103
330
AC
100
AcDbEntity
  8
1
  6
CONTINUOUS
 62
     7
100
AcDbVertex
100
AcDb2dVertex
 10
127.0
 20
-164.0
 30
0.0
  0
VERTEX
  5
104
330
AC
100
AcDbEntity
  8
1
  6
CONTINUOUS
 62
     7
100
AcDbVertex
100
AcDb2dVertex
 10
126.901652
 20
-164.0
 30
0.0
  0
VERTEX
  5
105
330
AC
100
AcDbEntity
  8
1
  6
CONTINUOUS
 62
     7
100
AcDbVertex
100
AcDb2dVertex
 10
126.566
 20
-164.0
 30
0.0
  0
VERTEX
  5
106
330
AC
100
AcDbEntity
  8
1
  6
CONTINUOUS
 62
     7
100
AcDbVertex
100
AcDb2dVertex
 10
126.230347
 20
-164.0
 30
0.0
  0
VERTEX
  5
107
330
AC
100
AcDbEntity
  8
1
  6
CONTINUOUS
 62
     7
100
AcDbVertex
100
AcDb2dVertex
 10
125.894695
 20
-164.0
 30
0.0
  0
VERTEX
  5
108
330
AC
100
AcDbEntity
  8
1
  6
CONTINUOUS
 62
     7
100
AcDbVertex
100
AcDb2dVertex
 10
125.559043
 20
-164.0
 30
0.0
  0
VERTEX
  5
109
330
AC
100
AcDbEntity
  8
1
  6
CONTINUOUS
 62
     7
100
AcDbVertex
100
AcDb2dVertex
 10
124.240408
 20
-164.0
 30
0.0
  0
VERTEX
  5
10A
330
AC
100
AcDbEntity
  8
1
  6
CONTINUOUS
 62
     7
100
AcDbVertex
100
AcDb2dVertex
 10
121.243513
 20
-164.0
 30
0.0
  0
VERTEX
  5
10B
330
AC
100
AcDbEntity
  8
1
  6
CONTINUOUS
 62
     7
100
AcDbVertex
100
AcDb2dVertex
 10
115.249721
 20
-164.0
 30
0.0
  0
VERTEX
  5
10C
330
AC
100
AcDbEntity
  8
1
  6
CONTINUOUS
 62
     7
100
AcDbVertex
100
AcDb2dVertex
 10
103.262139
 20
-164.0
 30
0.0
  0
VERTEX
  5
10D
330
AC
100
AcDbEntity
  8
1
  6
CONTINUOUS
 62
     7
100
AcDbVertex
100
AcDb2dVertex
 10
79.286974
 20
-164.0
 30
0.0
  0
VERTEX
  5
10E
330
AC
100
AcDbEntity
  8
1
  6
CONTINUOUS
 62
     7
100
AcDbVertex
100
AcDb2dVertex
 10
31.336643
 20
-164.0
 30
0.0
  0
VERTEX
  5
10F
330
AC
100
AcDbEntity
  8
1
  6
CONTINUOUS
 62
     7
100
AcDbVertex
100
AcDb2dVertex
 10
19.34906
 20
-164.0
 30
0.0
  0
VERTEX
  5
110
330
AC
100
AcDbEntity
  8
1
  6
CONTINUOUS
 62
     7
100
AcDbVertex
100
AcDb2dVertex
 10
18.599836
 20
-164.0
 30
0.0
  0
VERTEX
  5
111
330
AC
100
AcDbEntity
  8
1
  6
CONTINUOUS
 62
     7
100
AcDbVertex
100
AcDb2dVertex
 10
17.850612
 20
-164.0
 30
0.0
  0
VERTEX
  5
112
330
AC
100
AcDbEntity
  8
1
  6
CONTINUOUS
 62
     7
100
AcDbVertex
100
AcDb2dVertex
 10
17.101389
 20
-164.0
 30
0.0
  0
VERTEX
  5
113
330
AC
100
AcDbEntity
  8
1
  6
CONTINUOUS
 62
     7
100
AcDbVertex
100
AcDb2dVertex
 10
17.0
 20
-164.0
 30
0.0
  0
VERTEX
  5
114
330
AC
100
AcDbEntity
  8
1
  6
CONTINUOUS
 62
     7
100
AcDbVertex
100
AcDb2dVertex
 10
16.987534
 20
-163.349079
 30
0.0
  0
VERTEX
  5
115
330
AC
100
AcDbEntity
  8
1
  6
CONTINUOUS
 62
     7
100
AcDbVertex
100
AcDb2dVertex
 10
16.941411
 20
-162.589822
 30
0.0
  0
VERTEX
  5
116
330
AC
100
AcDbEntity
  8
1
  6
CONTINUOUS
 62
     7
100
AcDbVertex
100
AcDb2dVertex
 10
16.860387
 20
-161.825754
 30
0.0
  0
VERTEX
  5
117
330
AC
100
AcDbEntity
  8
1
  6
CONTINUOUS
 62
     7
100
AcDbVertex
100
AcDb2dVertex
 10
16.743708
 20
-161.059213
 30
0.0
  0
VERTEX
  5
118
330
AC
100
AcDbEntity
  8
1
  6
CONTINUOUS
 62
     7
100
AcDbVertex
100
AcDb2dVertex
 10
16.590826
 20
-160.292643
 30
0.0
  0
VERTEX
  5
119
330
AC
100
AcDbEntity
  8
1
  6
CONTINUOUS
 62
     7
100
AcDbVertex
100
AcDb2dVertex
 10
15.614219
 20
-157.277191
 30
0.0
  0
VERTEX
  5
11A
330
AC
100
AcDbEntity
  8
1
  6
CONTINUOUS
 62
     7
100
AcDbVertex
100
AcDb2dVertex
 10
14.075205
 20
-154.466449
 30
0.0
  0
VERTEX
  5
11B
330
AC
100
AcDbEntity
  8
1
  6
CONTINUOUS
 62
     7
100
AcDbVertex
100
AcDb2dVertex
 10
12.051265
 20
-152.009712
 30
0.0
  0
VERTEX
  5
11C
330
AC
100
AcDbEntity
  8
1
  6
CONTINUOUS
 62
     7
100
AcDbVertex
100
AcDb2dVertex
 10
9.667316
 20
-150.016331
 30
0.0
  0
VERTEX
  5
11D
330
AC
100
AcDbEntity
  8
1
  6
CONTINUOUS
 62
     7
100
AcDbVertex
100
AcDb2dVertex
 10
7.03411
 20
-148.523524
 30
0.0
  0
VERTEX
  5
11E
330
AC
100
AcDbEntity
  8
1
  6
CONTINUOUS
 62
     7
100
AcDbVertex
100
AcDb2dVertex
 10
4.091019
 20
-147.499589
 30
0.0
  0
VERTEX
  5
11F
330
AC
100
AcDbEntity
  8
1
  6
CONTINUOUS
 62
     7
100
AcDbVertex
100
AcDb2dVertex
 10
0.939247
 20
-147.025966
 30
0.0
  0
VERTEX
  5
120
330
AC
100
AcDbEntity
  8
1
  6
CONTINUOUS
 62
     7
100
AcDbVertex
100
AcDb2dVertex
 10
-2.261996
 20
-147.151161
 30
0.0
  0
VERTEX
  5
121
330
AC
100
AcDbEntity
  8
1
  6
CONTINUOUS
 62
     7
100
AcDbVertex
100
AcDb2dVertex
 10
-5.345096
 20
-147.862158
 30
0.0
  0
VERTEX
  5
122
330
AC
100
AcDbEntity
  8
1
  6
CONTINUOUS
 62
     7
100
AcDbVertex
100
AcDb2dVertex
 10
-8.162258
 20
-149.087671
 30
0.0
  0
VERTEX
  5
123
330
AC
100
AcDbEntity
  8
1
  6
CONTINUOUS
 62
     7
100
AcDbVertex
100
AcDb2dVertex
 10
-10.690383
 20
-150.781993
 30
0.0
  0
VERTEX
  5
124
330
AC
100
AcDbEntity
  8
1
  6
CONTINUOUS
 62
     7
100
AcDbVertex
100
AcDb2dVertex
 10
-12.942324
 20
-152.977467
 30
0.0
  0
VERTEX
  5
125
330
AC
100
AcDbEntity
  8
1
  6
CONTINUOUS
 62
     7
100
AcDbVertex
100
AcDb2dVertex
 10
-14.778047
 20
-155.597064
 30
0.0
  0
VERTEX
  5
126
330
AC
100
AcDbEntity
  8
1
  6
CONTINUOUS
 62
     7
100
AcDbVertex
100
AcDb2dVertex
 10
-16.089907
 20
-158.512297
 30
0.0
  0
VERTEX
  5
127
330
AC
100
AcDbEntity
  8
1
  6
CONTINUOUS
 62
     7
100
AcDbVertex
100
AcDb2dVertex
 10
-16.573342
 20
-160.215248
 30
0.0
  0
VERTEX
  5
128
330
AC
100
AcDbEntity
  8
1
  6
CONTINUOUS
 62
     7
100
AcDbVertex
100
AcDb2dVertex
 10
-16.87376
 20
-161.932094
 30
0.0
  0
VERTEX
  5
129
330
AC
100
AcDbEntity
  8
1
  6
CONTINUOUS
 62
     7
100
AcDbVertex
100
AcDb2dVertex
 10
-16.942604
 20
-162.604233
 30
0.0
  0
VERTEX
  5
12A
330
AC
100
AcDbEntity
  8
1
  6
CONTINUOUS
 62
     7
100
AcDbVertex
100
AcDb2dVertex
 10
-16.984431
 20
-163.272611
 30
0.0
  0
VERTEX
  5
12B
330
AC
100
AcDbEntity
  8
1
  6
CONTINUOUS
 62
     7
100
AcDbVertex
100
AcDb2dVertex
 10
-16.999878
 20
-163.935712
 30
0.0
  0
VERTEX
  5
12C
330
AC
100
AcDbEntity
  8
1
  6
CONTINUOUS
 62
     7
100
AcDbVertex
100
AcDb2dVertex
 10
-17.0
 20
-164.0
 30
0.0
  0
VERTEX
  5
12D
330
AC
100
AcDbEntity
  8
1
  6
CONTINUOUS
 62
     7
100
AcDbVertex
100
AcDb2dVertex
 10
-17.595062
 20
-164.0
 30
0.0
  0
VERTEX
  5
12E
330
AC
100
AcDbEntity
  8
1
  6
CONTINUOUS
 62
     7
100
AcDbVertex
100
AcDb2dVertex
 10
-23.588853
 20
-164.0
 30
0.0
  0
VERTEX
  5
12F
330
AC
100
AcDbEntity
  8
1
  6
CONTINUOUS
 62
     7
100
AcDbVertex
100
AcDb2dVertex
 10
-47.564018
 20
-164.0
 30
0.0
  0
VERTEX
  5
130
330
AC
100
AcDbEntity
  8
1
  6
CONTINUOUS
 62
     7
100
AcDbVertex
100
AcDb2dVertex
 10
-95.514349
 20
-164.0
 30
0.0
  0
VERTEX
  5
131
330
AC
100
AcDbEntity
  8
1
  6
CONTINUOUS
 62
     7
100
AcDbVertex
100
AcDb2dVertex
 10
-113.495723
 20
-164.0
 30
0.0
  0
VERTEX
  5
132
330
AC
100
AcDbEntity
  8
1
  6
CONTINUOUS
 62
     7
100
AcDbVertex
100
AcDb2dVertex
 10
-126.981753
 20
-164.0
 30
0.0
  0
VERTEX
  5
133
330
AC
100
AcDbEntity
  8
1
  6
CONTINUOUS
 62
     7
100
AcDbVertex
100
AcDb2dVertex
 10
-127.0
 20
-164.0
 30
0.0
  0
VERTEX
  5
134
330
AC
100
AcDbEntity
  8
1
  6
CONTINUOUS
 62
     7
100
AcDbVertex
100
AcDb2dVertex
 10
-127.0
 20
-163.842029
 30
0.0
  0
VERTEX
  5
135
330
AC
100
AcDbEntity
  8
1
  6
CONTINUOUS
 62
     7
100
AcDbVertex
100
AcDb2dVertex
 10
-127.0
 20
-163.665812
 30
0.0
  0
VERTEX
  5
136
330
AC
100
AcDbEntity
  8
1
  6
CONTINUOUS
 62
     7
100
AcDbVertex
100
AcDb2dVertex
 10
-127.0
 20
-163.489594
 30
0.0
  0
VERTEX
  5
137
330
AC
100
AcDbEntity
  8
1
  6
CONTINUOUS
 62
     7
100
AcDbVertex
100
AcDb2dVertex
 10
-127.0
 20
-163.313377
 30
0.0
  0
VERTEX
  5
138
330
AC
100
AcDbEntity
  8
1
  6
CONTINUOUS
 62
     7
100
AcDbVertex
100
AcDb2dVertex
 10
-127.0
 20
-162.759551
 30
0.0
  0
VERTEX
  5
139
330
AC
100
AcDbEntity
  8
1
  6
CONTINUOUS
 62
     7
100
AcDbVertex
100
AcDb2dVertex
 10
-127.0
 20
-161.770575
 30
0.0
  0
VERTEX
  5
13A
330
AC
100
AcDbEntity
  8
1
  6
CONTINUOUS
 62
     7
100
AcDbVertex
100
AcDb2dVertex
 10
-127.0
 20
-159.522903
 30
0.0
  0
VERTEX
  5
13B
330
AC
100
AcDbEntity
  8
1
  6
CONTINUOUS
 62
     7
100
AcDbVertex
100
AcDb2dVertex
 10
-127.0
 20
-147.535321
 30
0.0
  0
VERTEX
  5
13C
330
AC
100
AcDbEntity
  8
1
  6
CONTINUOUS
 62
     7
100
AcDbVertex
100
AcDb2dVertex
 10
-127.0
 20
-138.544634
 30
0.0
  0
VERTEX
  5
13D
330
AC
100
AcDbEntity
  8
1
  6
CONTINUOUS
 62
     7
100
AcDbVertex
100
AcDb2dVertex
 10
-127.0
 20
-138.170022
 30
0.0
  0
VERTEX
  5
13E
330
AC
100
AcDbEntity
  8
1
  6
CONTINUOUS
 62
     7
100
AcDbVertex
100
AcDb2dVertex
 10
-127.0
 20
-137.79541
 30
0.0
  0
VERTEX
  5
13F
330
AC
100
AcDbEntity
  8
1
  6
CONTINUOUS
 62
     7
100
AcDbVertex
100
AcDb2dVertex
 10
-127.0
 20
-137.420798
 30
0.0
  0
VERTEX
  5
140
330
AC
100
AcDbEntity
  8
1
  6
CONTINUOUS
 62
     7
100
AcDbVertex
100
AcDb2dVertex
 10
-127.0
 20
-137.046186
 30
0.0
  0
VERTEX
  5
141
330
AC
100
AcDbEntity
  8
1
  6
CONTINUOUS
 62
     7
100
AcDbVertex
100
AcDb2dVertex
 10
-127.0
 20
-136.671574
 30
0.0
  0
VERTEX
  5
142
330
AC
100
AcDbEntity
  8
1
  6
CONTINUOUS
 62
     7
100
AcDbVertex
100
AcDb2dVertex
 10
-127.0
 20
-136.5
 30
0.0
  0
VERTEX
  5
143
330
AC
100
AcDbEntity
  8
1
  6
CONTINUOUS
 62
     7
100
AcDbVertex
100
AcDb2dVertex
 10
-126.796962
 20
-136.5
 30
0.0
  0
VERTEX
  5
144
330
AC
100
AcDbEntity
  8
1
  6
CONTINUOUS
 62
     7
100
AcDbVertex
100
AcDb2dVertex
 10
-120.053947
 20
-136.5
 30
0.0
  0
VERTEX
  5
145
330
AC
100
AcDbEntity
  8
1
  6
CONTINUOUS
 62
     7
100
AcDbVertex
100
AcDb2dVertex
 10
-118.682924
 20
-136.302942
 30
0.0
  0
VERTEX
  5
146
330
AC
100
AcDbEntity
  8
1
  6
CONTINUOUS
 62
     7
100
AcDbVertex
100
AcDb2dVertex
 10
-117.395622
 20
-135.669771
 30
0.0
  0
VERTEX
  5
147
330
AC
100
AcDbEntity
  8
1
  6
CONTINUOUS
 62
     7
100
AcDbVertex
100
AcDb2dVertex
 10
-116.385543
 20
-134.680616
 30
0.0
  0
VERTEX
  5
148
330
AC
100
AcDbEntity
  8
1
  6
CONTINUOUS
 62
     7
100
AcDbVertex
100
AcDb2dVertex
 10
-115.746641
 20
-133.469333
 30
0.0
  0
VERTEX
  5
149
330
AC
100
AcDbEntity
  8
1
  6
CONTINUOUS
 62
     7
100
AcDbVertex
100
AcDb2dVertex
 10
-115.500474
 20
-132.065303
 30
0.0
  0
VERTEX
  5
14A
330
AC
100
AcDbEntity
  8
1
  6
CONTINUOUS
 62
     7
100
AcDbVertex
100
AcDb2dVertex
 10
-115.706775
 20
-130.651586
 30
0.0
  0
VERTEX
  5
14B
330
AC
100
AcDbEntity
  8
1
  6
CONTINUOUS
 62
     7
100
AcDbVertex
100
AcDb2dVertex
 10
-116.312568
 20
-129.420689
 30
0.0
  0
VERTEX
  5
14C
330
AC
100
AcDbEntity
  8
1
  6
CONTINUOUS
 62
     7
100
AcDbVertex
100
AcDb2dVertex
 10
-117.290525
 20
-128.407125
 30
0.0
  0
VERTEX
  5
14D
330
AC
100
AcDbEntity
  8
1
  6
CONTINUOUS
 62
     7
100
AcDbVertex
100
AcDb2dVertex
 10
-118.559994
 20
-127.736623
 30
0.0
  0
VERTEX
  5
14E
330
AC
100
AcDbEntity
  8
1
  6
CONTINUOUS
 62
     7
100
AcDbVertex
100
AcDb2dVertex
 10
-119.93195
 20
-127.500515
 30
0.0
  0
VERTEX
  5
14F
330
AC
100
AcDbEntity
  8
1
  6
CONTINUOUS
 62
     7
100
AcDbVertex
100
AcDb2dVertex
 10
-125.596217
 20
-127.5
 30
0.0
  0
VERTEX
  5
150
330
AC
100
AcDbEntity
  8
1
  6
CONTINUOUS
 62
     7
100
AcDbVertex
100
AcDb2dVertex
 10
-126.486295
 20
-127.5
 30
0.0
  0
VERTEX
  5
151
330
AC
100
AcDbEntity
  8
1
  6
CONTINUOUS
 62
     7
100
AcDbVertex
100
AcDb2dVertex
 10
-127.0
 20
-127.5
 30
0.0
  0
VERTEX
  5
152
330
AC
100
AcDbEntity
  8
1
  6
CONTINUOUS
 62
     7
100
AcDbVertex
100
AcDb2dVertex
 10
-127.0
 20
-127.123627
 30
0.0
  0
VERTEX
  5
153
330
AC
100
AcDbEntity
  8
1
  6
CONTINUOUS
 62
     7
100
AcDbVertex
100
AcDb2dVertex
 10
-127.0
 20
-126.233549
 30
0.0
  0
VERTEX
  5
154
330
AC
100
AcDbEntity
  8
1
  6
CONTINUOUS
 62
     7
100
AcDbVertex
100
AcDb2dVertex
 10
-127.0
 20
-125.343471
 30
0.0
  0
VERTEX
  5
155
330
AC
100
AcDbEntity
  8
1
  6
CONTINUOUS
 62
     7
100
AcDbVertex
100
AcDb2dVertex
 10
-127.0
 20
-124.453393
 30
0.0
  0
VERTEX
  5
156
330
AC
100
AcDbEntity
  8
1
  6
CONTINUOUS
 62
     7
100
AcDbVertex
100
AcDb2dVertex
 10
-127.0
 20
-94.109825
 30
0.0
  0
VERTEX
  5
157
330
AC
100
AcDbEntity
  8
1
  6
CONTINUOUS
 62
     7
100
AcDbVertex
100
AcDb2dVertex
 10
-127.0
 20
-73.880779
 30
0.0
  0
VERTEX
  5
158
330
AC
100
AcDbEntity
  8
1
  6
CONTINUOUS
 62
     7
100
AcDbVertex
100
AcDb2dVertex
 10
-127.0
 20
-73.251431
 30
0.0
  0
VERTEX
  5
159
330
AC
100
AcDbEntity
  8
1
  6
CONTINUOUS
 62
     7
100
AcDbVertex
100
AcDb2dVertex
 10
-127.0
 20
-72.622083
 30
0.0
  0
VERTEX
  5
15A
330
AC
100
AcDbEntity
  8
1
  6
CONTINUOUS
 62
     7
100
AcDbVertex
100
AcDb2dVertex
 10
-127.0
 20
-72.5
 30
0.0
  0
VERTEX
  5
15B
330
AC
100
AcDbEntity
  8
1
  6
CONTINUOUS
 62
     7
100
AcDbVertex
100
AcDb2dVertex
 10
-126.492735
 20
-72.5
 30
0.0
  0
VERTEX
  5
15C
330
AC
100
AcDbEntity
  8
1
  6
CONTINUOUS
 62
     7
100
AcDbVertex
100
AcDb2dVertex
 10
-125.863387
 20
-72.5
 30
0.0
  0
VERTEX
  5
15D
330
AC
100
AcDbEntity
  8
1
  6
CONTINUOUS
 62
     7
100
AcDbVertex
100
AcDb2dVertex
 10
-125.234039
 20
-72.5
 30
0.0
  0
VERTEX
  5
15E
330
AC
100
AcDbEntity
  8
1
  6
CONTINUOUS
 62
     7
100
AcDbVertex
100
AcDb2dVertex
 10
-124.60469
 20
-72.5
 30
0.0
  0
VERTEX
  5
15F
330
AC
100
AcDbEntity
  8
1
  6
CONTINUOUS
 62
     7
100
AcDbVertex
100
AcDb2dVertex
 10
-121.637764
 20
-72.5
 30
0.0
  0
VERTEX
  5
160
330
AC
100
AcDbEntity
  8
1
  6
CONTINUOUS
 62
     7
100
AcDbVertex
100
AcDb2dVertex
 10
-120.139316
 20
-72.5
 30
0.0
  0
VERTEX
  5
161
330
AC
100
AcDbEntity
  8
1
  6
CONTINUOUS
 62
     7
100
AcDbVertex
100
AcDb2dVertex
 10
-118.617789
 20
-72.282463
 30
0.0
  0
VERTEX
  5
162
330
AC
100
AcDbEntity
  8
1
  6
CONTINUOUS
 62
     7
100
AcDbVertex
100
AcDb2dVertex
 10
-117.212416
 20
-71.532616
 30
0.0
  0
VERTEX
  5
163
330
AC
100
AcDbEntity
  8
1
  6
CONTINUOUS
 62
     7
100
AcDbVertex
100
AcDb2dVertex
 10
-116.177174
 20
-70.374027
 30
0.0
  0
VERTEX
  5
164
330
AC
100
AcDbEntity
  8
1
  6
CONTINUOUS
 62
     7
100
AcDbVertex
100
AcDb2dVertex
 10
-115.601211
 20
-68.949027
 30
0.0
  0
VERTEX
  5
165
330
AC
100
AcDbEntity
  8
1
  6
CONTINUOUS
 62
     7
100
AcDbVertex
100
AcDb2dVertex
 10
-115.546161
 20
-67.357103
 30
0.0
  0
VERTEX
  5
166
330
AC
100
AcDbEntity
  8
1
  6
CONTINUOUS
 62
     7
100
AcDbVertex
100
AcDb2dVertex
 10
-116.030405
 20
-65.880491
 30
0.0
  0
VERTEX
  5
167
330
AC
100
AcDbEntity
  8
1
  6
CONTINUOUS
 62
     7
100
AcDbVertex
100
AcDb2dVertex
 10
-116.975069
 20
-64.668365
 30
0.0
  0
VERTEX
  5
168
330
AC
100
AcDbEntity
  8
1
  6
CONTINUOUS
 62
     7
100
AcDbVertex
100
AcDb2dVertex
 10
-118.325236
 20
-63.823259
 30
0.0
  0
VERTEX
  5
169
330
AC
100
AcDbEntity
  8
1
  6
CONTINUOUS
 62
     7
100
AcDbVertex
100
AcDb2dVertex
 10
-119.465571
 20
-63.531848
 30
0.0
  0
VERTEX
  5
16A
330
AC
100
AcDbEntity
  8
1
  6
CONTINUOUS
 62
     7
100
AcDbVertex
100
AcDb2dVertex
 10
-120.595938
 20
-63.5
 30
0.0
  0
VERTEX
  5
16B
330
AC
100
AcDbEntity
  8
1
  6
CONTINUOUS
 62
     7
100
AcDbVertex
100
AcDb2dVertex
 10
-121.719774
 20
-63.5
 30
0.0
  0
VERTEX
  5
16C
330
AC
100
AcDbEntity
  8
1
  6
CONTINUOUS
 62
     7
100
AcDbVertex
100
AcDb2dVertex
 10
-122.84361
 20
-63.5
 30
0.0
  0
VERTEX
  5
16D
330
AC
100
AcDbEntity
  8
1
  6
CONTINUOUS
 62
     7
100
AcDbVertex
100
AcDb2dVertex
 10
-126.619699
 20
-63.5
 30
0.0
  0
VERTEX
  5
16E
330
AC
100
AcDbEntity
  8
1
  6
CONTINUOUS
 62
     7
100
AcDbVertex
100
AcDb2dVertex
 10
-127.0
 20
-63.5
 30
0.0
  0
VERTEX
  5
16F
330
AC
100
AcDbEntity
  8
1
  6
CONTINUOUS
 62
     7
100
AcDbVertex
100
AcDb2dVertex
 10
-127.0
 20
-63.385813
 30
0.0
  0
VERTEX
  5
170
330
AC
100
AcDbEntity
  8
1
  6
CONTINUOUS
 62
     7
100
AcDbVertex
100
AcDb2dVertex
 10
-127.0
 20
-62.891326
 30
0.0
  0
VERTEX
  5
171
330
AC
100
AcDbEntity
  8
1
  6
CONTINUOUS
 62
     7
100
AcDbVertex
100
AcDb2dVertex
 10
-127.0
 20
-62.396838
 30
0.0
  0
VERTEX
  5
172
330
AC
100
AcDbEntity
  8
1
  6
CONTINUOUS
 62
     7
100
AcDbVertex
100
AcDb2dVertex
 10
-127.0
 20
-61.90235
 30
0.0
  0
VERTEX
  5
173
330
AC
100
AcDbEntity
  8
1
  6
CONTINUOUS
 62
     7
100
AcDbVertex
100
AcDb2dVertex
 10
-127.0
 20
-61.407862
 30
0.0
  0
VERTEX
  5
174
330
AC
100
AcDbEntity
  8
1
  6
CONTINUOUS
 62
     7
100
AcDbVertex
100
AcDb2dVertex
 10
-127.0
 20
-60.913375
 30
0.0
  0
VERTEX
  5
175
330
AC
100
AcDbEntity
  8
1
  6
CONTINUOUS
 62
     7
100
AcDbVertex
100
AcDb2dVertex
 10
-127.0
 20
-40.684329
 30
0.0
  0
VERTEX
  5
176
330
AC
100
AcDbEntity
  8
1
  6
CONTINUOUS
 62
     7
100
AcDbVertex
100
AcDb2dVertex
 10
-127.0
 20
55.216332
 30
0.0
  0
VERTEX
  5
177
330
AC
100
AcDbEntity
  8
1
  6
CONTINUOUS
 62
     7
100
AcDbVertex
100
AcDb2dVertex
 10
-127.0
 20
55.590944
 30
0.0
  0
VERTEX
  5
178
330
AC
100
AcDbEntity
  8
1
  6
CONTINUOUS
 62
     7
100
AcDbVertex
100
AcDb2dVertex
 10
-127.0
 20
55.965556
 30
0.0
  0
VERTEX
  5
179
330
AC
100
AcDbEntity
  8
1
  6
CONTINUOUS
 62
     7
100
AcDbVertex
100
AcDb2dVertex
 10
-127.0
 20
56.340168
 30
0.0
  0
VERTEX
  5
17A
330
AC
100
AcDbEntity
  8
1
  6
CONTINUOUS
 62
     7
100
AcDbVertex
100
AcDb2dVertex
 10
-127.0
 20
56.5
 30
0.0
  0
VERTEX
  5
17B
330
AC
100
AcDbEntity
  8
1
  6
CONTINUOUS
 62
     7
100
AcDbVertex
100
AcDb2dVertex
 10
-126.78522
 20
56.5
 30
0.0
  0
VERTEX
  5
17C
330
AC
100
AcDbEntity
  8
1
  6
CONTINUOUS
 62
     7
100
AcDbVertex
100
AcDb2dVertex
 10
-122.289876
 20
56.5
 30
0.0
  0
VERTEX
  5
17D
330
AC
100
AcDbEntity
  8
1
  6
CONTINUOUS
 62
     7
100
AcDbVertex
100
AcDb2dVertex
 10
-121.091118
 20
56.5
 30
0.0
  0
VERTEX
  5
17E
330
AC
100
AcDbEntity
  8
1
  6
CONTINUOUS
 62
     7
100
AcDbVertex
100
AcDb2dVertex
 10
-119.89184
 20
56.5013
 30
0.0
  0
VERTEX
  5
17F
330
AC
100
AcDbEntity
  8
1
  6
CONTINUOUS
 62
     7
100
AcDbVertex
100
AcDb2dVertex
 10
-118.64241
 20
56.709668
 30
0.0
  0
VERTEX
  5
180
330
AC
100
AcDbEntity
  8
1
  6
CONTINUOUS
 62
     7
100
AcDbVertex
100
AcDb2dVertex
 10
-117.42342
 20
57.310659
 30
0.0
  0
VERTEX
  5
181
330
AC
100
AcDbEntity
  8
1
  6
CONTINUOUS
 62
     7
100
AcDbVertex
100
AcDb2dVertex
 10
-116.416864
 20
58.27766
 30
0.0
  0
VERTEX
  5
182
330
AC
100
AcDbEntity
  8
1
  6
CONTINUOUS
 62
     7
100
AcDbVertex
100
AcDb2dVertex
 10
-115.793724
 20
59.400863
 30
0.0
  0
VERTEX
  5
183
330
AC
100
AcDbEntity
  8
1
  6
CONTINUOUS
 62
     7
100
AcDbVertex
100
AcDb2dVertex
 10
-115.51959
 20
60.580563
 30
0.0
  0
VERTEX
  5
184
330
AC
100
AcDbEntity
  8
1
  6
CONTINUOUS
 62
     7
100
AcDbVertex
100
AcDb2dVertex
 10
-115.5
 20
61.833529
 30
0.0
  0
VERTEX
  5
185
330
AC
100
AcDbEntity
  8
1
  6
CONTINUOUS
 62
     7
100
AcDbVertex
100
AcDb2dVertex
 10
-115.5
 20
63.150185
 30
0.0
  0
VERTEX
  5
186
330
AC
100
AcDbEntity
  8
1
  6
CONTINUOUS
 62
     7
100
AcDbVertex
100
AcDb2dVertex
 10
-115.5
 20
65.924894
 30
0.0
  0
VERTEX
  5
187
330
AC
100
AcDbEntity
  8
1
  6
CONTINUOUS
 62
     7
100
AcDbVertex
100
AcDb2dVertex
 10
-115.5
 20
66.236341
 30
0.0
  0
VERTEX
  5
188
330
AC
100
AcDbEntity
  8
1
  6
CONTINUOUS
 62
     7
100
AcDbVertex
100
AcDb2dVertex
 10
-115.5
 20
66.547788
 30
0.0
  0
VERTEX
  5
189
330
AC
100
AcDbEntity
  8
1
  6
CONTINUOUS
 62
     7
100
AcDbVertex
100
AcDb2dVertex
 10
-115.5
 20
66.859235
 30
0.0
  0
VERTEX
  5
18A
330
AC
100
AcDbEntity
  8
1
  6
CONTINUOUS
 62
     7
100
AcDbVertex
100
AcDb2dVertex
 10
-115.5
 20
67.170682
 30
0.0
  0
VERTEX
  5
18B
330
AC
100
AcDbEntity
  8
1
  6
CONTINUOUS
 62
     7
100
AcDbVertex
100
AcDb2dVertex
 10
-115.5
 20
67.482129
 30
0.0
  0
VERTEX
  5
18C
330
AC
100
AcDbEntity
  8
1
  6
CONTINUOUS
 62
     7
100
AcDbVertex
100
AcDb2dVertex
 10
-115.5
 20
67.793576
 30
0.0
  0
VERTEX
  5
18D
330
AC
100
AcDbEntity
  8
1
  6
CONTINUOUS
 62
     7
100
AcDbVertex
100
AcDb2dVertex
 10
-115.5
 20
68.0
 30
0.0
  0
VERTEX
  5
18E
330
AC
100
AcDbEntity
  8
1
  6
CONTINUOUS
 62
     7
100
AcDbVertex
100
AcDb2dVertex
 10
-115.394977
 20
68.0
 30
0.0
  0
VERTEX
  5
18F
330
AC
100
AcDbEntity
  8
1
  6
CONTINUOUS
 62
     7
100
AcDbVertex
100
AcDb2dVertex
 10
-111.50189
 20
68.0
 30
0.0
  0
VERTEX
  5
190
330
AC
100
AcDbEntity
  8
1
  6
CONTINUOUS
 62
     7
100
AcDbVertex
100
AcDb2dVertex
 10
-104.549948
 20
68.0
 30
0.0
  0
VERTEX
  5
191
330
AC
100
AcDbEntity
  8
1
  6
CONTINUOUS
 62
     7
100
AcDbVertex
100
AcDb2dVertex
 10
-83.483458
 20
68.0
 30
0.0
  0
VERTEX
  5
192
330
AC
100
AcDbEntity
  8
1
  6
CONTINUOUS
 62
     7
100
AcDbVertex
100
AcDb2dVertex
 10
-27.306151
 20
68.0
 30
0.0
  0
VERTEX
  5
193
330
AC
100
AcDbEntity
  8
1
  6
CONTINUOUS
 62
     7
100
AcDbVertex
100
AcDb2dVertex
 10
47.596924
 20
68.0
 30
0.0
  0
VERTEX
  5
194
330
AC
100
AcDbEntity
  8
1
  6
CONTINUOUS
 62
     7
100
AcDbVertex
100
AcDb2dVertex
 10
85.048462
 20
68.0
 30
0.0
  0
VERTEX
  5
195
330
AC
100
AcDbEntity
  8
1
  6
CONTINUOUS
 62
     7
100
AcDbVertex
100
AcDb2dVertex
 10
113.137116
 20
68.0
 30
0.0
  0
VERTEX
  5
196
330
AC
100
AcDbEntity
  8
1
  6
CONTINUOUS
 62
     7
100
AcDbVertex
100
AcDb2dVertex
 10
115.477837
 20
68.0
 30
0.0
  0
VERTEX
  5
197
330
AC
100
AcDbEntity
  8
1
  6
CONTINUOUS
 62
     7
100
AcDbVertex
100
AcDb2dVertex
 10
115.5
 20
68.0
 30
0.0
  0
VERTEX
  5
198
330
AC
100
AcDbEntity
  8
1
  6
CONTINUOUS
 62
     7
100
AcDbVertex
100
AcDb2dVertex
 10
115.5
 20
67.838651
 30
0.0
  0
VERTEX
  5
199
330
AC
100
AcDbEntity
  8
1
  6
CONTINUOUS
 62
     7
100
AcDbVertex
100
AcDb2dVertex
 10
115.5
 20
67.655138
 30
0.0
  0
VERTEX
  5
19A
330
AC
100
AcDbEntity
  8
1
  6
CONTINUOUS
 62
     7
100
AcDbVertex
100
AcDb2dVertex
 10
115.5
 20
67.471626
 30
0.0
  0
VERTEX
  5
19B
330
AC
100
AcDbEntity
  8
1
  6
CONTINUOUS
 62
     7
100
AcDbVertex
100
AcDb2dVertex
 10
115.5
 20
67.03906
 30
0.0
  0
VERTEX
  5
19C
330
AC
100
AcDbEntity
  8
1
  6
CONTINUOUS
 62
     7
100
AcDbVertex
100
AcDb2dVertex
 10
115.5
 20
66.266623
 30
0.0
  0
VERTEX
  5
19D
330
AC
100
AcDbEntity
  8
1
  6
CONTINUOUS
 62
     7
100
AcDbVertex
100
AcDb2dVertex
 10
115.5
 20
64.511082
 30
0.0
  0
VERTEX
  5
19E
330
AC
100
AcDbEntity
  8
1
  6
CONTINUOUS
 62
     7
100
AcDbVertex
100
AcDb2dVertex
 10
115.5
 20
61.0
 30
0.0
  0
SEQEND
  5
19F
330
AC
100
AcDbEntity
  8
1
  6
CONTINUOUS
 62
     7
  0
POLYLINE
  5
1A0
330
1F
100
AcDbEntity
  8
1
  6
CONTINUOUS
 62
   252
100
AcDb2dPolyline
 66
     1
 10
0.0
 20
0.0
 30
0.0
  0
VERTEX
  5
1A1
330
1A0
100
AcDbEntity
  8
1
  6
CONTINUOUS
 62
   252
100
AcDbVertex
100
AcDb2dVertex
 10
127.0
 20
-136.5
 30
0.0
  0
VERTEX
  5
1A2
330
1A0
100
AcDbEntity
  8
1
  6
CONTINUOUS
 62
   252
100
AcDbVertex
100
AcDb2dVertex
 10
127.0
 20
-151.9
 30
0.0
  0
VERTEX
  5
1A3
330
1A0
100
AcDbEntity
  8
1
  6
CONTINUOUS
 62
   252
100
AcDbVertex
100
AcDb2dVertex
 10
127.0
 20
-164.0
 30
0.0
  0
SEQEND
  5
1A4
330
1A0
100
AcDbEntity
  8
1
  6
CONTINUOUS
 62
   252
  0
POLYLINE
  5
1A5
330
1F
100
AcDbEntity
  8
1
  6
CONTINUOUS
 62
   252
100
AcDb2dPolyline
 66
     1
 10
0.0
 20
0.0
 30
0.0
  0
VERTEX
  5
1A6
330
1A5
100
AcDbEntity
  8
1
  6
CONTINUOUS
 62
   252
100
AcDbVertex
100
AcDb2dVertex
 10
-127.0
 20
56.5
 30
0.0
  0
VERTEX
  5
1A7
330
1A5
100
AcDbEntity
  8
1
  6
CONTINUOUS
 62
   252
100
AcDbVertex
100
AcDb2dVertex
 10
-120.935341
 20
56.5
 30
0.0
  0
VERTEX
  5
1A8
330
1A5
100
AcDbEntity
  8
1
  6
CONTINUOUS
 62
   252
100
AcDbVertex
100
AcDb2dVertex
 10
-119.741233
 20
56.507446
 30
0.0
  0
VERTEX
  5
1A9
330
1A5
100
AcDbEntity
  8
1
  6
CONTINUOUS
 62
   252
100
AcDbVertex
100
AcDb2dVertex
 10
-118.494216
 20
56.759409
 30
0.0
  0
VERTEX
  5
1AA
330
1A5
100
AcDbEntity
  8
1
  6
CONTINUOUS
 62
   252
100
AcDbVertex
100
AcDb2dVertex
 10
-117.297729
 20
57.401705
 30
0.0
  0
VERTEX
  5
1AB
330
1A5
100
AcDbEntity
  8
1
  6
CONTINUOUS
 62
   252
100
AcDbVertex
100
AcDb2dVertex
 10
-116.330111
 20
58.395789
 30
0.0
  0
VERTEX
  5
1AC
330
1A5
100
AcDbEntity
  8
1
  6
CONTINUOUS
 62
   252
100
AcDbVertex
100
AcDb2dVertex
 10
-115.722044
 20
59.603902
 30
0.0
  0
VERTEX
  5
1AD
330
1A5
100
AcDbEntity
  8
1
  6
CONTINUOUS
 62
   252
100
AcDbVertex
100
AcDb2dVertex
 10
-115.502591
 20
60.847309
 30
0.0
  0
VERTEX
  5
1AE
330
1A5
100
AcDbEntity
  8
1
  6
CONTINUOUS
 62
   252
100
AcDbVertex
100
AcDb2dVertex
 10
-115.5
 20
62.217971
 30
0.0
  0
VERTEX
  5
1AF
330
1A5
100
AcDbEntity
  8
1
  6
CONTINUOUS
 62
   252
100
AcDbVertex
100
AcDb2dVertex
 10
-115.5
 20
63.613633
 30
0.0
  0
VERTEX
  5
1B0
330
1A5
100
AcDbEntity
  8
1
  6
CONTINUOUS
 62
   252
100
AcDbVertex
100
AcDb2dVertex
 10
-115.5
 20
68.0
 30
0.0
  0
SEQEND
  5
1B1
330
1A5
100
AcDbEntity
  8
1
  6
CONTINUOUS
 62
   252
  0
POLYLINE
  5
1B2
330
1F
100
AcDbEntity
  8
1
  6
CONTINUOUS
 62
   252
100
AcDb2dPolyline
 66
     1
 10
0.0
 20
0.0
 30
0.0
  0
VERTEX
  5
1B3
330
1B2
100
AcDbEntity
  8
1
  6
CONTINUOUS
 62
   252
100
AcDbVertex
100
AcDb2dVertex
 10
-115.5
 20
68.0
 30
0.0
  0
VERTEX
  5
1B4
330
1B2
100
AcDbEntity
  8
1
  6
CONTINUOUS
 62
   252
100
AcDbVertex
100
AcDb2dVertex
 10
13.86
 20
68.0
 30
0.0
  0
VERTEX
  5
1B5
330
1B2
100
AcDbEntity
  8
1
  6
CONTINUOUS
 62
   252
100
AcDbVertex
100
AcDb2dVertex
 10
115.5
 20
68.0
 30
0.0
  0
SEQEND
  5
1B6
330
1B2
100
AcDbEntity
  8
1
  6
CONTINUOUS
 62
   252
  0
POLYLINE
  5
1B7
330
1F
100
AcDbEntity
  8
1
  6
CONTINUOUS
 62
   252
100
AcDb2dPolyline
 66
     1
 10
0.0
 20
0.0
 30
0.0
  0
VERTEX
  5
1B8
330
1B7
100
AcDbEntity
  8
1
  6
CONTINUOUS
 62
   252
100
AcDbVertex
100
AcDb2dVertex
 10
127.0
 20
-127.5
 30
0.0
  0
VERTEX
  5
1B9
330
1B7
100
AcDbEntity
  8
1
  6
CONTINUOUS
 62
   252
100
AcDbVertex
100
AcDb2dVertex
 10
120.125
 20
-127.5
 30
0.0
  0
VERTEX
  5
1BA
330
1B7
100
AcDbEntity
  8
1
  6
CONTINUOUS
 62
   252
100
AcDbVertex
100
AcDb2dVertex
 10
118.961382
 20
-127.621499
 30
0.0
  0
VERTEX
  5
1BB
330
1B7
100
AcDbEntity
  8
1
  6
CONTINUOUS
 62
   252
100
AcDbVertex
100
AcDb2dVertex
 10
117.827786
 20
-128.058999
 30
0.0
  0
VERTEX
  5
1BC
330
1B7
100
AcDbEntity
  8
1
  6
CONTINUOUS
 62
   252
100
AcDbVertex
100
AcDb2dVertex
 10
116.850236
 20
-128.786126
 30
0.0
  0
VERTEX
  5
1BD
330
1B7
100
AcDbEntity
  8
1
  6
CONTINUOUS
 62
   252
100
AcDbVertex
100
AcDb2dVertex
 10
116.123912
 20
-129.713968
 30
0.0
  0
VERTEX
  5
1BE
330
1B7
100
AcDbEntity
  8
1
  6
CONTINUOUS
 62
   252
100
AcDbVertex
100
AcDb2dVertex
 10
115.664518
 20
-130.794349
 30
0.0
  0
VERTEX
  5
1BF
330
1B7
100
AcDbEntity
  8
1
  6
CONTINUOUS
 62
   252
100
AcDbVertex
100
AcDb2dVertex
 10
115.5
 20
-132.0
 30
0.0
  0
VERTEX
  5
1C0
330
1B7
100
AcDbEntity
  8
1
  6
CONTINUOUS
 62
   252
100
AcDbVertex
100
AcDb2dVertex
 10
115.664518
 20
-133.205651
 30
0.0
  0
VERTEX
  5
1C1
330
1B7
100
AcDbEntity
  8
1
  6
CONTINUOUS
 62
   252
100
AcDbVertex
100
AcDb2dVertex
 10
116.123912
 20
-134.286032
 30
0.0
  0
VERTEX
  5
1C2
330
1B7
100
AcDbEntity
  8
1
  6
CONTINUOUS
 62
   252
100
AcDbVertex
100
AcDb2dVertex
 10
116.850236
 20
-135.213874
 30
0.0
  0
VERTEX
  5
1C3
330
1B7
100
AcDbEntity
  8
1
  6
CONTINUOUS
 62
   252
100
AcDbVertex
100
AcDb2dVertex
 10
117.827786
 20
-135.941001
 30
0.0
  0
VERTEX
  5
1C4
330
1B7
100
AcDbEntity
  8
1
  6
CONTINUOUS
 62
   252
100
AcDbVertex
100
AcDb2dVertex
 10
118.961382
 20
-136.378501
 30
0.0
  0
VERTEX
  5
1C5
330
1B7
100
AcDbEntity
  8
1
  6
CONTINUOUS
 62
   252
100
AcDbVertex
100
AcDb2dVertex
 10
120.125
 20
-136.5
 30
0.0
  0
VERTEX
  5
1C6
330
1B7
100
AcDbEntity
  8
1
  6
CONTINUOUS
 62
   252
100
AcDbVertex
100
AcDb2dVertex
 10
127.0
 20
-136.5
 30
0.0
  0
SEQEND
  5
1C7
330
1B7
100
AcDbEntity
  8
1
  6
CONTINUOUS
 62
   252
  0
POLYLINE
  5
1C8
330
1F
100
AcDbEntity
  8
1
  6
CONTINUOUS
 62
   252
100
AcDb2dPolyline
 66
     1
 10
0.0
 20
0.0
 30
0.0
  0
VERTEX
  5
1C9
330
1C8
100
AcDbEntity
  8
1
  6
CONTINUOUS
 62
   252
100
AcDbVertex
100
AcDb2dVertex
 10
127.0
 20
-127.5
 30
0.0
  0
VERTEX
  5
1CA
330
1C8
100
AcDbEntity
  8
1
  6
CONTINUOUS
 62
   252
100
AcDbVertex
100
AcDb2dVertex
 10
120.125
 20
-127.5
 30
0.0
  0
VERTEX
  5
1CB
330
1C8
100
AcDbEntity
  8
1
  6
CONTINUOUS
 62
   252
100
AcDbVertex
100
AcDb2dVertex
 10
118.961382
 20
-127.621499
 30
0.0
  0
VERTEX
  5
1CC
330
1C8
100
AcDbEntity
  8
1
  6
CONTINUOUS
 62
   252
100
AcDbVertex
100
AcDb2dVertex
 10
117.827786
 20
-128.058999
 30
0.0
  0
VERTEX
  5
1CD
330
1C8
100
AcDbEntity
  8
1
  6
CONTINUOUS
 62
   252
100
AcDbVertex
100
AcDb2dVertex
 10
116.850236
 20
-128.786126
 30
0.0
  0
VERTEX
  5
1CE
330
1C8
100
AcDbEntity
  8
1
  6
CONTINUOUS
 62
   252
100
AcDbVertex
100
AcDb2dVertex
 10
116.123912
 20
-129.713968
 30
0.0
  0
VERTEX
  5
1CF
330
1C8
100
AcDbEntity
  8
1
  6
CONTINUOUS
 62
   252
100
AcDbVertex
100
AcDb2dVertex
 10
115.664518
 20
-130.794349
 30
0.0
  0
VERTEX
  5
1D0
330
1C8
100
AcDbEntity
  8
1
  6
CONTINUOUS
 62
   252
100
AcDbVertex
100
AcDb2dVertex
 10
115.5
 20
-132.0
 30
0.0
  0
VERTEX
  5
1D1
330
1C8
100
AcDbEntity
  8
1
  6
CONTINUOUS
 62
   252
100
AcDbVertex
100
AcDb2dVertex
 10
115.664518
 20
-133.205651
 30
0.0
  0
VERTEX
  5
1D2
330
1C8
100
AcDbEntity
  8
1
  6
CONTINUOUS
 62
   252
100
AcDbVertex
100
AcDb2dVertex
 10
116.123912
 20
-134.286032
 30
0.0
  0
VERTEX
  5
1D3
330
1C8
100
AcDbEntity
  8
1
  6
CONTINUOUS
 62
   252
100
AcDbVertex
100
AcDb2dVertex
 10
116.850236
 20
-135.213874
 30
0.0
  0
VERTEX
  5
1D4
330
1C8
100
AcDbEntity
  8
1
  6
CONTINUOUS
 62
   252
100
AcDbVertex
100
AcDb2dVertex
 10
117.827786
 20
-135.941001
 30
0.0
  0
VERTEX
  5
1D5
330
1C8
100
AcDbEntity
  8
1
  6
CONTINUOUS
 62
   252
100
AcDbVertex
100
AcDb2dVertex
 10
118.961382
 20
-136.378501
 30
0.0
  0
VERTEX
  5
1D6
330
1C8
100
AcDbEntity
  8
1
  6
CONTINUOUS
 62
   252
100
AcDbVertex
100
AcDb2dVertex
 10
120.125
 20
-136.5
 30
0.0
  0
VERTEX
  5
1D7
330
1C8
100
AcDbEntity
  8
1
  6
CONTINUOUS
 62
   252
100
AcDbVertex
100
AcDb2dVertex
 10
127.0
 20
-136.5
 30
0.0
  0
SEQEND
  5
1D8
330
1C8
100
AcDbEntity
  8
1
  6
CONTINUOUS
 62
   252
  0
POLYLINE
  5
1D9
330
1F
100
AcDbEntity
  8
1
  6
CONTINUOUS
 62
   252
100
AcDb2dPolyline
 66
     1
 10
0.0
 20
0.0
 30
0.0
  0
VERTEX
  5
1DA
330
1D9
100
AcDbEntity
  8
1
  6
CONTINUOUS
 62
   252
100
AcDbVertex
100
AcDb2dVertex
 10
127.0
 20
-136.5
 30
0.0
  0
VERTEX
  5
1DB
330
1D9
100
AcDbEntity
  8
1
  6
CONTINUOUS
 62
   252
100
AcDbVertex
100
AcDb2dVertex
 10
127.0
 20
-151.9
 30
0.0
  0
VERTEX
  5
1DC
330
1D9
100
AcDbEntity
  8
1
  6
CONTINUOUS
 62
   252
100
AcDbVertex
100
AcDb2dVertex
 10
127.0
 20
-164.0
 30
0.0
  0
SEQEND
  5
1DD
330
1D9
100
AcDbEntity
  8
1
  6
CONTINUOUS
 62
   252
  0
POLYLINE
  5
1DE
330
1F
100
AcDbEntity
  8
1
  6
CONTINUOUS
 62
   252
100
AcDb2dPolyline
 66
     1
 10
0.0
 20
0.0
 30
0.0
  0
VERTEX
  5
1DF
330
1DE
100
AcDbEntity
  8
1
  6
CONTINUOUS
 62
   252
100
AcDbVertex
100
AcDb2dVertex
 10
-17.0
 20
-164.0
 30
0.0
  0
VERTEX
  5
1E0
330
1DE
100
AcDbEntity
  8
1
  6
CONTINUOUS
 62
   252
100
AcDbVertex
100
AcDb2dVertex
 10
-78.6
 20
-164.0
 30
0.0
  0
VERTEX
  5
1E1
330
1DE
100
AcDbEntity
  8
1
  6
CONTINUOUS
 62
   252
100
AcDbVertex
100
AcDb2dVertex
 10
-127.0
 20
-164.0
 30
0.0
  0
SEQEND
  5
1E2
330
1DE
100
AcDbEntity
  8
1
  6
CONTINUOUS
 62
   252
  0
POLYLINE
  5
1E3
330
1F
100
AcDbEntity
  8
1
  6
CONTINUOUS
 62
   252
100
AcDb2dPolyline
 66
     1
 10
0.0
 20
0.0
 30
0.0
  0
VERTEX
  5
1E4
330
1E3
100
AcDbEntity
  8
1
  6
CONTINUOUS
 62
   252
100
AcDbVertex
100
AcDb2dVertex
 10
-127.0
 20
-136.5
 30
0.0
  0
VERTEX
  5
1E5
330
1E3
100
AcDbEntity
  8
1
  6
CONTINUOUS
 62
   252
100
AcDbVertex
100
AcDb2dVertex
 10
-120.125
 20
-136.5
 30
0.0
  0
VERTEX
  5
1E6
330
1E3
100
AcDbEntity
  8
1
  6
CONTINUOUS
 62
   252
100
AcDbVertex
100
AcDb2dVertex
 10
-118.961382
 20
-136.378501
 30
0.0
  0
VERTEX
  5
1E7
330
1E3
100
AcDbEntity
  8
1
  6
CONTINUOUS
 62
   252
100
AcDbVertex
100
AcDb2dVertex
 10
-117.827786
 20
-135.941001
 30
0.0
  0
VERTEX
  5
1E8
330
1E3
100
AcDbEntity
  8
1
  6
CONTINUOUS
 62
   252
100
AcDbVertex
100
AcDb2dVertex
 10
-116.850236
 20
-135.213874
 30
0.0
  0
VERTEX
  5
1E9
330
1E3
100
AcDbEntity
  8
1
  6
CONTINUOUS
 62
   252
100
AcDbVertex
100
AcDb2dVertex
 10
-116.123912
 20
-134.286032
 30
0.0
  0
VERTEX
  5
1EA
330
1E3
100
AcDbEntity
  8
1
  6
CONTINUOUS
 62
   252
100
AcDbVertex
100
AcDb2dVertex
 10
-115.664518
 20
-133.205651
 30
0.0
  0
VERTEX
  5
1EB
330
1E3
100
AcDbEntity
  8
1
  6
CONTINUOUS
 62
   252
100
AcDbVertex
100
AcDb2dVertex
 10
-115.5
 20
-132.0
 30
0.0
  0
VERTEX
  5
1EC
330
1E3
100
AcDbEntity
  8
1
  6
CONTINUOUS
 62
   252
100
AcDbVertex
100
AcDb2dVertex
 10
-115.664518
 20
-130.794349
 30
0.0
  0
VERTEX
  5
1ED
330
1E3
100
AcDbEntity
  8
1
  6
CONTINUOUS
 62
   252
100
AcDbVertex
100
AcDb2dVertex
 10
-116.123912
 20
-129.713968
 30
0.0
  0
VERTEX
  5
1EE
330
1E3
100
AcDbEntity
  8
1
  6
CONTINUOUS
 62
   252
100
AcDbVertex
100
AcDb2dVertex
 10
-116.850236
 20
-128.786126
 30
0.0
  0
VERTEX
  5
1EF
330
1E3
100
AcDbEntity
  8
1
  6
CONTINUOUS
 62
   252
100
AcDbVertex
100
AcDb2dVertex
 10
-117.827786
 20
-128.058999
 30
0.0
  0
VERTEX
  5
1F0
330
1E3
100
AcDbEntity
  8
1
  6
CONTINUOUS
 62
   252
100
AcDbVertex
100
AcDb2dVertex
 10
-118.961382
 20
-127.621499
 30
0.0
  0
VERTEX
  5
1F1
330
1E3
100
AcDbEntity
  8
1
  6
CONTINUOUS
 62
   252
100
AcDbVertex
100
AcDb2dVertex
 10
-120.125
 20
-127.5
 30
0.0
  0
VERTEX
  5
1F2
330
1E3
100
AcDbEntity
  8
1
  6
CONTINUOUS
 62
   252
100
AcDbVertex
100
AcDb2dVertex
 10
-127.0
 20
-127.5
 30
0.0
  0
SEQEND
  5
1F3
330
1E3
100
AcDbEntity
  8
1
  6
CONTINUOUS
 62
   252
  0
POLYLINE
  5
1F4
330
1F
100
AcDbEntity
  8
1
  6
CONTINUOUS
 62
   252
100
AcDb2dPolyline
 66
     1
 10
0.0
 20
0.0
 30
0.0
  0
VERTEX
  5
1F5
330
1F4
100
AcDbEntity
  8
1
  6
CONTINUOUS
 62
   252
100
AcDbVertex
100
AcDb2dVertex
 10
-127.0
 20
-63.5
 30
0.0
  0
VERTEX
  5
1F6
330
1F4
100
AcDbEntity
  8
1
  6
CONTINUOUS
 62
   252
100
AcDbVertex
100
AcDb2dVertex
 10
-127.0
 20
3.7
 30
0.0
  0
VERTEX
  5
1F7
330
1F4
100
AcDbEntity
  8
1
  6
CONTINUOUS
 62
   252
100
AcDbVertex
100
AcDb2dVertex
 10
-127.0
 20
56.5
 30
0.0
  0
SEQEND
  5
1F8
330
1F4
100
AcDbEntity
  8
1
  6
CONTINUOUS
 62
   252
  0
POLYLINE
  5
1F9
330
1F
100
AcDbEntity
  8
1
  6
CONTINUOUS
 62
   252
100
AcDb2dPolyline
 66
     1
 10
0.0
 20
0.0
 30
0.0
  0
VERTEX
  5
1FA
330
1F9
100
AcDbEntity
  8
1
  6
CONTINUOUS
 62
   252
100
AcDbVertex
100
AcDb2dVertex
 10
-127.0
 20
56.5
 30
0.0
  0
VERTEX
  5
1FB
330
1F9
100
AcDbEntity
  8
1
  6
CONTINUOUS
 62
   252
100
AcDbVertex
100
AcDb2dVertex
 10
-120.935341
 20
56.5
 30
0.0
  0
VERTEX
  5
1FC
330
1F9
100
AcDbEntity
  8
1
  6
CONTINUOUS
 62
   252
100
AcDbVertex
100
AcDb2dVertex
 10
-119.741233
 20
56.507446
 30
0.0
  0
VERTEX
  5
1FD
330
1F9
100
AcDbEntity
  8
1
  6
CONTINUOUS
 62
   252
100
AcDbVertex
100
AcDb2dVertex
 10
-118.494216
 20
56.759409
 30
0.0
  0
VERTEX
  5
1FE
330
1F9
100
AcDbEntity
  8
1
  6
CONTINUOUS
 62
   252
100
AcDbVertex
100
AcDb2dVertex
 10
-117.297729
 20
57.401705
 30
0.0
  0
VERTEX
  5
1FF
330
1F9
100
AcDbEntity
  8
1
  6
CONTINUOUS
 62
   252
100
AcDbVertex
100
AcDb2dVertex
 10
-116.330111
 20
58.395789
 30
0.0
  0
VERTEX
  5
200
330
1F9
100
AcDbEntity
  8
1
  6
CONTINUOUS
 62
   252
100
AcDbVertex
100
AcDb2dVertex
 10
-115.722044
 20
59.603902
 30
0.0
  0
VERTEX
  5
201
330
1F9
100
AcDbEntity
  8
1
  6
CONTINUOUS
 62
   252
100
AcDbVertex
100
AcDb2dVertex
 10
-115.502591
 20
60.847309
 30
0.0
  0
VERTEX
  5
202
330
1F9
100
AcDbEntity
  8
1
  6
CONTINUOUS
 62
   252
100
AcDbVertex
100
AcDb2dVertex
 10
-115.5
 20
62.217971
 30
0.0
  0
VERTEX
  5
203
330
1F9
100
AcDbEntity
  8
1
  6
CONTINUOUS
 62
   252
100
AcDbVertex
100
AcDb2dVertex
 10
-115.5
 20
63.613633
 30
0.0
  0
VERTEX
  5
204
330
1F9
100
AcDbEntity
  8
1
  6
CONTINUOUS
 62
   252
100
AcDbVertex
100
AcDb2dVertex
 10
-115.5
 20
68.0
 30
0.0
  0
SEQEND
  5
205
330
1F9
100
AcDbEntity
  8
1
  6
CONTINUOUS
 62
   252
  0
POLYLINE
  5
206
330
1F
100
AcDbEntity
  8
1
  6
CONTINUOUS
 62
   252
100
AcDb2dPolyline
 66
     1
 10
0.0
 20
0.0
 30
0.0
  0
VERTEX
  5
207
330
206
100
AcDbEntity
  8
1
  6
CONTINUOUS
 62
   252
100
AcDbVertex
100
AcDb2dVertex
 10
127.0
 20
-164.0
 30
0.0
  0
VERTEX
  5
208
330
206
100
AcDbEntity
  8
1
  6
CONTINUOUS
 62
   252
100
AcDbVertex
100
AcDb2dVertex
 10
65.4
 20
-164.0
 30
0.0
  0
VERTEX
  5
209
330
206
100
AcDbEntity
  8
1
  6
CONTINUOUS
 62
   252
100
AcDbVertex
100
AcDb2dVertex
 10
17.0
 20
-164.0
 30
0.0
  0
SEQEND
  5
20A
330
206
100
AcDbEntity
  8
1
  6
CONTINUOUS
 62
   252
  0
POLYLINE
  5
20B
330
1F
100
AcDbEntity
  8
1
  6
CONTINUOUS
 62
   252
100
AcDb2dPolyline
 66
     1
 10
0.0
 20
0.0
 30
0.0
  0
VERTEX
  5
20C
330
20B
100
AcDbEntity
  8
1
  6
CONTINUOUS
 62
   252
100
AcDbVertex
100
AcDb2dVertex
 10
127.0
 20
56.5
 30
0.0
  0
VERTEX
  5
20D
330
20B
100
AcDbEntity
  8
1
  6
CONTINUOUS
 62
   252
100
AcDbVertex
100
AcDb2dVertex
 10
127.0
 20
-10.7
 30
0.0
  0
VERTEX
  5
20E
330
20B
100
AcDbEntity
  8
1
  6
CONTINUOUS
 62
   252
100
AcDbVertex
100
AcDb2dVertex
 10
127.0
 20
-63.5
 30
0.0
  0
SEQEND
  5
20F
330
20B
100
AcDbEntity
  8
1
  6
CONTINUOUS
 62
   252
  0
POLYLINE
  5
210
330
1F
100
AcDbEntity
  8
1
  6
CONTINUOUS
 62
   252
100
AcDb2dPolyline
 66
     1
 10
0.0
 20
0.0
 30
0.0
  0
VERTEX
  5
211
330
210
100
AcDbEntity
  8
1
  6
CONTINUOUS
 62
   252
100
AcDbVertex
100
AcDb2dVertex
 10
-127.0
 20
-72.5
 30
0.0
  0
VERTEX
  5
212
330
210
100
AcDbEntity
  8
1
  6
CONTINUOUS
 62
   252
100
AcDbVertex
100
AcDb2dVertex
 10
-120.125
 20
-72.5
 30
0.0
  0
VERTEX
  5
213
330
210
100
AcDbEntity
  8
1
  6
CONTINUOUS
 62
   252
100
AcDbVertex
100
AcDb2dVertex
 10
-118.961382
 20
-72.378501
 30
0.0
  0
VERTEX
  5
214
330
210
100
AcDbEntity
  8
1
  6
CONTINUOUS
 62
   252
100
AcDbVertex
100
AcDb2dVertex
 10
-117.827786
 20
-71.941001
 30
0.0
  0
VERTEX
  5
215
330
210
100
AcDbEntity
  8
1
  6
CONTINUOUS
 62
   252
100
AcDbVertex
100
AcDb2dVertex
 10
-116.850236
 20
-71.213874
 30
0.0
  0
VERTEX
  5
216
330
210
100
AcDbEntity
  8
1
  6
CONTINUOUS
 62
   252
100
AcDbVertex
100
AcDb2dVertex
 10
-116.123912
 20
-70.286032
 30
0.0
  0
VERTEX
  5
217
330
210
100
AcDbEntity
  8
1
  6
CONTINUOUS
 62
   252
100
AcDbVertex
100
AcDb2dVertex
 10
-115.664518
 20
-69.205651
 30
0.0
  0
VERTEX
  5
218
330
210
100
AcDbEntity
  8
1
  6
CONTINUOUS
 62
   252
100
AcDbVertex
100
AcDb2dVertex
 10
-115.5
 20
-68.0
 30
0.0
  0
VERTEX
  5
219
330
210
100
AcDbEntity
  8
1
  6
CONTINUOUS
 62
   252
100
AcDbVertex
100
AcDb2dVertex
 10
-115.664518
 20
-66.794349
 30
0.0
  0
VERTEX
  5
21A
330
210
100
AcDbEntity
  8
1
  6
CONTINUOUS
 62
   252
100
AcDbVertex
100
AcDb2dVertex
 10
-116.123912
 20
-65.713968
 30
0.0
  0
VERTEX
  5
21B
330
210
100
AcDbEntity
  8
1
  6
CONTINUOUS
 62
   252
100
AcDbVertex
100
AcDb2dVertex
 10
-116.850236
 20
-64.786126
 30
0.0
  0
VERTEX
  5
21C
330
210
100
AcDbEntity
  8
1
  6
CONTINUOUS
 62
   252
100
AcDbVertex
100
AcDb2dVertex
 10
-117.827786
 20
-64.058999
 30
0.0
  0
VERTEX
  5
21D
330
210
100
AcDbEntity
  8
1
  6
CONTINUOUS
 62
   252
100
AcDbVertex
100
AcDb2dVertex
 10
-118.961382
 20
-63.621499
 30
0.0
  0
VERTEX
  5
21E
330
210
100
AcDbEntity
  8
1
  6
CONTINUOUS
 62
   252
100
AcDbVertex
100
AcDb2dVertex
 10
-120.125
 20
-63.5
 30
0.0
  0
VERTEX
  5
21F
330
210
100
AcDbEntity
  8
1
  6
CONTINUOUS
 62
   252
100
AcDbVertex
100
AcDb2dVertex
 10
-127.0
 20
-63.5
 30
0.0
  0
SEQEND
  5
220
330
210
100
AcDbEntity
  8
1
  6
CONTINUOUS
 62
   252
  0
POLYLINE
  5
221
330
1F
100
AcDbEntity
  8
1
  6
CONTINUOUS
 62
   252
100
AcDb2dPolyline
 66
     1
 10
0.0
 20
0.0
 30
0.0
  0
VERTEX
  5
222
330
221
100
AcDbEntity
  8
1
  6
CONTINUOUS
 62
   252
100
AcDbVertex
100
AcDb2dVertex
 10
127.0
 20
-72.5
 30
0.0
  0
VERTEX
  5
223
330
221
100
AcDbEntity
  8
1
  6
CONTINUOUS
 62
   252
100
AcDbVertex
100
AcDb2dVertex
 10
127.0
 20
-103.3
 30
0.0
  0
VERTEX
  5
224
330
221
100
AcDbEntity
  8
1
  6
CONTINUOUS
 62
   252
100
AcDbVertex
100
AcDb2dVertex
 10
127.0
 20
-127.5
 30
0.0
  0
SEQEND
  5
225
330
221
100
AcDbEntity
  8
1
  6
CONTINUOUS
 62
   252
  0
POLYLINE
  5
226
330
1F
100
AcDbEntity
  8
1
  6
CONTINUOUS
 62
   252
100
AcDb2dPolyline
 66
     1
 10
0.0
 20
0.0
 30
0.0
  0
VERTEX
  5
227
330
226
100
AcDbEntity
  8
1
  6
CONTINUOUS
 62
   252
100
AcDbVertex
100
AcDb2dVertex
 10
-127.0
 20
-127.5
 30
0.0
  0
VERTEX
  5
228
330
226
100
AcDbEntity
  8
1
  6
CONTINUOUS
 62
   252
100
AcDbVertex
100
AcDb2dVertex
 10
-127.0
 20
-96.7
 30
0.0
  0
VERTEX
  5
229
330
226
100
AcDbEntity
  8
1
  6
CONTINUOUS
 62
   252
100
AcDbVertex
100
AcDb2dVertex
 10
-127.0
 20
-72.5
 30
0.0
  0
SEQEND
  5
22A
330
226
100
AcDbEntity
  8
1
  6
CONTINUOUS
 62
   252
  0
POLYLINE
  5
22B
330
1F
100
AcDbEntity
  8
1
  6
CONTINUOUS
 62
   252
100
AcDb2dPolyline
 66
     1
 10
0.0
 20
0.0
 30
0.0
  0
VERTEX
  5
22C
330
22B
100
AcDbEntity
  8
1
  6
CONTINUOUS
 62
   252
100
AcDbVertex
100
AcDb2dVertex
 10
127.0
 20
-63.5
 30
0.0
  0
VERTEX
  5
22D
330
22B
100
AcDbEntity
  8
1
  6
CONTINUOUS
 62
   252
100
AcDbVertex
100
AcDb2dVertex
 10
120.125
 20
-63.5
 30
0.0
  0
VERTEX
  5
22E
330
22B
100
AcDbEntity
  8
1
  6
CONTINUOUS
 62
   252
100
AcDbVertex
100
AcDb2dVertex
 10
118.961382
 20
-63.621499
 30
0.0
  0
VERTEX
  5
22F
330
22B
100
AcDbEntity
  8
1
  6
CONTINUOUS
 62
   252
100
AcDbVertex
100
AcDb2dVertex
 10
117.827786
 20
-64.058999
 30
0.0
  0
VERTEX
  5
230
330
22B
100
AcDbEntity
  8
1
  6
CONTINUOUS
 62
   252
100
AcDbVertex
100
AcDb2dVertex
 10
116.850236
 20
-64.786126
 30
0.0
  0
VERTEX
  5
231
330
22B
100
AcDbEntity
  8
1
  6
CONTINUOUS
 62
   252
100
AcDbVertex
100
AcDb2dVertex
 10
116.123912
 20
-65.713968
 30
0.0
  0
VERTEX
  5
232
330
22B
100
AcDbEntity
  8
1
  6
CONTINUOUS
 62
   252
100
AcDbVertex
100
AcDb2dVertex
 10
115.664518
 20
-66.794349
 30
0.0
  0
VERTEX
  5
233
330
22B
100
AcDbEntity
  8
1
  6
CONTINUOUS
 62
   252
100
AcDbVertex
100
AcDb2dVertex
 10
115.5
 20
-68.0
 30
0.0
  0
VERTEX
  5
234
330
22B
100
AcDbEntity
  8
1
  6
CONTINUOUS
 62
   252
100
AcDbVertex
100
AcDb2dVertex
 10
115.664518
 20
-69.205651
 30
0.0
  0
VERTEX
  5
235
330
22B
100
AcDbEntity
  8
1
  6
CONTINUOUS
 62
   252
100
AcDbVertex
100
AcDb2dVertex
 10
116.123912
 20
-70.286032
 30
0.0
  0
VERTEX
  5
236
330
22B
100
AcDbEntity
  8
1
  6
CONTINUOUS
 62
   252
100
AcDbVertex
100
AcDb2dVertex
 10
116.850236
 20
-71.213874
 30
0.0
  0
VERTEX
  5
237
330
22B
100
AcDbEntity
  8
1
  6
CONTINUOUS
 62
   252
100
AcDbVertex
100
AcDb2dVertex
 10
117.827786
 20
-71.941001
 30
0.0
  0
VERTEX
  5
238
330
22B
100
AcDbEntity
  8
1
  6
CONTINUOUS
 62
   252
100
AcDbVertex
100
AcDb2dVertex
 10
118.961382
 20
-72.378501
 30
0.0
  0
VERTEX
  5
239
330
22B
100
AcDbEntity
  8
1
  6
CONTINUOUS
 62
   252
100
AcDbVertex
100
AcDb2dVertex
 10
120.125
 20
-72.5
 30
0.0
  0
VERTEX
  5
23A
330
22B
100
AcDbEntity
  8
1
  6
CONTINUOUS
 62
   252
100
AcDbVertex
100
AcDb2dVertex
 10
127.0
 20
-72.5
 30
0.0
  0
SEQEND
  5
23B
330
22B
100
AcDbEntity
  8
1
  6
CONTINUOUS
 62
   252
  0
POLYLINE
  5
23C
330
1F
100
AcDbEntity
  8
1
  6
CONTINUOUS
 62
   252
100
AcDb2dPolyline
 66
     1
 10
0.0
 20
0.0
 30
0.0
  0
VERTEX
  5
23D
330
23C
100
AcDbEntity
  8
1
  6
CONTINUOUS
 62
   252
100
AcDbVertex
100
AcDb2dVertex
 10
-127.0
 20
-63.5
 30
0.0
  0
VERTEX
  5
23E
330
23C
100
AcDbEntity
  8
1
  6
CONTINUOUS
 62
   252
100
AcDbVertex
100
AcDb2dVertex
 10
-127.0
 20
3.7
 30
0.0
  0
VERTEX
  5
23F
330
23C
100
AcDbEntity
  8
1
  6
CONTINUOUS
 62
   252
100
AcDbVertex
100
AcDb2dVertex
 10
-127.0
 20
56.5
 30
0.0
  0
SEQEND
  5
240
330
23C
100
AcDbEntity
  8
1
  6
CONTINUOUS
 62
   252
  0
POLYLINE
  5
241
330
1F
100
AcDbEntity
  8
1
  6
CONTINUOUS
 62
   252
100
AcDb2dPolyline
 66
     1
 10
0.0
 20
0.0
 30
0.0
  0
VERTEX
  5
242
330
241
100
AcDbEntity
  8
1
  6
CONTINUOUS
 62
   252
100
AcDbVertex
100
AcDb2dVertex
 10
115.5
 20
68.0
 30
0.0
  0
VERTEX
  5
243
330
241
100
AcDbEntity
  8
1
  6
CONTINUOUS
 62
   252
100
AcDbVertex
100
AcDb2dVertex
 10
115.5
 20
64.08
 30
0.0
  0
VERTEX
  5
244
330
241
100
AcDbEntity
  8
1
  6
CONTINUOUS
 62
   252
100
AcDbVertex
100
AcDb2dVertex
 10
115.5
 20
61.0
 30
0.0
  0
SEQEND
  5
245
330
241
100
AcDbEntity
  8
1
  6
CONTINUOUS
 62
   252
  0
POLYLINE
  5
246
330
1F
100
AcDbEntity
  8
1
  6
CONTINUOUS
 62
   252
100
AcDb2dPolyline
 66
     1
 10
0.0
 20
0.0
 30
0.0
  0
VERTEX
  5
247
330
246
100
AcDbEntity
  8
1
  6
CONTINUOUS
 62
   252
100
AcDbVertex
100
AcDb2dVertex
 10
127.0
 20
-72.5
 30
0.0
  0
VERTEX
  5
248
330
246
100
AcDbEntity
  8
1
  6
CONTINUOUS
 62
   252
100
AcDbVertex
100
AcDb2dVertex
 10
127.0
 20
-103.3
 30
0.0
  0
VERTEX
  5
249
330
246
100
AcDbEntity
  8
1
  6
CONTINUOUS
 62
   252
100
AcDbVertex
100
AcDb2dVertex
 10
127.0
 20
-127.5
 30
0.0
  0
SEQEND
  5
24A
330
246
100
AcDbEntity
  8
1
  6
CONTINUOUS
 62
   252
  0
POLYLINE
  5
24B
330
1F
100
AcDbEntity
  8
1
  6
CONTINUOUS
 62
   252
100
AcDb2dPolyline
 66
     1
 10
0.0
 20
0.0
 30
0.0
  0
VERTEX
  5
24C
330
24B
100
AcDbEntity
  8
1
  6
CONTINUOUS
 62
   252
100
AcDbVertex
100
AcDb2dVertex
 10
-127.0
 20
-136.5
 30
0.0
  0
VERTEX
  5
24D
330
24B
100
AcDbEntity
  8
1
  6
CONTINUOUS
 62
   252
100
AcDbVertex
100
AcDb2dVertex
 10
-120.125
 20
-136.5
 30
0.0
  0
VERTEX
  5
24E
330
24B
100
AcDbEntity
  8
1
  6
CONTINUOUS
 62
   252
100
AcDbVertex
100
AcDb2dVertex
 10
-118.961382
 20
-136.378501
 30
0.0
  0
VERTEX
  5
24F
330
24B
100
AcDbEntity
  8
1
  6
CONTINUOUS
 62
   252
100
AcDbVertex
100
AcDb2dVertex
 10
-117.827786
 20
-135.941001
 30
0.0
  0
VERTEX
  5
250
330
24B
100
AcDbEntity
  8
1
  6
CONTINUOUS
 62
   252
100
AcDbVertex
100
AcDb2dVertex
 10
-116.850236
 20
-135.213874
 30
0.0
  0
VERTEX
  5
251
330
24B
100
AcDbEntity
  8
1
  6
CONTINUOUS
 62
   252
100
AcDbVertex
100
AcDb2dVertex
 10
-116.123912
 20
-134.286032
 30
0.0
  0
VERTEX
  5
252
330
24B
100
AcDbEntity
  8
1
  6
CONTINUOUS
 62
   252
100
AcDbVertex
100
AcDb2dVertex
 10
-115.664518
 20
-133.205651
 30
0.0
  0
VERTEX
  5
253
330
24B
100
AcDbEntity
  8
1
  6
CONTINUOUS
 62
   252
100
AcDbVertex
100
AcDb2dVertex
 10
-115.5
 20
-132.0
 30
0.0
  0
VERTEX
  5
254
330
24B
100
AcDbEntity
  8
1
  6
CONTINUOUS
 62
   252
100
AcDbVertex
100
AcDb2dVertex
 10
-115.664518
 20
-130.794349
 30
0.0
  0
VERTEX
  5
255
330
24B
100
AcDbEntity
  8
1
  6
CONTINUOUS
 62
   252
100
AcDbVertex
100
AcDb2dVertex
 10
-116.123912
 20
-129.713968
 30
0.0
  0
VERTEX
  5
256
330
24B
100
AcDbEntity
  8
1
  6
CONTINUOUS
 62
   252
100
AcDbVertex
100
AcDb2dVertex
 10
-116.850236
 20
-128.786126
 30
0.0
  0
VERTEX
  5
257
330
24B
100
AcDbEntity
  8
1
  6
CONTINUOUS
 62
   252
100
AcDbVertex
100
AcDb2dVertex
 10
-117.827786
 20
-128.058999
 30
0.0
  0
VERTEX
  5
258
330
24B
100
AcDbEntity
  8
1
  6
CONTINUOUS
 62
   252
100
AcDbVertex
100
AcDb2dVertex
 10
-118.961382
 20
-127.621499
 30
0.0
  0
VERTEX
  5
259
330
24B
100
AcDbEntity
  8
1
  6
CONTINUOUS
 62
   252
100
AcDbVertex
100
AcDb2dVertex
 10
-120.125
 20
-127.5
 30
0.0
  0
VERTEX
  5
25A
330
24B
100
AcDbEntity
  8
1
  6
CONTINUOUS
 62
   252
100
AcDbVertex
100
AcDb2dVertex
 10
-127.0
 20
-127.5
 30
0.0
  0
SEQEND
  5
25B
330
24B
100
AcDbEntity
  8
1
  6
CONTINUOUS
 62
   252
  0
POLYLINE
  5
25C
330
1F
100
AcDbEntity
  8
1
  6
CONTINUOUS
 62
   252
100
AcDb2dPolyline
 66
     1
 10
0.0
 20
0.0
 30
0.0
  0
VERTEX
  5
25D
330
25C
100
AcDbEntity
  8
1
  6
CONTINUOUS
 62
   252
100
AcDbVertex
100
AcDb2dVertex
 10
127.0
 20
56.5
 30
0.0
  0
VERTEX
  5
25E
330
25C
100
AcDbEntity
  8
1
  6
CONTINUOUS
 62
   252
100
AcDbVertex
100
AcDb2dVertex
 10
127.0
 20
-10.7
 30
0.0
  0
VERTEX
  5
25F
330
25C
100
AcDbEntity
  8
1
  6
CONTINUOUS
 62
   252
100
AcDbVertex
100
AcDb2dVertex
 10
127.0
 20
-63.5
 30
0.0
  0
SEQEND
  5
260
330
25C
100
AcDbEntity
  8
1
  6
CONTINUOUS
 62
   252
  0
POLYLINE
  5
261
330
1F
100
AcDbEntity
  8
1
  6
CONTINUOUS
 62
   252
100
AcDb2dPolyline
 66
     1
 10
0.0
 20
0.0
 30
0.0
  0
VERTEX
  5
262
330
261
100
AcDbEntity
  8
1
  6
CONTINUOUS
 62
   252
100
AcDbVertex
100
AcDb2dVertex
 10
115.5
 20
61.0
 30
0.0
  0
VERTEX
  5
263
330
261
100
AcDbEntity
  8
1
  6
CONTINUOUS
 62
   252
100
AcDbVertex
100
AcDb2dVertex
 10
115.6276
 20
59.935989
 30
0.0
  0
VERTEX
  5
264
330
261
100
AcDbEntity
  8
1
  6
CONTINUOUS
 62
   252
100
AcDbVertex
100
AcDb2dVertex
 10
116.03895
 20
58.864564
 30
0.0
  0
VERTEX
  5
265
330
261
100
AcDbEntity
  8
1
  6
CONTINUOUS
 62
   252
100
AcDbVertex
100
AcDb2dVertex
 10
116.73847
 20
57.899609
 30
0.0
  0
VERTEX
  5
266
330
261
100
AcDbEntity
  8
1
  6
CONTINUOUS
 62
   252
100
AcDbVertex
100
AcDb2dVertex
 10
117.670205
 20
57.150058
 30
0.0
  0
VERTEX
  5
267
330
261
100
AcDbEntity
  8
1
  6
CONTINUOUS
 62
   252
100
AcDbVertex
100
AcDb2dVertex
 10
118.730612
 20
56.682749
 30
0.0
  0
VERTEX
  5
268
330
261
100
AcDbEntity
  8
1
  6
CONTINUOUS
 62
   252
100
AcDbVertex
100
AcDb2dVertex
 10
119.803792
 20
56.50428
 30
0.0
  0
VERTEX
  5
269
330
261
100
AcDbEntity
  8
1
  6
CONTINUOUS
 62
   252
100
AcDbVertex
100
AcDb2dVertex
 10
121.579058
 20
56.5
 30
0.0
  0
VERTEX
  5
26A
330
261
100
AcDbEntity
  8
1
  6
CONTINUOUS
 62
   252
100
AcDbVertex
100
AcDb2dVertex
 10
123.386039
 20
56.5
 30
0.0
  0
VERTEX
  5
26B
330
261
100
AcDbEntity
  8
1
  6
CONTINUOUS
 62
   252
100
AcDbVertex
100
AcDb2dVertex
 10
125.193019
 20
56.5
 30
0.0
  0
VERTEX
  5
26C
330
261
100
AcDbEntity
  8
1
  6
CONTINUOUS
 62
   252
100
AcDbVertex
100
AcDb2dVertex
 10
127.0
 20
56.5
 30
0.0
  0
SEQEND
  5
26D
330
261
100
AcDbEntity
  8
1
  6
CONTINUOUS
 62
   252
  0
POLYLINE
  5
26E
330
1F
100
AcDbEntity
  8
1
  6
CONTINUOUS
 62
   252
100
AcDb2dPolyline
 66
     1
 10
0.0
 20
0.0
 30
0.0
  0
VERTEX
  5
26F
330
26E
100
AcDbEntity
  8
1
  6
CONTINUOUS
 62
   252
100
AcDbVertex
100
AcDb2dVertex
 10
-17.0
 20
-164.0
 30
0.0
  0
VERTEX
  5
270
330
26E
100
AcDbEntity
  8
1
  6
CONTINUOUS
 62
   252
100
AcDbVertex
100
AcDb2dVertex
 10
-78.6
 20
-164.0
 30
0.0
  0
VERTEX
  5
271
330
26E
100
AcDbEntity
  8
1
  6
CONTINUOUS
 62
   252
100
AcDbVertex
100
AcDb2dVertex
 10
-127.0
 20
-164.0
 30
0.0
  0
SEQEND
  5
272
330
26E
100
AcDbEntity
  8
1
  6
CONTINUOUS
 62
   252
  0
POLYLINE
  5
273
330
1F
100
AcDbEntity
  8
1
  6
CONTINUOUS
 62
   252
100
AcDb2dPolyline
 66
     1
 10
0.0
 20
0.0
 30
0.0
  0
VERTEX
  5
274
330
273
100
AcDbEntity
  8
1
  6
CONTINUOUS
 62
   252
100
AcDbVertex
100
AcDb2dVertex
 10
-127.0
 20
-72.5
 30
0.0
  0
VERTEX
  5
275
330
273
100
AcDbEntity
  8
1
  6
CONTINUOUS
 62
   252
100
AcDbVertex
100
AcDb2dVertex
 10
-120.125
 20
-72.5
 30
0.0
  0
VERTEX
  5
276
330
273
100
AcDbEntity
  8
1
  6
CONTINUOUS
 62
   252
100
AcDbVertex
100
AcDb2dVertex
 10
-118.961382
 20
-72.378501
 30
0.0
  0
VERTEX
  5
277
330
273
100
AcDbEntity
  8
1
  6
CONTINUOUS
 62
   252
100
AcDbVertex
100
AcDb2dVertex
 10
-117.827786
 20
-71.941001
 30
0.0
  0
VERTEX
  5
278
330
273
100
AcDbEntity
  8
1
  6
CONTINUOUS
 62
   252
100
AcDbVertex
100
AcDb2dVertex
 10
-116.850236
 20
-71.213874
 30
0.0
  0
VERTEX
  5
279
330
273
100
AcDbEntity
  8
1
  6
CONTINUOUS
 62
   252
100
AcDbVertex
100
AcDb2dVertex
 10
-116.123912
 20
-70.286032
 30
0.0
  0
VERTEX
  5
27A
330
273
100
AcDbEntity
  8
1
  6
CONTINUOUS
 62
   252
100
AcDbVertex
100
AcDb2dVertex
 10
-115.664518
 20
-69.205651
 30
0.0
  0
VERTEX
  5
27B
330
273
100
AcDbEntity
  8
1
  6
CONTINUOUS
 62
   252
100
AcDbVertex
100
AcDb2dVertex
 10
-115.5
 20
-68.0
 30
0.0
  0
VERTEX
  5
27C
330
273
100
AcDbEntity
  8
1
  6
CONTINUOUS
 62
   252
100
AcDbVertex
100
AcDb2dVertex
 10
-115.664518
 20
-66.794349
 30
0.0
  0
VERTEX
  5
27D
330
273
100
AcDbEntity
  8
1
  6
CONTINUOUS
 62
   252
100
AcDbVertex
100
AcDb2dVertex
 10
-116.123912
 20
-65.713968
 30
0.0
  0
VERTEX
  5
27E
330
273
100
AcDbEntity
  8
1
  6
CONTINUOUS
 62
   252
100
AcDbVertex
100
AcDb2dVertex
 10
-116.850236
 20
-64.786126
 30
0.0
  0
VERTEX
  5
27F
330
273
100
AcDbEntity
  8
1
  6
CONTINUOUS
 62
   252
100
AcDbVertex
100
AcDb2dVertex
 10
-117.827786
 20
-64.058999
 30
0.0
  0
VERTEX
  5
280
330
273
100
AcDbEntity
  8
1
  6
CONTINUOUS
 62
   252
100
AcDbVertex
100
AcDb2dVertex
 10
-118.961382
 20
-63.621499
 30
0.0
  0
VERTEX
  5
281
330
273
100
AcDbEntity
  8
1
  6
CONTINUOUS
 62
   252
100
AcDbVertex
100
AcDb2dVertex
 10
-120.125
 20
-63.5
 30
0.0
  0
VERTEX
  5
282
330
273
100
AcDbEntity
  8
1
  6
CONTINUOUS
 62
   252
100
AcDbVertex
100
AcDb2dVertex
 10
-127.0
 20
-63.5
 30
0.0
  0
SEQEND
  5
283
330
273
100
AcDbEntity
  8
1
  6
CONTINUOUS
 62
   252
  0
POLYLINE
  5
284
330
1F
100
AcDbEntity
  8
1
  6
CONTINUOUS
 62
   252
100
AcDb2dPolyline
 66
     1
 10
0.0
 20
0.0
 30
0.0
  0
VERTEX
  5
285
330
284
100
AcDbEntity
  8
1
  6
CONTINUOUS
 62
   252
100
AcDbVertex
100
AcDb2dVertex
 10
-127.0
 20
-164.0
 30
0.0
  0
VERTEX
  5
286
330
284
100
AcDbEntity
  8
1
  6
CONTINUOUS
 62
   252
100
AcDbVertex
100
AcDb2dVertex
 10
-127.0
 20
-148.6
 30
0.0
  0
VERTEX
  5
287
330
284
100
AcDbEntity
  8
1
  6
CONTINUOUS
 62
   252
100
AcDbVertex
100
AcDb2dVertex
 10
-127.0
 20
-136.5
 30
0.0
  0
SEQEND
  5
288
330
284
100
AcDbEntity
  8
1
  6
CONTINUOUS
 62
   252
  0
POLYLINE
  5
289
330
1F
100
AcDbEntity
  8
1
  6
CONTINUOUS
 62
   252
100
AcDb2dPolyline
 66
     1
 10
0.0
 20
0.0
 30
0.0
  0
VERTEX
  5
28A
330
289
100
AcDbEntity
  8
1
  6
CONTINUOUS
 62
   252
100
AcDbVertex
100
AcDb2dVertex
 10
17.0
 20
-164.0
 30
0.0
  0
VERTEX
  5
28B
330
289
100
AcDbEntity
  8
1
  6
CONTINUOUS
 62
   252
100
AcDbVertex
100
AcDb2dVertex
 10
16.801985
 20
-161.412859
 30
0.0
  0
VERTEX
  5
28C
330
289
100
AcDbEntity
  8
1
  6
CONTINUOUS
 62
   252
100
AcDbVertex
100
AcDb2dVertex
 10
16.189387
 20
-158.813119
 30
0.0
  0
VERTEX
  5
28D
330
289
100
AcDbEntity
  8
1
  6
CONTINUOUS
 62
   252
100
AcDbVertex
100
AcDb2dVertex
 10
15.156493
 20
-156.300603
 30
0.0
  0
VERTEX
  5
28E
330
289
100
AcDbEntity
  8
1
  6
CONTINUOUS
 62
   252
100
AcDbVertex
100
AcDb2dVertex
 10
13.729694
 20
-153.975255
 30
0.0
  0
VERTEX
  5
28F
330
289
100
AcDbEntity
  8
1
  6
CONTINUOUS
 62
   252
100
AcDbVertex
100
AcDb2dVertex
 10
11.965831
 20
-151.924451
 30
0.0
  0
VERTEX
  5
290
330
289
100
AcDbEntity
  8
1
  6
CONTINUOUS
 62
   252
100
AcDbVertex
100
AcDb2dVertex
 10
9.944862
 20
-150.212335
 30
0.0
  0
VERTEX
  5
291
330
289
100
AcDbEntity
  8
1
  6
CONTINUOUS
 62
   252
100
AcDbVertex
100
AcDb2dVertex
 10
7.748621
 20
-148.868613
 30
0.0
  0
VERTEX
  5
292
330
289
100
AcDbEntity
  8
1
  6
CONTINUOUS
 62
   252
100
AcDbVertex
100
AcDb2dVertex
 10
5.32844
 20
-147.856651
 30
0.0
  0
VERTEX
  5
293
330
289
100
AcDbEntity
  8
1
  6
CONTINUOUS
 62
   252
100
AcDbVertex
100
AcDb2dVertex
 10
2.715535
 20
-147.218288
 30
0.0
  0
VERTEX
  5
294
330
289
100
AcDbEntity
  8
1
  6
CONTINUOUS
 62
   252
100
AcDbVertex
100
AcDb2dVertex
 10
0.0
 20
-147.0
 30
0.0
  0
VERTEX
  5
295
330
289
100
AcDbEntity
  8
1
  6
CONTINUOUS
 62
   252
100
AcDbVertex
100
AcDb2dVertex
 10
-2.715535
 20
-147.218288
 30
0.0
  0
VERTEX
  5
296
330
289
100
AcDbEntity
  8
1
  6
CONTINUOUS
 62
   252
100
AcDbVertex
100
AcDb2dVertex
 10
-5.32844
 20
-147.856651
 30
0.0
  0
VERTEX
  5
297
330
289
100
AcDbEntity
  8
1
  6
CONTINUOUS
 62
   252
100
AcDbVertex
100
AcDb2dVertex
 10
-7.748621
 20
-148.868613
 30
0.0
  0
VERTEX
  5
298
330
289
100
AcDbEntity
  8
1
  6
CONTINUOUS
 62
   252
100
AcDbVertex
100
AcDb2dVertex
 10
-9.944862
 20
-150.212335
 30
0.0
  0
VERTEX
  5
299
330
289
100
AcDbEntity
  8
1
  6
CONTINUOUS
 62
   252
100
AcDbVertex
100
AcDb2dVertex
 10
-11.965831
 20
-151.924451
 30
0.0
  0
VERTEX
  5
29A
330
289
100
AcDbEntity
  8
1
  6
CONTINUOUS
 62
   252
100
AcDbVertex
100
AcDb2dVertex
 10
-13.729694
 20
-153.975255
 30
0.0
  0
VERTEX
  5
29B
330
289
100
AcDbEntity
  8
1
  6
CONTINUOUS
 62
   252
100
AcDbVertex
100
AcDb2dVertex
 10
-15.156493
 20
-156.300603
 30
0.0
  0
VERTEX
  5
29C
330
289
100
AcDbEntity
  8
1
  6
CONTINUOUS
 62
   252
100
AcDbVertex
100
AcDb2dVertex
 10
-16.189387
 20
-158.813119
 30
0.0
  0
VERTEX
  5
29D
330
289
100
AcDbEntity
  8
1
  6
CONTINUOUS
 62
   252
100
AcDbVertex
100
AcDb2dVertex
 10
-16.801985
 20
-161.412859
 30
0.0
  0
VERTEX
  5
29E
330
289
100
AcDbEntity
  8
1
  6
CONTINUOUS
 62
   252
100
AcDbVertex
100
AcDb2dVertex
 10
-17.0
 20
-164.0
 30
0.0
  0
SEQEND
  5
29F
330
289
100
AcDbEntity
  8
1
  6
CONTINUOUS
 62
   252
  0
POLYLINE
  5
2A0
330
1F
100
AcDbEntity
  8
1
  6
CONTINUOUS
 62
   252
100
AcDb2dPolyline
 66
     1
 10
0.0
 20
0.0
 30
0.0
  0
VERTEX
  5
2A1
330
2A0
100
AcDbEntity
  8
1
  6
CONTINUOUS
 62
   252
100
AcDbVertex
100
AcDb2dVertex
 10
-127.0
 20
-127.5
 30
0.0
  0
VERTEX
  5
2A2
330
2A0
100
AcDbEntity
  8
1
  6
CONTINUOUS
 62
   252
100
AcDbVertex
100
AcDb2dVertex
 10
-127.0
 20
-96.7
 30
0.0
  0
VERTEX
  5
2A3
330
2A0
100
AcDbEntity
  8
1
  6
CONTINUOUS
 62
   252
100
AcDbVertex
100
AcDb2dVertex
 10
-127.0
 20
-72.5
 30
0.0
  0
SEQEND
  5
2A4
330
2A0
100
AcDbEntity
  8
1
  6
CONTINUOUS
 62
   252
  0
POLYLINE
  5
2A5
330
1F
100
AcDbEntity
  8
1
  6
CONTINUOUS
 62
   252
100
AcDb2dPolyline
 66
     1
 10
0.0
 20
0.0
 30
0.0
  0
VERTEX
  5
2A6
330
2A5
100
AcDbEntity
  8
1
  6
CONTINUOUS
 62
   252
100
AcDbVertex
100
AcDb2dVertex
 10
17.0
 20
-164.0
 30
0.0
  0
VERTEX
  5
2A7
330
2A5
100
AcDbEntity
  8
1
  6
CONTINUOUS
 62
   252
100
AcDbVertex
100
AcDb2dVertex
 10
16.801985
 20
-161.412859
 30
0.0
  0
VERTEX
  5
2A8
330
2A5
100
AcDbEntity
  8
1
  6
CONTINUOUS
 62
   252
100
AcDbVertex
100
AcDb2dVertex
 10
16.189387
 20
-158.813119
 30
0.0
  0
VERTEX
  5
2A9
330
2A5
100
AcDbEntity
  8
1
  6
CONTINUOUS
 62
   252
100
AcDbVertex
100
AcDb2dVertex
 10
15.156493
 20
-156.300603
 30
0.0
  0
VERTEX
  5
2AA
330
2A5
100
AcDbEntity
  8
1
  6
CONTINUOUS
 62
   252
100
AcDbVertex
100
AcDb2dVertex
 10
13.729694
 20
-153.975255
 30
0.0
  0
VERTEX
  5
2AB
330
2A5
100
AcDbEntity
  8
1
  6
CONTINUOUS
 62
   252
100
AcDbVertex
100
AcDb2dVertex
 10
11.965831
 20
-151.924451
 30
0.0
  0
VERTEX
  5
2AC
330
2A5
100
AcDbEntity
  8
1
  6
CONTINUOUS
 62
   252
100
AcDbVertex
100
AcDb2dVertex
 10
9.944862
 20
-150.212335
 30
0.0
  0
VERTEX
  5
2AD
330
2A5
100
AcDbEntity
  8
1
  6
CONTINUOUS
 62
   252
100
AcDbVertex
100
AcDb2dVertex
 10
7.748621
 20
-148.868613
 30
0.0
  0
VERTEX
  5
2AE
330
2A5
100
AcDbEntity
  8
1
  6
CONTINUOUS
 62
   252
100
AcDbVertex
100
AcDb2dVertex
 10
5.32844
 20
-147.856651
 30
0.0
  0
VERTEX
  5
2AF
330
2A5
100
AcDbEntity
  8
1
  6
CONTINUOUS
 62
   252
100
AcDbVertex
100
AcDb2dVertex
 10
2.715535
 20
-147.218288
 30
0.0
  0
VERTEX
  5
2B0
330
2A5
100
AcDbEntity
  8
1
  6
CONTINUOUS
 62
   252
100
AcDbVertex
100
AcDb2dVertex
 10
0.0
 20
-147.0
 30
0.0
  0
VERTEX
  5
2B1
330
2A5
100
AcDbEntity
  8
1
  6
CONTINUOUS
 62
   252
100
AcDbVertex
100
AcDb2dVertex
 10
-2.715535
 20
-147.218288
 30
0.0
  0
VERTEX
  5
2B2
330
2A5
100
AcDbEntity
  8
1
  6
CONTINUOUS
 62
   252
100
AcDbVertex
100
AcDb2dVertex
 10
-5.32844
 20
-147.856651
 30
0.0
  0
VERTEX
  5
2B3
330
2A5
100
AcDbEntity
  8
1
  6
CONTINUOUS
 62
   252
100
AcDbVertex
100
AcDb2dVertex
 10
-7.748621
 20
-148.868613
 30
0.0
  0
VERTEX
  5
2B4
330
2A5
100
AcDbEntity
  8
1
  6
CONTINUOUS
 62
   252
100
AcDbVertex
100
AcDb2dVertex
 10
-9.944862
 20
-150.212335
 30
0.0
  0
VERTEX
  5
2B5
330
2A5
100
AcDbEntity
  8
1
  6
CONTINUOUS
 62
   252
100
AcDbVertex
100
AcDb2dVertex
 10
-11.965831
 20
-151.924451
 30
0.0
  0
VERTEX
  5
2B6
330
2A5
100
AcDbEntity
  8
1
  6
CONTINUOUS
 62
   252
100
AcDbVertex
100
AcDb2dVertex
 10
-13.729694
 20
-153.975255
 30
0.0
  0
VERTEX
  5
2B7
330
2A5
100
AcDbEntity
  8
1
  6
CONTINUOUS
 62
   252
100
AcDbVertex
100
AcDb2dVertex
 10
-15.156493
 20
-156.300603
 30
0.0
  0
VERTEX
  5
2B8
330
2A5
100
AcDbEntity
  8
1
  6
CONTINUOUS
 62
   252
100
AcDbVertex
100
AcDb2dVertex
 10
-16.189387
 20
-158.813119
 30
0.0
  0
VERTEX
  5
2B9
330
2A5
100
AcDbEntity
  8
1
  6
CONTINUOUS
 62
   252
100
AcDbVertex
100
AcDb2dVertex
 10
-16.801985
 20
-161.412859
 30
0.0
  0
VERTEX
  5
2BA
330
2A5
100
AcDbEntity
  8
1
  6
CONTINUOUS
 62
   252
100
AcDbVertex
100
AcDb2dVertex
 10
-17.0
 20
-164.0
 30
0.0
  0
SEQEND
  5
2BB
330
2A5
100
AcDbEntity
  8
1
  6
CONTINUOUS
 62
   252
  0
POLYLINE
  5
2BC
330
1F
100
AcDbEntity
  8
1
  6
CONTINUOUS
 62
   252
100
AcDb2dPolyline
 66
     1
 10
0.0
 20
0.0
 30
0.0
  0
VERTEX
  5
2BD
330
2BC
100
AcDbEntity
  8
1
  6
CONTINUOUS
 62
   252
100
AcDbVertex
100
AcDb2dVertex
 10
115.5
 20
68.0
 30
0.0
  0
VERTEX
  5
2BE
330
2BC
100
AcDbEntity
  8
1
  6
CONTINUOUS
 62
   252
100
AcDbVertex
100
AcDb2dVertex
 10
115.5
 20
64.08
 30
0.0
  0
VERTEX
  5
2BF
330
2BC
100
AcDbEntity
  8
1
  6
CONTINUOUS
 62
   252
100
AcDbVertex
100
AcDb2dVertex
 10
115.5
 20
61.0
 30
0.0
  0
SEQEND
  5
2C0
330
2BC
100
AcDbEntity
  8
1
  6
CONTINUOUS
 62
   252
  0
POLYLINE
  5
2C1
330
1F
100
AcDbEntity
  8
1
  6
CONTINUOUS
 62
   252
100
AcDb2dPolyline
 66
     1
 10
0.0
 20
0.0
 30
0.0
  0
VERTEX
  5
2C2
330
2C1
100
AcDbEntity
  8
1
  6
CONTINUOUS
 62
   252
100
AcDbVertex
100
AcDb2dVertex
 10
-127.0
 20
-164.0
 30
0.0
  0
VERTEX
  5
2C3
330
2C1
100
AcDbEntity
  8
1
  6
CONTINUOUS
 62
   252
100
AcDbVertex
100
AcDb2dVertex
 10
-127.0
 20
-148.6
 30
0.0
  0
VERTEX
  5
2C4
330
2C1
100
AcDbEntity
  8
1
  6
CONTINUOUS
 62
   252
100
AcDbVertex
100
AcDb2dVertex
 10
-127.0
 20
-136.5
 30
0.0
  0
SEQEND
  5
2C5
330
2C1
100
AcDbEntity
  8
1
  6
CONTINUOUS
 62
   252
  0
POLYLINE
  5
2C6
330
1F
100
AcDbEntity
  8
1
  6
CONTINUOUS
 62
   252
100
AcDb2dPolyline
 66
     1
 10
0.0
 20
0.0
 30
0.0
  0
VERTEX
  5
2C7
330
2C6
100
AcDbEntity
  8
1
  6
CONTINUOUS
 62
   252
100
AcDbVertex
100
AcDb2dVertex
 10
127.0
 20
-164.0
 30
0.0
  0
VERTEX
  5
2C8
330
2C6
100
AcDbEntity
  8
1
  6
CONTINUOUS
 62
   252
100
AcDbVertex
100
AcDb2dVertex
 10
65.4
 20
-164.0
 30
0.0
  0
VERTEX
  5
2C9
330
2C6
100
AcDbEntity
  8
1
  6
CONTINUOUS
 62
   252
100
AcDbVertex
100
AcDb2dVertex
 10
17.0
 20
-164.0
 30
0.0
  0
SEQEND
  5
2CA
330
2C6
100
AcDbEntity
  8
1
  6
CONTINUOUS
 62
   252
  0
POLYLINE
  5
2CB
330
1F
100
AcDbEntity
  8
1
  6
CONTINUOUS
 62
   252
100
AcDb2dPolyline
 66
     1
 10
0.0
 20
0.0
 30
0.0
  0
VERTEX
  5
2CC
330
2CB
100
AcDbEntity
  8
1
  6
CONTINUOUS
 62
   252
100
AcDbVertex
100
AcDb2dVertex
 10
-115.5
 20
68.0
 30
0.0
  0
VERTEX
  5
2CD
330
2CB
100
AcDbEntity
  8
1
  6
CONTINUOUS
 62
   252
100
AcDbVertex
100
AcDb2dVertex
 10
13.86
 20
68.0
 30
0.0
  0
VERTEX
  5
2CE
330
2CB
100
AcDbEntity
  8
1
  6
CONTINUOUS
 62
   252
100
AcDbVertex
100
AcDb2dVertex
 10
115.5
 20
68.0
 30
0.0
  0
SEQEND
  5
2CF
330
2CB
100
AcDbEntity
  8
1
  6
CONTINUOUS
 62
   252
  0
POLYLINE
  5
2D0
330
1F
100
AcDbEntity
  8
1
  6
CONTINUOUS
 62
   252
100
AcDb2dPolyline
 66
     1
 10
0.0
 20
0.0
 30
0.0
  0
VERTEX
  5
2D1
330
2D0
100
AcDbEntity
  8
1
  6
CONTINUOUS
 62
   252
100
AcDbVertex
100
AcDb2dVertex
 10
115.5
 20
61.0
 30
0.0
  0
VERTEX
  5
2D2
330
2D0
100
AcDbEntity
  8
1
  6
CONTINUOUS
 62
   252
100
AcDbVertex
100
AcDb2dVertex
 10
115.6276
 20
59.935989
 30
0.0
  0
VERTEX
  5
2D3
330
2D0
100
AcDbEntity
  8
1
  6
CONTINUOUS
 62
   252
100
AcDbVertex
100
AcDb2dVertex
 10
116.03895
 20
58.864564
 30
0.0
  0
VERTEX
  5
2D4
330
2D0
100
AcDbEntity
  8
1
  6
CONTINUOUS
 62
   252
100
AcDbVertex
100
AcDb2dVertex
 10
116.73847
 20
57.899609
 30
0.0
  0
VERTEX
  5
2D5
330
2D0
100
AcDbEntity
  8
1
  6
CONTINUOUS
 62
   252
100
AcDbVertex
100
AcDb2dVertex
 10
117.670205
 20
57.150058
 30
0.0
  0
VERTEX
  5
2D6
330
2D0
100
AcDbEntity
  8
1
  6
CONTINUOUS
 62
   252
100
AcDbVertex
100
AcDb2dVertex
 10
118.730612
 20
56.682749
 30
0.0
  0
VERTEX
  5
2D7
330
2D0
100
AcDbEntity
  8
1
  6
CONTINUOUS
 62
   252
100
AcDbVertex
100
AcDb2dVertex
 10
119.803792
 20
56.50428
 30
0.0
  0
VERTEX
  5
2D8
330
2D0
100
AcDbEntity
  8
1
  6
CONTINUOUS
 62
   252
100
AcDbVertex
100
AcDb2dVertex
 10
121.579058
 20
56.5
 30
0.0
  0
VERTEX
  5
2D9
330
2D0
100
AcDbEntity
  8
1
  6
CONTINUOUS
 62
   252
100
AcDbVertex
100
AcDb2dVertex
 10
123.386039
 20
56.5
 30
0.0
  0
VERTEX
  5
2DA
330
2D0
100
AcDbEntity
  8
1
  6
CONTINUOUS
 62
   252
100
AcDbVertex
100
AcDb2dVertex
 10
125.193019
 20
56.5
 30
0.0
  0
VERTEX
  5
2DB
330
2D0
100
AcDbEntity
  8
1
  6
CONTINUOUS
 62
   252
100
AcDbVertex
100
AcDb2dVertex
 10
127.0
 20
56.5
 30
0.0
  0
SEQEND
  5
2DC
330
2D0
100
AcDbEntity
  8
1
  6
CONTINUOUS
 62
   252
  0
POLYLINE
  5
2DD
330
1F
100
AcDbEntity
  8
1
  6
CONTINUOUS
 62
   252
100
AcDb2dPolyline
 66
     1
 10
0.0
 20
0.0
 30
0.0
  0
VERTEX
  5
2DE
330
2DD
100
AcDbEntity
  8
1
  6
CONTINUOUS
 62
   252
100
AcDbVertex
100
AcDb2dVertex
 10
127.0
 20
-63.5
 30
0.0
  0
VERTEX
  5
2DF
330
2DD
100
AcDbEntity
  8
1
  6
CONTINUOUS
 62
   252
100
AcDbVertex
100
AcDb2dVertex
 10
120.125
 20
-63.5
 30
0.0
  0
VERTEX
  5
2E0
330
2DD
100
AcDbEntity
  8
1
  6
CONTINUOUS
 62
   252
100
AcDbVertex
100
AcDb2dVertex
 10
118.961382
 20
-63.621499
 30
0.0
  0
VERTEX
  5
2E1
330
2DD
100
AcDbEntity
  8
1
  6
CONTINUOUS
 62
   252
100
AcDbVertex
100
AcDb2dVertex
 10
117.827786
 20
-64.058999
 30
0.0
  0
VERTEX
  5
2E2
330
2DD
100
AcDbEntity
  8
1
  6
CONTINUOUS
 62
   252
100
AcDbVertex
100
AcDb2dVertex
 10
116.850236
 20
-64.786126
 30
0.0
  0
VERTEX
  5
2E3
330
2DD
100
AcDbEntity
  8
1
  6
CONTINUOUS
 62
   252
100
AcDbVertex
100
AcDb2dVertex
 10
116.123912
 20
-65.713968
 30
0.0
  0
VERTEX
  5
2E4
330
2DD
100
AcDbEntity
  8
1
  6
CONTINUOUS
 62
   252
100
AcDbVertex
100
AcDb2dVertex
 10
115.664518
 20
-66.794349
 30
0.0
  0
VERTEX
  5
2E5
330
2DD
100
AcDbEntity
  8
1
  6
CONTINUOUS
 62
   252
100
AcDbVertex
100
AcDb2dVertex
 10
115.5
 20
-68.0
 30
0.0
  0
VERTEX
  5
2E6
330
2DD
100
AcDbEntity
  8
1
  6
CONTINUOUS
 62
   252
100
AcDbVertex
100
AcDb2dVertex
 10
115.664518
 20
-69.205651
 30
0.0
  0
VERTEX
  5
2E7
330
2DD
100
AcDbEntity
  8
1
  6
CONTINUOUS
 62
   252
100
AcDbVertex
100
AcDb2dVertex
 10
116.123912
 20
-70.286032
 30
0.0
  0
VERTEX
  5
2E8
330
2DD
100
AcDbEntity
  8
1
  6
CONTINUOUS
 62
   252
100
AcDbVertex
100
AcDb2dVertex
 10
116.850236
 20
-71.213874
 30
0.0
  0
VERTEX
  5
2E9
330
2DD
100
AcDbEntity
  8
1
  6
CONTINUOUS
 62
   252
100
AcDbVertex
100
AcDb2dVertex
 10
117.827786
 20
-71.941001
 30
0.0
  0
VERTEX
  5
2EA
330
2DD
100
AcDbEntity
  8
1
  6
CONTINUOUS
 62
   252
100
AcDbVertex
100
AcDb2dVertex
 10
118.961382
 20
-72.378501
 30
0.0
  0
VERTEX
  5
2EB
330
2DD
100
AcDbEntity
  8
1
  6
CONTINUOUS
 62
   252
100
AcDbVertex
100
AcDb2dVertex
 10
120.125
 20
-72.5
 30
0.0
  0
VERTEX
  5
2EC
330
2DD
100
AcDbEntity
  8
1
  6
CONTINUOUS
 62
   252
100
AcDbVertex
100
AcDb2dVertex
 10
127.0
 20
-72.5
 30
0.0
  0
SEQEND
  5
2ED
330
2DD
100
AcDbEntity
  8
1
  6
CONTINUOUS
 62
   252
  0
ENDSEC
  0
SECTION
  2
OBJECTS
  0
DICTIONARY
  5
C
330
0
100
AcDbDictionary
  3
ACAD_GROUP
350
D
  3
ACAD_IMAGE_VARS
350
5E
  3
ACAD_LAYOUT
350
1A
  3
ACAD_MATERIAL
350
43
  3
ACAD_MLEADERSTYLE
350
5B
  3
ACAD_MLINESTYLE
350
17
  3
ACAD_PLOTSETTINGS
350
19
  3
ACAD_SCALELIST
350
47
  3
ACAD_VISUALSTYLE
350
2A
  3
ACDBHEADERROUNDTRIPXREC
350
305
  3
ACDBVARIABLEDICTIONARY
350
326
  3
DWGPROPS
350
32D
  0
DICTIONARY
  5
32E
330
8
100
AcDbDictionary
280
     1
  3
ACAD_XREC_ROUNDTRIP
360
32F
  0
DICTIONARY
  5
D
102
{ACAD_REACTORS
330
C
102
}
330
C
100
AcDbDictionary
  0
RASTERVARIABLES
  5
5E
102
{ACAD_REACTORS
330
C
102
}
330
C
100
AcDbRasterVariables
 90
        0
 70
     0
 71
     1
 72
     1
  0
DICTIONARY
  5
1A
102
{ACAD_REACTORS
330
C
102
}
330
C
100
AcDbDictionary
  0
DICTIONARY
  5
43
102
{ACAD_REACTORS
330
C
102
}
330
C
100
AcDbDictionary
  3
BYBLOCK
350
45
  3
BYLAYER
350
44
  3
GLOBAL
350
46
  0
DICTIONARY
  5
5B
102
{ACAD_REACTORS
330
C
102
}
330
C
100
AcDbDictionary
  3
STANDARD
350
5C
  0
DICTIONARY
  5
17
102
{ACAD_REACTORS
330
C
102
}
330
C
100
AcDbDictionary
  3
STANDARD
350
18
  0
DICTIONARY
  5
19
102
{ACAD_REACTORS
330
C
102
}
330
C
100
AcDbDictionary
  0
DICTIONARY
  5
47
102
{ACAD_REACTORS
330
C
102
}
330
C
100
AcDbDictionary
  3
A0
350
48
  3
A1
350
49
  3
A2
350
4A
  3
A3
350
4B
  3
A4
350
4C
  3
A5
350
4D
  3
A6
350
4E
  3
A7
350
4F
  3
A8
350
50
  3
A9
350
51
  3
B1
350
52
  3
B2
350
53
  3
B3
350
54
  3
B4
350
55
  3
B5
350
56
  3
B6
350
57
  3
B7
350
58
  0
DICTIONARY
  5
2A
102
{ACAD_REACTORS
330
C
102
}
330
C
100
AcDbDictionary
  3
2DWIREFRAME
350
2F
  3
BASIC
350
32
  3
BRIGHTEN
350
36
  3
COLORCHANGE
350
3A
  3
CONCEPTUAL
350
34
  3
DIM
350
35
  3
EDGECOLOROFF
350
3D
  3
FACEPATTERN
350
39
  3
FLAT
350
2B
  3
FLATWITHEDGES
350
2C
  3
GOURAUD
350
2D
  3
GOURAUDWITHEDGES
350
2E
  3
HIDDEN
350
31
  3
JITTEROFF
350
3B
  3
LINEPATTERN
350
38
  3
OVERHANGOFF
350
3C
  3
REALISTIC
350
33
  3
SHADED
350
42
  3
SHADED_WITH_EDGES
350
41
  3
SHADES_OF_GRAY
350
3E
  3
SKETCHY
350
3F
  3
THICKEN
350
37
  3
WIREFRAME
350
30
  3
X-RAY
350
40
  0
DICTIONARY
  5
305
102
{ACAD_REACTORS
330
C
102
}
330
C
100
AcDbDictionary
  3
CEPSNID
350
30F
  3
CEPSNTYPE
350
30E
  3
DIMSTYLEDATA
350
325
  3
FINGERPRINTGUID
350
310
  3
HYPERLINKBASE
350
308
  3
INSUNITS
350
30D
  3
LAYOUTDICT
350
30A
  3
LWETCUNION
350
30C
  3
PLOTSETDICT
350
30B
  3
PSVPSCALE
350
312
  3
PUCSBASE
350
315
  3
PUCSORGBACK
350
31B
  3
PUCSORGBOTTOM
350
317
  3
PUCSORGFRONT
350
31A
  3
PUCSORGLEFT
350
318
  3
PUCSORGRIGHT
350
319
  3
PUCSORGTOP
350
316
  3
PUCSORTHOREF
350
313
  3
PUCSORTHOVIEW
350
314
  3
STYLESHEET
350
309
  3
TSTACKALIGN
350
306
  3
TSTACKSIZE
350
307
  3
UCSBASE
350
31E
  3
UCSORGBACK
350
324
  3
UCSORGBOTTOM
350
320
  3
UCSORGFRONT
350
323
  3
UCSORGLEFT
350
321
  3
UCSORGRIGHT
350
322
  3
UCSORGTOP
350
31F
  3
UCSORTHOREF
350
31C
  3
UCSORTHOVIEW
350
31D
  3
VERSIONGUID
350
311
  0
DICTIONARY
  5
326
102
{ACAD_REACTORS
330
C
102
}
330
C
100
AcDbDictionary
  3
CANNOSCALE
350
330
  3
CMLEADERSTYLE
350
328
  3
CTABLESTYLE
350
327
  3
DIMASSOC
350
32B
  3
HIDETEXT
350
32C
  3
MSLTSCALE
350
331
  0
XRECORD
  5
32D
102
{ACAD_REACTORS
330
C
102
}
330
C
100
AcDbXrecord
  1
DWGPROPS COOKIE
  2

  3

  4

  6

  7

  8
lsorp
  9

300
=
301
=
302
=
303
=
304
=
305
=
306
=
307
=
308
=
309
=
 40
0.0
 41
2460594.770511
 42
2460594.770511
  1

 90
        0
  0
XRECORD
  5
32F
102
{ACAD_REACTORS
330
32E
102
}
330
32E
100
AcDbXrecord
102
VTR_0.000_0.000_1.000_1.000_VISUALSTYLE
340
2F
102
VTR_0.000_0.000_1.000_1.000_GRIDDISPLAY
 70
     3
102
VTR_0.000_0.000_1.000_1.000_GRIDMAJOR
 70
     5
102
VTR_0.000_0.000_1.000_1.000_DEFAULTLIGHTING
280
     1
102
VTR_0.000_0.000_1.000_1.000_DEFAULTLIGHTINGTYPE
 70
     1
102
VTR_0.000_0.000_1.000_1.000_BRIGHTNESS
141
0.0
102
VTR_0.000_0.000_1.000_1.000_CONTRAST
142
0.0
102
VTR_0.000_0.000_0.500_1.000_VISUALSTYLE
340
2F
102
VTR_0.000_0.000_0.500_1.000_GRIDDISPLAY
 70
     3
102
VTR_0.000_0.000_0.500_1.000_GRIDMAJOR
 70
     5
102
VTR_0.000_0.000_0.500_1.000_DEFAULTLIGHTING
280
     1
102
VTR_0.000_0.000_0.500_1.000_DEFAULTLIGHTINGTYPE
 70
     1
102
VTR_0.000_0.000_0.500_1.000_BRIGHTNESS
141
0.0
102
VTR_0.000_0.000_0.500_1.000_CONTRAST
142
0.0
102
VTR_0.500_0.000_1.000_1.000_VISUALSTYLE
340
2F
102
VTR_0.500_0.000_1.000_1.000_GRIDDISPLAY
 70
     3
102
VTR_0.500_0.000_1.000_1.000_GRIDMAJOR
 70
     5
102
VTR_0.500_0.000_1.000_1.000_DEFAULTLIGHTING
280
     1
102
VTR_0.500_0.000_1.000_1.000_DEFAULTLIGHTINGTYPE
 70
     1
102
VTR_0.500_0.000_1.000_1.000_BRIGHTNESS
141
0.0
102
VTR_0.500_0.000_1.000_1.000_CONTRAST
142
0.0
102
VTR_0.000_0.500_1.000_1.000_VISUALSTYLE
340
2F
102
VTR_0.000_0.500_1.000_1.000_GRIDDISPLAY
 70
     3
102
VTR_0.000_0.500_1.000_1.000_GRIDMAJOR
 70
     5
102
VTR_0.000_0.500_1.000_1.000_DEFAULTLIGHTING
280
     1
102
VTR_0.000_0.500_1.000_1.000_DEFAULTLIGHTINGTYPE
 70
     1
102
VTR_0.000_0.500_1.000_1.000_BRIGHTNESS
141
0.0
102
VTR_0.000_0.500_1.000_1.000_CONTRAST
142
0.0
102
VTR_0.000_0.000_1.000_0.500_VISUALSTYLE
340
2F
102
VTR_0.000_0.000_1.000_0.500_GRIDDISPLAY
 70
     3
102
VTR_0.000_0.000_1.000_0.500_GRIDMAJOR
 70
     5
102
VTR_0.000_0.000_1.000_0.500_DEFAULTLIGHTING
280
     1
102
VTR_0.000_0.000_1.000_0.500_DEFAULTLIGHTINGTYPE
 70
     1
102
VTR_0.000_0.000_1.000_0.500_BRIGHTNESS
141
0.0
102
VTR_0.000_0.000_1.000_0.500_CONTRAST
142
0.0
102
VTR_0.000_0.500_0.500_1.000_VISUALSTYLE
340
2F
102
VTR_0.000_0.500_0.500_1.000_GRIDDISPLAY
 70
     3
102
VTR_0.000_0.500_0.500_1.000_GRIDMAJOR
 70
     5
102
VTR_0.000_0.500_0.500_1.000_DEFAULTLIGHTING
280
     1
102
VTR_0.000_0.500_0.500_1.000_DEFAULTLIGHTINGTYPE
 70
     1
102
VTR_0.000_0.500_0.500_1.000_BRIGHTNESS
141
0.0
102
VTR_0.000_0.500_0.500_1.000_CONTRAST
142
0.0
102
VTR_0.000_0.000_0.500_0.500_VISUALSTYLE
340
2F
102
VTR_0.000_0.000_0.500_0.500_GRIDDISPLAY
 70
     3
102
VTR_0.000_0.000_0.500_0.500_GRIDMAJOR
 70
     5
102
VTR_0.000_0.000_0.500_0.500_DEFAULTLIGHTING
280
     1
102
VTR_0.000_0.000_0.500_0.500_DEFAULTLIGHTINGTYPE
 70
     1
102
VTR_0.000_0.000_0.500_0.500_BRIGHTNESS
141
0.0
102
VTR_0.000_0.000_0.500_0.500_CONTRAST
142
0.0
102
VTR_0.500_0.000_1.000_0.500_VISUALSTYLE
340
2F
102
VTR_0.500_0.000_1.000_0.500_GRIDDISPLAY
 70
     3
102
VTR_0.500_0.000_1.000_0.500_GRIDMAJOR
 70
     5
102
VTR_0.500_0.000_1.000_0.500_DEFAULTLIGHTING
280
     1
102
VTR_0.500_0.000_1.000_0.500_DEFAULTLIGHTINGTYPE
 70
     1
102
VTR_0.500_0.000_1.000_0.500_BRIGHTNESS
141
0.0
102
VTR_0.500_0.000_1.000_0.500_CONTRAST
142
0.0
102
VTR_0.500_0.500_1.000_1.000_VISUALSTYLE
340
2F
102
VTR_0.500_0.500_1.000_1.000_GRIDDISPLAY
 70
     3
102
VTR_0.500_0.500_1.000_1.000_GRIDMAJOR
 70
     5
102
VTR_0.500_0.500_1.000_1.000_DEFAULTLIGHTING
280
     1
102
VTR_0.500_0.500_1.000_1.000_DEFAULTLIGHTINGTYPE
 70
     1
102
VTR_0.500_0.500_1.000_1.000_BRIGHTNESS
141
0.0
102
VTR_0.500_0.500_1.000_1.000_CONTRAST
142
0.0
102
VTR_0.000_0.500_0.333_1.000_VISUALSTYLE
340
2F
102
VTR_0.000_0.500_0.333_1.000_GRIDDISPLAY
 70
     3
102
VTR_0.000_0.500_0.333_1.000_GRIDMAJOR
 70
     5
102
VTR_0.000_0.500_0.333_1.000_DEFAULTLIGHTING
280
     1
102
VTR_0.000_0.500_0.333_1.000_DEFAULTLIGHTINGTYPE
 70
     1
102
VTR_0.000_0.500_0.333_1.000_BRIGHTNESS
141
0.0
102
VTR_0.000_0.500_0.333_1.000_CONTRAST
142
0.0
102
VTR_0.000_0.000_0.333_0.500_VISUALSTYLE
340
2F
102
VTR_0.000_0.000_0.333_0.500_GRIDDISPLAY
 70
     3
102
VTR_0.000_0.000_0.333_0.500_GRIDMAJOR
 70
     5
102
VTR_0.000_0.000_0.333_0.500_DEFAULTLIGHTING
280
     1
102
VTR_0.000_0.000_0.333_0.500_DEFAULTLIGHTINGTYPE
 70
     1
102
VTR_0.000_0.000_0.333_0.500_BRIGHTNESS
141
0.0
102
VTR_0.000_0.000_0.333_0.500_CONTRAST
142
0.0
102
VTR_0.333_0.500_0.667_1.000_VISUALSTYLE
340
2F
102
VTR_0.333_0.500_0.667_1.000_GRIDDISPLAY
 70
     3
102
VTR_0.333_0.500_0.667_1.000_GRIDMAJOR
 70
     5
102
VTR_0.333_0.500_0.667_1.000_DEFAULTLIGHTING
280
     1
102
VTR_0.333_0.500_0.667_1.000_DEFAULTLIGHTINGTYPE
 70
     1
102
VTR_0.333_0.500_0.667_1.000_BRIGHTNESS
141
0.0
102
VTR_0.333_0.500_0.667_1.000_CONTRAST
142
0.0
102
VTR_0.333_0.000_0.667_0.500_VISUALSTYLE
340
2F
102
VTR_0.333_0.000_0.667_0.500_GRIDDISPLAY
 70
     3
102
VTR_0.333_0.000_0.667_0.500_GRIDMAJOR
 70
     5
102
VTR_0.333_0.000_0.667_0.500_DEFAULTLIGHTING
280
     1
102
VTR_0.333_0.000_0.667_0.500_DEFAULTLIGHTINGTYPE
 70
     1
102
VTR_0.333_0.000_0.667_0.500_BRIGHTNESS
141
0.0
102
VTR_0.333_0.000_0.667_0.500_CONTRAST
142
0.0
102
VTR_0.667_0.500_1.000_1.000_VISUALSTYLE
340
2F
102
VTR_0.667_0.500_1.000_1.000_GRIDDISPLAY
 70
     3
102
VTR_0.667_0.500_1.000_1.000_GRIDMAJOR
 70
     5
102
VTR_0.667_0.500_1.000_1.000_DEFAULTLIGHTING
280
     1
102
VTR_0.667_0.500_1.000_1.000_DEFAULTLIGHTINGTYPE
 70
     1
102
VTR_0.667_0.500_1.000_1.000_BRIGHTNESS
141
0.0
102
VTR_0.667_0.500_1.000_1.000_CONTRAST
142
0.0
102
VTR_0.667_0.000_1.000_0.500_VISUALSTYLE
340
2F
102
VTR_0.667_0.000_1.000_0.500_GRIDDISPLAY
 70
     3
102
VTR_0.667_0.000_1.000_0.500_GRIDMAJOR
 70
     5
102
VTR_0.667_0.000_1.000_0.500_DEFAULTLIGHTING
280
     1
102
VTR_0.667_0.000_1.000_0.500_DEFAULTLIGHTINGTYPE
 70
     1
102
VTR_0.667_0.000_1.000_0.500_BRIGHTNESS
141
0.0
102
VTR_0.667_0.000_1.000_0.500_CONTRAST
142
0.0
  0
MATERIAL
  5
45
102
{ACAD_REACTORS
330
43
102
}
102
{ACAD_XDICTIONARY
360
334
102
}
330
43
100
AcDbMaterial
  1
BYBLOCK
  0
MATERIAL
  5
44
102
{ACAD_REACTORS
330
43
102
}
102
{ACAD_XDICTIONARY
360
332
102
}
330
43
100
AcDbMaterial
  1
BYLAYER
  0
MATERIAL
  5
46
102
{ACAD_REACTORS
330
43
102
}
102
{ACAD_XDICTIONARY
360
336
102
}
330
43
100
AcDbMaterial
  1
GLOBAL
  0
ACAD_PROXY_OBJECT
  5
5C
102
{ACAD_REACTORS
330
5B
102
}
330
5B
100
AcDbProxyObject
 90
      499
 91
      505
 93
      610
310
40901902A4063FBFFFFFE056BD1B81E855B9FC0AD7A3703D0AD73F4214DD185B99185C9900AD7A3703D0AC73F90141901A02B5E8DC0F42B1CFC02B5E8DC0F42B1CFE5764000000000000300FC0
340
14
340
0
340
11
340
0
 94
        0
1001
ACAD_MLEADERVER
1070
     2
  0
MLINESTYLE
  5
18
102
{ACAD_REACTORS
330
17
102
}
330
17
100
AcDbMlineStyle
  2
Standard
 70
     0
  3

 62
   256
 51
90.0
 52
90.0
 71
     2
 49
0.5
 62
   256
  6
BYLAYER
 49
-0.5
 62
   256
  6
BYLAYER
  0
ACAD_PROXY_OBJECT
  5
48
102
{ACAD_REACTORS
330
47
102
}
330
47
100
AcDbProxyObject
 90
      499
 91
      503
 93
       41
310
903313A31580
  0
ACAD_PROXY_OBJECT
  5
49
102
{ACAD_REACTORS
330
47
102
}
330
47
100
AcDbProxyObject
 90
      499
 91
      503
 93
      257
310
90E312F31323822203D2031272D3022000000000000200FC000000000000284000
  0
ACAD_PROXY_OBJECT
  5
4A
102
{ACAD_REACTORS
330
47
102
}
330
47
100
AcDbProxyObject
 90
      499
 91
      503
 93
      249
310
90D312F363422203D2031272D3022000000000000240FC000000000000284000
  0
ACAD_PROXY_OBJECT
  5
4B
102
{ACAD_REACTORS
330
47
102
}
330
47
100
AcDbProxyObject
 90
      499
 91
      503
 93
      249
310
90D312F333222203D2031272D3022000000000000280FC000000000000284000
  0
ACAD_PROXY_OBJECT
  5
4C
102
{ACAD_REACTORS
330
47
102
}
330
47
100
AcDbProxyObject
 90
      499
 91
      503
 93
      249
310
90D312F313622203D2031272D30220000000000002C0FC000000000000284000
  0
ACAD_PROXY_OBJECT
  5
4D
102
{ACAD_REACTORS
330
47
102
}
330
47
100
AcDbProxyObject
 90
      499
 91
      503
 93
      249
310
90D332F333222203D2031272D30220000000000002E0FC000000000000284000
  0
ACAD_PROXY_OBJECT
  5
4E
102
{ACAD_REACTORS
330
47
102
}
330
47
100
AcDbProxyObject
 90
      499
 91
      503
 93
      241
310
90C312F3822203D2031272D3022000000000000300FC000000000000284000
  0
ACAD_PROXY_OBJECT
  5
4F
102
{ACAD_REACTORS
330
47
102
}
330
47
100
AcDbProxyObject
 90
      499
 91
      503
 93
      249
310
90D332F313622203D2031272D3022000000000000320FC000000000000284000
  0
ACAD_PROXY_OBJECT
  5
50
102
{ACAD_REACTORS
330
47
102
}
330
47
100
AcDbProxyObject
 90
      499
 91
      503
 93
      241
310
90C312F3422203D2031272D3022000000000000340FC000000000000284000
  0
ACAD_PROXY_OBJECT
  5
51
102
{ACAD_REACTORS
330
47
102
}
330
47
100
AcDbProxyObject
 90
      499
 91
      503
 93
      241
310
90C332F3822203D2031272D3022000000000000360FC000000000000284000
  0
ACAD_PROXY_OBJECT
  5
52
102
{ACAD_REACTORS
330
47
102
}
330
47
100
AcDbProxyObject
 90
      499
 91
      503
 93
      241
310
90C312F3222203D2031272D3022000000000000380FC000000000000284000
  0
ACAD_PROXY_OBJECT
  5
53
102
{ACAD_REACTORS
330
47
102
}
330
47
100
AcDbProxyObject
 90
      499
 91
      503
 93
      241
310
90C332F3422203D2031272D30220000000000003A0FC000000000000284000
  0
ACAD_PROXY_OBJECT
  5
54
102
{ACAD_REACTORS
330
47
102
}
330
47
100
AcDbProxyObject
 90
      499
 91
      503
 93
      161
310
90A3122203D2031272D30224000000000000284000
  0
ACAD_PROXY_OBJECT
  5
55
102
{ACAD_REACTORS
330
47
102
}
330
47
100
AcDbProxyObject
 90
      499
 91
      503
 93
      257
310
90E312D312F3222203D2031272D30220000000000003E0FC000000000000284000
  0
ACAD_PROXY_OBJECT
  5
56
102
{ACAD_REACTORS
330
47
102
}
330
47
100
AcDbProxyObject
 90
      499
 91
      503
 93
      225
310
90A3322203D2031272D302200000000000002100000000000000284000
  0
ACAD_PROXY_OBJECT
  5
57
102
{ACAD_REACTORS
330
47
102
}
330
47
100
AcDbProxyObject
 90
      499
 91
      503
 93
      225
310
90A3622203D2031272D302200000000000006100000000000000284000
  0
ACAD_PROXY_OBJECT
  5
58
102
{ACAD_REACTORS
330
47
102
}
330
47
100
AcDbProxyObject
 90
      499
 91
      503
 93
      249
310
90D31272D3022203D2031272D30220000000000000A100000000000000284000
  0
ACAD_PROXY_OBJECT
  5
2F
102
{ACAD_REACTORS
330
2A
102
}
330
2A
100
AcDbProxyObject
 90
      499
 91
      501
 93
      436
310
42CC9915DA5C99599C985B595049028333333333333E33F0000000000000F90107901411070040501600405405064090741402480A0340
1001
ACAD
1000
AcDbSavedByObjectVersion
1070
     0
  0
ACAD_PROXY_OBJECT
  5
32
102
{ACAD_REACTORS
330
2A
102
}
330
2A
100
AcDbProxyObject
 90
      499
 91
      501
 93
      388
310
4150985CDA58D07406404333333333333E33F0000000000000F90107A41107004050150841D405064090741402480A0350
1001
ACAD
1000
AcDbSavedByObjectVersion
1070
     0
  0
ACAD_PROXY_OBJECT
  5
36
102
{ACAD_REACTORS
330
2A
102
}
330
2A
100
AcDbProxyObject
 90
      499
 91
      501
 93
      428
310
42109C9A59DA1D195B90C409028333333333333E33F0000000000000F9010790141107004050150841D405064090741402480A029950
1001
ACAD
1000
AcDbSavedByObjectVersion
1070
     0
  0
ACAD_PROXY_OBJECT
  5
3A
102
{ACAD_REACTORS
330
2A
102
}
330
2A
100
AcDbProxyObject
 90
      499
 91
      501
 93
      452
310
42D0DBDB1BDC90DA185B99D95104090240C333333333333E33F0000000000000F90108901411070040501508421405064090741402480A0350
1001
ACAD
1000
AcDbSavedByObjectVersion
1070
     0
  0
ACAD_PROXY_OBJECT
  5
34
102
{ACAD_REACTORS
330
2A
102
}
330
2A
100
AcDbProxyObject
 90
      499
 91
      501
 93
      500
310
4290DBDB98D95C1D1D585B10940D028333333333333E33F0000000000000F90107902409070040501000000000018199010841D405064090740C02480A0340
1001
ACAD
1000
AcDbSavedByObjectVersion
1070
     0
  0
ACAD_PROXY_OBJECT
  5
35
102
{ACAD_REACTORS
330
2A
102
}
330
2A
100
AcDbProxyObject
 90
      499
 91
      501
 93
      412
310
40D11A5B50B409028333333333333E33F0000000000000F9010790141107004050150841D405064090741402480A02677FFFFFD0
1001
ACAD
1000
AcDbSavedByObjectVersion
1070
     0
  0
ACAD_PROXY_OBJECT
  5
3D
102
{ACAD_REACTORS
330
2A
102
}
330
2A
100
AcDbProxyObject
 90
      499
 91
      501
 93
      452
310
43115919D950DBDB1BDC93D999916409028333333333333E33F0000000000000F9010790141107004050150841D405064090741402480A0350
1001
ACAD
1000
AcDbSavedByObjectVersion
1070
     0
  0
ACAD_PROXY_OBJECT
  5
39
102
{ACAD_REACTORS
330
2A
102
}
330
2A
100
AcDbProxyObject
 90
      499
 91
      501
 93
      444
310
42D19858D95C185D1D195C9B90F409028333333333333E33F0000000000000F9010790141107004050150841D405064090741402480A0350
1001
ACAD
1000
AcDbSavedByObjectVersion
1070
     0
  0
ACAD_PROXY_OBJECT
  5
2B
102
{ACAD_REACTORS
330
2A
102
}
330
2A
100
AcDbProxyObject
 90
      499
 91
      501
 93
      380
310
41119B185D240901404333333333333E33F0000000000000F9010740A907004050150841D405064090741402480A1B50
1001
ACAD
1000
AcDbSavedByObjectVersion
1070
     0
  0
ACAD_PROXY_OBJECT
  5
2C
102
{ACAD_REACTORS
330
2A
102
}
330
2A
100
AcDbProxyObject
 90
      499
 91
      501
 93
      468
310
43519B185D15DA5D1A115919D95CD0140901404333333333333E33F0000000000000F90107409019070040501600405405064090741402480A1B50
1001
ACAD
1000
AcDbSavedByObjectVersion
1070
     0
  0
ACAD_PROXY_OBJECT
  5
2D
102
{ACAD_REACTORS
330
2A
102
}
330
2A
100
AcDbProxyObject
 90
      499
 91
      501
 93
      404
310
41D1DBDD5C985D5910240902404333333333333E33F0000000000000F9010740A9070040501641D405064090741402480A1B50
1001
ACAD
1000
AcDbSavedByObjectVersion
1070
     0
  0
ACAD_PROXY_OBJECT
  5
2E
102
{ACAD_REACTORS
330
2A
102
}
330
2A
100
AcDbProxyObject
 90
      499
 91
      501
 93
      492
310
4411DBDD5C985D5915DA5D1A115919D95CD0340902404333333333333E33F0000000000000F90107409019070040501600405405064090741402480A1B50
1001
ACAD
1000
AcDbSavedByObjectVersion
1070
     0
  0
ACAD_PROXY_OBJECT
  5
31
102
{ACAD_REACTORS
330
2A
102
}
330
2A
100
AcDbProxyObject
 90
      499
 91
      501
 93
      476
310
41921A5919195B90640502408333333333333E33F0000000000000F901079024090700405020000000000001110200405405064090740C02480A0340
1001
ACAD
1000
AcDbSavedByObjectVersion
1070
     0
  0
ACAD_PROXY_OBJECT
  5
3B
102
{ACAD_REACTORS
330
2A
102
}
330
2A
100
AcDbProxyObject
 90
      499
 91
      501
 93
      428
310
42529A5D1D195C93D999914409028333333333333E33F0000000000000F9010790141107004050150A41D405064090741402480A0350
1001
ACAD
1000
AcDbSavedByObjectVersion
1070
     0
  0
ACAD_PROXY_OBJECT
  5
38
102
{ACAD_REACTORS
330
2A
102
}
330
2A
100
AcDbProxyObject
 90
      499
 91
      501
 93
      444
310
42D31A5B995C185D1D195C9B90E409028333333333333E33F0000000000000F9010790141107004050750841D405064090741402483A0350
1001
ACAD
1000
AcDbSavedByObjectVersion
1070
     0
  0
ACAD_PROXY_OBJECT
  5
3C
102
{ACAD_REACTORS
330
2A
102
}
330
2A
100
AcDbProxyObject
 90
      499
 91
      501
 93
      444
310
42D3DD995C9A185B99D3D999915409028333333333333E33F0000000000000F9010790141107004050150941D405064090741402480A0350
1001
ACAD
1000
AcDbSavedByObjectVersion
1070
     0
  0
ACAD_PROXY_OBJECT
  5
33
102
{ACAD_REACTORS
330
2A
102
}
330
2A
100
AcDbProxyObject
 90
      499
 91
      501
 93
      428
310
425499585B1A5CDD1A58D08409038333333333333E33F0000000000000F9010740A907004050150800405405064090740C02480A1B40
1001
ACAD
1000
AcDbSavedByObjectVersion
1070
     0
  0
ACAD_PROXY_OBJECT
  5
42
102
{ACAD_REACTORS
330
2A
102
}
330
2A
100
AcDbProxyObject
 90
      499
 91
      501
 93
      420
310
4194DA1859195911B40902404333333333333E33F0000000000000F9010740A41107004050150800405405064090840C02480A0B40
1001
ACAD
1000
AcDbSavedByObjectVersion
1070
     0
  0
ACAD_PROXY_OBJECT
  5
41
102
{ACAD_REACTORS
330
2A
102
}
330
2A
100
AcDbProxyObject
 90
      499
 91
      501
 93
      516
310
4454DA18591959081DDA5D1A08195919D95CD1A40902404333333333333E33F0000000000000F901074090142907004050250800405405064090740C02480A0B40
1001
ACAD
1000
AcDbSavedByObjectVersion
1070
     0
  0
ACAD_PROXY_OBJECT
  5
3E
102
{ACAD_REACTORS
330
2A
102
}
330
2A
100
AcDbProxyObject
 90
      499
 91
      501
 93
      532
310
4394DA1859195CC81BD98811DC985E5174090240C333333333333E33F0000000000000F901079024090741D01000000000000111010841D405064090740C02480A0340
1001
ACAD
1000
AcDbSavedByObjectVersion
1070
     0
  0
ACAD_PROXY_OBJECT
  5
3F
102
{ACAD_REACTORS
330
2A
102
}
330
2A
100
AcDbProxyObject
 90
      499
 91
      501
 93
      476
310
41D4DAD95D18DA1E51840502408333333333333E33F0000000000000F901079024090741D01000000000000111010B41D405064090741802480A0340
1001
ACAD
1000
AcDbSavedByObjectVersion
1070
     0
  0
ACAD_PROXY_OBJECT
  5
37
102
{ACAD_REACTORS
330
2A
102
}
330
2A
100
AcDbProxyObject
 90
      499
 91
      501
 93
      412
310
41D51A1A58DAD95B90D409028333333333333E33F0000000000000F9010790141107004050150C41D405064090741402480A0350
1001
ACAD
1000
AcDbSavedByObjectVersion
1070
     0
  0
ACAD_PROXY_OBJECT
  5
30
102
{ACAD_REACTORS
330
2A
102
}
330
2A
100
AcDbProxyObject
 90
      499
 91
      501
 93
      420
310
4255DA5C99599C985B595059028333333333333E33F0000000000000F90107901411070040501600405405064090740C02480A0340
1001
ACAD
1000
AcDbSavedByObjectVersion
1070
     0
  0
ACAD_PROXY_OBJECT
  5
40
102
{ACAD_REACTORS
330
2A
102
}
330
2A
100
AcDbProxyObject
 90
      499
 91
      501
 93
      404
310
41560B54985E51940902404000000000000E03F0000000000000F9010740501907004050150841D405064090740C02480A1B40
1001
ACAD
1000
AcDbSavedByObjectVersion
1070
     0
  0
XRECORD
  5
30F
102
{ACAD_REACTORS
330
305
102
}
330
305
100
AcDbXrecord
340
0
  0
XRECORD
  5
30E
102
{ACAD_REACTORS
330
305
102
}
330
305
100
AcDbXrecord
 90
        0
  0
XRECORD
  5
325
102
{ACAD_REACTORS
330
305
102
}
330
305
100
AcDbXrecord
1000
DSTYLE
1002
{
1070
   171
 70
     2
1070
   143
 40
25.4
1070
   274
 70
     2
1070
    41
 40
0.18
1070
   141
 40
0.09
1070
   271
 70
     4
1070
    43
 40
0.38
1070
   278
 70
    46
1070
    44
 40
0.18
1070
    42
 40
0.0625
1070
   147
 40
0.09
1070
    77
 70
     0
1070
   272
 70
     4
1070
    73
 70
     1
1070
   172
 70
     0
1070
    74
 70
     1
1070
   283
 70
     1
1070
   340
340
11
1070
   140
 40
0.18
1070
   284
 70
     0
1070
    78
 70
     0
1002
}
  0
XRECORD
  5
310
102
{ACAD_REACTORS
330
305
102
}
330
305
100
AcDbXrecord
  1
{8ca9b481-a146-47a2-b74c-4d9b5cd87b28}
  0
XRECORD
  5
308
102
{ACAD_REACTORS
330
305
102
}
330
305
100
AcDbXrecord
  1

  0
XRECORD
  5
30D
102
{ACAD_REACTORS
330
305
102
}
330
305
100
AcDbXrecord
 90
        4
  0
XRECORD
  5
30A
102
{ACAD_REACTORS
330
305
102
}
330
305
100
AcDbXrecord
340
1A
  0
XRECORD
  5
30C
102
{ACAD_REACTORS
330
305
102
}
330
305
100
AcDbXrecord
 90
    10781
  0
XRECORD
  5
30B
102
{ACAD_REACTORS
330
305
102
}
330
305
100
AcDbXrecord
340
19
  0
XRECORD
  5
312
102
{ACAD_REACTORS
330
305
102
}
330
305
100
AcDbXrecord
 40
0.0
  0
XRECORD
  5
315
102
{ACAD_REACTORS
330
305
102
}
330
305
100
AcDbXrecord
340
0
  0
XRECORD
  5
31B
102
{ACAD_REACTORS
330
305
102
}
330
305
100
AcDbXrecord
 10
0.0
 20
0.0
 30
0.0
  0
XRECORD
  5
317
102
{ACAD_REACTORS
330
305
102
}
330
305
100
AcDbXrecord
 10
0.0
 20
0.0
 30
0.0
  0
XRECORD
  5
31A
102
{ACAD_REACTORS
330
305
102
}
330
305
100
AcDbXrecord
 10
0.0
 20
0.0
 30
0.0
  0
XRECORD
  5
318
102
{ACAD_REACTORS
330
305
102
}
330
305
100
AcDbXrecord
 10
0.0
 20
0.0
 30
0.0
  0
XRECORD
  5
319
102
{ACAD_REACTORS
330
305
102
}
330
305
100
AcDbXrecord
 10
0.0
 20
0.0
 30
0.0
  0
XRECORD
  5
316
102
{ACAD_REACTORS
330
305
102
}
330
305
100
AcDbXrecord
 10
0.0
 20
0.0
 30
0.0
  0
XRECORD
  5
313
102
{ACAD_REACTORS
330
305
102
}
330
305
100
AcDbXrecord
340
0
  0
XRECORD
  5
314
102
{ACAD_REACTORS
330
305
102
}
330
305
100
AcDbXrecord
 70
     0
  0
XRECORD
  5
309
102
{ACAD_REACTORS
330
305
102
}
330
305
100
AcDbXrecord
  1

  0
XRECORD
  5
306
102
{ACAD_REACTORS
330
305
102
}
330
305
100
AcDbXrecord
 90
        1
  0
XRECORD
  5
307
102
{ACAD_REACTORS
330
305
102
}
330
305
100
AcDbXrecord
 90
       70
  0
XRECORD
  5
31E
102
{ACAD_REACTORS
330
305
102
}
330
305
100
AcDbXrecord
340
0
  0
XRECORD
  5
324
102
{ACAD_REACTORS
330
305
102
}
330
305
100
AcDbXrecord
 10
0.0
 20
0.0
 30
0.0
  0
XRECORD
  5
320
102
{ACAD_REACTORS
330
305
102
}
330
305
100
AcDbXrecord
 10
0.0
 20
0.0
 30
0.0
  0
XRECORD
  5
323
102
{ACAD_REACTORS
330
305
102
}
330
305
100
AcDbXrecord
 10
0.0
 20
0.0
 30
0.0
  0
XRECORD
  5
321
102
{ACAD_REACTORS
330
305
102
}
330
305
100
AcDbXrecord
 10
0.0
 20
0.0
 30
0.0
  0
XRECORD
  5
322
102
{ACAD_REACTORS
330
305
102
}
330
305
100
AcDbXrecord
 10
0.0
 20
0.0
 30
0.0
  0
XRECORD
  5
31F
102
{ACAD_REACTORS
330
305
102
}
330
305
100
AcDbXrecord
 10
0.0
 20
0.0
 30
0.0
  0
XRECORD
  5
31C
102
{ACAD_REACTORS
330
305
102
}
330
305
100
AcDbXrecord
340
0
  0
XRECORD
  5
31D
102
{ACAD_REACTORS
330
305
102
}
330
305
100
AcDbXrecord
 70
     0
  0
XRECORD
  5
311
102
{ACAD_REACTORS
330
305
102
}
330
305
100
AcDbXrecord
  1
{FAEB1C32-E019-11D5-929B-00C0DF256EC4}
  0
DICTIONARYVAR
  5
330
102
{ACAD_REACTORS
330
326
102
}
330
326
100
DictionaryVariables
280
     0
  1
1:1
  0
DICTIONARYVAR
  5
328
102
{ACAD_REACTORS
330
326
102
}
330
326
100
DictionaryVariables
280
     0
  1
Standard
  0
DICTIONARYVAR
  5
327
102
{ACAD_REACTORS
330
326
102
}
330
326
100
DictionaryVariables
280
     0
  1
Standard
  0
DICTIONARYVAR
  5
32B
102
{ACAD_REACTORS
330
326
102
}
330
326
100
DictionaryVariables
280
     0
  1
2
  0
DICTIONARYVAR
  5
32C
102
{ACAD_REACTORS
330
326
102
}
330
326
100
DictionaryVariables
280
     0
  1
1
  0
DICTIONARYVAR
  5
331
102
{ACAD_REACTORS
330
326
102
}
330
326
100
DictionaryVariables
280
     0
  1
1
  0
DICTIONARY
  5
334
330
45
100
AcDbDictionary
280
     1
  3
ACAD_XREC_ROUNDTRIP
360
335
  0
DICTIONARY
  5
332
330
44
100
AcDbDictionary
280
     1
  3
ACAD_XREC_ROUNDTRIP
360
333
  0
DICTIONARY
  5
336
330
46
100
AcDbDictionary
280
     1
  3
ACAD_XREC_ROUNDTRIP
360
337
  0
XRECORD
  5
335
102
{ACAD_REACTORS
330
334
102
}
330
334
100
AcDbXrecord
102
MATERIAL
148
0.0
149
0.0
149
0.0
 93
        0
 94
      127
282
     0
 72
     1
 77
     1
171
     1
175
     1
179
     1
273
     0
  0
XRECORD
  5
333
102
{ACAD_REACTORS
330
332
102
}
330
332
100
AcDbXrecord
102
MATERIAL
148
0.0
149
0.0
149
0.0
 93
        0
 94
      127
282
     0
 72
     1
 77
     1
171
     1
175
     1
179
     1
273
     0
  0
XRECORD
  5
337
102
{ACAD_REACTORS
330
336
102
}
330
336
100
AcDbXrecord
102
MATERIAL
148
0.0
149
0.0
149
0.0
 93
        0
 94
      127
282
     0
 72
     1
 77
     1
171
     1
175
     1
179
     1
273
     0
  0
ENDSEC
  0
EOF
