  0
SECTION
  2
HEADER
  9
$ACADVER
  1
AC1014
  9
$ACADMAINTVER
 70
     9
  9
$DWGCODEPAGE
  3
ANSI_1252
  9
$INSBASE
 10
0.0
 20
0.0
 30
0.0
  9
$EXTMIN
 10
-0.5
 20
-0.5
 30
-0.5
  9
$EXTMAX
 10
5.0
 20
5.0
 30
5.0
  9
$LIMMIN
 10
-0.5
 20
-0.5
  9
$LIMMAX
 10
5.0
 20
5.0
  9
$ORTHOMODE
 70
     0
  9
$REGENMODE
 70
     1
  9
$FILLMODE
 70
     1
  9
$QTEXTMODE
 70
     0
  9
$MIRRTEXT
 70
     1
  9
$DRAGMODE
 70
     2
  9
$LTSCALE
 40
1.0
  9
$OSMODE
 70
    37
  9
$ATTMODE
 70
     1
  9
$TEXTSIZE
 40
0.2
  9
$TRACEWID
 40
0.05
  9
$TEXTSTYLE
  7
STANDARD
  9
$CLAYER
  8
0
  9
$CELTYPE
  6
BYLAYER
  9
$CECOLOR
 62
   256
  9
$CELTSCALE
 40
1.0
  9
$DELOBJ
 70
     1
  9
$DISPSILH
 70
     0
  9
$DIMSCALE
 40
1.0
  9
$DIMASZ
 40
0.18
  9
$DIMEXO
 40
0.0625
  9
$DIMDLI
 40
0.38
  9
$DIMRND
 40
0.0
  9
$DIMDLE
 40
0.0
  9
$DIMEXE
 40
0.18
  9
$DIMTP
 40
0.0
  9
$DIMTM
 40
0.0
  9
$DIMTXT
 40
0.18
  9
$DIMCEN
 40
0.09
  9
$DIMTSZ
 40
0.0
  9
$DIMTOL
 70
     0
  9
$DIMLIM
 70
     0
  9
$DIMTIH
 70
     1
  9
$DIMTOH
 70
     1
  9
$DIMSE1
 70
     0
  9
$DIMSE2
 70
     0
  9
$DIMTAD
 70
     0
  9
$DIMZIN
 70
     0
  9
$DIMBLK
  1

  9
$DIMASO
 70
     1
  9
$DIMSHO
 70
     1
  9
$DIMPOST
  1

  9
$DIMAPOST
  1

  9
$DIMALT
 70
     0
  9
$DIMALTD
 70
     2
  9
$DIMALTF
 40
25.4
  9
$DIMLFAC
 40
1.0
  9
$DIMTOFL
 70
     0
  9
$DIMTVP
 40
0.0
  9
$DIMTIX
 70
     0
  9
$DIMSOXD
 70
     0
  9
$DIMSAH
 70
     0
  9
$DIMBLK1
  1

  9
$DIMBLK2
  1

  9
$DIMSTYLE
  2
STANDARD
  9
$DIMCLRD
 70
     0
  9
$DIMCLRE
 70
     0
  9
$DIMCLRT
 70
     0
  9
$DIMTFAC
 40
1.0
  9
$DIMGAP
 40
0.09
  9
$DIMJUST
 70
     0
  9
$DIMSD1
 70
     0
  9
$DIMSD2
 70
     0
  9
$DIMTOLJ
 70
     1
  9
$DIMTZIN
 70
     0
  9
$DIMALTZ
 70
     0
  9
$DIMALTTZ
 70
     0
  9
$DIMFIT
 70
     3
  9
$DIMUPT
 70
     0
  9
$DIMUNIT
 70
     2
  9
$DIMDEC
 70
     4
  9
$DIMTDEC
 70
     4
  9
$DIMALTU
 70
     2
  9
$DIMALTTD
 70
     2
  9
$DIMTXSTY
  7
STANDARD
  9
$DIMAUNIT
 70
     0
  9
$LUNITS
 70
     2
  9
$LUPREC
 70
     4
  9
$SKETCHINC
 40
0.1
  9
$FILLETRAD
 40
0.0
  9
$AUNITS
 70
     0
  9
$AUPREC
 70
     0
  9
$MENU
  1
.
  9
$ELEVATION
 40
0.0
  9
$PELEVATION
 40
0.0
  9
$THICKNESS
 40
0.0
  9
$LIMCHECK
 70
     0
  9
$CHAMFERA
 40
0.0
  9
$CHAMFERB
 40
0.0
  9
$CHAMFERC
 40
0.0
  9
$CHAMFERD
 40
0.0
  9
$SKPOLY
 70
     0
  9
$TDCREATE
 40
2460605.63788772
  9
$TDUPDATE
 40
2460605.637887894
  9
$TDINDWG
 40
0.0000000116
  9
$TDUSRTIMER
 40
0.0000000116
  9
$USRTIMER
 70
     1
  9
$ANGBASE
 50
0.0
  9
$ANGDIR
 70
     0
  9
$PDMODE
 70
     0
  9
$PDSIZE
 40
0.0
  9
$PLINEWID
 40
0.0
  9
$COORDS
 70
     1
  9
$SPLFRAME
 70
     0
  9
$SPLINETYPE
 70
     6
  9
$SPLINESEGS
 70
     8
  9
$ATTDIA
 70
     0
  9
$ATTREQ
 70
     1
  9
$HANDLING
 70
     1
  9
$HANDSEED
  5
2F2
  9
$SURFTAB1
 70
     6
  9
$SURFTAB2
 70
     6
  9
$SURFTYPE
 70
     6
  9
$SURFU
 70
     6
  9
$SURFV
 70
     6
  9
$UCSNAME
  2

  9
$UCSORG
 10
0.0
 20
0.0
 30
0.0
  9
$UCSXDIR
 10
1.0
 20
0.0
 30
0.0
  9
$UCSYDIR
 10
0.0
 20
1.0
 30
0.0
  9
$PUCSNAME
  2

  9
$PUCSORG
 10
0.0
 20
0.0
 30
0.0
  9
$PUCSXDIR
 10
1.0
 20
0.0
 30
0.0
  9
$PUCSYDIR
 10
0.0
 20
1.0
 30
0.0
  9
$USERI1
 70
     0
  9
$USERI2
 70
     0
  9
$USERI3
 70
     0
  9
$USERI4
 70
     0
  9
$USERI5
 70
     0
  9
$USERR1
 40
0.0
  9
$USERR2
 40
0.0
  9
$USERR3
 40
0.0
  9
$USERR4
 40
0.0
  9
$USERR5
 40
0.0
  9
$WORLDVIEW
 70
     1
  9
$SHADEDGE
 70
     3
  9
$SHADEDIF
 70
    70
  9
$TILEMODE
 70
     1
  9
$MAXACTVP
 70
    64
  9
$PINSBASE
 10
0.0
 20
0.0
 30
0.0
  9
$PLIMCHECK
 70
     0
  9
$PEXTMIN
 10
-0.5
 20
-0.5
 30
-0.5
  9
$PEXTMAX
 10
5.0
 20
5.0
 30
5.0
  9
$PLIMMIN
 10
-0.5
 20
-0.5
  9
$PLIMMAX
 10
5.0
 20
5.0
  9
$UNITMODE
 70
     0
  9
$VISRETAIN
 70
     1
  9
$PLINEGEN
 70
     0
  9
$PSLTSCALE
 70
     1
  9
$TREEDEPTH
 70
  3020
  9
$PICKSTYLE
 70
     1
  9
$CMLSTYLE
  2
STANDARD
  9
$CMLJUST
 70
     0
  9
$CMLSCALE
 40
1.0
  9
$PROXYGRAPHICS
 70
     1
  9
$MEASUREMENT
 70
     1
  0
ENDSEC
  0
SECTION
  2
CLASSES
  0
CLASS
  1
ACDBDICTIONARYWDFLT
  2
AcDbDictionaryWithDefault
  3
ObjectDBX Classes
 90
        0
280
     0
281
     0
  0
CLASS
  1
VISUALSTYLE
  2
AcDbVisualStyle
  3
ObjectDBX Classes
 90
     4095
280
     0
281
     0
  0
CLASS
  1
MATERIAL
  2
AcDbMaterial
  3
ObjectDBX Classes
 90
     1153
280
     0
281
     0
  0
CLASS
  1
SCALE
  2
AcDbScale
  3
ObjectDBX Classes
 90
     1153
280
     0
281
     0
  0
CLASS
  1
TABLESTYLE
  2
AcDbTableStyle
  3
ObjectDBX Classes
 90
     4095
280
     0
281
     0
  0
CLASS
  1
MLEADERSTYLE
  2
AcDbMLeaderStyle
  3
ACDB_MLEADERSTYLE_CLASS
 90
     4095
280
     0
281
     0
  0
CLASS
  1
SUN
  2
AcDbSun
  3
SCENEOE
 90
     1153
280
     0
281
     0
  0
CLASS
  1
RASTERVARIABLES
  2
AcDbRasterVariables
  3
ISM
 90
        0
280
     0
281
     0
  0
CLASS
  1
DICTIONARYVAR
  2
AcDbDictionaryVar
  3
ObjectDBX Classes
 90
        0
280
     0
281
     0
  0
CLASS
  1
XRECORD
  2
AcDbXrecord
  3
ObjectDBX Classes
 90
        0
280
     0
281
     0
  0
CLASS
  1
LWPOLYLINE
  2
AcDbPolyline
  3
ObjectDBX Classes
 90
        0
280
     0
281
     1
  0
CLASS
  1
HATCH
  2
AcDbHatch
  3
ObjectDBX Classes
 90
        0
280
     0
281
     1
  0
CLASS
  1
ACDBPLACEHOLDER
  2
AcDbPlaceHolder
  3
ObjectDBX Classes
 90
        0
280
     0
281
     0
  0
CLASS
  1
LAYOUT
  2
AcDbLayout
  3
ObjectDBX Classes
 90
        0
280
     0
281
     0
  0
ENDSEC
  0
SECTION
  2
TABLES
  0
TABLE
  2
VPORT
  5
8
102
{ACAD_XDICTIONARY
360
2E7
102
}
330
0
100
AcDbSymbolTable
 70
    16
  0
VPORT
  5
29
330
8
100
AcDbSymbolTableRecord
100
AcDbViewportTableRecord
  2
*ACTIVE
 70
     0
 10
0.0
 20
0.0
 11
1.0
 21
1.0
 12
-54.5
 22
0.0
 13
0.0
 23
0.0
 14
0.5
 24
0.5
 15
0.5
 25
0.5
 16
0.0
 26
0.0
 36
1.0
 17
0.0
 27
0.0
 37
0.0
 40
132.291667
 41
0.134224
 42
50.0
 43
439.404046
 44
-439.404046
 50
0.0
 51
0.0
 71
     0
 72
   100
 73
     1
 74
     3
 75
     0
 76
     0
 77
     0
 78
     0
  0
VPORT
  5
2AF
330
8
100
AcDbSymbolTableRecord
100
AcDbViewportTableRecord
  2
L1
 70
     0
 10
0.0
 20
0.0
 11
1.0
 21
1.0
 12
-54.5
 22
0.0
 13
0.0
 23
0.0
 14
0.5
 24
0.5
 15
0.5
 25
0.5
 16
0.0
 26
0.0
 36
1.0
 17
0.0
 27
0.0
 37
0.0
 40
132.291667
 41
0.134224
 42
50.0
 43
439.404046
 44
-439.404046
 50
0.0
 51
0.0
 71
     0
 72
   100
 73
     1
 74
     3
 75
     0
 76
     0
 77
     0
 78
     0
  0
VPORT
  5
2B0
330
8
100
AcDbSymbolTableRecord
100
AcDbViewportTableRecord
  2
L2
 70
     0
 10
0.0
 20
0.0
 11
0.5
 21
1.0
 12
0.0
 22
0.0
 13
0.0
 23
0.0
 14
0.5
 24
0.5
 15
0.5
 25
0.5
 16
0.0
 26
-1.0
 36
0.0
 17
0.0
 27
0.0
 37
0.0
 40
824.553445
 41
0.021535
 42
50.0
 43
424.390553
 44
-424.390553
 50
0.0
 51
0.0
 71
     0
 72
   100
 73
     1
 74
     3
 75
     0
 76
     0
 77
     0
 78
     0
  0
VPORT
  5
2B1
330
8
100
AcDbSymbolTableRecord
100
AcDbViewportTableRecord
  2
L2
 70
     0
 10
0.5
 20
0.0
 11
1.0
 21
1.0
 12
0.0
 22
0.0
 13
0.0
 23
0.0
 14
0.5
 24
0.5
 15
0.5
 25
0.5
 16
1.0
 26
0.0
 36
0.0
 17
0.0
 27
0.0
 37
0.0
 40
824.553445
 41
0.021535
 42
50.0
 43
417.549239
 44
-417.549239
 50
0.0
 51
0.0
 71
     0
 72
   100
 73
     1
 74
     3
 75
     0
 76
     0
 77
     0
 78
     0
  0
VPORT
  5
2B2
330
8
100
AcDbSymbolTableRecord
100
AcDbViewportTableRecord
  2
L3
 70
     0
 10
0.0
 20
0.5
 11
1.0
 21
1.0
 12
-54.5
 22
0.0
 13
0.0
 23
0.0
 14
0.5
 24
0.5
 15
0.5
 25
0.5
 16
0.0
 26
0.0
 36
1.0
 17
0.0
 27
0.0
 37
0.0
 40
132.291667
 41
0.134224
 42
50.0
 43
439.404046
 44
-439.404046
 50
0.0
 51
0.0
 71
     0
 72
   100
 73
     1
 74
     3
 75
     0
 76
     0
 77
     0
 78
     0
  0
VPORT
  5
2B3
330
8
100
AcDbSymbolTableRecord
100
AcDbViewportTableRecord
  2
L3
 70
     0
 10
0.0
 20
0.0
 11
1.0
 21
0.5
 12
0.0
 22
0.0
 13
0.0
 23
0.0
 14
0.5
 24
0.5
 15
0.5
 25
0.5
 16
0.0
 26
-1.0
 36
0.0
 17
0.0
 27
0.0
 37
0.0
 40
824.553445
 41
0.021535
 42
50.0
 43
424.390553
 44
-424.390553
 50
0.0
 51
0.0
 71
     0
 72
   100
 73
     1
 74
     3
 75
     0
 76
     0
 77
     0
 78
     0
  0
VPORT
  5
2B4
330
8
100
AcDbSymbolTableRecord
100
AcDbViewportTableRecord
  2
L4
 70
     0
 10
0.0
 20
0.5
 11
0.5
 21
1.0
 12
-54.5
 22
0.0
 13
0.0
 23
0.0
 14
0.5
 24
0.5
 15
0.5
 25
0.5
 16
0.0
 26
0.0
 36
1.0
 17
0.0
 27
0.0
 37
0.0
 40
132.291667
 41
0.134224
 42
50.0
 43
439.404046
 44
-439.404046
 50
0.0
 51
0.0
 71
     0
 72
   100
 73
     1
 74
     3
 75
     0
 76
     0
 77
     0
 78
     0
  0
VPORT
  5
2B5
330
8
100
AcDbSymbolTableRecord
100
AcDbViewportTableRecord
  2
L4
 70
     0
 10
0.0
 20
0.0
 11
0.5
 21
0.5
 12
0.0
 22
0.0
 13
0.0
 23
0.0
 14
0.5
 24
0.5
 15
0.5
 25
0.5
 16
0.0
 26
-1.0
 36
0.0
 17
0.0
 27
0.0
 37
0.0
 40
824.553445
 41
0.021535
 42
50.0
 43
424.390553
 44
-424.390553
 50
0.0
 51
0.0
 71
     0
 72
   100
 73
     1
 74
     3
 75
     0
 76
     0
 77
     0
 78
     0
  0
VPORT
  5
2B6
330
8
100
AcDbSymbolTableRecord
100
AcDbViewportTableRecord
  2
L4
 70
     0
 10
0.5
 20
0.0
 11
1.0
 21
0.5
 12
0.0
 22
0.0
 13
0.0
 23
0.0
 14
0.5
 24
0.5
 15
0.5
 25
0.5
 16
1.0
 26
0.0
 36
0.0
 17
0.0
 27
0.0
 37
0.0
 40
824.553445
 41
0.021535
 42
50.0
 43
417.549239
 44
-417.549239
 50
0.0
 51
0.0
 71
     0
 72
   100
 73
     1
 74
     3
 75
     0
 76
     0
 77
     0
 78
     0
  0
VPORT
  5
2B7
330
8
100
AcDbSymbolTableRecord
100
AcDbViewportTableRecord
  2
L4
 70
     0
 10
0.5
 20
0.5
 11
1.0
 21
1.0
 12
0.0
 22
0.0
 13
0.0
 23
0.0
 14
0.5
 24
0.5
 15
0.5
 25
0.5
 16
0.5773502691896258
 26
-0.5773502691896258
 36
0.5773502691896258
 17
0.0
 27
0.0
 37
0.0
 40
809.452858
 41
0.021937
 42
50.0
 43
421.566014
 44
-421.566014
 50
0.0
 51
0.0
 71
     0
 72
   100
 73
     1
 74
     3
 75
     0
 76
     0
 77
     0
 78
     0
  0
VPORT
  5
2B8
330
8
100
AcDbSymbolTableRecord
100
AcDbViewportTableRecord
  2
L6
 70
     0
 10
0.0
 20
0.5
 11
0.333333
 21
1.0
 12
0.0
 22
0.0
 13
0.0
 23
0.0
 14
0.5
 24
0.5
 15
0.5
 25
0.5
 16
0.7188730927569433
 26
-0.5850486126764433
 36
0.3754192287502549
 17
0.0
 27
0.0
 37
0.0
 40
854.218826
 41
0.020787
 42
50.0
 43
442.281641
 44
-442.281641
 50
0.0
 51
0.0
 71
     0
 72
   100
 73
     1
 74
     3
 75
     0
 76
     0
 77
     0
 78
     0
  0
VPORT
  5
2B9
330
8
100
AcDbSymbolTableRecord
100
AcDbViewportTableRecord
  2
L6
 70
     0
 10
0.0
 20
0.0
 11
0.333333
 21
0.5
 12
0.0
 22
0.0
 13
0.0
 23
0.0
 14
0.5
 24
0.5
 15
0.5
 25
0.5
 16
-1.0
 26
0.0
 36
0.0
 17
0.0
 27
0.0
 37
0.0
 40
824.553445
 41
0.021535
 42
50.0
 43
417.549239
 44
-417.549239
 50
0.0
 51
0.0
 71
     0
 72
   100
 73
     1
 74
     3
 75
     0
 76
     0
 77
     0
 78
     0
  0
VPORT
  5
2BA
330
8
100
AcDbSymbolTableRecord
100
AcDbViewportTableRecord
  2
L6
 70
     0
 10
0.333333
 20
0.5
 11
0.666667
 21
1.0
 12
-54.5
 22
0.0
 13
0.0
 23
0.0
 14
0.5
 24
0.5
 15
0.5
 25
0.5
 16
0.0
 26
0.0
 36
1.0
 17
0.0
 27
0.0
 37
0.0
 40
132.291667
 41
0.134224
 42
50.0
 43
439.404046
 44
-439.404046
 50
0.0
 51
0.0
 71
     0
 72
   100
 73
     1
 74
     3
 75
     0
 76
     0
 77
     0
 78
     0
  0
VPORT
  5
2BB
330
8
100
AcDbSymbolTableRecord
100
AcDbViewportTableRecord
  2
L6
 70
     0
 10
0.333333
 20
0.0
 11
0.666667
 21
0.5
 12
0.0
 22
0.0
 13
0.0
 23
0.0
 14
0.5
 24
0.5
 15
0.5
 25
0.5
 16
0.0
 26
-1.0
 36
0.0
 17
0.0
 27
0.0
 37
0.0
 40
824.553445
 41
0.021535
 42
50.0
 43
424.390553
 44
-424.390553
 50
0.0
 51
0.0
 71
     0
 72
   100
 73
     1
 74
     3
 75
     0
 76
     0
 77
     0
 78
     0
  0
VPORT
  5
2BC
330
8
100
AcDbSymbolTableRecord
100
AcDbViewportTableRecord
  2
L6
 70
     0
 10
0.666667
 20
0.5
 11
1.0
 21
1.0
 12
0.0
 22
0.0
 13
0.0
 23
0.0
 14
0.5
 24
0.5
 15
0.5
 25
0.5
 16
0.5773502691896258
 26
-0.5773502691896258
 36
0.5773502691896258
 17
0.0
 27
0.0
 37
0.0
 40
809.452858
 41
0.021937
 42
50.0
 43
421.566014
 44
-421.566014
 50
0.0
 51
0.0
 71
     0
 72
   100
 73
     1
 74
     3
 75
     0
 76
     0
 77
     0
 78
     0
  0
VPORT
  5
2BD
330
8
100
AcDbSymbolTableRecord
100
AcDbViewportTableRecord
  2
L6
 70
     0
 10
0.666667
 20
0.0
 11
1.0
 21
0.5
 12
0.0
 22
0.0
 13
0.0
 23
0.0
 14
0.5
 24
0.5
 15
0.5
 25
0.5
 16
1.0
 26
0.0
 36
0.0
 17
0.0
 27
0.0
 37
0.0
 40
824.553445
 41
0.021535
 42
50.0
 43
417.549239
 44
-417.549239
 50
0.0
 51
0.0
 71
     0
 72
   100
 73
     1
 74
     3
 75
     0
 76
     0
 77
     0
 78
     0
  0
ENDTAB
  0
TABLE
  2
LTYPE
  5
5
330
0
100
AcDbSymbolTable
 70
    10
  0
LTYPE
  5
14
330
5
100
AcDbSymbolTableRecord
100
AcDbLinetypeTableRecord
  2
BYBLOCK
 70
     0
  3

 72
    65
 73
     0
 40
0.0
  0
LTYPE
  5
15
330
5
100
AcDbSymbolTableRecord
100
AcDbLinetypeTableRecord
  2
BYLAYER
 70
     0
  3

 72
    65
 73
     0
 40
0.0
  0
LTYPE
  5
16
330
5
100
AcDbSymbolTableRecord
100
AcDbLinetypeTableRecord
  2
CONTINUOUS
 70
     0
  3
Solid line
 72
    65
 73
     0
 40
0.0
  0
LTYPE
  5
5F
330
5
100
AcDbSymbolTableRecord
100
AcDbLinetypeTableRecord
  2
ACAD_ISO04W100
 70
     0
  3
ISO long-dash dot ____ . ____ . ____ . ____ . _
 72
    65
 73
     4
 40
30.0
 49
24.0
 74
     4
 75
     0
340
0
 46
0.0
 50
0.0
 44
0.0
 45
0.0
 49
-3.0
 74
     4
 75
     0
340
0
 46
0.0
 50
0.0
 44
0.0
 45
0.0
 49
0.0
 74
     4
 75
     0
340
0
 46
0.0
 50
0.0
 44
0.0
 45
0.0
 49
-3.0
 74
     4
 75
     0
340
0
 46
0.0
 50
0.0
 44
0.0
 45
0.0
  0
LTYPE
  5
60
330
5
100
AcDbSymbolTableRecord
100
AcDbLinetypeTableRecord
  2
ACAD_ISO05W100
 70
     0
  3
ISO long-dash double-dot ____ .. ____ .. ____ . 
 72
    65
 73
     6
 40
33.0
 49
24.0
 74
     4
 75
     0
340
0
 46
0.0
 50
0.0
 44
0.0
 45
0.0
 49
-3.0
 74
     4
 75
     0
340
0
 46
0.0
 50
0.0
 44
0.0
 45
0.0
 49
0.0
 74
     4
 75
     0
340
0
 46
0.0
 50
0.0
 44
0.0
 45
0.0
 49
-3.0
 74
     4
 75
     0
340
0
 46
0.0
 50
0.0
 44
0.0
 45
0.0
 49
0.0
 74
     4
 75
     0
340
0
 46
0.0
 50
0.0
 44
0.0
 45
0.0
 49
-3.0
 74
     4
 75
     0
340
0
 46
0.0
 50
0.0
 44
0.0
 45
0.0
  0
LTYPE
  5
61
330
5
100
AcDbSymbolTableRecord
100
AcDbLinetypeTableRecord
  2
ACAD_ISO06W100
 70
     0
  3
ISO long-dash triple-dot ____ ... ____ ... ____
 72
    65
 73
     8
 40
36.0
 49
24.0
 74
     4
 75
     0
340
0
 46
0.0
 50
0.0
 44
0.0
 45
0.0
 49
-3.0
 74
     4
 75
     0
340
0
 46
0.0
 50
0.0
 44
0.0
 45
0.0
 49
0.0
 74
     4
 75
     0
340
0
 46
0.0
 50
0.0
 44
0.0
 45
0.0
 49
-3.0
 74
     4
 75
     0
340
0
 46
0.0
 50
0.0
 44
0.0
 45
0.0
 49
0.0
 74
     4
 75
     0
340
0
 46
0.0
 50
0.0
 44
0.0
 45
0.0
 49
-3.0
 74
     4
 75
     0
340
0
 46
0.0
 50
0.0
 44
0.0
 45
0.0
 49
0.0
 74
     4
 75
     0
340
0
 46
0.0
 50
0.0
 44
0.0
 45
0.0
 49
-3.0
 74
     4
 75
     0
340
0
 46
0.0
 50
0.0
 44
0.0
 45
0.0
  0
LTYPE
  5
62
330
5
100
AcDbSymbolTableRecord
100
AcDbLinetypeTableRecord
  2
ACAD_ISO09W100
 70
     0
  3
ISO long-dash double-short-dash ____ __ __ ____
 72
    65
 73
     6
 40
45.0
 49
24.0
 74
     4
 75
     0
340
0
 46
0.0
 50
0.0
 44
0.0
 45
0.0
 49
-3.0
 74
     4
 75
     0
340
0
 46
0.0
 50
0.0
 44
0.0
 45
0.0
 49
6.0
 74
     4
 75
     0
340
0
 46
0.0
 50
0.0
 44
0.0
 45
0.0
 49
-3.0
 74
     4
 75
     0
340
0
 46
0.0
 50
0.0
 44
0.0
 45
0.0
 49
6.0
 74
     4
 75
     0
340
0
 46
0.0
 50
0.0
 44
0.0
 45
0.0
 49
-3.0
 74
     4
 75
     0
340
0
 46
0.0
 50
0.0
 44
0.0
 45
0.0
  0
LTYPE
  5
63
330
5
100
AcDbSymbolTableRecord
100
AcDbLinetypeTableRecord
  2
CENTER
 70
     0
  3
____ _ ____ _ ____ _ ____
 72
    65
 73
     4
 40
47.4
 49
22.0
 74
     4
 75
     0
340
0
 46
0.0
 50
0.0
 44
0.0
 45
0.0
 49
-8.5
 74
     4
 75
     0
340
0
 46
0.0
 50
0.0
 44
0.0
 45
0.0
 49
8.5
 74
     4
 75
     0
340
0
 46
0.0
 50
0.0
 44
0.0
 45
0.0
 49
-8.5
 74
     4
 75
     0
340
0
 46
0.0
 50
0.0
 44
0.0
 45
0.0
  0
LTYPE
  5
64
330
5
100
AcDbSymbolTableRecord
100
AcDbLinetypeTableRecord
  2
DASHDOT
 70
     0
  3
_._._._._._._._._._._._._._._._.
 72
    65
 73
     4
 40
70.0
 49
31.0
 74
     4
 75
     0
340
0
 46
0.0
 50
0.0
 44
0.0
 45
0.0
 49
-13.0
 74
     4
 75
     0
340
0
 46
0.0
 50
0.0
 44
0.0
 45
0.0
 49
13.0
 74
     4
 75
     0
340
0
 46
0.0
 50
0.0
 44
0.0
 45
0.0
 49
-13.0
 74
     4
 75
     0
340
0
 46
0.0
 50
0.0
 44
0.0
 45
0.0
  0
LTYPE
  5
65
330
5
100
AcDbSymbolTableRecord
100
AcDbLinetypeTableRecord
  2
DASHED
 70
     0
  3
__ __ __ __ __ __ __ __ __
 72
    65
 73
     2
 40
25.72
 49
12.86
 74
     4
 75
     0
340
0
 46
0.0
 50
0.0
 44
0.0
 45
0.0
 49
-12.86
 74
     4
 75
     0
340
0
 46
0.0
 50
0.0
 44
0.0
 45
0.0
  0
LTYPE
  5
66
330
5
100
AcDbSymbolTableRecord
100
AcDbLinetypeTableRecord
  2
DOT
 70
     0
  3
.........................
 72
    65
 73
     2
 40
10.0
 49
0.0
 74
     4
 75
     0
340
0
 46
0.0
 50
0.0
 44
0.0
 45
0.0
 49
-10.0
 74
     4
 75
     0
340
0
 46
0.0
 50
0.0
 44
0.0
 45
0.0
  0
LTYPE
  5
67
330
5
100
AcDbSymbolTableRecord
100
AcDbLinetypeTableRecord
  2
PHANTOM
 70
     0
  3
____ _ _ ____ _ _ _____ _ _ ____
 72
    65
 73
     6
 40
50.5
 49
18.0
 74
     4
 75
     0
340
0
 46
0.0
 50
0.0
 44
0.0
 45
0.0
 49
-6.5
 74
     4
 75
     0
340
0
 46
0.0
 50
0.0
 44
0.0
 45
0.0
 49
6.5
 74
     4
 75
     0
340
0
 46
0.0
 50
0.0
 44
0.0
 45
0.0
 49
-6.5
 74
     4
 75
     0
340
0
 46
0.0
 50
0.0
 44
0.0
 45
0.0
 49
6.5
 74
     4
 75
     0
340
0
 46
0.0
 50
0.0
 44
0.0
 45
0.0
 49
-6.5
 74
     4
 75
     0
340
0
 46
0.0
 50
0.0
 44
0.0
 45
0.0
  0
ENDTAB
  0
TABLE
  2
LAYER
  5
2
330
0
100
AcDbSymbolTable
 70
     3
  0
LAYER
  5
10
330
2
100
AcDbSymbolTableRecord
100
AcDbLayerTableRecord
  2
0
 70
     0
 62
     7
  6
CONTINUOUS
  0
LAYER
  5
69
330
2
100
AcDbSymbolTableRecord
100
AcDbLayerTableRecord
  2
61
 70
     0
 62
     7
  6
CONTINUOUS
  0
LAYER
  5
6B
330
2
100
AcDbSymbolTableRecord
100
AcDbLayerTableRecord
  2
1
 70
     0
 62
     7
  6
CONTINUOUS
  0
ENDTAB
  0
TABLE
  2
STYLE
  5
3
330
0
100
AcDbSymbolTable
 70
     1
  0
STYLE
  5
11
330
3
100
AcDbSymbolTableRecord
100
AcDbTextStyleTableRecord
  2
STANDARD
 70
     0
 40
0.0
 41
1.0
 50
0.0
 71
     0
 42
0.2
  3
txt
  4

  0
ENDTAB
  0
TABLE
  2
VIEW
  5
6
330
0
100
AcDbSymbolTable
 70
     8
  0
VIEW
  5
2A7
330
6
100
AcDbSymbolTableRecord
100
AcDbViewTableRecord
  2
TOP
 70
     0
 40
132.291667
 10
-54.5
 20
0.0
 41
201.347917
 11
0.0
 21
0.0
 31
1.0
 12
0.0
 22
0.0
 32
0.0
 42
50.0
 43
439.404046
 44
-439.404046
 50
0.0
 71
     0
  0
VIEW
  5
2A8
330
6
100
AcDbSymbolTableRecord
100
AcDbViewTableRecord
  2
FRONT
 70
     0
 40
824.553445
 10
0.0
 20
0.0
 41
201.347917
 11
0.0
 21
-1.0
 31
0.0
 12
0.0
 22
0.0
 32
0.0
 42
50.0
 43
424.390553
 44
-424.390553
 50
0.0
 71
     0
  0
VIEW
  5
2A9
330
6
100
AcDbSymbolTableRecord
100
AcDbViewTableRecord
  2
RIGHT
 70
     0
 40
824.553445
 10
0.0
 20
0.0
 41
132.291667
 11
1.0
 21
0.0
 31
0.0
 12
0.0
 22
0.0
 32
0.0
 42
50.0
 43
417.549239
 44
-417.549239
 50
0.0
 71
     0
  0
VIEW
  5
2AA
330
6
100
AcDbSymbolTableRecord
100
AcDbViewTableRecord
  2
BACK
 70
     0
 40
824.553445
 10
0.0
 20
0.0
 41
201.347917
 11
0.0
 21
1.0
 31
0.0
 12
0.0
 22
0.0
 32
0.0
 42
50.0
 43
424.390553
 44
-424.390553
 50
0.0
 71
     0
  0
VIEW
  5
2AB
330
6
100
AcDbSymbolTableRecord
100
AcDbViewTableRecord
  2
BOTTOM
 70
     0
 40
132.291667
 10
0.0
 20
0.0
 41
201.347917
 11
0.0
 21
0.0
 31
-1.0
 12
0.0
 22
0.0
 32
0.0
 42
50.0
 43
412.276722
 44
-412.276722
 50
180.0
 71
     0
  0
VIEW
  5
2AC
330
6
100
AcDbSymbolTableRecord
100
AcDbViewTableRecord
  2
LEFT
 70
     0
 40
824.553445
 10
0.0
 20
0.0
 41
132.291667
 11
-1.0
 21
0.0
 31
0.0
 12
0.0
 22
0.0
 32
0.0
 42
50.0
 43
417.549239
 44
-417.549239
 50
0.0
 71
     0
  0
VIEW
  5
2AD
330
6
100
AcDbSymbolTableRecord
100
AcDbViewTableRecord
  2
ISOMETRIC
 70
     0
 40
809.452858
 10
0.0
 20
0.0
 41
235.918812
 11
0.5773502691896258
 21
-0.5773502691896258
 31
0.5773502691896258
 12
0.0
 22
0.0
 32
0.0
 42
50.0
 43
421.566014
 44
-421.566014
 50
0.0
 71
     0
  0
VIEW
  5
2AE
330
6
100
AcDbSymbolTableRecord
100
AcDbViewTableRecord
  2
TRIMETRIC
 70
     0
 40
854.218826
 10
0.0
 20
0.0
 41
229.700668
 11
0.7188730927569433
 21
-0.5850486126764433
 31
0.3754192287502549
 12
0.0
 22
0.0
 32
0.0
 42
50.0
 43
442.281641
 44
-442.281641
 50
0.0
 71
     0
  0
ENDTAB
  0
TABLE
  2
UCS
  5
7
330
0
100
AcDbSymbolTable
 70
     0
  0
ENDTAB
  0
TABLE
  2
APPID
  5
9
330
0
100
AcDbSymbolTable
 70
     2
  0
APPID
  5
12
330
9
100
AcDbSymbolTableRecord
100
AcDbRegAppTableRecord
  2
ACAD
 70
     0
  0
APPID
  5
2F1
330
9
100
AcDbSymbolTableRecord
100
AcDbRegAppTableRecord
  2
ACAD_MLEADERVER
 70
     0
  0
ENDTAB
  0
TABLE
  2
DIMSTYLE
  5
A
330
0
100
AcDbSymbolTable
 70
     1
  0
DIMSTYLE
105
27
330
A
100
AcDbSymbolTableRecord
100
AcDbDimStyleTableRecord
  2
STANDARD
 70
     0
  3

  4

  5

  6

  7

 40
1.0
 41
0.18
 42
0.0625
 43
0.38
 44
0.18
 45
0.0
 46
0.0
 47
0.0
 48
0.0
140
0.18
141
0.09
142
0.0
143
25.4
144
1.0
145
0.0
146
1.0
147
0.09
 71
     0
 72
     0
 73
     1
 74
     1
 75
     0
 76
     0
 77
     0
 78
     0
170
     0
171
     2
172
     0
173
     0
174
     0
175
     0
176
     0
177
     0
178
     0
270
     2
271
     4
272
     4
273
     2
274
     2
340
11
275
     0
280
     0
281
     0
282
     0
283
     1
284
     0
285
     0
286
     0
287
     3
288
     0
  0
ENDTAB
  0
TABLE
  2
BLOCK_RECORD
  5
1
330
0
100
AcDbSymbolTable
 70
     0
  0
BLOCK_RECORD
  5
1F
330
1
100
AcDbSymbolTableRecord
100
AcDbBlockTableRecord
  2
*MODEL_SPACE
  0
BLOCK_RECORD
  5
1B
330
1
100
AcDbSymbolTableRecord
100
AcDbBlockTableRecord
  2
*PAPER_SPACE
  0
ENDTAB
  0
ENDSEC
  0
SECTION
  2
BLOCKS
  0
BLOCK
  5
20
330
1F
100
AcDbEntity
  8
0
100
AcDbBlockBegin
  2
*MODEL_SPACE
 70
     0
 10
0.0
 20
0.0
 30
0.0
  3
*MODEL_SPACE
  1

  0
ENDBLK
  5
21
330
1F
100
AcDbEntity
  8
0
100
AcDbBlockEnd
  0
BLOCK
  5
1C
330
1B
100
AcDbEntity
 67
     1
  8
0
100
AcDbBlockBegin
  2
*PAPER_SPACE
 70
     0
 10
0.0
 20
0.0
 30
0.0
  3
*PAPER_SPACE
  1

  0
ENDBLK
  5
1D
330
1B
100
AcDbEntity
 67
     1
  8
0
100
AcDbBlockEnd
  0
ENDSEC
  0
SECTION
  2
ENTITIES
  0
POINT
  5
68
330
1F
100
AcDbEntity
  8
61
  6
CONTINUOUS
 62
    23
100
AcDbPoint
 10
0.0
 20
0.0
 30
0.0
  0
CIRCLE
  5
6A
330
1F
100
AcDbEntity
  8
1
  6
CONTINUOUS
 62
   163
100
AcDbCircle
 10
-90.15154
 20
-35.649998
 30
0.0
 40
2.2
  0
CIRCLE
  5
6C
330
1F
100
AcDbEntity
  8
1
  6
CONTINUOUS
 62
   252
100
AcDbCircle
 10
-18.85154
 20
35.650002
 30
0.0
 40
2.2
  0
CIRCLE
  5
6D
330
1F
100
AcDbEntity
  8
1
  6
CONTINUOUS
 62
   252
100
AcDbCircle
 10
-90.15154
 20
-35.649998
 30
0.0
 40
2.2
  0
CIRCLE
  5
6E
330
1F
100
AcDbEntity
  8
1
  6
CONTINUOUS
 62
   252
100
AcDbCircle
 10
-90.15154
 20
35.650002
 30
0.0
 40
2.2
  0
CIRCLE
  5
6F
330
1F
100
AcDbEntity
  8
1
  6
CONTINUOUS
 62
   252
100
AcDbCircle
 10
-18.85154
 20
35.650002
 30
0.0
 40
2.2
  0
CIRCLE
  5
70
330
1F
100
AcDbEntity
  8
1
  6
CONTINUOUS
 62
   252
100
AcDbCircle
 10
-90.15154
 20
-35.649998
 30
0.0
 40
2.2
  0
CIRCLE
  5
71
330
1F
100
AcDbEntity
  8
1
  6
CONTINUOUS
 62
   252
100
AcDbCircle
 10
-18.85154
 20
-35.649998
 30
0.0
 40
2.2
  0
CIRCLE
  5
72
330
1F
100
AcDbEntity
  8
1
  6
CONTINUOUS
 62
   252
100
AcDbCircle
 10
-90.15154
 20
35.650002
 30
0.0
 40
2.2
  0
CIRCLE
  5
73
330
1F
100
AcDbEntity
  8
1
  6
CONTINUOUS
 62
   252
100
AcDbCircle
 10
-18.85154
 20
-35.649998
 30
0.0
 40
2.2
  0
CIRCLE
  5
74
330
1F
100
AcDbEntity
  8
1
  6
CONTINUOUS
 62
   252
100
AcDbCircle
 10
-54.50154
 20
0.000002
 30
0.0
 40
40.0
  0
CIRCLE
  5
75
330
1F
100
AcDbEntity
  8
1
  6
CONTINUOUS
 62
   252
100
AcDbCircle
 10
-54.50154
 20
0.000002
 30
0.0
 40
40.0
  0
CIRCLE
  5
76
330
1F
100
AcDbEntity
  8
1
  6
CONTINUOUS
 62
   163
100
AcDbCircle
 10
-18.85154
 20
-35.649998
 30
0.0
 40
2.2
  0
CIRCLE
  5
77
330
1F
100
AcDbEntity
  8
1
  6
CONTINUOUS
 62
   163
100
AcDbCircle
 10
-90.15154
 20
35.650002
 30
0.0
 40
2.2
  0
CIRCLE
  5
78
330
1F
100
AcDbEntity
  8
1
  6
CONTINUOUS
 62
   163
100
AcDbCircle
 10
-18.85154
 20
35.650002
 30
0.0
 40
2.2
  0
CIRCLE
  5
79
330
1F
100
AcDbEntity
  8
1
  6
CONTINUOUS
 62
   163
100
AcDbCircle
 10
-54.50154
 20
0.000002
 30
0.0
 40
40.0
  0
CIRCLE
  5
7A
330
1F
100
AcDbEntity
  8
1
  6
CONTINUOUS
 62
     7
100
AcDbCircle
 10
-20.0
 20
120.0
 30
0.0
 40
2.2
  0
CIRCLE
  5
7B
330
1F
100
AcDbEntity
  8
1
  6
CONTINUOUS
 62
     7
100
AcDbCircle
 10
-92.0
 20
120.0
 30
0.0
 40
2.2
  0
CIRCLE
  5
7C
330
1F
100
AcDbEntity
  8
1
  6
CONTINUOUS
 62
     7
100
AcDbCircle
 10
-20.0
 20
-120.0
 30
0.0
 40
2.2
  0
CIRCLE
  5
7D
330
1F
100
AcDbEntity
  8
1
  6
CONTINUOUS
 62
     7
100
AcDbCircle
 10
-92.0
 20
-120.0
 30
0.0
 40
2.2
  0
CIRCLE
  5
7E
330
1F
100
AcDbEntity
  8
1
  6
CONTINUOUS
 62
     7
100
AcDbCircle
 10
-4.29
 20
0.0
 30
0.0
 40
2.2
  0
CIRCLE
  5
7F
330
1F
100
AcDbEntity
  8
1
  6
CONTINUOUS
 62
     7
100
AcDbCircle
 10
-107.71
 20
0.0
 30
0.0
 40
2.2
  0
POLYLINE
  5
80
330
1F
100
AcDbEntity
  8
1
  6
CONTINUOUS
 62
   252
100
AcDb2dPolyline
 66
     1
 10
0.0
 20
0.0
 30
0.0
  0
VERTEX
  5
81
330
80
100
AcDbEntity
  8
1
  6
CONTINUOUS
 62
   252
100
AcDbVertex
100
AcDb2dVertex
 10
-104.5
 20
-51.75
 30
0.0
  0
VERTEX
  5
82
330
80
100
AcDbEntity
  8
1
  6
CONTINUOUS
 62
   252
100
AcDbVertex
100
AcDb2dVertex
 10
-103.260939
 20
-51.75
 30
0.0
  0
VERTEX
  5
83
330
80
100
AcDbEntity
  8
1
  6
CONTINUOUS
 62
   252
100
AcDbVertex
100
AcDb2dVertex
 10
-102.021878
 20
-51.75
 30
0.0
  0
VERTEX
  5
84
330
80
100
AcDbEntity
  8
1
  6
CONTINUOUS
 62
   252
100
AcDbVertex
100
AcDb2dVertex
 10
-100.782817
 20
-51.75
 30
0.0
  0
VERTEX
  5
85
330
80
100
AcDbEntity
  8
1
  6
CONTINUOUS
 62
   252
100
AcDbVertex
100
AcDb2dVertex
 10
-99.534783
 20
-51.775539
 30
0.0
  0
VERTEX
  5
86
330
80
100
AcDbEntity
  8
1
  6
CONTINUOUS
 62
   252
100
AcDbVertex
100
AcDb2dVertex
 10
-98.235431
 20
-52.133633
 30
0.0
  0
VERTEX
  5
87
330
80
100
AcDbEntity
  8
1
  6
CONTINUOUS
 62
   252
100
AcDbVertex
100
AcDb2dVertex
 10
-97.232993
 20
-52.77414
 30
0.0
  0
VERTEX
  5
88
330
80
100
AcDbEntity
  8
1
  6
CONTINUOUS
 62
   252
100
AcDbVertex
100
AcDb2dVertex
 10
-96.440296
 20
-53.678146
 30
0.0
  0
VERTEX
  5
89
330
80
100
AcDbEntity
  8
1
  6
CONTINUOUS
 62
   252
100
AcDbVertex
100
AcDb2dVertex
 10
-95.942598
 20
-54.735093
 30
0.0
  0
VERTEX
  5
8A
330
80
100
AcDbEntity
  8
1
  6
CONTINUOUS
 62
   252
100
AcDbVertex
100
AcDb2dVertex
 10
-95.754094
 20
-55.813511
 30
0.0
  0
VERTEX
  5
8B
330
80
100
AcDbEntity
  8
1
  6
CONTINUOUS
 62
   252
100
AcDbVertex
100
AcDb2dVertex
 10
-95.840988
 20
-56.874711
 30
0.0
  0
VERTEX
  5
8C
330
80
100
AcDbEntity
  8
1
  6
CONTINUOUS
 62
   252
100
AcDbVertex
100
AcDb2dVertex
 10
-96.225819
 20
-57.953985
 30
0.0
  0
VERTEX
  5
8D
330
80
100
AcDbEntity
  8
1
  6
CONTINUOUS
 62
   252
100
AcDbVertex
100
AcDb2dVertex
 10
-96.919197
 20
-58.927653
 30
0.0
  0
VERTEX
  5
8E
330
80
100
AcDbEntity
  8
1
  6
CONTINUOUS
 62
   252
100
AcDbVertex
100
AcDb2dVertex
 10
-97.85999
 20
-59.671901
 30
0.0
  0
VERTEX
  5
8F
330
80
100
AcDbEntity
  8
1
  6
CONTINUOUS
 62
   252
100
AcDbVertex
100
AcDb2dVertex
 10
-98.930244
 20
-60.113165
 30
0.0
  0
VERTEX
  5
90
330
80
100
AcDbEntity
  8
1
  6
CONTINUOUS
 62
   252
100
AcDbVertex
100
AcDb2dVertex
 10
-100.0
 20
-60.25
 30
0.0
  0
SEQEND
  5
91
330
80
100
AcDbEntity
  8
1
  6
CONTINUOUS
 62
   252
  0
POLYLINE
  5
92
330
1F
100
AcDbEntity
  8
1
  6
CONTINUOUS
 62
   252
100
AcDb2dPolyline
 66
     1
 10
0.0
 20
0.0
 30
0.0
  0
VERTEX
  5
93
330
92
100
AcDbEntity
  8
1
  6
CONTINUOUS
 62
   252
100
AcDbVertex
100
AcDb2dVertex
 10
3.0
 20
-127.0
 30
0.0
  0
VERTEX
  5
94
330
92
100
AcDbEntity
  8
1
  6
CONTINUOUS
 62
   252
100
AcDbVertex
100
AcDb2dVertex
 10
3.0
 20
15.24
 30
0.0
  0
VERTEX
  5
95
330
92
100
AcDbEntity
  8
1
  6
CONTINUOUS
 62
   252
100
AcDbVertex
100
AcDb2dVertex
 10
3.0
 20
127.0
 30
0.0
  0
SEQEND
  5
96
330
92
100
AcDbEntity
  8
1
  6
CONTINUOUS
 62
   252
  0
POLYLINE
  5
97
330
1F
100
AcDbEntity
  8
1
  6
CONTINUOUS
 62
   252
100
AcDb2dPolyline
 66
     1
 10
0.0
 20
0.0
 30
0.0
  0
VERTEX
  5
98
330
97
100
AcDbEntity
  8
1
  6
CONTINUOUS
 62
   252
100
AcDbVertex
100
AcDb2dVertex
 10
-104.5
 20
-76.25
 30
0.0
  0
VERTEX
  5
99
330
97
100
AcDbEntity
  8
1
  6
CONTINUOUS
 62
   252
100
AcDbVertex
100
AcDb2dVertex
 10
-104.5
 20
-79.949447
 30
0.0
  0
VERTEX
  5
9A
330
97
100
AcDbEntity
  8
1
  6
CONTINUOUS
 62
   252
100
AcDbVertex
100
AcDb2dVertex
 10
-104.5
 20
-81.577204
 30
0.0
  0
VERTEX
  5
9B
330
97
100
AcDbEntity
  8
1
  6
CONTINUOUS
 62
   252
100
AcDbVertex
100
AcDb2dVertex
 10
-104.5
 20
-82.003521
 30
0.0
  0
VERTEX
  5
9C
330
97
100
AcDbEntity
  8
1
  6
CONTINUOUS
 62
   252
100
AcDbVertex
100
AcDb2dVertex
 10
-104.5
 20
-82.429838
 30
0.0
  0
VERTEX
  5
9D
330
97
100
AcDbEntity
  8
1
  6
CONTINUOUS
 62
   252
100
AcDbVertex
100
AcDb2dVertex
 10
-104.571292
 20
-82.870812
 30
0.0
  0
VERTEX
  5
9E
330
97
100
AcDbEntity
  8
1
  6
CONTINUOUS
 62
   252
100
AcDbVertex
100
AcDb2dVertex
 10
-104.845992
 20
-83.256488
 30
0.0
  0
VERTEX
  5
9F
330
97
100
AcDbEntity
  8
1
  6
CONTINUOUS
 62
   252
100
AcDbVertex
100
AcDb2dVertex
 10
-105.259551
 20
-83.470662
 30
0.0
  0
VERTEX
  5
A0
330
97
100
AcDbEntity
  8
1
  6
CONTINUOUS
 62
   252
100
AcDbVertex
100
AcDb2dVertex
 10
-105.711581
 20
-83.5
 30
0.0
  0
VERTEX
  5
A1
330
97
100
AcDbEntity
  8
1
  6
CONTINUOUS
 62
   252
100
AcDbVertex
100
AcDb2dVertex
 10
-106.195306
 20
-83.5
 30
0.0
  0
VERTEX
  5
A2
330
97
100
AcDbEntity
  8
1
  6
CONTINUOUS
 62
   252
100
AcDbVertex
100
AcDb2dVertex
 10
-108.130204
 20
-83.5
 30
0.0
  0
VERTEX
  5
A3
330
97
100
AcDbEntity
  8
1
  6
CONTINUOUS
 62
   252
100
AcDbVertex
100
AcDb2dVertex
 10
-112.0
 20
-83.5
 30
0.0
  0
SEQEND
  5
A4
330
97
100
AcDbEntity
  8
1
  6
CONTINUOUS
 62
   252
  0
POLYLINE
  5
A5
330
1F
100
AcDbEntity
  8
1
  6
CONTINUOUS
 62
   252
100
AcDb2dPolyline
 66
     1
 10
0.0
 20
0.0
 30
0.0
  0
VERTEX
  5
A6
330
A5
100
AcDbEntity
  8
1
  6
CONTINUOUS
 62
   252
100
AcDbVertex
100
AcDb2dVertex
 10
-112.0
 20
-127.0
 30
0.0
  0
VERTEX
  5
A7
330
A5
100
AcDbEntity
  8
1
  6
CONTINUOUS
 62
   252
100
AcDbVertex
100
AcDb2dVertex
 10
-47.6
 20
-127.0
 30
0.0
  0
VERTEX
  5
A8
330
A5
100
AcDbEntity
  8
1
  6
CONTINUOUS
 62
   252
100
AcDbVertex
100
AcDb2dVertex
 10
3.0
 20
-127.0
 30
0.0
  0
SEQEND
  5
A9
330
A5
100
AcDbEntity
  8
1
  6
CONTINUOUS
 62
   252
  0
POLYLINE
  5
AA
330
1F
100
AcDbEntity
  8
1
  6
CONTINUOUS
 62
   252
100
AcDb2dPolyline
 66
     1
 10
0.0
 20
0.0
 30
0.0
  0
VERTEX
  5
AB
330
AA
100
AcDbEntity
  8
1
  6
CONTINUOUS
 62
   252
100
AcDbVertex
100
AcDb2dVertex
 10
-100.0
 20
60.25
 30
0.0
  0
VERTEX
  5
AC
330
AA
100
AcDbEntity
  8
1
  6
CONTINUOUS
 62
   252
100
AcDbVertex
100
AcDb2dVertex
 10
-98.930244
 20
60.113165
 30
0.0
  0
VERTEX
  5
AD
330
AA
100
AcDbEntity
  8
1
  6
CONTINUOUS
 62
   252
100
AcDbVertex
100
AcDb2dVertex
 10
-97.85999
 20
59.671901
 30
0.0
  0
VERTEX
  5
AE
330
AA
100
AcDbEntity
  8
1
  6
CONTINUOUS
 62
   252
100
AcDbVertex
100
AcDb2dVertex
 10
-96.919197
 20
58.927653
 30
0.0
  0
VERTEX
  5
AF
330
AA
100
AcDbEntity
  8
1
  6
CONTINUOUS
 62
   252
100
AcDbVertex
100
AcDb2dVertex
 10
-96.225819
 20
57.953985
 30
0.0
  0
VERTEX
  5
B0
330
AA
100
AcDbEntity
  8
1
  6
CONTINUOUS
 62
   252
100
AcDbVertex
100
AcDb2dVertex
 10
-95.840988
 20
56.874711
 30
0.0
  0
VERTEX
  5
B1
330
AA
100
AcDbEntity
  8
1
  6
CONTINUOUS
 62
   252
100
AcDbVertex
100
AcDb2dVertex
 10
-95.754094
 20
55.813511
 30
0.0
  0
VERTEX
  5
B2
330
AA
100
AcDbEntity
  8
1
  6
CONTINUOUS
 62
   252
100
AcDbVertex
100
AcDb2dVertex
 10
-95.942598
 20
54.735093
 30
0.0
  0
VERTEX
  5
B3
330
AA
100
AcDbEntity
  8
1
  6
CONTINUOUS
 62
   252
100
AcDbVertex
100
AcDb2dVertex
 10
-96.440296
 20
53.678146
 30
0.0
  0
VERTEX
  5
B4
330
AA
100
AcDbEntity
  8
1
  6
CONTINUOUS
 62
   252
100
AcDbVertex
100
AcDb2dVertex
 10
-97.232993
 20
52.77414
 30
0.0
  0
VERTEX
  5
B5
330
AA
100
AcDbEntity
  8
1
  6
CONTINUOUS
 62
   252
100
AcDbVertex
100
AcDb2dVertex
 10
-98.235431
 20
52.133633
 30
0.0
  0
VERTEX
  5
B6
330
AA
100
AcDbEntity
  8
1
  6
CONTINUOUS
 62
   252
100
AcDbVertex
100
AcDb2dVertex
 10
-99.534783
 20
51.775539
 30
0.0
  0
VERTEX
  5
B7
330
AA
100
AcDbEntity
  8
1
  6
CONTINUOUS
 62
   252
100
AcDbVertex
100
AcDb2dVertex
 10
-100.782817
 20
51.75
 30
0.0
  0
VERTEX
  5
B8
330
AA
100
AcDbEntity
  8
1
  6
CONTINUOUS
 62
   252
100
AcDbVertex
100
AcDb2dVertex
 10
-102.021878
 20
51.75
 30
0.0
  0
VERTEX
  5
B9
330
AA
100
AcDbEntity
  8
1
  6
CONTINUOUS
 62
   252
100
AcDbVertex
100
AcDb2dVertex
 10
-103.260939
 20
51.75
 30
0.0
  0
VERTEX
  5
BA
330
AA
100
AcDbEntity
  8
1
  6
CONTINUOUS
 62
   252
100
AcDbVertex
100
AcDb2dVertex
 10
-104.5
 20
51.75
 30
0.0
  0
SEQEND
  5
BB
330
AA
100
AcDbEntity
  8
1
  6
CONTINUOUS
 62
   252
  0
POLYLINE
  5
BC
330
1F
100
AcDbEntity
  8
1
  6
CONTINUOUS
 62
   252
100
AcDb2dPolyline
 66
     1
 10
0.0
 20
0.0
 30
0.0
  0
VERTEX
  5
BD
330
BC
100
AcDbEntity
  8
1
  6
CONTINUOUS
 62
   252
100
AcDbVertex
100
AcDb2dVertex
 10
-112.0
 20
44.5
 30
0.0
  0
VERTEX
  5
BE
330
BC
100
AcDbEntity
  8
1
  6
CONTINUOUS
 62
   252
100
AcDbVertex
100
AcDb2dVertex
 10
-112.0
 20
-5.34
 30
0.0
  0
VERTEX
  5
BF
330
BC
100
AcDbEntity
  8
1
  6
CONTINUOUS
 62
   252
100
AcDbVertex
100
AcDb2dVertex
 10
-112.0
 20
-44.5
 30
0.0
  0
SEQEND
  5
C0
330
BC
100
AcDbEntity
  8
1
  6
CONTINUOUS
 62
   252
  0
POLYLINE
  5
C1
330
1F
100
AcDbEntity
  8
1
  6
CONTINUOUS
 62
   252
100
AcDb2dPolyline
 66
     1
 10
0.0
 20
0.0
 30
0.0
  0
VERTEX
  5
C2
330
C1
100
AcDbEntity
  8
1
  6
CONTINUOUS
 62
   252
100
AcDbVertex
100
AcDb2dVertex
 10
-112.0
 20
-83.5
 30
0.0
  0
VERTEX
  5
C3
330
C1
100
AcDbEntity
  8
1
  6
CONTINUOUS
 62
   252
100
AcDbVertex
100
AcDb2dVertex
 10
-112.0
 20
-107.86
 30
0.0
  0
VERTEX
  5
C4
330
C1
100
AcDbEntity
  8
1
  6
CONTINUOUS
 62
   252
100
AcDbVertex
100
AcDb2dVertex
 10
-112.0
 20
-127.0
 30
0.0
  0
SEQEND
  5
C5
330
C1
100
AcDbEntity
  8
1
  6
CONTINUOUS
 62
   252
  0
POLYLINE
  5
C6
330
1F
100
AcDbEntity
  8
1
  6
CONTINUOUS
 62
   252
100
AcDb2dPolyline
 66
     1
 10
0.0
 20
0.0
 30
0.0
  0
VERTEX
  5
C7
330
C6
100
AcDbEntity
  8
1
  6
CONTINUOUS
 62
   252
100
AcDbVertex
100
AcDb2dVertex
 10
3.0
 20
-127.0
 30
0.0
  0
VERTEX
  5
C8
330
C6
100
AcDbEntity
  8
1
  6
CONTINUOUS
 62
   252
100
AcDbVertex
100
AcDb2dVertex
 10
3.0
 20
15.24
 30
0.0
  0
VERTEX
  5
C9
330
C6
100
AcDbEntity
  8
1
  6
CONTINUOUS
 62
   252
100
AcDbVertex
100
AcDb2dVertex
 10
3.0
 20
127.0
 30
0.0
  0
SEQEND
  5
CA
330
C6
100
AcDbEntity
  8
1
  6
CONTINUOUS
 62
   252
  0
POLYLINE
  5
CB
330
1F
100
AcDbEntity
  8
1
  6
CONTINUOUS
 62
   252
100
AcDb2dPolyline
 66
     1
 10
0.0
 20
0.0
 30
0.0
  0
VERTEX
  5
CC
330
CB
100
AcDbEntity
  8
1
  6
CONTINUOUS
 62
   252
100
AcDbVertex
100
AcDb2dVertex
 10
-104.5
 20
51.75
 30
0.0
  0
VERTEX
  5
CD
330
CB
100
AcDbEntity
  8
1
  6
CONTINUOUS
 62
   252
100
AcDbVertex
100
AcDb2dVertex
 10
-104.5
 20
48.050553
 30
0.0
  0
VERTEX
  5
CE
330
CB
100
AcDbEntity
  8
1
  6
CONTINUOUS
 62
   252
100
AcDbVertex
100
AcDb2dVertex
 10
-104.5
 20
46.422796
 30
0.0
  0
VERTEX
  5
CF
330
CB
100
AcDbEntity
  8
1
  6
CONTINUOUS
 62
   252
100
AcDbVertex
100
AcDb2dVertex
 10
-104.5
 20
45.996479
 30
0.0
  0
VERTEX
  5
D0
330
CB
100
AcDbEntity
  8
1
  6
CONTINUOUS
 62
   252
100
AcDbVertex
100
AcDb2dVertex
 10
-104.5
 20
45.570162
 30
0.0
  0
VERTEX
  5
D1
330
CB
100
AcDbEntity
  8
1
  6
CONTINUOUS
 62
   252
100
AcDbVertex
100
AcDb2dVertex
 10
-104.571292
 20
45.129188
 30
0.0
  0
VERTEX
  5
D2
330
CB
100
AcDbEntity
  8
1
  6
CONTINUOUS
 62
   252
100
AcDbVertex
100
AcDb2dVertex
 10
-104.845992
 20
44.743512
 30
0.0
  0
VERTEX
  5
D3
330
CB
100
AcDbEntity
  8
1
  6
CONTINUOUS
 62
   252
100
AcDbVertex
100
AcDb2dVertex
 10
-105.259551
 20
44.529338
 30
0.0
  0
VERTEX
  5
D4
330
CB
100
AcDbEntity
  8
1
  6
CONTINUOUS
 62
   252
100
AcDbVertex
100
AcDb2dVertex
 10
-105.711581
 20
44.5
 30
0.0
  0
VERTEX
  5
D5
330
CB
100
AcDbEntity
  8
1
  6
CONTINUOUS
 62
   252
100
AcDbVertex
100
AcDb2dVertex
 10
-106.195306
 20
44.5
 30
0.0
  0
VERTEX
  5
D6
330
CB
100
AcDbEntity
  8
1
  6
CONTINUOUS
 62
   252
100
AcDbVertex
100
AcDb2dVertex
 10
-108.130204
 20
44.5
 30
0.0
  0
VERTEX
  5
D7
330
CB
100
AcDbEntity
  8
1
  6
CONTINUOUS
 62
   252
100
AcDbVertex
100
AcDb2dVertex
 10
-112.0
 20
44.5
 30
0.0
  0
SEQEND
  5
D8
330
CB
100
AcDbEntity
  8
1
  6
CONTINUOUS
 62
   252
  0
POLYLINE
  5
D9
330
1F
100
AcDbEntity
  8
1
  6
CONTINUOUS
 62
   252
100
AcDb2dPolyline
 66
     1
 10
0.0
 20
0.0
 30
0.0
  0
VERTEX
  5
DA
330
D9
100
AcDbEntity
  8
1
  6
CONTINUOUS
 62
   252
100
AcDbVertex
100
AcDb2dVertex
 10
-100.0
 20
67.75
 30
0.0
  0
VERTEX
  5
DB
330
D9
100
AcDbEntity
  8
1
  6
CONTINUOUS
 62
   252
100
AcDbVertex
100
AcDb2dVertex
 10
-100.0
 20
63.55
 30
0.0
  0
VERTEX
  5
DC
330
D9
100
AcDbEntity
  8
1
  6
CONTINUOUS
 62
   252
100
AcDbVertex
100
AcDb2dVertex
 10
-100.0
 20
60.25
 30
0.0
  0
SEQEND
  5
DD
330
D9
100
AcDbEntity
  8
1
  6
CONTINUOUS
 62
   252
  0
POLYLINE
  5
DE
330
1F
100
AcDbEntity
  8
1
  6
CONTINUOUS
 62
   252
100
AcDb2dPolyline
 66
     1
 10
0.0
 20
0.0
 30
0.0
  0
VERTEX
  5
DF
330
DE
100
AcDbEntity
  8
1
  6
CONTINUOUS
 62
   252
100
AcDbVertex
100
AcDb2dVertex
 10
-112.0
 20
83.5
 30
0.0
  0
VERTEX
  5
E0
330
DE
100
AcDbEntity
  8
1
  6
CONTINUOUS
 62
   252
100
AcDbVertex
100
AcDb2dVertex
 10
-108.290302
 20
83.5
 30
0.0
  0
VERTEX
  5
E1
330
DE
100
AcDbEntity
  8
1
  6
CONTINUOUS
 62
   252
100
AcDbVertex
100
AcDb2dVertex
 10
-106.658035
 20
83.5
 30
0.0
  0
VERTEX
  5
E2
330
DE
100
AcDbEntity
  8
1
  6
CONTINUOUS
 62
   252
100
AcDbVertex
100
AcDb2dVertex
 10
-106.016787
 20
83.5
 30
0.0
  0
VERTEX
  5
E3
330
DE
100
AcDbEntity
  8
1
  6
CONTINUOUS
 62
   252
100
AcDbVertex
100
AcDb2dVertex
 10
-105.372765
 20
83.491873
 30
0.0
  0
VERTEX
  5
E4
330
DE
100
AcDbEntity
  8
1
  6
CONTINUOUS
 62
   252
100
AcDbVertex
100
AcDb2dVertex
 10
-104.944894
 20
83.33178
 30
0.0
  0
VERTEX
  5
E5
330
DE
100
AcDbEntity
  8
1
  6
CONTINUOUS
 62
   252
100
AcDbVertex
100
AcDb2dVertex
 10
-104.622339
 20
82.979282
 30
0.0
  0
VERTEX
  5
E6
330
DE
100
AcDbEntity
  8
1
  6
CONTINUOUS
 62
   252
100
AcDbVertex
100
AcDb2dVertex
 10
-104.501158
 20
82.548113
 30
0.0
  0
VERTEX
  5
E7
330
DE
100
AcDbEntity
  8
1
  6
CONTINUOUS
 62
   252
100
AcDbVertex
100
AcDb2dVertex
 10
-104.5
 20
82.070779
 30
0.0
  0
VERTEX
  5
E8
330
DE
100
AcDbEntity
  8
1
  6
CONTINUOUS
 62
   252
100
AcDbVertex
100
AcDb2dVertex
 10
-104.5
 20
80.130519
 30
0.0
  0
VERTEX
  5
E9
330
DE
100
AcDbEntity
  8
1
  6
CONTINUOUS
 62
   252
100
AcDbVertex
100
AcDb2dVertex
 10
-104.5
 20
76.25
 30
0.0
  0
SEQEND
  5
EA
330
DE
100
AcDbEntity
  8
1
  6
CONTINUOUS
 62
   252
  0
POLYLINE
  5
EB
330
1F
100
AcDbEntity
  8
1
  6
CONTINUOUS
 62
   252
100
AcDb2dPolyline
 66
     1
 10
0.0
 20
0.0
 30
0.0
  0
VERTEX
  5
EC
330
EB
100
AcDbEntity
  8
1
  6
CONTINUOUS
 62
   252
100
AcDbVertex
100
AcDb2dVertex
 10
-112.0
 20
-127.0
 30
0.0
  0
VERTEX
  5
ED
330
EB
100
AcDbEntity
  8
1
  6
CONTINUOUS
 62
   252
100
AcDbVertex
100
AcDb2dVertex
 10
-47.6
 20
-127.0
 30
0.0
  0
VERTEX
  5
EE
330
EB
100
AcDbEntity
  8
1
  6
CONTINUOUS
 62
   252
100
AcDbVertex
100
AcDb2dVertex
 10
3.0
 20
-127.0
 30
0.0
  0
SEQEND
  5
EF
330
EB
100
AcDbEntity
  8
1
  6
CONTINUOUS
 62
   252
  0
POLYLINE
  5
F0
330
1F
100
AcDbEntity
  8
1
  6
CONTINUOUS
 62
   252
100
AcDb2dPolyline
 66
     1
 10
0.0
 20
0.0
 30
0.0
  0
VERTEX
  5
F1
330
F0
100
AcDbEntity
  8
1
  6
CONTINUOUS
 62
   252
100
AcDbVertex
100
AcDb2dVertex
 10
3.0
 20
127.0
 30
0.0
  0
VERTEX
  5
F2
330
F0
100
AcDbEntity
  8
1
  6
CONTINUOUS
 62
   252
100
AcDbVertex
100
AcDb2dVertex
 10
-61.4
 20
127.0
 30
0.0
  0
VERTEX
  5
F3
330
F0
100
AcDbEntity
  8
1
  6
CONTINUOUS
 62
   252
100
AcDbVertex
100
AcDb2dVertex
 10
-112.0
 20
127.0
 30
0.0
  0
SEQEND
  5
F4
330
F0
100
AcDbEntity
  8
1
  6
CONTINUOUS
 62
   252
  0
POLYLINE
  5
F5
330
1F
100
AcDbEntity
  8
1
  6
CONTINUOUS
 62
   252
100
AcDb2dPolyline
 66
     1
 10
0.0
 20
0.0
 30
0.0
  0
VERTEX
  5
F6
330
F5
100
AcDbEntity
  8
1
  6
CONTINUOUS
 62
   252
100
AcDbVertex
100
AcDb2dVertex
 10
3.0
 20
127.0
 30
0.0
  0
VERTEX
  5
F7
330
F5
100
AcDbEntity
  8
1
  6
CONTINUOUS
 62
   252
100
AcDbVertex
100
AcDb2dVertex
 10
-61.4
 20
127.0
 30
0.0
  0
VERTEX
  5
F8
330
F5
100
AcDbEntity
  8
1
  6
CONTINUOUS
 62
   252
100
AcDbVertex
100
AcDb2dVertex
 10
-112.0
 20
127.0
 30
0.0
  0
SEQEND
  5
F9
330
F5
100
AcDbEntity
  8
1
  6
CONTINUOUS
 62
   252
  0
POLYLINE
  5
FA
330
1F
100
AcDbEntity
  8
1
  6
CONTINUOUS
 62
   252
100
AcDb2dPolyline
 66
     1
 10
0.0
 20
0.0
 30
0.0
  0
VERTEX
  5
FB
330
FA
100
AcDbEntity
  8
1
  6
CONTINUOUS
 62
   252
100
AcDbVertex
100
AcDb2dVertex
 10
-100.0
 20
-60.25
 30
0.0
  0
VERTEX
  5
FC
330
FA
100
AcDbEntity
  8
1
  6
CONTINUOUS
 62
   252
100
AcDbVertex
100
AcDb2dVertex
 10
-100.0
 20
-64.45
 30
0.0
  0
VERTEX
  5
FD
330
FA
100
AcDbEntity
  8
1
  6
CONTINUOUS
 62
   252
100
AcDbVertex
100
AcDb2dVertex
 10
-100.0
 20
-67.75
 30
0.0
  0
SEQEND
  5
FE
330
FA
100
AcDbEntity
  8
1
  6
CONTINUOUS
 62
   252
  0
POLYLINE
  5
FF
330
1F
100
AcDbEntity
  8
1
  6
CONTINUOUS
 62
   252
100
AcDb2dPolyline
 66
     1
 10
0.0
 20
0.0
 30
0.0
  0
VERTEX
  5
100
330
FF
100
AcDbEntity
  8
1
  6
CONTINUOUS
 62
   252
100
AcDbVertex
100
AcDb2dVertex
 10
-104.5
 20
-51.75
 30
0.0
  0
VERTEX
  5
101
330
FF
100
AcDbEntity
  8
1
  6
CONTINUOUS
 62
   252
100
AcDbVertex
100
AcDb2dVertex
 10
-103.260939
 20
-51.75
 30
0.0
  0
VERTEX
  5
102
330
FF
100
AcDbEntity
  8
1
  6
CONTINUOUS
 62
   252
100
AcDbVertex
100
AcDb2dVertex
 10
-102.021878
 20
-51.75
 30
0.0
  0
VERTEX
  5
103
330
FF
100
AcDbEntity
  8
1
  6
CONTINUOUS
 62
   252
100
AcDbVertex
100
AcDb2dVertex
 10
-100.782817
 20
-51.75
 30
0.0
  0
VERTEX
  5
104
330
FF
100
AcDbEntity
  8
1
  6
CONTINUOUS
 62
   252
100
AcDbVertex
100
AcDb2dVertex
 10
-99.534783
 20
-51.775539
 30
0.0
  0
VERTEX
  5
105
330
FF
100
AcDbEntity
  8
1
  6
CONTINUOUS
 62
   252
100
AcDbVertex
100
AcDb2dVertex
 10
-98.235431
 20
-52.133633
 30
0.0
  0
VERTEX
  5
106
330
FF
100
AcDbEntity
  8
1
  6
CONTINUOUS
 62
   252
100
AcDbVertex
100
AcDb2dVertex
 10
-97.232993
 20
-52.77414
 30
0.0
  0
VERTEX
  5
107
330
FF
100
AcDbEntity
  8
1
  6
CONTINUOUS
 62
   252
100
AcDbVertex
100
AcDb2dVertex
 10
-96.440296
 20
-53.678146
 30
0.0
  0
VERTEX
  5
108
330
FF
100
AcDbEntity
  8
1
  6
CONTINUOUS
 62
   252
100
AcDbVertex
100
AcDb2dVertex
 10
-95.942598
 20
-54.735093
 30
0.0
  0
VERTEX
  5
109
330
FF
100
AcDbEntity
  8
1
  6
CONTINUOUS
 62
   252
100
AcDbVertex
100
AcDb2dVertex
 10
-95.754094
 20
-55.813511
 30
0.0
  0
VERTEX
  5
10A
330
FF
100
AcDbEntity
  8
1
  6
CONTINUOUS
 62
   252
100
AcDbVertex
100
AcDb2dVertex
 10
-95.840988
 20
-56.874711
 30
0.0
  0
VERTEX
  5
10B
330
FF
100
AcDbEntity
  8
1
  6
CONTINUOUS
 62
   252
100
AcDbVertex
100
AcDb2dVertex
 10
-96.225819
 20
-57.953985
 30
0.0
  0
VERTEX
  5
10C
330
FF
100
AcDbEntity
  8
1
  6
CONTINUOUS
 62
   252
100
AcDbVertex
100
AcDb2dVertex
 10
-96.919197
 20
-58.927653
 30
0.0
  0
VERTEX
  5
10D
330
FF
100
AcDbEntity
  8
1
  6
CONTINUOUS
 62
   252
100
AcDbVertex
100
AcDb2dVertex
 10
-97.85999
 20
-59.671901
 30
0.0
  0
VERTEX
  5
10E
330
FF
100
AcDbEntity
  8
1
  6
CONTINUOUS
 62
   252
100
AcDbVertex
100
AcDb2dVertex
 10
-98.930244
 20
-60.113165
 30
0.0
  0
VERTEX
  5
10F
330
FF
100
AcDbEntity
  8
1
  6
CONTINUOUS
 62
   252
100
AcDbVertex
100
AcDb2dVertex
 10
-100.0
 20
-60.25
 30
0.0
  0
SEQEND
  5
110
330
FF
100
AcDbEntity
  8
1
  6
CONTINUOUS
 62
   252
  0
POLYLINE
  5
111
330
1F
100
AcDbEntity
  8
1
  6
CONTINUOUS
 62
   252
100
AcDb2dPolyline
 66
     1
 10
0.0
 20
0.0
 30
0.0
  0
VERTEX
  5
112
330
111
100
AcDbEntity
  8
1
  6
CONTINUOUS
 62
   252
100
AcDbVertex
100
AcDb2dVertex
 10
-100.0
 20
-60.25
 30
0.0
  0
VERTEX
  5
113
330
111
100
AcDbEntity
  8
1
  6
CONTINUOUS
 62
   252
100
AcDbVertex
100
AcDb2dVertex
 10
-100.0
 20
-64.45
 30
0.0
  0
VERTEX
  5
114
330
111
100
AcDbEntity
  8
1
  6
CONTINUOUS
 62
   252
100
AcDbVertex
100
AcDb2dVertex
 10
-100.0
 20
-67.75
 30
0.0
  0
SEQEND
  5
115
330
111
100
AcDbEntity
  8
1
  6
CONTINUOUS
 62
   252
  0
POLYLINE
  5
116
330
1F
100
AcDbEntity
  8
1
  6
CONTINUOUS
 62
   252
100
AcDb2dPolyline
 66
     1
 10
0.0
 20
0.0
 30
0.0
  0
VERTEX
  5
117
330
116
100
AcDbEntity
  8
1
  6
CONTINUOUS
 62
   252
100
AcDbVertex
100
AcDb2dVertex
 10
-112.0
 20
-44.5
 30
0.0
  0
VERTEX
  5
118
330
116
100
AcDbEntity
  8
1
  6
CONTINUOUS
 62
   252
100
AcDbVertex
100
AcDb2dVertex
 10
-108.290302
 20
-44.5
 30
0.0
  0
VERTEX
  5
119
330
116
100
AcDbEntity
  8
1
  6
CONTINUOUS
 62
   252
100
AcDbVertex
100
AcDb2dVertex
 10
-106.658035
 20
-44.5
 30
0.0
  0
VERTEX
  5
11A
330
116
100
AcDbEntity
  8
1
  6
CONTINUOUS
 62
   252
100
AcDbVertex
100
AcDb2dVertex
 10
-106.016787
 20
-44.5
 30
0.0
  0
VERTEX
  5
11B
330
116
100
AcDbEntity
  8
1
  6
CONTINUOUS
 62
   252
100
AcDbVertex
100
AcDb2dVertex
 10
-105.372765
 20
-44.508127
 30
0.0
  0
VERTEX
  5
11C
330
116
100
AcDbEntity
  8
1
  6
CONTINUOUS
 62
   252
100
AcDbVertex
100
AcDb2dVertex
 10
-104.944894
 20
-44.66822
 30
0.0
  0
VERTEX
  5
11D
330
116
100
AcDbEntity
  8
1
  6
CONTINUOUS
 62
   252
100
AcDbVertex
100
AcDb2dVertex
 10
-104.622339
 20
-45.020718
 30
0.0
  0
VERTEX
  5
11E
330
116
100
AcDbEntity
  8
1
  6
CONTINUOUS
 62
   252
100
AcDbVertex
100
AcDb2dVertex
 10
-104.501158
 20
-45.451887
 30
0.0
  0
VERTEX
  5
11F
330
116
100
AcDbEntity
  8
1
  6
CONTINUOUS
 62
   252
100
AcDbVertex
100
AcDb2dVertex
 10
-104.5
 20
-45.929221
 30
0.0
  0
VERTEX
  5
120
330
116
100
AcDbEntity
  8
1
  6
CONTINUOUS
 62
   252
100
AcDbVertex
100
AcDb2dVertex
 10
-104.5
 20
-47.869481
 30
0.0
  0
VERTEX
  5
121
330
116
100
AcDbEntity
  8
1
  6
CONTINUOUS
 62
   252
100
AcDbVertex
100
AcDb2dVertex
 10
-104.5
 20
-51.75
 30
0.0
  0
SEQEND
  5
122
330
116
100
AcDbEntity
  8
1
  6
CONTINUOUS
 62
   252
  0
POLYLINE
  5
123
330
1F
100
AcDbEntity
  8
1
  6
CONTINUOUS
 62
   252
100
AcDb2dPolyline
 66
     1
 10
0.0
 20
0.0
 30
0.0
  0
VERTEX
  5
124
330
123
100
AcDbEntity
  8
1
  6
CONTINUOUS
 62
   252
100
AcDbVertex
100
AcDb2dVertex
 10
-112.0
 20
127.0
 30
0.0
  0
VERTEX
  5
125
330
123
100
AcDbEntity
  8
1
  6
CONTINUOUS
 62
   252
100
AcDbVertex
100
AcDb2dVertex
 10
-112.0
 20
102.64
 30
0.0
  0
VERTEX
  5
126
330
123
100
AcDbEntity
  8
1
  6
CONTINUOUS
 62
   252
100
AcDbVertex
100
AcDb2dVertex
 10
-112.0
 20
83.5
 30
0.0
  0
SEQEND
  5
127
330
123
100
AcDbEntity
  8
1
  6
CONTINUOUS
 62
   252
  0
POLYLINE
  5
128
330
1F
100
AcDbEntity
  8
1
  6
CONTINUOUS
 62
   252
100
AcDb2dPolyline
 66
     1
 10
0.0
 20
0.0
 30
0.0
  0
VERTEX
  5
129
330
128
100
AcDbEntity
  8
1
  6
CONTINUOUS
 62
   252
100
AcDbVertex
100
AcDb2dVertex
 10
-112.0
 20
127.0
 30
0.0
  0
VERTEX
  5
12A
330
128
100
AcDbEntity
  8
1
  6
CONTINUOUS
 62
   252
100
AcDbVertex
100
AcDb2dVertex
 10
-112.0
 20
102.64
 30
0.0
  0
VERTEX
  5
12B
330
128
100
AcDbEntity
  8
1
  6
CONTINUOUS
 62
   252
100
AcDbVertex
100
AcDb2dVertex
 10
-112.0
 20
83.5
 30
0.0
  0
SEQEND
  5
12C
330
128
100
AcDbEntity
  8
1
  6
CONTINUOUS
 62
   252
  0
POLYLINE
  5
12D
330
1F
100
AcDbEntity
  8
1
  6
CONTINUOUS
 62
   252
100
AcDb2dPolyline
 66
     1
 10
0.0
 20
0.0
 30
0.0
  0
VERTEX
  5
12E
330
12D
100
AcDbEntity
  8
1
  6
CONTINUOUS
 62
   252
100
AcDbVertex
100
AcDb2dVertex
 10
-112.0
 20
-44.5
 30
0.0
  0
VERTEX
  5
12F
330
12D
100
AcDbEntity
  8
1
  6
CONTINUOUS
 62
   252
100
AcDbVertex
100
AcDb2dVertex
 10
-108.290302
 20
-44.5
 30
0.0
  0
VERTEX
  5
130
330
12D
100
AcDbEntity
  8
1
  6
CONTINUOUS
 62
   252
100
AcDbVertex
100
AcDb2dVertex
 10
-106.658035
 20
-44.5
 30
0.0
  0
VERTEX
  5
131
330
12D
100
AcDbEntity
  8
1
  6
CONTINUOUS
 62
   252
100
AcDbVertex
100
AcDb2dVertex
 10
-106.016787
 20
-44.5
 30
0.0
  0
VERTEX
  5
132
330
12D
100
AcDbEntity
  8
1
  6
CONTINUOUS
 62
   252
100
AcDbVertex
100
AcDb2dVertex
 10
-105.372765
 20
-44.508127
 30
0.0
  0
VERTEX
  5
133
330
12D
100
AcDbEntity
  8
1
  6
CONTINUOUS
 62
   252
100
AcDbVertex
100
AcDb2dVertex
 10
-104.944894
 20
-44.66822
 30
0.0
  0
VERTEX
  5
134
330
12D
100
AcDbEntity
  8
1
  6
CONTINUOUS
 62
   252
100
AcDbVertex
100
AcDb2dVertex
 10
-104.622339
 20
-45.020718
 30
0.0
  0
VERTEX
  5
135
330
12D
100
AcDbEntity
  8
1
  6
CONTINUOUS
 62
   252
100
AcDbVertex
100
AcDb2dVertex
 10
-104.501158
 20
-45.451887
 30
0.0
  0
VERTEX
  5
136
330
12D
100
AcDbEntity
  8
1
  6
CONTINUOUS
 62
   252
100
AcDbVertex
100
AcDb2dVertex
 10
-104.5
 20
-45.929221
 30
0.0
  0
VERTEX
  5
137
330
12D
100
AcDbEntity
  8
1
  6
CONTINUOUS
 62
   252
100
AcDbVertex
100
AcDb2dVertex
 10
-104.5
 20
-47.869481
 30
0.0
  0
VERTEX
  5
138
330
12D
100
AcDbEntity
  8
1
  6
CONTINUOUS
 62
   252
100
AcDbVertex
100
AcDb2dVertex
 10
-104.5
 20
-51.75
 30
0.0
  0
SEQEND
  5
139
330
12D
100
AcDbEntity
  8
1
  6
CONTINUOUS
 62
   252
  0
POLYLINE
  5
13A
330
1F
100
AcDbEntity
  8
1
  6
CONTINUOUS
 62
   252
100
AcDb2dPolyline
 66
     1
 10
0.0
 20
0.0
 30
0.0
  0
VERTEX
  5
13B
330
13A
100
AcDbEntity
  8
1
  6
CONTINUOUS
 62
   252
100
AcDbVertex
100
AcDb2dVertex
 10
-104.5
 20
51.75
 30
0.0
  0
VERTEX
  5
13C
330
13A
100
AcDbEntity
  8
1
  6
CONTINUOUS
 62
   252
100
AcDbVertex
100
AcDb2dVertex
 10
-104.5
 20
48.050553
 30
0.0
  0
VERTEX
  5
13D
330
13A
100
AcDbEntity
  8
1
  6
CONTINUOUS
 62
   252
100
AcDbVertex
100
AcDb2dVertex
 10
-104.5
 20
46.422796
 30
0.0
  0
VERTEX
  5
13E
330
13A
100
AcDbEntity
  8
1
  6
CONTINUOUS
 62
   252
100
AcDbVertex
100
AcDb2dVertex
 10
-104.5
 20
45.996479
 30
0.0
  0
VERTEX
  5
13F
330
13A
100
AcDbEntity
  8
1
  6
CONTINUOUS
 62
   252
100
AcDbVertex
100
AcDb2dVertex
 10
-104.5
 20
45.570162
 30
0.0
  0
VERTEX
  5
140
330
13A
100
AcDbEntity
  8
1
  6
CONTINUOUS
 62
   252
100
AcDbVertex
100
AcDb2dVertex
 10
-104.571292
 20
45.129188
 30
0.0
  0
VERTEX
  5
141
330
13A
100
AcDbEntity
  8
1
  6
CONTINUOUS
 62
   252
100
AcDbVertex
100
AcDb2dVertex
 10
-104.845992
 20
44.743512
 30
0.0
  0
VERTEX
  5
142
330
13A
100
AcDbEntity
  8
1
  6
CONTINUOUS
 62
   252
100
AcDbVertex
100
AcDb2dVertex
 10
-105.259551
 20
44.529338
 30
0.0
  0
VERTEX
  5
143
330
13A
100
AcDbEntity
  8
1
  6
CONTINUOUS
 62
   252
100
AcDbVertex
100
AcDb2dVertex
 10
-105.711581
 20
44.5
 30
0.0
  0
VERTEX
  5
144
330
13A
100
AcDbEntity
  8
1
  6
CONTINUOUS
 62
   252
100
AcDbVertex
100
AcDb2dVertex
 10
-106.195306
 20
44.5
 30
0.0
  0
VERTEX
  5
145
330
13A
100
AcDbEntity
  8
1
  6
CONTINUOUS
 62
   252
100
AcDbVertex
100
AcDb2dVertex
 10
-108.130204
 20
44.5
 30
0.0
  0
VERTEX
  5
146
330
13A
100
AcDbEntity
  8
1
  6
CONTINUOUS
 62
   252
100
AcDbVertex
100
AcDb2dVertex
 10
-112.0
 20
44.5
 30
0.0
  0
SEQEND
  5
147
330
13A
100
AcDbEntity
  8
1
  6
CONTINUOUS
 62
   252
  0
POLYLINE
  5
148
330
1F
100
AcDbEntity
  8
1
  6
CONTINUOUS
 62
   252
100
AcDb2dPolyline
 66
     1
 10
0.0
 20
0.0
 30
0.0
  0
VERTEX
  5
149
330
148
100
AcDbEntity
  8
1
  6
CONTINUOUS
 62
   252
100
AcDbVertex
100
AcDb2dVertex
 10
-104.5
 20
76.25
 30
0.0
  0
VERTEX
  5
14A
330
148
100
AcDbEntity
  8
1
  6
CONTINUOUS
 62
   252
100
AcDbVertex
100
AcDb2dVertex
 10
-103.260939
 20
76.25
 30
0.0
  0
VERTEX
  5
14B
330
148
100
AcDbEntity
  8
1
  6
CONTINUOUS
 62
   252
100
AcDbVertex
100
AcDb2dVertex
 10
-102.021878
 20
76.25
 30
0.0
  0
VERTEX
  5
14C
330
148
100
AcDbEntity
  8
1
  6
CONTINUOUS
 62
   252
100
AcDbVertex
100
AcDb2dVertex
 10
-100.782817
 20
76.25
 30
0.0
  0
VERTEX
  5
14D
330
148
100
AcDbEntity
  8
1
  6
CONTINUOUS
 62
   252
100
AcDbVertex
100
AcDb2dVertex
 10
-99.534783
 20
76.224461
 30
0.0
  0
VERTEX
  5
14E
330
148
100
AcDbEntity
  8
1
  6
CONTINUOUS
 62
   252
100
AcDbVertex
100
AcDb2dVertex
 10
-98.235431
 20
75.866367
 30
0.0
  0
VERTEX
  5
14F
330
148
100
AcDbEntity
  8
1
  6
CONTINUOUS
 62
   252
100
AcDbVertex
100
AcDb2dVertex
 10
-97.232993
 20
75.22586
 30
0.0
  0
VERTEX
  5
150
330
148
100
AcDbEntity
  8
1
  6
CONTINUOUS
 62
   252
100
AcDbVertex
100
AcDb2dVertex
 10
-96.440296
 20
74.321854
 30
0.0
  0
VERTEX
  5
151
330
148
100
AcDbEntity
  8
1
  6
CONTINUOUS
 62
   252
100
AcDbVertex
100
AcDb2dVertex
 10
-95.942598
 20
73.264907
 30
0.0
  0
VERTEX
  5
152
330
148
100
AcDbEntity
  8
1
  6
CONTINUOUS
 62
   252
100
AcDbVertex
100
AcDb2dVertex
 10
-95.754094
 20
72.186489
 30
0.0
  0
VERTEX
  5
153
330
148
100
AcDbEntity
  8
1
  6
CONTINUOUS
 62
   252
100
AcDbVertex
100
AcDb2dVertex
 10
-95.840988
 20
71.125289
 30
0.0
  0
VERTEX
  5
154
330
148
100
AcDbEntity
  8
1
  6
CONTINUOUS
 62
   252
100
AcDbVertex
100
AcDb2dVertex
 10
-96.225819
 20
70.046015
 30
0.0
  0
VERTEX
  5
155
330
148
100
AcDbEntity
  8
1
  6
CONTINUOUS
 62
   252
100
AcDbVertex
100
AcDb2dVertex
 10
-96.919197
 20
69.072347
 30
0.0
  0
VERTEX
  5
156
330
148
100
AcDbEntity
  8
1
  6
CONTINUOUS
 62
   252
100
AcDbVertex
100
AcDb2dVertex
 10
-97.85999
 20
68.328099
 30
0.0
  0
VERTEX
  5
157
330
148
100
AcDbEntity
  8
1
  6
CONTINUOUS
 62
   252
100
AcDbVertex
100
AcDb2dVertex
 10
-98.930244
 20
67.886835
 30
0.0
  0
VERTEX
  5
158
330
148
100
AcDbEntity
  8
1
  6
CONTINUOUS
 62
   252
100
AcDbVertex
100
AcDb2dVertex
 10
-100.0
 20
67.75
 30
0.0
  0
SEQEND
  5
159
330
148
100
AcDbEntity
  8
1
  6
CONTINUOUS
 62
   252
  0
POLYLINE
  5
15A
330
1F
100
AcDbEntity
  8
1
  6
CONTINUOUS
 62
   252
100
AcDb2dPolyline
 66
     1
 10
0.0
 20
0.0
 30
0.0
  0
VERTEX
  5
15B
330
15A
100
AcDbEntity
  8
1
  6
CONTINUOUS
 62
   252
100
AcDbVertex
100
AcDb2dVertex
 10
-100.0
 20
-67.75
 30
0.0
  0
VERTEX
  5
15C
330
15A
100
AcDbEntity
  8
1
  6
CONTINUOUS
 62
   252
100
AcDbVertex
100
AcDb2dVertex
 10
-98.930244
 20
-67.886835
 30
0.0
  0
VERTEX
  5
15D
330
15A
100
AcDbEntity
  8
1
  6
CONTINUOUS
 62
   252
100
AcDbVertex
100
AcDb2dVertex
 10
-97.85999
 20
-68.328099
 30
0.0
  0
VERTEX
  5
15E
330
15A
100
AcDbEntity
  8
1
  6
CONTINUOUS
 62
   252
100
AcDbVertex
100
AcDb2dVertex
 10
-96.919197
 20
-69.072347
 30
0.0
  0
VERTEX
  5
15F
330
15A
100
AcDbEntity
  8
1
  6
CONTINUOUS
 62
   252
100
AcDbVertex
100
AcDb2dVertex
 10
-96.225819
 20
-70.046015
 30
0.0
  0
VERTEX
  5
160
330
15A
100
AcDbEntity
  8
1
  6
CONTINUOUS
 62
   252
100
AcDbVertex
100
AcDb2dVertex
 10
-95.840988
 20
-71.125289
 30
0.0
  0
VERTEX
  5
161
330
15A
100
AcDbEntity
  8
1
  6
CONTINUOUS
 62
   252
100
AcDbVertex
100
AcDb2dVertex
 10
-95.754094
 20
-72.186489
 30
0.0
  0
VERTEX
  5
162
330
15A
100
AcDbEntity
  8
1
  6
CONTINUOUS
 62
   252
100
AcDbVertex
100
AcDb2dVertex
 10
-95.942598
 20
-73.264907
 30
0.0
  0
VERTEX
  5
163
330
15A
100
AcDbEntity
  8
1
  6
CONTINUOUS
 62
   252
100
AcDbVertex
100
AcDb2dVertex
 10
-96.440296
 20
-74.321854
 30
0.0
  0
VERTEX
  5
164
330
15A
100
AcDbEntity
  8
1
  6
CONTINUOUS
 62
   252
100
AcDbVertex
100
AcDb2dVertex
 10
-97.232993
 20
-75.22586
 30
0.0
  0
VERTEX
  5
165
330
15A
100
AcDbEntity
  8
1
  6
CONTINUOUS
 62
   252
100
AcDbVertex
100
AcDb2dVertex
 10
-98.235431
 20
-75.866367
 30
0.0
  0
VERTEX
  5
166
330
15A
100
AcDbEntity
  8
1
  6
CONTINUOUS
 62
   252
100
AcDbVertex
100
AcDb2dVertex
 10
-99.534783
 20
-76.224461
 30
0.0
  0
VERTEX
  5
167
330
15A
100
AcDbEntity
  8
1
  6
CONTINUOUS
 62
   252
100
AcDbVertex
100
AcDb2dVertex
 10
-100.782817
 20
-76.25
 30
0.0
  0
VERTEX
  5
168
330
15A
100
AcDbEntity
  8
1
  6
CONTINUOUS
 62
   252
100
AcDbVertex
100
AcDb2dVertex
 10
-102.021878
 20
-76.25
 30
0.0
  0
VERTEX
  5
169
330
15A
100
AcDbEntity
  8
1
  6
CONTINUOUS
 62
   252
100
AcDbVertex
100
AcDb2dVertex
 10
-103.260939
 20
-76.25
 30
0.0
  0
VERTEX
  5
16A
330
15A
100
AcDbEntity
  8
1
  6
CONTINUOUS
 62
   252
100
AcDbVertex
100
AcDb2dVertex
 10
-104.5
 20
-76.25
 30
0.0
  0
SEQEND
  5
16B
330
15A
100
AcDbEntity
  8
1
  6
CONTINUOUS
 62
   252
  0
POLYLINE
  5
16C
330
1F
100
AcDbEntity
  8
1
  6
CONTINUOUS
 62
   252
100
AcDb2dPolyline
 66
     1
 10
0.0
 20
0.0
 30
0.0
  0
VERTEX
  5
16D
330
16C
100
AcDbEntity
  8
1
  6
CONTINUOUS
 62
   252
100
AcDbVertex
100
AcDb2dVertex
 10
-112.0
 20
83.5
 30
0.0
  0
VERTEX
  5
16E
330
16C
100
AcDbEntity
  8
1
  6
CONTINUOUS
 62
   252
100
AcDbVertex
100
AcDb2dVertex
 10
-108.290302
 20
83.5
 30
0.0
  0
VERTEX
  5
16F
330
16C
100
AcDbEntity
  8
1
  6
CONTINUOUS
 62
   252
100
AcDbVertex
100
AcDb2dVertex
 10
-106.658035
 20
83.5
 30
0.0
  0
VERTEX
  5
170
330
16C
100
AcDbEntity
  8
1
  6
CONTINUOUS
 62
   252
100
AcDbVertex
100
AcDb2dVertex
 10
-106.016787
 20
83.5
 30
0.0
  0
VERTEX
  5
171
330
16C
100
AcDbEntity
  8
1
  6
CONTINUOUS
 62
   252
100
AcDbVertex
100
AcDb2dVertex
 10
-105.372765
 20
83.491873
 30
0.0
  0
VERTEX
  5
172
330
16C
100
AcDbEntity
  8
1
  6
CONTINUOUS
 62
   252
100
AcDbVertex
100
AcDb2dVertex
 10
-104.944894
 20
83.33178
 30
0.0
  0
VERTEX
  5
173
330
16C
100
AcDbEntity
  8
1
  6
CONTINUOUS
 62
   252
100
AcDbVertex
100
AcDb2dVertex
 10
-104.622339
 20
82.979282
 30
0.0
  0
VERTEX
  5
174
330
16C
100
AcDbEntity
  8
1
  6
CONTINUOUS
 62
   252
100
AcDbVertex
100
AcDb2dVertex
 10
-104.501158
 20
82.548113
 30
0.0
  0
VERTEX
  5
175
330
16C
100
AcDbEntity
  8
1
  6
CONTINUOUS
 62
   252
100
AcDbVertex
100
AcDb2dVertex
 10
-104.5
 20
82.070779
 30
0.0
  0
VERTEX
  5
176
330
16C
100
AcDbEntity
  8
1
  6
CONTINUOUS
 62
   252
100
AcDbVertex
100
AcDb2dVertex
 10
-104.5
 20
80.130519
 30
0.0
  0
VERTEX
  5
177
330
16C
100
AcDbEntity
  8
1
  6
CONTINUOUS
 62
   252
100
AcDbVertex
100
AcDb2dVertex
 10
-104.5
 20
76.25
 30
0.0
  0
SEQEND
  5
178
330
16C
100
AcDbEntity
  8
1
  6
CONTINUOUS
 62
   252
  0
POLYLINE
  5
179
330
1F
100
AcDbEntity
  8
1
  6
CONTINUOUS
 62
   252
100
AcDb2dPolyline
 66
     1
 10
0.0
 20
0.0
 30
0.0
  0
VERTEX
  5
17A
330
179
100
AcDbEntity
  8
1
  6
CONTINUOUS
 62
   252
100
AcDbVertex
100
AcDb2dVertex
 10
-100.0
 20
60.25
 30
0.0
  0
VERTEX
  5
17B
330
179
100
AcDbEntity
  8
1
  6
CONTINUOUS
 62
   252
100
AcDbVertex
100
AcDb2dVertex
 10
-98.930244
 20
60.113165
 30
0.0
  0
VERTEX
  5
17C
330
179
100
AcDbEntity
  8
1
  6
CONTINUOUS
 62
   252
100
AcDbVertex
100
AcDb2dVertex
 10
-97.85999
 20
59.671901
 30
0.0
  0
VERTEX
  5
17D
330
179
100
AcDbEntity
  8
1
  6
CONTINUOUS
 62
   252
100
AcDbVertex
100
AcDb2dVertex
 10
-96.919197
 20
58.927653
 30
0.0
  0
VERTEX
  5
17E
330
179
100
AcDbEntity
  8
1
  6
CONTINUOUS
 62
   252
100
AcDbVertex
100
AcDb2dVertex
 10
-96.225819
 20
57.953985
 30
0.0
  0
VERTEX
  5
17F
330
179
100
AcDbEntity
  8
1
  6
CONTINUOUS
 62
   252
100
AcDbVertex
100
AcDb2dVertex
 10
-95.840988
 20
56.874711
 30
0.0
  0
VERTEX
  5
180
330
179
100
AcDbEntity
  8
1
  6
CONTINUOUS
 62
   252
100
AcDbVertex
100
AcDb2dVertex
 10
-95.754094
 20
55.813511
 30
0.0
  0
VERTEX
  5
181
330
179
100
AcDbEntity
  8
1
  6
CONTINUOUS
 62
   252
100
AcDbVertex
100
AcDb2dVertex
 10
-95.942598
 20
54.735093
 30
0.0
  0
VERTEX
  5
182
330
179
100
AcDbEntity
  8
1
  6
CONTINUOUS
 62
   252
100
AcDbVertex
100
AcDb2dVertex
 10
-96.440296
 20
53.678146
 30
0.0
  0
VERTEX
  5
183
330
179
100
AcDbEntity
  8
1
  6
CONTINUOUS
 62
   252
100
AcDbVertex
100
AcDb2dVertex
 10
-97.232993
 20
52.77414
 30
0.0
  0
VERTEX
  5
184
330
179
100
AcDbEntity
  8
1
  6
CONTINUOUS
 62
   252
100
AcDbVertex
100
AcDb2dVertex
 10
-98.235431
 20
52.133633
 30
0.0
  0
VERTEX
  5
185
330
179
100
AcDbEntity
  8
1
  6
CONTINUOUS
 62
   252
100
AcDbVertex
100
AcDb2dVertex
 10
-99.534783
 20
51.775539
 30
0.0
  0
VERTEX
  5
186
330
179
100
AcDbEntity
  8
1
  6
CONTINUOUS
 62
   252
100
AcDbVertex
100
AcDb2dVertex
 10
-100.782817
 20
51.75
 30
0.0
  0
VERTEX
  5
187
330
179
100
AcDbEntity
  8
1
  6
CONTINUOUS
 62
   252
100
AcDbVertex
100
AcDb2dVertex
 10
-102.021878
 20
51.75
 30
0.0
  0
VERTEX
  5
188
330
179
100
AcDbEntity
  8
1
  6
CONTINUOUS
 62
   252
100
AcDbVertex
100
AcDb2dVertex
 10
-103.260939
 20
51.75
 30
0.0
  0
VERTEX
  5
189
330
179
100
AcDbEntity
  8
1
  6
CONTINUOUS
 62
   252
100
AcDbVertex
100
AcDb2dVertex
 10
-104.5
 20
51.75
 30
0.0
  0
SEQEND
  5
18A
330
179
100
AcDbEntity
  8
1
  6
CONTINUOUS
 62
   252
  0
POLYLINE
  5
18B
330
1F
100
AcDbEntity
  8
1
  6
CONTINUOUS
 62
   252
100
AcDb2dPolyline
 66
     1
 10
0.0
 20
0.0
 30
0.0
  0
VERTEX
  5
18C
330
18B
100
AcDbEntity
  8
1
  6
CONTINUOUS
 62
   252
100
AcDbVertex
100
AcDb2dVertex
 10
-100.0
 20
-67.75
 30
0.0
  0
VERTEX
  5
18D
330
18B
100
AcDbEntity
  8
1
  6
CONTINUOUS
 62
   252
100
AcDbVertex
100
AcDb2dVertex
 10
-98.930244
 20
-67.886835
 30
0.0
  0
VERTEX
  5
18E
330
18B
100
AcDbEntity
  8
1
  6
CONTINUOUS
 62
   252
100
AcDbVertex
100
AcDb2dVertex
 10
-97.85999
 20
-68.328099
 30
0.0
  0
VERTEX
  5
18F
330
18B
100
AcDbEntity
  8
1
  6
CONTINUOUS
 62
   252
100
AcDbVertex
100
AcDb2dVertex
 10
-96.919197
 20
-69.072347
 30
0.0
  0
VERTEX
  5
190
330
18B
100
AcDbEntity
  8
1
  6
CONTINUOUS
 62
   252
100
AcDbVertex
100
AcDb2dVertex
 10
-96.225819
 20
-70.046015
 30
0.0
  0
VERTEX
  5
191
330
18B
100
AcDbEntity
  8
1
  6
CONTINUOUS
 62
   252
100
AcDbVertex
100
AcDb2dVertex
 10
-95.840988
 20
-71.125289
 30
0.0
  0
VERTEX
  5
192
330
18B
100
AcDbEntity
  8
1
  6
CONTINUOUS
 62
   252
100
AcDbVertex
100
AcDb2dVertex
 10
-95.754094
 20
-72.186489
 30
0.0
  0
VERTEX
  5
193
330
18B
100
AcDbEntity
  8
1
  6
CONTINUOUS
 62
   252
100
AcDbVertex
100
AcDb2dVertex
 10
-95.942598
 20
-73.264907
 30
0.0
  0
VERTEX
  5
194
330
18B
100
AcDbEntity
  8
1
  6
CONTINUOUS
 62
   252
100
AcDbVertex
100
AcDb2dVertex
 10
-96.440296
 20
-74.321854
 30
0.0
  0
VERTEX
  5
195
330
18B
100
AcDbEntity
  8
1
  6
CONTINUOUS
 62
   252
100
AcDbVertex
100
AcDb2dVertex
 10
-97.232993
 20
-75.22586
 30
0.0
  0
VERTEX
  5
196
330
18B
100
AcDbEntity
  8
1
  6
CONTINUOUS
 62
   252
100
AcDbVertex
100
AcDb2dVertex
 10
-98.235431
 20
-75.866367
 30
0.0
  0
VERTEX
  5
197
330
18B
100
AcDbEntity
  8
1
  6
CONTINUOUS
 62
   252
100
AcDbVertex
100
AcDb2dVertex
 10
-99.534783
 20
-76.224461
 30
0.0
  0
VERTEX
  5
198
330
18B
100
AcDbEntity
  8
1
  6
CONTINUOUS
 62
   252
100
AcDbVertex
100
AcDb2dVertex
 10
-100.782817
 20
-76.25
 30
0.0
  0
VERTEX
  5
199
330
18B
100
AcDbEntity
  8
1
  6
CONTINUOUS
 62
   252
100
AcDbVertex
100
AcDb2dVertex
 10
-102.021878
 20
-76.25
 30
0.0
  0
VERTEX
  5
19A
330
18B
100
AcDbEntity
  8
1
  6
CONTINUOUS
 62
   252
100
AcDbVertex
100
AcDb2dVertex
 10
-103.260939
 20
-76.25
 30
0.0
  0
VERTEX
  5
19B
330
18B
100
AcDbEntity
  8
1
  6
CONTINUOUS
 62
   252
100
AcDbVertex
100
AcDb2dVertex
 10
-104.5
 20
-76.25
 30
0.0
  0
SEQEND
  5
19C
330
18B
100
AcDbEntity
  8
1
  6
CONTINUOUS
 62
   252
  0
POLYLINE
  5
19D
330
1F
100
AcDbEntity
  8
1
  6
CONTINUOUS
 62
   252
100
AcDb2dPolyline
 66
     1
 10
0.0
 20
0.0
 30
0.0
  0
VERTEX
  5
19E
330
19D
100
AcDbEntity
  8
1
  6
CONTINUOUS
 62
   252
100
AcDbVertex
100
AcDb2dVertex
 10
-112.0
 20
44.5
 30
0.0
  0
VERTEX
  5
19F
330
19D
100
AcDbEntity
  8
1
  6
CONTINUOUS
 62
   252
100
AcDbVertex
100
AcDb2dVertex
 10
-112.0
 20
-5.34
 30
0.0
  0
VERTEX
  5
1A0
330
19D
100
AcDbEntity
  8
1
  6
CONTINUOUS
 62
   252
100
AcDbVertex
100
AcDb2dVertex
 10
-112.0
 20
-44.5
 30
0.0
  0
SEQEND
  5
1A1
330
19D
100
AcDbEntity
  8
1
  6
CONTINUOUS
 62
   252
  0
POLYLINE
  5
1A2
330
1F
100
AcDbEntity
  8
1
  6
CONTINUOUS
 62
   252
100
AcDb2dPolyline
 66
     1
 10
0.0
 20
0.0
 30
0.0
  0
VERTEX
  5
1A3
330
1A2
100
AcDbEntity
  8
1
  6
CONTINUOUS
 62
   252
100
AcDbVertex
100
AcDb2dVertex
 10
-112.0
 20
-83.5
 30
0.0
  0
VERTEX
  5
1A4
330
1A2
100
AcDbEntity
  8
1
  6
CONTINUOUS
 62
   252
100
AcDbVertex
100
AcDb2dVertex
 10
-112.0
 20
-107.86
 30
0.0
  0
VERTEX
  5
1A5
330
1A2
100
AcDbEntity
  8
1
  6
CONTINUOUS
 62
   252
100
AcDbVertex
100
AcDb2dVertex
 10
-112.0
 20
-127.0
 30
0.0
  0
SEQEND
  5
1A6
330
1A2
100
AcDbEntity
  8
1
  6
CONTINUOUS
 62
   252
  0
POLYLINE
  5
1A7
330
1F
100
AcDbEntity
  8
1
  6
CONTINUOUS
 62
   252
100
AcDb2dPolyline
 66
     1
 10
0.0
 20
0.0
 30
0.0
  0
VERTEX
  5
1A8
330
1A7
100
AcDbEntity
  8
1
  6
CONTINUOUS
 62
   252
100
AcDbVertex
100
AcDb2dVertex
 10
-100.0
 20
67.75
 30
0.0
  0
VERTEX
  5
1A9
330
1A7
100
AcDbEntity
  8
1
  6
CONTINUOUS
 62
   252
100
AcDbVertex
100
AcDb2dVertex
 10
-100.0
 20
63.55
 30
0.0
  0
VERTEX
  5
1AA
330
1A7
100
AcDbEntity
  8
1
  6
CONTINUOUS
 62
   252
100
AcDbVertex
100
AcDb2dVertex
 10
-100.0
 20
60.25
 30
0.0
  0
SEQEND
  5
1AB
330
1A7
100
AcDbEntity
  8
1
  6
CONTINUOUS
 62
   252
  0
POLYLINE
  5
1AC
330
1F
100
AcDbEntity
  8
1
  6
CONTINUOUS
 62
   252
100
AcDb2dPolyline
 66
     1
 10
0.0
 20
0.0
 30
0.0
  0
VERTEX
  5
1AD
330
1AC
100
AcDbEntity
  8
1
  6
CONTINUOUS
 62
   252
100
AcDbVertex
100
AcDb2dVertex
 10
-104.5
 20
-76.25
 30
0.0
  0
VERTEX
  5
1AE
330
1AC
100
AcDbEntity
  8
1
  6
CONTINUOUS
 62
   252
100
AcDbVertex
100
AcDb2dVertex
 10
-104.5
 20
-79.949447
 30
0.0
  0
VERTEX
  5
1AF
330
1AC
100
AcDbEntity
  8
1
  6
CONTINUOUS
 62
   252
100
AcDbVertex
100
AcDb2dVertex
 10
-104.5
 20
-81.577204
 30
0.0
  0
VERTEX
  5
1B0
330
1AC
100
AcDbEntity
  8
1
  6
CONTINUOUS
 62
   252
100
AcDbVertex
100
AcDb2dVertex
 10
-104.5
 20
-82.003521
 30
0.0
  0
VERTEX
  5
1B1
330
1AC
100
AcDbEntity
  8
1
  6
CONTINUOUS
 62
   252
100
AcDbVertex
100
AcDb2dVertex
 10
-104.5
 20
-82.429838
 30
0.0
  0
VERTEX
  5
1B2
330
1AC
100
AcDbEntity
  8
1
  6
CONTINUOUS
 62
   252
100
AcDbVertex
100
AcDb2dVertex
 10
-104.571292
 20
-82.870812
 30
0.0
  0
VERTEX
  5
1B3
330
1AC
100
AcDbEntity
  8
1
  6
CONTINUOUS
 62
   252
100
AcDbVertex
100
AcDb2dVertex
 10
-104.845992
 20
-83.256488
 30
0.0
  0
VERTEX
  5
1B4
330
1AC
100
AcDbEntity
  8
1
  6
CONTINUOUS
 62
   252
100
AcDbVertex
100
AcDb2dVertex
 10
-105.259551
 20
-83.470662
 30
0.0
  0
VERTEX
  5
1B5
330
1AC
100
AcDbEntity
  8
1
  6
CONTINUOUS
 62
   252
100
AcDbVertex
100
AcDb2dVertex
 10
-105.711581
 20
-83.5
 30
0.0
  0
VERTEX
  5
1B6
330
1AC
100
AcDbEntity
  8
1
  6
CONTINUOUS
 62
   252
100
AcDbVertex
100
AcDb2dVertex
 10
-106.195306
 20
-83.5
 30
0.0
  0
VERTEX
  5
1B7
330
1AC
100
AcDbEntity
  8
1
  6
CONTINUOUS
 62
   252
100
AcDbVertex
100
AcDb2dVertex
 10
-108.130204
 20
-83.5
 30
0.0
  0
VERTEX
  5
1B8
330
1AC
100
AcDbEntity
  8
1
  6
CONTINUOUS
 62
   252
100
AcDbVertex
100
AcDb2dVertex
 10
-112.0
 20
-83.5
 30
0.0
  0
SEQEND
  5
1B9
330
1AC
100
AcDbEntity
  8
1
  6
CONTINUOUS
 62
   252
  0
POLYLINE
  5
1BA
330
1F
100
AcDbEntity
  8
1
  6
CONTINUOUS
 62
     7
100
AcDb2dPolyline
 66
     1
 10
0.0
 20
0.0
 30
0.0
 70
     1
  0
VERTEX
  5
1BB
330
1BA
100
AcDbEntity
  8
1
  6
CONTINUOUS
 62
     7
100
AcDbVertex
100
AcDb2dVertex
 10
-112.0
 20
83.5
 30
0.0
  0
VERTEX
  5
1BC
330
1BA
100
AcDbEntity
  8
1
  6
CONTINUOUS
 62
     7
100
AcDbVertex
100
AcDb2dVertex
 10
-106.490628
 20
83.5
 30
0.0
  0
VERTEX
  5
1BD
330
1BA
100
AcDbEntity
  8
1
  6
CONTINUOUS
 62
     7
100
AcDbVertex
100
AcDb2dVertex
 10
-106.031514
 20
83.5
 30
0.0
  0
VERTEX
  5
1BE
330
1BA
100
AcDbEntity
  8
1
  6
CONTINUOUS
 62
     7
100
AcDbVertex
100
AcDb2dVertex
 10
-105.572399
 20
83.5
 30
0.0
  0
VERTEX
  5
1BF
330
1BA
100
AcDbEntity
  8
1
  6
CONTINUOUS
 62
     7
100
AcDbVertex
100
AcDb2dVertex
 10
-105.097403
 20
83.415377
 30
0.0
  0
VERTEX
  5
1C0
330
1BA
100
AcDbEntity
  8
1
  6
CONTINUOUS
 62
     7
100
AcDbVertex
100
AcDb2dVertex
 10
-104.688003
 20
83.083662
 30
0.0
  0
VERTEX
  5
1C1
330
1BA
100
AcDbEntity
  8
1
  6
CONTINUOUS
 62
     7
100
AcDbVertex
100
AcDb2dVertex
 10
-104.50623
 20
82.611452
 30
0.0
  0
VERTEX
  5
1C2
330
1BA
100
AcDbEntity
  8
1
  6
CONTINUOUS
 62
     7
100
AcDbVertex
100
AcDb2dVertex
 10
-104.5
 20
82.090132
 30
0.0
  0
VERTEX
  5
1C3
330
1BA
100
AcDbEntity
  8
1
  6
CONTINUOUS
 62
     7
100
AcDbVertex
100
AcDb2dVertex
 10
-104.5
 20
78.862816
 30
0.0
  0
VERTEX
  5
1C4
330
1BA
100
AcDbEntity
  8
1
  6
CONTINUOUS
 62
     7
100
AcDbVertex
100
AcDb2dVertex
 10
-104.5
 20
76.44233
 30
0.0
  0
VERTEX
  5
1C5
330
1BA
100
AcDbEntity
  8
1
  6
CONTINUOUS
 62
     7
100
AcDbVertex
100
AcDb2dVertex
 10
-104.5
 20
76.329374
 30
0.0
  0
VERTEX
  5
1C6
330
1BA
100
AcDbEntity
  8
1
  6
CONTINUOUS
 62
     7
100
AcDbVertex
100
AcDb2dVertex
 10
-104.5
 20
76.279673
 30
0.0
  0
VERTEX
  5
1C7
330
1BA
100
AcDbEntity
  8
1
  6
CONTINUOUS
 62
     7
100
AcDbVertex
100
AcDb2dVertex
 10
-104.5
 20
76.25
 30
0.0
  0
VERTEX
  5
1C8
330
1BA
100
AcDbEntity
  8
1
  6
CONTINUOUS
 62
     7
100
AcDbVertex
100
AcDb2dVertex
 10
-104.490623
 20
76.25
 30
0.0
  0
VERTEX
  5
1C9
330
1BA
100
AcDbEntity
  8
1
  6
CONTINUOUS
 62
     7
100
AcDbVertex
100
AcDb2dVertex
 10
-103.885501
 20
76.25
 30
0.0
  0
VERTEX
  5
1CA
330
1BA
100
AcDbEntity
  8
1
  6
CONTINUOUS
 62
     7
100
AcDbVertex
100
AcDb2dVertex
 10
-102.675258
 20
76.25
 30
0.0
  0
VERTEX
  5
1CB
330
1BA
100
AcDbEntity
  8
1
  6
CONTINUOUS
 62
     7
100
AcDbVertex
100
AcDb2dVertex
 10
-101.465014
 20
76.25
 30
0.0
  0
VERTEX
  5
1CC
330
1BA
100
AcDbEntity
  8
1
  6
CONTINUOUS
 62
     7
100
AcDbVertex
100
AcDb2dVertex
 10
-100.254771
 20
76.25
 30
0.0
  0
VERTEX
  5
1CD
330
1BA
100
AcDbEntity
  8
1
  6
CONTINUOUS
 62
     7
100
AcDbVertex
100
AcDb2dVertex
 10
-99.011606
 20
76.13347
 30
0.0
  0
VERTEX
  5
1CE
330
1BA
100
AcDbEntity
  8
1
  6
CONTINUOUS
 62
     7
100
AcDbVertex
100
AcDb2dVertex
 10
-97.76047
 20
75.612064
 30
0.0
  0
VERTEX
  5
1CF
330
1BA
100
AcDbEntity
  8
1
  6
CONTINUOUS
 62
     7
100
AcDbVertex
100
AcDb2dVertex
 10
-96.704107
 20
74.683206
 30
0.0
  0
VERTEX
  5
1D0
330
1BA
100
AcDbEntity
  8
1
  6
CONTINUOUS
 62
     7
100
AcDbVertex
100
AcDb2dVertex
 10
-96.016899
 20
73.482366
 30
0.0
  0
VERTEX
  5
1D1
330
1BA
100
AcDbEntity
  8
1
  6
CONTINUOUS
 62
     7
100
AcDbVertex
100
AcDb2dVertex
 10
-95.755496
 20
72.216077
 30
0.0
  0
VERTEX
  5
1D2
330
1BA
100
AcDbEntity
  8
1
  6
CONTINUOUS
 62
     7
100
AcDbVertex
100
AcDb2dVertex
 10
-95.877067
 20
70.968535
 30
0.0
  0
VERTEX
  5
1D3
330
1BA
100
AcDbEntity
  8
1
  6
CONTINUOUS
 62
     7
100
AcDbVertex
100
AcDb2dVertex
 10
-96.413035
 20
69.720486
 30
0.0
  0
VERTEX
  5
1D4
330
1BA
100
AcDbEntity
  8
1
  6
CONTINUOUS
 62
     7
100
AcDbVertex
100
AcDb2dVertex
 10
-97.353932
 20
68.674218
 30
0.0
  0
VERTEX
  5
1D5
330
1BA
100
AcDbEntity
  8
1
  6
CONTINUOUS
 62
     7
100
AcDbVertex
100
AcDb2dVertex
 10
-98.560444
 20
68.001228
 30
0.0
  0
VERTEX
  5
1D6
330
1BA
100
AcDbEntity
  8
1
  6
CONTINUOUS
 62
     7
100
AcDbVertex
100
AcDb2dVertex
 10
-98.9249
 20
67.888229
 30
0.0
  0
VERTEX
  5
1D7
330
1BA
100
AcDbEntity
  8
1
  6
CONTINUOUS
 62
     7
100
AcDbVertex
100
AcDb2dVertex
 10
-99.289077
 20
67.809882
 30
0.0
  0
VERTEX
  5
1D8
330
1BA
100
AcDbEntity
  8
1
  6
CONTINUOUS
 62
     7
100
AcDbVertex
100
AcDb2dVertex
 10
-99.648622
 20
67.76455
 30
0.0
  0
VERTEX
  5
1D9
330
1BA
100
AcDbEntity
  8
1
  6
CONTINUOUS
 62
     7
100
AcDbVertex
100
AcDb2dVertex
 10
-99.999738
 20
67.75
 30
0.0
  0
VERTEX
  5
1DA
330
1BA
100
AcDbEntity
  8
1
  6
CONTINUOUS
 62
     7
100
AcDbVertex
100
AcDb2dVertex
 10
-100.0
 20
67.75
 30
0.0
  0
VERTEX
  5
1DB
330
1BA
100
AcDbEntity
  8
1
  6
CONTINUOUS
 62
     7
100
AcDbVertex
100
AcDb2dVertex
 10
-100.0
 20
67.404478
 30
0.0
  0
VERTEX
  5
1DC
330
1BA
100
AcDbEntity
  8
1
  6
CONTINUOUS
 62
     7
100
AcDbVertex
100
AcDb2dVertex
 10
-100.0
 20
67.058694
 30
0.0
  0
VERTEX
  5
1DD
330
1BA
100
AcDbEntity
  8
1
  6
CONTINUOUS
 62
     7
100
AcDbVertex
100
AcDb2dVertex
 10
-100.0
 20
66.71291
 30
0.0
  0
VERTEX
  5
1DE
330
1BA
100
AcDbEntity
  8
1
  6
CONTINUOUS
 62
     7
100
AcDbVertex
100
AcDb2dVertex
 10
-100.0
 20
64.292424
 30
0.0
  0
VERTEX
  5
1DF
330
1BA
100
AcDbEntity
  8
1
  6
CONTINUOUS
 62
     7
100
AcDbVertex
100
AcDb2dVertex
 10
-100.0
 20
61.871937
 30
0.0
  0
VERTEX
  5
1E0
330
1BA
100
AcDbEntity
  8
1
  6
CONTINUOUS
 62
     7
100
AcDbVertex
100
AcDb2dVertex
 10
-100.0
 20
61.468523
 30
0.0
  0
VERTEX
  5
1E1
330
1BA
100
AcDbEntity
  8
1
  6
CONTINUOUS
 62
     7
100
AcDbVertex
100
AcDb2dVertex
 10
-100.0
 20
61.065108
 30
0.0
  0
VERTEX
  5
1E2
330
1BA
100
AcDbEntity
  8
1
  6
CONTINUOUS
 62
     7
100
AcDbVertex
100
AcDb2dVertex
 10
-100.0
 20
60.661694
 30
0.0
  0
VERTEX
  5
1E3
330
1BA
100
AcDbEntity
  8
1
  6
CONTINUOUS
 62
     7
100
AcDbVertex
100
AcDb2dVertex
 10
-100.0
 20
60.25828
 30
0.0
  0
VERTEX
  5
1E4
330
1BA
100
AcDbEntity
  8
1
  6
CONTINUOUS
 62
     7
100
AcDbVertex
100
AcDb2dVertex
 10
-100.0
 20
60.25
 30
0.0
  0
VERTEX
  5
1E5
330
1BA
100
AcDbEntity
  8
1
  6
CONTINUOUS
 62
     7
100
AcDbVertex
100
AcDb2dVertex
 10
-99.59801
 20
60.230946
 30
0.0
  0
VERTEX
  5
1E6
330
1BA
100
AcDbEntity
  8
1
  6
CONTINUOUS
 62
     7
100
AcDbVertex
100
AcDb2dVertex
 10
-99.176982
 20
60.169549
 30
0.0
  0
VERTEX
  5
1E7
330
1BA
100
AcDbEntity
  8
1
  6
CONTINUOUS
 62
     7
100
AcDbVertex
100
AcDb2dVertex
 10
-97.916236
 20
59.70411
 30
0.0
  0
VERTEX
  5
1E8
330
1BA
100
AcDbEntity
  8
1
  6
CONTINUOUS
 62
     7
100
AcDbVertex
100
AcDb2dVertex
 10
-96.823022
 20
58.822997
 30
0.0
  0
VERTEX
  5
1E9
330
1BA
100
AcDbEntity
  8
1
  6
CONTINUOUS
 62
     7
100
AcDbVertex
100
AcDb2dVertex
 10
-96.081793
 20
57.646254
 30
0.0
  0
VERTEX
  5
1EA
330
1BA
100
AcDbEntity
  8
1
  6
CONTINUOUS
 62
     7
100
AcDbVertex
100
AcDb2dVertex
 10
-95.766751
 20
56.376967
 30
0.0
  0
VERTEX
  5
1EB
330
1BA
100
AcDbEntity
  8
1
  6
CONTINUOUS
 62
     7
100
AcDbVertex
100
AcDb2dVertex
 10
-95.812228
 20
55.275383
 30
0.0
  0
VERTEX
  5
1EC
330
1BA
100
AcDbEntity
  8
1
  6
CONTINUOUS
 62
     7
100
AcDbVertex
100
AcDb2dVertex
 10
-96.174925
 20
54.147622
 30
0.0
  0
VERTEX
  5
1ED
330
1BA
100
AcDbEntity
  8
1
  6
CONTINUOUS
 62
     7
100
AcDbVertex
100
AcDb2dVertex
 10
-96.874126
 20
53.120519
 30
0.0
  0
VERTEX
  5
1EE
330
1BA
100
AcDbEntity
  8
1
  6
CONTINUOUS
 62
     7
100
AcDbVertex
100
AcDb2dVertex
 10
-97.846956
 20
52.335726
 30
0.0
  0
VERTEX
  5
1EF
330
1BA
100
AcDbEntity
  8
1
  6
CONTINUOUS
 62
     7
100
AcDbVertex
100
AcDb2dVertex
 10
-98.96204
 20
51.878697
 30
0.0
  0
VERTEX
  5
1F0
330
1BA
100
AcDbEntity
  8
1
  6
CONTINUOUS
 62
     7
100
AcDbVertex
100
AcDb2dVertex
 10
-100.073338
 20
51.75
 30
0.0
  0
VERTEX
  5
1F1
330
1BA
100
AcDbEntity
  8
1
  6
CONTINUOUS
 62
     7
100
AcDbVertex
100
AcDb2dVertex
 10
-102.493825
 20
51.75
 30
0.0
  0
VERTEX
  5
1F2
330
1BA
100
AcDbEntity
  8
1
  6
CONTINUOUS
 62
     7
100
AcDbVertex
100
AcDb2dVertex
 10
-103.849297
 20
51.75
 30
0.0
  0
VERTEX
  5
1F3
330
1BA
100
AcDbEntity
  8
1
  6
CONTINUOUS
 62
     7
100
AcDbVertex
100
AcDb2dVertex
 10
-104.445705
 20
51.75
 30
0.0
  0
VERTEX
  5
1F4
330
1BA
100
AcDbEntity
  8
1
  6
CONTINUOUS
 62
     7
100
AcDbVertex
100
AcDb2dVertex
 10
-104.5
 20
51.75
 30
0.0
  0
VERTEX
  5
1F5
330
1BA
100
AcDbEntity
  8
1
  6
CONTINUOUS
 62
     7
100
AcDbVertex
100
AcDb2dVertex
 10
-104.5
 20
51.730818
 30
0.0
  0
VERTEX
  5
1F6
330
1BA
100
AcDbEntity
  8
1
  6
CONTINUOUS
 62
     7
100
AcDbVertex
100
AcDb2dVertex
 10
-104.5
 20
51.65734
 30
0.0
  0
VERTEX
  5
1F7
330
1BA
100
AcDbEntity
  8
1
  6
CONTINUOUS
 62
     7
100
AcDbVertex
100
AcDb2dVertex
 10
-104.5
 20
51.541876
 30
0.0
  0
VERTEX
  5
1F8
330
1BA
100
AcDbEntity
  8
1
  6
CONTINUOUS
 62
     7
100
AcDbVertex
100
AcDb2dVertex
 10
-104.5
 20
51.335689
 30
0.0
  0
VERTEX
  5
1F9
330
1BA
100
AcDbEntity
  8
1
  6
CONTINUOUS
 62
     7
100
AcDbVertex
100
AcDb2dVertex
 10
-104.5
 20
46.494716
 30
0.0
  0
VERTEX
  5
1FA
330
1BA
100
AcDbEntity
  8
1
  6
CONTINUOUS
 62
     7
100
AcDbVertex
100
AcDb2dVertex
 10
-104.5
 20
45.857102
 30
0.0
  0
VERTEX
  5
1FB
330
1BA
100
AcDbEntity
  8
1
  6
CONTINUOUS
 62
     7
100
AcDbVertex
100
AcDb2dVertex
 10
-104.543385
 20
45.208646
 30
0.0
  0
VERTEX
  5
1FC
330
1BA
100
AcDbEntity
  8
1
  6
CONTINUOUS
 62
     7
100
AcDbVertex
100
AcDb2dVertex
 10
-104.857082
 20
44.734065
 30
0.0
  0
VERTEX
  5
1FD
330
1BA
100
AcDbEntity
  8
1
  6
CONTINUOUS
 62
     7
100
AcDbVertex
100
AcDb2dVertex
 10
-105.365188
 20
44.509129
 30
0.0
  0
VERTEX
  5
1FE
330
1BA
100
AcDbEntity
  8
1
  6
CONTINUOUS
 62
     7
100
AcDbVertex
100
AcDb2dVertex
 10
-105.9326
 20
44.5
 30
0.0
  0
VERTEX
  5
1FF
330
1BA
100
AcDbEntity
  8
1
  6
CONTINUOUS
 62
     7
100
AcDbVertex
100
AcDb2dVertex
 10
-106.519537
 20
44.5
 30
0.0
  0
VERTEX
  5
200
330
1BA
100
AcDbEntity
  8
1
  6
CONTINUOUS
 62
     7
100
AcDbVertex
100
AcDb2dVertex
 10
-107.441868
 20
44.5
 30
0.0
  0
VERTEX
  5
201
330
1BA
100
AcDbEntity
  8
1
  6
CONTINUOUS
 62
     7
100
AcDbVertex
100
AcDb2dVertex
 10
-111.185093
 20
44.5
 30
0.0
  0
VERTEX
  5
202
330
1BA
100
AcDbEntity
  8
1
  6
CONTINUOUS
 62
     7
100
AcDbVertex
100
AcDb2dVertex
 10
-111.653618
 20
44.5
 30
0.0
  0
VERTEX
  5
203
330
1BA
100
AcDbEntity
  8
1
  6
CONTINUOUS
 62
     7
100
AcDbVertex
100
AcDb2dVertex
 10
-111.776328
 20
44.5
 30
0.0
  0
VERTEX
  5
204
330
1BA
100
AcDbEntity
  8
1
  6
CONTINUOUS
 62
     7
100
AcDbVertex
100
AcDb2dVertex
 10
-111.899037
 20
44.5
 30
0.0
  0
VERTEX
  5
205
330
1BA
100
AcDbEntity
  8
1
  6
CONTINUOUS
 62
     7
100
AcDbVertex
100
AcDb2dVertex
 10
-112.0
 20
44.5
 30
0.0
  0
VERTEX
  5
206
330
1BA
100
AcDbEntity
  8
1
  6
CONTINUOUS
 62
     7
100
AcDbVertex
100
AcDb2dVertex
 10
-112.0
 20
44.478254
 30
0.0
  0
VERTEX
  5
207
330
1BA
100
AcDbEntity
  8
1
  6
CONTINUOUS
 62
     7
100
AcDbVertex
100
AcDb2dVertex
 10
-112.0
 20
43.820884
 30
0.0
  0
VERTEX
  5
208
330
1BA
100
AcDbEntity
  8
1
  6
CONTINUOUS
 62
     7
100
AcDbVertex
100
AcDb2dVertex
 10
-112.0
 20
42.647009
 30
0.0
  0
VERTEX
  5
209
330
1BA
100
AcDbEntity
  8
1
  6
CONTINUOUS
 62
     7
100
AcDbVertex
100
AcDb2dVertex
 10
-112.0
 20
40.550803
 30
0.0
  0
VERTEX
  5
20A
330
1BA
100
AcDbEntity
  8
1
  6
CONTINUOUS
 62
     7
100
AcDbVertex
100
AcDb2dVertex
 10
-112.0
 20
36.807578
 30
0.0
  0
VERTEX
  5
20B
330
1BA
100
AcDbEntity
  8
1
  6
CONTINUOUS
 62
     7
100
AcDbVertex
100
AcDb2dVertex
 10
-112.0
 20
19.79292
 30
0.0
  0
VERTEX
  5
20C
330
1BA
100
AcDbEntity
  8
1
  6
CONTINUOUS
 62
     7
100
AcDbVertex
100
AcDb2dVertex
 10
-112.0
 20
-25.579503
 30
0.0
  0
VERTEX
  5
20D
330
1BA
100
AcDbEntity
  8
1
  6
CONTINUOUS
 62
     7
100
AcDbVertex
100
AcDb2dVertex
 10
-112.0
 20
-42.594161
 30
0.0
  0
VERTEX
  5
20E
330
1BA
100
AcDbEntity
  8
1
  6
CONTINUOUS
 62
     7
100
AcDbVertex
100
AcDb2dVertex
 10
-112.0
 20
-44.012049
 30
0.0
  0
VERTEX
  5
20F
330
1BA
100
AcDbEntity
  8
1
  6
CONTINUOUS
 62
     7
100
AcDbVertex
100
AcDb2dVertex
 10
-112.0
 20
-44.385555
 30
0.0
  0
VERTEX
  5
210
330
1BA
100
AcDbEntity
  8
1
  6
CONTINUOUS
 62
     7
100
AcDbVertex
100
AcDb2dVertex
 10
-112.0
 20
-44.477587
 30
0.0
  0
VERTEX
  5
211
330
1BA
100
AcDbEntity
  8
1
  6
CONTINUOUS
 62
     7
100
AcDbVertex
100
AcDb2dVertex
 10
-112.0
 20
-44.490286
 30
0.0
  0
VERTEX
  5
212
330
1BA
100
AcDbEntity
  8
1
  6
CONTINUOUS
 62
     7
100
AcDbVertex
100
AcDb2dVertex
 10
-112.0
 20
-44.495873
 30
0.0
  0
VERTEX
  5
213
330
1BA
100
AcDbEntity
  8
1
  6
CONTINUOUS
 62
     7
100
AcDbVertex
100
AcDb2dVertex
 10
-112.0
 20
-44.5
 30
0.0
  0
VERTEX
  5
214
330
1BA
100
AcDbEntity
  8
1
  6
CONTINUOUS
 62
     7
100
AcDbVertex
100
AcDb2dVertex
 10
-111.999737
 20
-44.5
 30
0.0
  0
VERTEX
  5
215
330
1BA
100
AcDbEntity
  8
1
  6
CONTINUOUS
 62
     7
100
AcDbVertex
100
AcDb2dVertex
 10
-111.981919
 20
-44.5
 30
0.0
  0
VERTEX
  5
216
330
1BA
100
AcDbEntity
  8
1
  6
CONTINUOUS
 62
     7
100
AcDbVertex
100
AcDb2dVertex
 10
-111.950103
 20
-44.5
 30
0.0
  0
VERTEX
  5
217
330
1BA
100
AcDbEntity
  8
1
  6
CONTINUOUS
 62
     7
100
AcDbVertex
100
AcDb2dVertex
 10
-111.820976
 20
-44.5
 30
0.0
  0
VERTEX
  5
218
330
1BA
100
AcDbEntity
  8
1
  6
CONTINUOUS
 62
     7
100
AcDbVertex
100
AcDb2dVertex
 10
-111.296925
 20
-44.5
 30
0.0
  0
VERTEX
  5
219
330
1BA
100
AcDbEntity
  8
1
  6
CONTINUOUS
 62
     7
100
AcDbVertex
100
AcDb2dVertex
 10
-110.361119
 20
-44.5
 30
0.0
  0
VERTEX
  5
21A
330
1BA
100
AcDbEntity
  8
1
  6
CONTINUOUS
 62
     7
100
AcDbVertex
100
AcDb2dVertex
 10
-108.234286
 20
-44.5
 30
0.0
  0
VERTEX
  5
21B
330
1BA
100
AcDbEntity
  8
1
  6
CONTINUOUS
 62
     7
100
AcDbVertex
100
AcDb2dVertex
 10
-107.5537
 20
-44.5
 30
0.0
  0
VERTEX
  5
21C
330
1BA
100
AcDbEntity
  8
1
  6
CONTINUOUS
 62
     7
100
AcDbVertex
100
AcDb2dVertex
 10
-106.873114
 20
-44.5
 30
0.0
  0
VERTEX
  5
21D
330
1BA
100
AcDbEntity
  8
1
  6
CONTINUOUS
 62
     7
100
AcDbVertex
100
AcDb2dVertex
 10
-106.192527
 20
-44.5
 30
0.0
  0
VERTEX
  5
21E
330
1BA
100
AcDbEntity
  8
1
  6
CONTINUOUS
 62
     7
100
AcDbVertex
100
AcDb2dVertex
 10
-105.511941
 20
-44.5
 30
0.0
  0
VERTEX
  5
21F
330
1BA
100
AcDbEntity
  8
1
  6
CONTINUOUS
 62
     7
100
AcDbVertex
100
AcDb2dVertex
 10
-104.825457
 20
-44.761764
 30
0.0
  0
VERTEX
  5
220
330
1BA
100
AcDbEntity
  8
1
  6
CONTINUOUS
 62
     7
100
AcDbVertex
100
AcDb2dVertex
 10
-104.502167
 20
-45.434203
 30
0.0
  0
VERTEX
  5
221
330
1BA
100
AcDbEntity
  8
1
  6
CONTINUOUS
 62
     7
100
AcDbVertex
100
AcDb2dVertex
 10
-104.5
 20
-46.221226
 30
0.0
  0
VERTEX
  5
222
330
1BA
100
AcDbEntity
  8
1
  6
CONTINUOUS
 62
     7
100
AcDbVertex
100
AcDb2dVertex
 10
-104.5
 20
-50.606686
 30
0.0
  0
VERTEX
  5
223
330
1BA
100
AcDbEntity
  8
1
  6
CONTINUOUS
 62
     7
100
AcDbVertex
100
AcDb2dVertex
 10
-104.5
 20
-51.586886
 30
0.0
  0
VERTEX
  5
224
330
1BA
100
AcDbEntity
  8
1
  6
CONTINUOUS
 62
     7
100
AcDbVertex
100
AcDb2dVertex
 10
-104.5
 20
-51.722138
 30
0.0
  0
VERTEX
  5
225
330
1BA
100
AcDbEntity
  8
1
  6
CONTINUOUS
 62
     7
100
AcDbVertex
100
AcDb2dVertex
 10
-104.5
 20
-51.75
 30
0.0
  0
VERTEX
  5
226
330
1BA
100
AcDbEntity
  8
1
  6
CONTINUOUS
 62
     7
100
AcDbVertex
100
AcDb2dVertex
 10
-104.421593
 20
-51.75
 30
0.0
  0
VERTEX
  5
227
330
1BA
100
AcDbEntity
  8
1
  6
CONTINUOUS
 62
     7
100
AcDbVertex
100
AcDb2dVertex
 10
-104.231826
 20
-51.75
 30
0.0
  0
VERTEX
  5
228
330
1BA
100
AcDbEntity
  8
1
  6
CONTINUOUS
 62
     7
100
AcDbVertex
100
AcDb2dVertex
 10
-103.892957
 20
-51.75
 30
0.0
  0
VERTEX
  5
229
330
1BA
100
AcDbEntity
  8
1
  6
CONTINUOUS
 62
     7
100
AcDbVertex
100
AcDb2dVertex
 10
-102.517676
 20
-51.75
 30
0.0
  0
VERTEX
  5
22A
330
1BA
100
AcDbEntity
  8
1
  6
CONTINUOUS
 62
     7
100
AcDbVertex
100
AcDb2dVertex
 10
-100.061818
 20
-51.75
 30
0.0
  0
VERTEX
  5
22B
330
1BA
100
AcDbEntity
  8
1
  6
CONTINUOUS
 62
     7
100
AcDbVertex
100
AcDb2dVertex
 10
-98.928137
 20
-51.887384
 30
0.0
  0
VERTEX
  5
22C
330
1BA
100
AcDbEntity
  8
1
  6
CONTINUOUS
 62
     7
100
AcDbVertex
100
AcDb2dVertex
 10
-97.794747
 20
-52.366908
 30
0.0
  0
VERTEX
  5
22D
330
1BA
100
AcDbEntity
  8
1
  6
CONTINUOUS
 62
     7
100
AcDbVertex
100
AcDb2dVertex
 10
-96.816623
 20
-53.184221
 30
0.0
  0
VERTEX
  5
22E
330
1BA
100
AcDbEntity
  8
1
  6
CONTINUOUS
 62
     7
100
AcDbVertex
100
AcDb2dVertex
 10
-96.12962
 20
-54.244249
 30
0.0
  0
VERTEX
  5
22F
330
1BA
100
AcDbEntity
  8
1
  6
CONTINUOUS
 62
     7
100
AcDbVertex
100
AcDb2dVertex
 10
-95.790315
 20
-55.416005
 30
0.0
  0
VERTEX
  5
230
330
1BA
100
AcDbEntity
  8
1
  6
CONTINUOUS
 62
     7
100
AcDbVertex
100
AcDb2dVertex
 10
-95.786832
 20
-56.558318
 30
0.0
  0
VERTEX
  5
231
330
1BA
100
AcDbEntity
  8
1
  6
CONTINUOUS
 62
     7
100
AcDbVertex
100
AcDb2dVertex
 10
-96.11817
 20
-57.730287
 30
0.0
  0
VERTEX
  5
232
330
1BA
100
AcDbEntity
  8
1
  6
CONTINUOUS
 62
     7
100
AcDbVertex
100
AcDb2dVertex
 10
-96.812981
 20
-58.811656
 30
0.0
  0
VERTEX
  5
233
330
1BA
100
AcDbEntity
  8
1
  6
CONTINUOUS
 62
     7
100
AcDbVertex
100
AcDb2dVertex
 10
-97.809801
 20
-59.642188
 30
0.0
  0
VERTEX
  5
234
330
1BA
100
AcDbEntity
  8
1
  6
CONTINUOUS
 62
     7
100
AcDbVertex
100
AcDb2dVertex
 10
-98.367931
 20
-59.924137
 30
0.0
  0
VERTEX
  5
235
330
1BA
100
AcDbEntity
  8
1
  6
CONTINUOUS
 62
     7
100
AcDbVertex
100
AcDb2dVertex
 10
-98.944221
 20
-60.116774
 30
0.0
  0
VERTEX
  5
236
330
1BA
100
AcDbEntity
  8
1
  6
CONTINUOUS
 62
     7
100
AcDbVertex
100
AcDb2dVertex
 10
-99.519346
 20
-60.222733
 30
0.0
  0
VERTEX
  5
237
330
1BA
100
AcDbEntity
  8
1
  6
CONTINUOUS
 62
     7
100
AcDbVertex
100
AcDb2dVertex
 10
-100.0
 20
-60.25
 30
0.0
  0
VERTEX
  5
238
330
1BA
100
AcDbEntity
  8
1
  6
CONTINUOUS
 62
     7
100
AcDbVertex
100
AcDb2dVertex
 10
-100.0
 20
-60.327053
 30
0.0
  0
VERTEX
  5
239
330
1BA
100
AcDbEntity
  8
1
  6
CONTINUOUS
 62
     7
100
AcDbVertex
100
AcDb2dVertex
 10
-100.0
 20
-60.875235
 30
0.0
  0
VERTEX
  5
23A
330
1BA
100
AcDbEntity
  8
1
  6
CONTINUOUS
 62
     7
100
AcDbVertex
100
AcDb2dVertex
 10
-100.0
 20
-61.423418
 30
0.0
  0
VERTEX
  5
23B
330
1BA
100
AcDbEntity
  8
1
  6
CONTINUOUS
 62
     7
100
AcDbVertex
100
AcDb2dVertex
 10
-100.0
 20
-61.971601
 30
0.0
  0
VERTEX
  5
23C
330
1BA
100
AcDbEntity
  8
1
  6
CONTINUOUS
 62
     7
100
AcDbVertex
100
AcDb2dVertex
 10
-100.0
 20
-62.519783
 30
0.0
  0
VERTEX
  5
23D
330
1BA
100
AcDbEntity
  8
1
  6
CONTINUOUS
 62
     7
100
AcDbVertex
100
AcDb2dVertex
 10
-100.0
 20
-65.645421
 30
0.0
  0
VERTEX
  5
23E
330
1BA
100
AcDbEntity
  8
1
  6
CONTINUOUS
 62
     7
100
AcDbVertex
100
AcDb2dVertex
 10
-100.0
 20
-66.136592
 30
0.0
  0
VERTEX
  5
23F
330
1BA
100
AcDbEntity
  8
1
  6
CONTINUOUS
 62
     7
100
AcDbVertex
100
AcDb2dVertex
 10
-100.0
 20
-66.627764
 30
0.0
  0
VERTEX
  5
240
330
1BA
100
AcDbEntity
  8
1
  6
CONTINUOUS
 62
     7
100
AcDbVertex
100
AcDb2dVertex
 10
-100.0
 20
-67.118935
 30
0.0
  0
VERTEX
  5
241
330
1BA
100
AcDbEntity
  8
1
  6
CONTINUOUS
 62
     7
100
AcDbVertex
100
AcDb2dVertex
 10
-100.0
 20
-67.610107
 30
0.0
  0
VERTEX
  5
242
330
1BA
100
AcDbEntity
  8
1
  6
CONTINUOUS
 62
     7
100
AcDbVertex
100
AcDb2dVertex
 10
-100.0
 20
-67.75
 30
0.0
  0
VERTEX
  5
243
330
1BA
100
AcDbEntity
  8
1
  6
CONTINUOUS
 62
     7
100
AcDbVertex
100
AcDb2dVertex
 10
-99.643234
 20
-67.765001
 30
0.0
  0
VERTEX
  5
244
330
1BA
100
AcDbEntity
  8
1
  6
CONTINUOUS
 62
     7
100
AcDbVertex
100
AcDb2dVertex
 10
-98.493077
 20
-68.026125
 30
0.0
  0
VERTEX
  5
245
330
1BA
100
AcDbEntity
  8
1
  6
CONTINUOUS
 62
     7
100
AcDbVertex
100
AcDb2dVertex
 10
-97.399514
 20
-68.638457
 30
0.0
  0
VERTEX
  5
246
330
1BA
100
AcDbEntity
  8
1
  6
CONTINUOUS
 62
     7
100
AcDbVertex
100
AcDb2dVertex
 10
-96.518322
 20
-69.562702
 30
0.0
  0
VERTEX
  5
247
330
1BA
100
AcDbEntity
  8
1
  6
CONTINUOUS
 62
     7
100
AcDbVertex
100
AcDb2dVertex
 10
-95.961546
 20
-70.675844
 30
0.0
  0
VERTEX
  5
248
330
1BA
100
AcDbEntity
  8
1
  6
CONTINUOUS
 62
     7
100
AcDbVertex
100
AcDb2dVertex
 10
-95.750091
 20
-71.972164
 30
0.0
  0
VERTEX
  5
249
330
1BA
100
AcDbEntity
  8
1
  6
CONTINUOUS
 62
     7
100
AcDbVertex
100
AcDb2dVertex
 10
-95.942803
 20
-73.265563
 30
0.0
  0
VERTEX
  5
24A
330
1BA
100
AcDbEntity
  8
1
  6
CONTINUOUS
 62
     7
100
AcDbVertex
100
AcDb2dVertex
 10
-96.582147
 20
-74.526021
 30
0.0
  0
VERTEX
  5
24B
330
1BA
100
AcDbEntity
  8
1
  6
CONTINUOUS
 62
     7
100
AcDbVertex
100
AcDb2dVertex
 10
-97.629216
 20
-75.527305
 30
0.0
  0
VERTEX
  5
24C
330
1BA
100
AcDbEntity
  8
1
  6
CONTINUOUS
 62
     7
100
AcDbVertex
100
AcDb2dVertex
 10
-98.906829
 20
-76.107003
 30
0.0
  0
VERTEX
  5
24D
330
1BA
100
AcDbEntity
  8
1
  6
CONTINUOUS
 62
     7
100
AcDbVertex
100
AcDb2dVertex
 10
-100.191141
 20
-76.25
 30
0.0
  0
VERTEX
  5
24E
330
1BA
100
AcDbEntity
  8
1
  6
CONTINUOUS
 62
     7
100
AcDbVertex
100
AcDb2dVertex
 10
-101.437011
 20
-76.25
 30
0.0
  0
VERTEX
  5
24F
330
1BA
100
AcDbEntity
  8
1
  6
CONTINUOUS
 62
     7
100
AcDbVertex
100
AcDb2dVertex
 10
-102.68288
 20
-76.25
 30
0.0
  0
VERTEX
  5
250
330
1BA
100
AcDbEntity
  8
1
  6
CONTINUOUS
 62
     7
100
AcDbVertex
100
AcDb2dVertex
 10
-104.15318
 20
-76.25
 30
0.0
  0
VERTEX
  5
251
330
1BA
100
AcDbEntity
  8
1
  6
CONTINUOUS
 62
     7
100
AcDbVertex
100
AcDb2dVertex
 10
-104.5
 20
-76.25
 30
0.0
  0
VERTEX
  5
252
330
1BA
100
AcDbEntity
  8
1
  6
CONTINUOUS
 62
     7
100
AcDbVertex
100
AcDb2dVertex
 10
-104.5
 20
-76.288258
 30
0.0
  0
VERTEX
  5
253
330
1BA
100
AcDbEntity
  8
1
  6
CONTINUOUS
 62
     7
100
AcDbVertex
100
AcDb2dVertex
 10
-104.5
 20
-76.673337
 30
0.0
  0
VERTEX
  5
254
330
1BA
100
AcDbEntity
  8
1
  6
CONTINUOUS
 62
     7
100
AcDbVertex
100
AcDb2dVertex
 10
-104.5
 20
-77.058415
 30
0.0
  0
VERTEX
  5
255
330
1BA
100
AcDbEntity
  8
1
  6
CONTINUOUS
 62
     7
100
AcDbVertex
100
AcDb2dVertex
 10
-104.5
 20
-79.121336
 30
0.0
  0
VERTEX
  5
256
330
1BA
100
AcDbEntity
  8
1
  6
CONTINUOUS
 62
     7
100
AcDbVertex
100
AcDb2dVertex
 10
-104.5
 20
-81.184257
 30
0.0
  0
VERTEX
  5
257
330
1BA
100
AcDbEntity
  8
1
  6
CONTINUOUS
 62
     7
100
AcDbVertex
100
AcDb2dVertex
 10
-104.5
 20
-81.724546
 30
0.0
  0
VERTEX
  5
258
330
1BA
100
AcDbEntity
  8
1
  6
CONTINUOUS
 62
     7
100
AcDbVertex
100
AcDb2dVertex
 10
-104.5
 20
-82.264834
 30
0.0
  0
VERTEX
  5
259
330
1BA
100
AcDbEntity
  8
1
  6
CONTINUOUS
 62
     7
100
AcDbVertex
100
AcDb2dVertex
 10
-104.551672
 20
-82.817291
 30
0.0
  0
VERTEX
  5
25A
330
1BA
100
AcDbEntity
  8
1
  6
CONTINUOUS
 62
     7
100
AcDbVertex
100
AcDb2dVertex
 10
-104.951682
 20
-83.33627
 30
0.0
  0
VERTEX
  5
25B
330
1BA
100
AcDbEntity
  8
1
  6
CONTINUOUS
 62
     7
100
AcDbVertex
100
AcDb2dVertex
 10
-105.554062
 20
-83.5
 30
0.0
  0
VERTEX
  5
25C
330
1BA
100
AcDbEntity
  8
1
  6
CONTINUOUS
 62
     7
100
AcDbVertex
100
AcDb2dVertex
 10
-106.617482
 20
-83.5
 30
0.0
  0
VERTEX
  5
25D
330
1BA
100
AcDbEntity
  8
1
  6
CONTINUOUS
 62
     7
100
AcDbVertex
100
AcDb2dVertex
 10
-108.516445
 20
-83.5
 30
0.0
  0
VERTEX
  5
25E
330
1BA
100
AcDbEntity
  8
1
  6
CONTINUOUS
 62
     7
100
AcDbVertex
100
AcDb2dVertex
 10
-111.90745
 20
-83.5
 30
0.0
  0
VERTEX
  5
25F
330
1BA
100
AcDbEntity
  8
1
  6
CONTINUOUS
 62
     7
100
AcDbVertex
100
AcDb2dVertex
 10
-111.960575
 20
-83.5
 30
0.0
  0
VERTEX
  5
260
330
1BA
100
AcDbEntity
  8
1
  6
CONTINUOUS
 62
     7
100
AcDbVertex
100
AcDb2dVertex
 10
-112.0
 20
-83.5
 30
0.0
  0
VERTEX
  5
261
330
1BA
100
AcDbEntity
  8
1
  6
CONTINUOUS
 62
     7
100
AcDbVertex
100
AcDb2dVertex
 10
-112.0
 20
-83.502317
 30
0.0
  0
VERTEX
  5
262
330
1BA
100
AcDbEntity
  8
1
  6
CONTINUOUS
 62
     7
100
AcDbVertex
100
AcDb2dVertex
 10
-112.0
 20
-83.576855
 30
0.0
  0
VERTEX
  5
263
330
1BA
100
AcDbEntity
  8
1
  6
CONTINUOUS
 62
     7
100
AcDbVertex
100
AcDb2dVertex
 10
-112.0
 20
-83.70996
 30
0.0
  0
VERTEX
  5
264
330
1BA
100
AcDbEntity
  8
1
  6
CONTINUOUS
 62
     7
100
AcDbVertex
100
AcDb2dVertex
 10
-112.0
 20
-83.947646
 30
0.0
  0
VERTEX
  5
265
330
1BA
100
AcDbEntity
  8
1
  6
CONTINUOUS
 62
     7
100
AcDbVertex
100
AcDb2dVertex
 10
-112.0
 20
-84.372085
 30
0.0
  0
VERTEX
  5
266
330
1BA
100
AcDbEntity
  8
1
  6
CONTINUOUS
 62
     7
100
AcDbVertex
100
AcDb2dVertex
 10
-112.0
 20
-85.130013
 30
0.0
  0
VERTEX
  5
267
330
1BA
100
AcDbEntity
  8
1
  6
CONTINUOUS
 62
     7
100
AcDbVertex
100
AcDb2dVertex
 10
-112.0
 20
-86.483456
 30
0.0
  0
VERTEX
  5
268
330
1BA
100
AcDbEntity
  8
1
  6
CONTINUOUS
 62
     7
100
AcDbVertex
100
AcDb2dVertex
 10
-112.0
 20
-88.900318
 30
0.0
  0
VERTEX
  5
269
330
1BA
100
AcDbEntity
  8
1
  6
CONTINUOUS
 62
     7
100
AcDbVertex
100
AcDb2dVertex
 10
-112.0
 20
-93.216143
 30
0.0
  0
VERTEX
  5
26A
330
1BA
100
AcDbEntity
  8
1
  6
CONTINUOUS
 62
     7
100
AcDbVertex
100
AcDb2dVertex
 10
-112.0
 20
-100.922973
 30
0.0
  0
VERTEX
  5
26B
330
1BA
100
AcDbEntity
  8
1
  6
CONTINUOUS
 62
     7
100
AcDbVertex
100
AcDb2dVertex
 10
-112.0
 20
-114.762399
 30
0.0
  0
VERTEX
  5
26C
330
1BA
100
AcDbEntity
  8
1
  6
CONTINUOUS
 62
     7
100
AcDbVertex
100
AcDb2dVertex
 10
-112.0
 20
-121.682112
 30
0.0
  0
VERTEX
  5
26D
330
1BA
100
AcDbEntity
  8
1
  6
CONTINUOUS
 62
     7
100
AcDbVertex
100
AcDb2dVertex
 10
-112.0
 20
-126.871896
 30
0.0
  0
VERTEX
  5
26E
330
1BA
100
AcDbEntity
  8
1
  6
CONTINUOUS
 62
     7
100
AcDbVertex
100
AcDb2dVertex
 10
-112.0
 20
-126.980017
 30
0.0
  0
VERTEX
  5
26F
330
1BA
100
AcDbEntity
  8
1
  6
CONTINUOUS
 62
     7
100
AcDbVertex
100
AcDb2dVertex
 10
-112.0
 20
-127.0
 30
0.0
  0
VERTEX
  5
270
330
1BA
100
AcDbEntity
  8
1
  6
CONTINUOUS
 62
     7
100
AcDbVertex
100
AcDb2dVertex
 10
-111.911863
 20
-127.0
 30
0.0
  0
VERTEX
  5
271
330
1BA
100
AcDbEntity
  8
1
  6
CONTINUOUS
 62
     7
100
AcDbVertex
100
AcDb2dVertex
 10
-111.26314
 20
-127.0
 30
0.0
  0
VERTEX
  5
272
330
1BA
100
AcDbEntity
  8
1
  6
CONTINUOUS
 62
     7
100
AcDbVertex
100
AcDb2dVertex
 10
-110.398176
 20
-127.0
 30
0.0
  0
VERTEX
  5
273
330
1BA
100
AcDbEntity
  8
1
  6
CONTINUOUS
 62
     7
100
AcDbVertex
100
AcDb2dVertex
 10
-27.361622
 20
-127.0
 30
0.0
  0
VERTEX
  5
274
330
1BA
100
AcDbEntity
  8
1
  6
CONTINUOUS
 62
     7
100
AcDbVertex
100
AcDb2dVertex
 10
-11.792268
 20
-127.0
 30
0.0
  0
VERTEX
  5
275
330
1BA
100
AcDbEntity
  8
1
  6
CONTINUOUS
 62
     7
100
AcDbVertex
100
AcDb2dVertex
 10
-4.007591
 20
-127.0
 30
0.0
  0
VERTEX
  5
276
330
1BA
100
AcDbEntity
  8
1
  6
CONTINUOUS
 62
     7
100
AcDbVertex
100
AcDb2dVertex
 10
-0.115252
 20
-127.0
 30
0.0
  0
VERTEX
  5
277
330
1BA
100
AcDbEntity
  8
1
  6
CONTINUOUS
 62
     7
100
AcDbVertex
100
AcDb2dVertex
 10
2.064457
 20
-127.0
 30
0.0
  0
VERTEX
  5
278
330
1BA
100
AcDbEntity
  8
1
  6
CONTINUOUS
 62
     7
100
AcDbVertex
100
AcDb2dVertex
 10
2.601538
 20
-127.0
 30
0.0
  0
VERTEX
  5
279
330
1BA
100
AcDbEntity
  8
1
  6
CONTINUOUS
 62
     7
100
AcDbVertex
100
AcDb2dVertex
 10
2.742202
 20
-127.0
 30
0.0
  0
VERTEX
  5
27A
330
1BA
100
AcDbEntity
  8
1
  6
CONTINUOUS
 62
     7
100
AcDbVertex
100
AcDb2dVertex
 10
2.882866
 20
-127.0
 30
0.0
  0
VERTEX
  5
27B
330
1BA
100
AcDbEntity
  8
1
  6
CONTINUOUS
 62
     7
100
AcDbVertex
100
AcDb2dVertex
 10
3.0
 20
-127.0
 30
0.0
  0
VERTEX
  5
27C
330
1BA
100
AcDbEntity
  8
1
  6
CONTINUOUS
 62
     7
100
AcDbVertex
100
AcDb2dVertex
 10
3.0
 20
-126.976471
 30
0.0
  0
VERTEX
  5
27D
330
1BA
100
AcDbEntity
  8
1
  6
CONTINUOUS
 62
     7
100
AcDbVertex
100
AcDb2dVertex
 10
3.0
 20
-126.222914
 30
0.0
  0
VERTEX
  5
27E
330
1BA
100
AcDbEntity
  8
1
  6
CONTINUOUS
 62
     7
100
AcDbVertex
100
AcDb2dVertex
 10
3.0
 20
-115.843345
 30
0.0
  0
VERTEX
  5
27F
330
1BA
100
AcDbEntity
  8
1
  6
CONTINUOUS
 62
     7
100
AcDbVertex
100
AcDb2dVertex
 10
3.0
 20
8.711487
 30
0.0
  0
VERTEX
  5
280
330
1BA
100
AcDbEntity
  8
1
  6
CONTINUOUS
 62
     7
100
AcDbVertex
100
AcDb2dVertex
 10
3.0
 20
70.988902
 30
0.0
  0
VERTEX
  5
281
330
1BA
100
AcDbEntity
  8
1
  6
CONTINUOUS
 62
     7
100
AcDbVertex
100
AcDb2dVertex
 10
3.0
 20
102.12761
 30
0.0
  0
VERTEX
  5
282
330
1BA
100
AcDbEntity
  8
1
  6
CONTINUOUS
 62
     7
100
AcDbVertex
100
AcDb2dVertex
 10
3.0
 20
125.481641
 30
0.0
  0
VERTEX
  5
283
330
1BA
100
AcDbEntity
  8
1
  6
CONTINUOUS
 62
     7
100
AcDbVertex
100
AcDb2dVertex
 10
3.0
 20
126.571495
 30
0.0
  0
VERTEX
  5
284
330
1BA
100
AcDbEntity
  8
1
  6
CONTINUOUS
 62
     7
100
AcDbVertex
100
AcDb2dVertex
 10
3.0
 20
126.731341
 30
0.0
  0
VERTEX
  5
285
330
1BA
100
AcDbEntity
  8
1
  6
CONTINUOUS
 62
     7
100
AcDbVertex
100
AcDb2dVertex
 10
3.0
 20
126.891186
 30
0.0
  0
VERTEX
  5
286
330
1BA
100
AcDbEntity
  8
1
  6
CONTINUOUS
 62
     7
100
AcDbVertex
100
AcDb2dVertex
 10
3.0
 20
127.0
 30
0.0
  0
VERTEX
  5
287
330
1BA
100
AcDbEntity
  8
1
  6
CONTINUOUS
 62
     7
100
AcDbVertex
100
AcDb2dVertex
 10
2.948968
 20
127.0
 30
0.0
  0
VERTEX
  5
288
330
1BA
100
AcDbEntity
  8
1
  6
CONTINUOUS
 62
     7
100
AcDbVertex
100
AcDb2dVertex
 10
2.57219
 20
127.0
 30
0.0
  0
VERTEX
  5
289
330
1BA
100
AcDbEntity
  8
1
  6
CONTINUOUS
 62
     7
100
AcDbVertex
100
AcDb2dVertex
 10
-3.266318
 20
127.0
 30
0.0
  0
VERTEX
  5
28A
330
1BA
100
AcDbEntity
  8
1
  6
CONTINUOUS
 62
     7
100
AcDbVertex
100
AcDb2dVertex
 10
-44.784595
 20
127.0
 30
0.0
  0
VERTEX
  5
28B
330
1BA
100
AcDbEntity
  8
1
  6
CONTINUOUS
 62
     7
100
AcDbVertex
100
AcDb2dVertex
 10
-100.142297
 20
127.0
 30
0.0
  0
VERTEX
  5
28C
330
1BA
100
AcDbEntity
  8
1
  6
CONTINUOUS
 62
     7
100
AcDbVertex
100
AcDb2dVertex
 10
-110.521867
 20
127.0
 30
0.0
  0
VERTEX
  5
28D
330
1BA
100
AcDbEntity
  8
1
  6
CONTINUOUS
 62
     7
100
AcDbVertex
100
AcDb2dVertex
 10
-111.819313
 20
127.0
 30
0.0
  0
VERTEX
  5
28E
330
1BA
100
AcDbEntity
  8
1
  6
CONTINUOUS
 62
     7
100
AcDbVertex
100
AcDb2dVertex
 10
-111.927433
 20
127.0
 30
0.0
  0
VERTEX
  5
28F
330
1BA
100
AcDbEntity
  8
1
  6
CONTINUOUS
 62
     7
100
AcDbVertex
100
AcDb2dVertex
 10
-112.0
 20
127.0
 30
0.0
  0
VERTEX
  5
290
330
1BA
100
AcDbEntity
  8
1
  6
CONTINUOUS
 62
     7
100
AcDbVertex
100
AcDb2dVertex
 10
-112.0
 20
126.964446
 30
0.0
  0
VERTEX
  5
291
330
1BA
100
AcDbEntity
  8
1
  6
CONTINUOUS
 62
     7
100
AcDbVertex
100
AcDb2dVertex
 10
-112.0
 20
126.748205
 30
0.0
  0
VERTEX
  5
292
330
1BA
100
AcDbEntity
  8
1
  6
CONTINUOUS
 62
     7
100
AcDbVertex
100
AcDb2dVertex
 10
-112.0
 20
125.018277
 30
0.0
  0
VERTEX
  5
293
330
1BA
100
AcDbEntity
  8
1
  6
CONTINUOUS
 62
     7
100
AcDbVertex
100
AcDb2dVertex
 10
-112.0
 20
83.5
 30
0.0
  0
SEQEND
  5
294
330
1BA
100
AcDbEntity
  8
1
  6
CONTINUOUS
 62
     7
  0
POLYLINE
  5
295
330
1F
100
AcDbEntity
  8
1
  6
CONTINUOUS
 62
   252
100
AcDb2dPolyline
 66
     1
 10
0.0
 20
0.0
 30
0.0
  0
VERTEX
  5
296
330
295
100
AcDbEntity
  8
1
  6
CONTINUOUS
 62
   252
100
AcDbVertex
100
AcDb2dVertex
 10
-104.5
 20
76.25
 30
0.0
  0
VERTEX
  5
297
330
295
100
AcDbEntity
  8
1
  6
CONTINUOUS
 62
   252
100
AcDbVertex
100
AcDb2dVertex
 10
-103.260939
 20
76.25
 30
0.0
  0
VERTEX
  5
298
330
295
100
AcDbEntity
  8
1
  6
CONTINUOUS
 62
   252
100
AcDbVertex
100
AcDb2dVertex
 10
-102.021878
 20
76.25
 30
0.0
  0
VERTEX
  5
299
330
295
100
AcDbEntity
  8
1
  6
CONTINUOUS
 62
   252
100
AcDbVertex
100
AcDb2dVertex
 10
-100.782817
 20
76.25
 30
0.0
  0
VERTEX
  5
29A
330
295
100
AcDbEntity
  8
1
  6
CONTINUOUS
 62
   252
100
AcDbVertex
100
AcDb2dVertex
 10
-99.534783
 20
76.224461
 30
0.0
  0
VERTEX
  5
29B
330
295
100
AcDbEntity
  8
1
  6
CONTINUOUS
 62
   252
100
AcDbVertex
100
AcDb2dVertex
 10
-98.235431
 20
75.866367
 30
0.0
  0
VERTEX
  5
29C
330
295
100
AcDbEntity
  8
1
  6
CONTINUOUS
 62
   252
100
AcDbVertex
100
AcDb2dVertex
 10
-97.232993
 20
75.22586
 30
0.0
  0
VERTEX
  5
29D
330
295
100
AcDbEntity
  8
1
  6
CONTINUOUS
 62
   252
100
AcDbVertex
100
AcDb2dVertex
 10
-96.440296
 20
74.321854
 30
0.0
  0
VERTEX
  5
29E
330
295
100
AcDbEntity
  8
1
  6
CONTINUOUS
 62
   252
100
AcDbVertex
100
AcDb2dVertex
 10
-95.942598
 20
73.264907
 30
0.0
  0
VERTEX
  5
29F
330
295
100
AcDbEntity
  8
1
  6
CONTINUOUS
 62
   252
100
AcDbVertex
100
AcDb2dVertex
 10
-95.754094
 20
72.186489
 30
0.0
  0
VERTEX
  5
2A0
330
295
100
AcDbEntity
  8
1
  6
CONTINUOUS
 62
   252
100
AcDbVertex
100
AcDb2dVertex
 10
-95.840988
 20
71.125289
 30
0.0
  0
VERTEX
  5
2A1
330
295
100
AcDbEntity
  8
1
  6
CONTINUOUS
 62
   252
100
AcDbVertex
100
AcDb2dVertex
 10
-96.225819
 20
70.046015
 30
0.0
  0
VERTEX
  5
2A2
330
295
100
AcDbEntity
  8
1
  6
CONTINUOUS
 62
   252
100
AcDbVertex
100
AcDb2dVertex
 10
-96.919197
 20
69.072347
 30
0.0
  0
VERTEX
  5
2A3
330
295
100
AcDbEntity
  8
1
  6
CONTINUOUS
 62
   252
100
AcDbVertex
100
AcDb2dVertex
 10
-97.85999
 20
68.328099
 30
0.0
  0
VERTEX
  5
2A4
330
295
100
AcDbEntity
  8
1
  6
CONTINUOUS
 62
   252
100
AcDbVertex
100
AcDb2dVertex
 10
-98.930244
 20
67.886835
 30
0.0
  0
VERTEX
  5
2A5
330
295
100
AcDbEntity
  8
1
  6
CONTINUOUS
 62
   252
100
AcDbVertex
100
AcDb2dVertex
 10
-100.0
 20
67.75
 30
0.0
  0
SEQEND
  5
2A6
330
295
100
AcDbEntity
  8
1
  6
CONTINUOUS
 62
   252
  0
ENDSEC
  0
SECTION
  2
OBJECTS
  0
DICTIONARY
  5
C
330
0
100
AcDbDictionary
  3
ACAD_GROUP
350
D
  3
ACAD_IMAGE_VARS
350
5E
  3
ACAD_LAYOUT
350
1A
  3
ACAD_MATERIAL
350
43
  3
ACAD_MLEADERSTYLE
350
5B
  3
ACAD_MLINESTYLE
350
17
  3
ACAD_PLOTSETTINGS
350
19
  3
ACAD_SCALELIST
350
47
  3
ACAD_VISUALSTYLE
350
2A
  3
ACDBHEADERROUNDTRIPXREC
350
2BE
  3
ACDBVARIABLEDICTIONARY
350
2DF
  3
DWGPROPS
350
2E6
  0
DICTIONARY
  5
2E7
330
8
100
AcDbDictionary
280
     1
  3
ACAD_XREC_ROUNDTRIP
360
2E8
  0
DICTIONARY
  5
D
102
{ACAD_REACTORS
330
C
102
}
330
C
100
AcDbDictionary
  0
RASTERVARIABLES
  5
5E
102
{ACAD_REACTORS
330
C
102
}
330
C
100
AcDbRasterVariables
 90
        0
 70
     0
 71
     1
 72
     1
  0
DICTIONARY
  5
1A
102
{ACAD_REACTORS
330
C
102
}
330
C
100
AcDbDictionary
  0
DICTIONARY
  5
43
102
{ACAD_REACTORS
330
C
102
}
330
C
100
AcDbDictionary
  3
BYBLOCK
350
45
  3
BYLAYER
350
44
  3
GLOBAL
350
46
  0
DICTIONARY
  5
5B
102
{ACAD_REACTORS
330
C
102
}
330
C
100
AcDbDictionary
  3
STANDARD
350
5C
  0
DICTIONARY
  5
17
102
{ACAD_REACTORS
330
C
102
}
330
C
100
AcDbDictionary
  3
STANDARD
350
18
  0
DICTIONARY
  5
19
102
{ACAD_REACTORS
330
C
102
}
330
C
100
AcDbDictionary
  0
DICTIONARY
  5
47
102
{ACAD_REACTORS
330
C
102
}
330
C
100
AcDbDictionary
  3
A0
350
48
  3
A1
350
49
  3
A2
350
4A
  3
A3
350
4B
  3
A4
350
4C
  3
A5
350
4D
  3
A6
350
4E
  3
A7
350
4F
  3
A8
350
50
  3
A9
350
51
  3
B1
350
52
  3
B2
350
53
  3
B3
350
54
  3
B4
350
55
  3
B5
350
56
  3
B6
350
57
  3
B7
350
58
  0
DICTIONARY
  5
2A
102
{ACAD_REACTORS
330
C
102
}
330
C
100
AcDbDictionary
  3
2DWIREFRAME
350
2F
  3
BASIC
350
32
  3
BRIGHTEN
350
36
  3
COLORCHANGE
350
3A
  3
CONCEPTUAL
350
34
  3
DIM
350
35
  3
EDGECOLOROFF
350
3D
  3
FACEPATTERN
350
39
  3
FLAT
350
2B
  3
FLATWITHEDGES
350
2C
  3
GOURAUD
350
2D
  3
GOURAUDWITHEDGES
350
2E
  3
HIDDEN
350
31
  3
JITTEROFF
350
3B
  3
LINEPATTERN
350
38
  3
OVERHANGOFF
350
3C
  3
REALISTIC
350
33
  3
SHADED
350
42
  3
SHADED_WITH_EDGES
350
41
  3
SHADES_OF_GRAY
350
3E
  3
SKETCHY
350
3F
  3
THICKEN
350
37
  3
WIREFRAME
350
30
  3
X-RAY
350
40
  0
DICTIONARY
  5
2BE
102
{ACAD_REACTORS
330
C
102
}
330
C
100
AcDbDictionary
  3
CEPSNID
350
2C8
  3
CEPSNTYPE
350
2C7
  3
DIMSTYLEDATA
350
2DE
  3
FINGERPRINTGUID
350
2C9
  3
HYPERLINKBASE
350
2C1
  3
INSUNITS
350
2C6
  3
LAYOUTDICT
350
2C3
  3
LWETCUNION
350
2C5
  3
PLOTSETDICT
350
2C4
  3
PSVPSCALE
350
2CB
  3
PUCSBASE
350
2CE
  3
PUCSORGBACK
350
2D4
  3
PUCSORGBOTTOM
350
2D0
  3
PUCSORGFRONT
350
2D3
  3
PUCSORGLEFT
350
2D1
  3
PUCSORGRIGHT
350
2D2
  3
PUCSORGTOP
350
2CF
  3
PUCSORTHOREF
350
2CC
  3
PUCSORTHOVIEW
350
2CD
  3
STYLESHEET
350
2C2
  3
TSTACKALIGN
350
2BF
  3
TSTACKSIZE
350
2C0
  3
UCSBASE
350
2D7
  3
UCSORGBACK
350
2DD
  3
UCSORGBOTTOM
350
2D9
  3
UCSORGFRONT
350
2DC
  3
UCSORGLEFT
350
2DA
  3
UCSORGRIGHT
350
2DB
  3
UCSORGTOP
350
2D8
  3
UCSORTHOREF
350
2D5
  3
UCSORTHOVIEW
350
2D6
  3
VERSIONGUID
350
2CA
  0
DICTIONARY
  5
2DF
102
{ACAD_REACTORS
330
C
102
}
330
C
100
AcDbDictionary
  3
CANNOSCALE
350
2E9
  3
CMLEADERSTYLE
350
2E1
  3
CTABLESTYLE
350
2E0
  3
DIMASSOC
350
2E4
  3
HIDETEXT
350
2E5
  3
MSLTSCALE
350
2EA
  0
XRECORD
  5
2E6
102
{ACAD_REACTORS
330
C
102
}
330
C
100
AcDbXrecord
  1
DWGPROPS COOKIE
  2

  3

  4

  6

  7

  8
lsorp
  9

300
=
301
=
302
=
303
=
304
=
305
=
306
=
307
=
308
=
309
=
 40
0.0
 41
2460605.762888
 42
2460605.762888
  1

 90
        0
  0
XRECORD
  5
2E8
102
{ACAD_REACTORS
330
2E7
102
}
330
2E7
100
AcDbXrecord
102
VTR_0.000_0.000_1.000_1.000_VISUALSTYLE
340
2F
102
VTR_0.000_0.000_1.000_1.000_GRIDDISPLAY
 70
     3
102
VTR_0.000_0.000_1.000_1.000_GRIDMAJOR
 70
     5
102
VTR_0.000_0.000_1.000_1.000_DEFAULTLIGHTING
280
     1
102
VTR_0.000_0.000_1.000_1.000_DEFAULTLIGHTINGTYPE
 70
     1
102
VTR_0.000_0.000_1.000_1.000_BRIGHTNESS
141
0.0
102
VTR_0.000_0.000_1.000_1.000_CONTRAST
142
0.0
102
VTR_0.000_0.000_0.500_1.000_VISUALSTYLE
340
2F
102
VTR_0.000_0.000_0.500_1.000_GRIDDISPLAY
 70
     3
102
VTR_0.000_0.000_0.500_1.000_GRIDMAJOR
 70
     5
102
VTR_0.000_0.000_0.500_1.000_DEFAULTLIGHTING
280
     1
102
VTR_0.000_0.000_0.500_1.000_DEFAULTLIGHTINGTYPE
 70
     1
102
VTR_0.000_0.000_0.500_1.000_BRIGHTNESS
141
0.0
102
VTR_0.000_0.000_0.500_1.000_CONTRAST
142
0.0
102
VTR_0.500_0.000_1.000_1.000_VISUALSTYLE
340
2F
102
VTR_0.500_0.000_1.000_1.000_GRIDDISPLAY
 70
     3
102
VTR_0.500_0.000_1.000_1.000_GRIDMAJOR
 70
     5
102
VTR_0.500_0.000_1.000_1.000_DEFAULTLIGHTING
280
     1
102
VTR_0.500_0.000_1.000_1.000_DEFAULTLIGHTINGTYPE
 70
     1
102
VTR_0.500_0.000_1.000_1.000_BRIGHTNESS
141
0.0
102
VTR_0.500_0.000_1.000_1.000_CONTRAST
142
0.0
102
VTR_0.000_0.500_1.000_1.000_VISUALSTYLE
340
2F
102
VTR_0.000_0.500_1.000_1.000_GRIDDISPLAY
 70
     3
102
VTR_0.000_0.500_1.000_1.000_GRIDMAJOR
 70
     5
102
VTR_0.000_0.500_1.000_1.000_DEFAULTLIGHTING
280
     1
102
VTR_0.000_0.500_1.000_1.000_DEFAULTLIGHTINGTYPE
 70
     1
102
VTR_0.000_0.500_1.000_1.000_BRIGHTNESS
141
0.0
102
VTR_0.000_0.500_1.000_1.000_CONTRAST
142
0.0
102
VTR_0.000_0.000_1.000_0.500_VISUALSTYLE
340
2F
102
VTR_0.000_0.000_1.000_0.500_GRIDDISPLAY
 70
     3
102
VTR_0.000_0.000_1.000_0.500_GRIDMAJOR
 70
     5
102
VTR_0.000_0.000_1.000_0.500_DEFAULTLIGHTING
280
     1
102
VTR_0.000_0.000_1.000_0.500_DEFAULTLIGHTINGTYPE
 70
     1
102
VTR_0.000_0.000_1.000_0.500_BRIGHTNESS
141
0.0
102
VTR_0.000_0.000_1.000_0.500_CONTRAST
142
0.0
102
VTR_0.000_0.500_0.500_1.000_VISUALSTYLE
340
2F
102
VTR_0.000_0.500_0.500_1.000_GRIDDISPLAY
 70
     3
102
VTR_0.000_0.500_0.500_1.000_GRIDMAJOR
 70
     5
102
VTR_0.000_0.500_0.500_1.000_DEFAULTLIGHTING
280
     1
102
VTR_0.000_0.500_0.500_1.000_DEFAULTLIGHTINGTYPE
 70
     1
102
VTR_0.000_0.500_0.500_1.000_BRIGHTNESS
141
0.0
102
VTR_0.000_0.500_0.500_1.000_CONTRAST
142
0.0
102
VTR_0.000_0.000_0.500_0.500_VISUALSTYLE
340
2F
102
VTR_0.000_0.000_0.500_0.500_GRIDDISPLAY
 70
     3
102
VTR_0.000_0.000_0.500_0.500_GRIDMAJOR
 70
     5
102
VTR_0.000_0.000_0.500_0.500_DEFAULTLIGHTING
280
     1
102
VTR_0.000_0.000_0.500_0.500_DEFAULTLIGHTINGTYPE
 70
     1
102
VTR_0.000_0.000_0.500_0.500_BRIGHTNESS
141
0.0
102
VTR_0.000_0.000_0.500_0.500_CONTRAST
142
0.0
102
VTR_0.500_0.000_1.000_0.500_VISUALSTYLE
340
2F
102
VTR_0.500_0.000_1.000_0.500_GRIDDISPLAY
 70
     3
102
VTR_0.500_0.000_1.000_0.500_GRIDMAJOR
 70
     5
102
VTR_0.500_0.000_1.000_0.500_DEFAULTLIGHTING
280
     1
102
VTR_0.500_0.000_1.000_0.500_DEFAULTLIGHTINGTYPE
 70
     1
102
VTR_0.500_0.000_1.000_0.500_BRIGHTNESS
141
0.0
102
VTR_0.500_0.000_1.000_0.500_CONTRAST
142
0.0
102
VTR_0.500_0.500_1.000_1.000_VISUALSTYLE
340
2F
102
VTR_0.500_0.500_1.000_1.000_GRIDDISPLAY
 70
     3
102
VTR_0.500_0.500_1.000_1.000_GRIDMAJOR
 70
     5
102
VTR_0.500_0.500_1.000_1.000_DEFAULTLIGHTING
280
     1
102
VTR_0.500_0.500_1.000_1.000_DEFAULTLIGHTINGTYPE
 70
     1
102
VTR_0.500_0.500_1.000_1.000_BRIGHTNESS
141
0.0
102
VTR_0.500_0.500_1.000_1.000_CONTRAST
142
0.0
102
VTR_0.000_0.500_0.333_1.000_VISUALSTYLE
340
2F
102
VTR_0.000_0.500_0.333_1.000_GRIDDISPLAY
 70
     3
102
VTR_0.000_0.500_0.333_1.000_GRIDMAJOR
 70
     5
102
VTR_0.000_0.500_0.333_1.000_DEFAULTLIGHTING
280
     1
102
VTR_0.000_0.500_0.333_1.000_DEFAULTLIGHTINGTYPE
 70
     1
102
VTR_0.000_0.500_0.333_1.000_BRIGHTNESS
141
0.0
102
VTR_0.000_0.500_0.333_1.000_CONTRAST
142
0.0
102
VTR_0.000_0.000_0.333_0.500_VISUALSTYLE
340
2F
102
VTR_0.000_0.000_0.333_0.500_GRIDDISPLAY
 70
     3
102
VTR_0.000_0.000_0.333_0.500_GRIDMAJOR
 70
     5
102
VTR_0.000_0.000_0.333_0.500_DEFAULTLIGHTING
280
     1
102
VTR_0.000_0.000_0.333_0.500_DEFAULTLIGHTINGTYPE
 70
     1
102
VTR_0.000_0.000_0.333_0.500_BRIGHTNESS
141
0.0
102
VTR_0.000_0.000_0.333_0.500_CONTRAST
142
0.0
102
VTR_0.333_0.500_0.667_1.000_VISUALSTYLE
340
2F
102
VTR_0.333_0.500_0.667_1.000_GRIDDISPLAY
 70
     3
102
VTR_0.333_0.500_0.667_1.000_GRIDMAJOR
 70
     5
102
VTR_0.333_0.500_0.667_1.000_DEFAULTLIGHTING
280
     1
102
VTR_0.333_0.500_0.667_1.000_DEFAULTLIGHTINGTYPE
 70
     1
102
VTR_0.333_0.500_0.667_1.000_BRIGHTNESS
141
0.0
102
VTR_0.333_0.500_0.667_1.000_CONTRAST
142
0.0
102
VTR_0.333_0.000_0.667_0.500_VISUALSTYLE
340
2F
102
VTR_0.333_0.000_0.667_0.500_GRIDDISPLAY
 70
     3
102
VTR_0.333_0.000_0.667_0.500_GRIDMAJOR
 70
     5
102
VTR_0.333_0.000_0.667_0.500_DEFAULTLIGHTING
280
     1
102
VTR_0.333_0.000_0.667_0.500_DEFAULTLIGHTINGTYPE
 70
     1
102
VTR_0.333_0.000_0.667_0.500_BRIGHTNESS
141
0.0
102
VTR_0.333_0.000_0.667_0.500_CONTRAST
142
0.0
102
VTR_0.667_0.500_1.000_1.000_VISUALSTYLE
340
2F
102
VTR_0.667_0.500_1.000_1.000_GRIDDISPLAY
 70
     3
102
VTR_0.667_0.500_1.000_1.000_GRIDMAJOR
 70
     5
102
VTR_0.667_0.500_1.000_1.000_DEFAULTLIGHTING
280
     1
102
VTR_0.667_0.500_1.000_1.000_DEFAULTLIGHTINGTYPE
 70
     1
102
VTR_0.667_0.500_1.000_1.000_BRIGHTNESS
141
0.0
102
VTR_0.667_0.500_1.000_1.000_CONTRAST
142
0.0
102
VTR_0.667_0.000_1.000_0.500_VISUALSTYLE
340
2F
102
VTR_0.667_0.000_1.000_0.500_GRIDDISPLAY
 70
     3
102
VTR_0.667_0.000_1.000_0.500_GRIDMAJOR
 70
     5
102
VTR_0.667_0.000_1.000_0.500_DEFAULTLIGHTING
280
     1
102
VTR_0.667_0.000_1.000_0.500_DEFAULTLIGHTINGTYPE
 70
     1
102
VTR_0.667_0.000_1.000_0.500_BRIGHTNESS
141
0.0
102
VTR_0.667_0.000_1.000_0.500_CONTRAST
142
0.0
  0
MATERIAL
  5
45
102
{ACAD_REACTORS
330
43
102
}
102
{ACAD_XDICTIONARY
360
2ED
102
}
330
43
100
AcDbMaterial
  1
BYBLOCK
  0
MATERIAL
  5
44
102
{ACAD_REACTORS
330
43
102
}
102
{ACAD_XDICTIONARY
360
2EB
102
}
330
43
100
AcDbMaterial
  1
BYLAYER
  0
MATERIAL
  5
46
102
{ACAD_REACTORS
330
43
102
}
102
{ACAD_XDICTIONARY
360
2EF
102
}
330
43
100
AcDbMaterial
  1
GLOBAL
  0
ACAD_PROXY_OBJECT
  5
5C
102
{ACAD_REACTORS
330
5B
102
}
330
5B
100
AcDbProxyObject
 90
      499
 91
      505
 93
      610
310
40901902A4063FBFFFFFE056BD1B81E855B9FC0AD7A3703D0AD73F4214DD185B99185C9900AD7A3703D0AC73F90141901A02B5E8DC0F42B1CFC02B5E8DC0F42B1CFE5764000000000000300FC0
340
14
340
0
340
11
340
0
 94
        0
1001
ACAD_MLEADERVER
1070
     2
  0
MLINESTYLE
  5
18
102
{ACAD_REACTORS
330
17
102
}
330
17
100
AcDbMlineStyle
  2
Standard
 70
     0
  3

 62
   256
 51
90.0
 52
90.0
 71
     2
 49
0.5
 62
   256
  6
BYLAYER
 49
-0.5
 62
   256
  6
BYLAYER
  0
ACAD_PROXY_OBJECT
  5
48
102
{ACAD_REACTORS
330
47
102
}
330
47
100
AcDbProxyObject
 90
      499
 91
      503
 93
       41
310
903313A31580
  0
ACAD_PROXY_OBJECT
  5
49
102
{ACAD_REACTORS
330
47
102
}
330
47
100
AcDbProxyObject
 90
      499
 91
      503
 93
      257
310
90E312F31323822203D2031272D3022000000000000200FC000000000000284000
  0
ACAD_PROXY_OBJECT
  5
4A
102
{ACAD_REACTORS
330
47
102
}
330
47
100
AcDbProxyObject
 90
      499
 91
      503
 93
      249
310
90D312F363422203D2031272D3022000000000000240FC000000000000284000
  0
ACAD_PROXY_OBJECT
  5
4B
102
{ACAD_REACTORS
330
47
102
}
330
47
100
AcDbProxyObject
 90
      499
 91
      503
 93
      249
310
90D312F333222203D2031272D3022000000000000280FC000000000000284000
  0
ACAD_PROXY_OBJECT
  5
4C
102
{ACAD_REACTORS
330
47
102
}
330
47
100
AcDbProxyObject
 90
      499
 91
      503
 93
      249
310
90D312F313622203D2031272D30220000000000002C0FC000000000000284000
  0
ACAD_PROXY_OBJECT
  5
4D
102
{ACAD_REACTORS
330
47
102
}
330
47
100
AcDbProxyObject
 90
      499
 91
      503
 93
      249
310
90D332F333222203D2031272D30220000000000002E0FC000000000000284000
  0
ACAD_PROXY_OBJECT
  5
4E
102
{ACAD_REACTORS
330
47
102
}
330
47
100
AcDbProxyObject
 90
      499
 91
      503
 93
      241
310
90C312F3822203D2031272D3022000000000000300FC000000000000284000
  0
ACAD_PROXY_OBJECT
  5
4F
102
{ACAD_REACTORS
330
47
102
}
330
47
100
AcDbProxyObject
 90
      499
 91
      503
 93
      249
310
90D332F313622203D2031272D3022000000000000320FC000000000000284000
  0
ACAD_PROXY_OBJECT
  5
50
102
{ACAD_REACTORS
330
47
102
}
330
47
100
AcDbProxyObject
 90
      499
 91
      503
 93
      241
310
90C312F3422203D2031272D3022000000000000340FC000000000000284000
  0
ACAD_PROXY_OBJECT
  5
51
102
{ACAD_REACTORS
330
47
102
}
330
47
100
AcDbProxyObject
 90
      499
 91
      503
 93
      241
310
90C332F3822203D2031272D3022000000000000360FC000000000000284000
  0
ACAD_PROXY_OBJECT
  5
52
102
{ACAD_REACTORS
330
47
102
}
330
47
100
AcDbProxyObject
 90
      499
 91
      503
 93
      241
310
90C312F3222203D2031272D3022000000000000380FC000000000000284000
  0
ACAD_PROXY_OBJECT
  5
53
102
{ACAD_REACTORS
330
47
102
}
330
47
100
AcDbProxyObject
 90
      499
 91
      503
 93
      241
310
90C332F3422203D2031272D30220000000000003A0FC000000000000284000
  0
ACAD_PROXY_OBJECT
  5
54
102
{ACAD_REACTORS
330
47
102
}
330
47
100
AcDbProxyObject
 90
      499
 91
      503
 93
      161
310
90A3122203D2031272D30224000000000000284000
  0
ACAD_PROXY_OBJECT
  5
55
102
{ACAD_REACTORS
330
47
102
}
330
47
100
AcDbProxyObject
 90
      499
 91
      503
 93
      257
310
90E312D312F3222203D2031272D30220000000000003E0FC000000000000284000
  0
ACAD_PROXY_OBJECT
  5
56
102
{ACAD_REACTORS
330
47
102
}
330
47
100
AcDbProxyObject
 90
      499
 91
      503
 93
      225
310
90A3322203D2031272D302200000000000002100000000000000284000
  0
ACAD_PROXY_OBJECT
  5
57
102
{ACAD_REACTORS
330
47
102
}
330
47
100
AcDbProxyObject
 90
      499
 91
      503
 93
      225
310
90A3622203D2031272D302200000000000006100000000000000284000
  0
ACAD_PROXY_OBJECT
  5
58
102
{ACAD_REACTORS
330
47
102
}
330
47
100
AcDbProxyObject
 90
      499
 91
      503
 93
      249
310
90D31272D3022203D2031272D30220000000000000A100000000000000284000
  0
ACAD_PROXY_OBJECT
  5
2F
102
{ACAD_REACTORS
330
2A
102
}
330
2A
100
AcDbProxyObject
 90
      499
 91
      501
 93
      436
310
42CC9915DA5C99599C985B595049028333333333333E33F0000000000000F90107901411070040501600405405064090741402480A0340
1001
ACAD
1000
AcDbSavedByObjectVersion
1070
     0
  0
ACAD_PROXY_OBJECT
  5
32
102
{ACAD_REACTORS
330
2A
102
}
330
2A
100
AcDbProxyObject
 90
      499
 91
      501
 93
      388
310
4150985CDA58D07406404333333333333E33F0000000000000F90107A41107004050150841D405064090741402480A0350
1001
ACAD
1000
AcDbSavedByObjectVersion
1070
     0
  0
ACAD_PROXY_OBJECT
  5
36
102
{ACAD_REACTORS
330
2A
102
}
330
2A
100
AcDbProxyObject
 90
      499
 91
      501
 93
      428
310
42109C9A59DA1D195B90C409028333333333333E33F0000000000000F9010790141107004050150841D405064090741402480A029950
1001
ACAD
1000
AcDbSavedByObjectVersion
1070
     0
  0
ACAD_PROXY_OBJECT
  5
3A
102
{ACAD_REACTORS
330
2A
102
}
330
2A
100
AcDbProxyObject
 90
      499
 91
      501
 93
      452
310
42D0DBDB1BDC90DA185B99D95104090240C333333333333E33F0000000000000F90108901411070040501508421405064090741402480A0350
1001
ACAD
1000
AcDbSavedByObjectVersion
1070
     0
  0
ACAD_PROXY_OBJECT
  5
34
102
{ACAD_REACTORS
330
2A
102
}
330
2A
100
AcDbProxyObject
 90
      499
 91
      501
 93
      500
310
4290DBDB98D95C1D1D585B10940D028333333333333E33F0000000000000F90107902409070040501000000000018199010841D405064090740C02480A0340
1001
ACAD
1000
AcDbSavedByObjectVersion
1070
     0
  0
ACAD_PROXY_OBJECT
  5
35
102
{ACAD_REACTORS
330
2A
102
}
330
2A
100
AcDbProxyObject
 90
      499
 91
      501
 93
      412
310
40D11A5B50B409028333333333333E33F0000000000000F9010790141107004050150841D405064090741402480A02677FFFFFD0
1001
ACAD
1000
AcDbSavedByObjectVersion
1070
     0
  0
ACAD_PROXY_OBJECT
  5
3D
102
{ACAD_REACTORS
330
2A
102
}
330
2A
100
AcDbProxyObject
 90
      499
 91
      501
 93
      452
310
43115919D950DBDB1BDC93D999916409028333333333333E33F0000000000000F9010790141107004050150841D405064090741402480A0350
1001
ACAD
1000
AcDbSavedByObjectVersion
1070
     0
  0
ACAD_PROXY_OBJECT
  5
39
102
{ACAD_REACTORS
330
2A
102
}
330
2A
100
AcDbProxyObject
 90
      499
 91
      501
 93
      444
310
42D19858D95C185D1D195C9B90F409028333333333333E33F0000000000000F9010790141107004050150841D405064090741402480A0350
1001
ACAD
1000
AcDbSavedByObjectVersion
1070
     0
  0
ACAD_PROXY_OBJECT
  5
2B
102
{ACAD_REACTORS
330
2A
102
}
330
2A
100
AcDbProxyObject
 90
      499
 91
      501
 93
      380
310
41119B185D240901404333333333333E33F0000000000000F9010740A907004050150841D405064090741402480A1B50
1001
ACAD
1000
AcDbSavedByObjectVersion
1070
     0
  0
ACAD_PROXY_OBJECT
  5
2C
102
{ACAD_REACTORS
330
2A
102
}
330
2A
100
AcDbProxyObject
 90
      499
 91
      501
 93
      468
310
43519B185D15DA5D1A115919D95CD0140901404333333333333E33F0000000000000F90107409019070040501600405405064090741402480A1B50
1001
ACAD
1000
AcDbSavedByObjectVersion
1070
     0
  0
ACAD_PROXY_OBJECT
  5
2D
102
{ACAD_REACTORS
330
2A
102
}
330
2A
100
AcDbProxyObject
 90
      499
 91
      501
 93
      404
310
41D1DBDD5C985D5910240902404333333333333E33F0000000000000F9010740A9070040501641D405064090741402480A1B50
1001
ACAD
1000
AcDbSavedByObjectVersion
1070
     0
  0
ACAD_PROXY_OBJECT
  5
2E
102
{ACAD_REACTORS
330
2A
102
}
330
2A
100
AcDbProxyObject
 90
      499
 91
      501
 93
      492
310
4411DBDD5C985D5915DA5D1A115919D95CD0340902404333333333333E33F0000000000000F90107409019070040501600405405064090741402480A1B50
1001
ACAD
1000
AcDbSavedByObjectVersion
1070
     0
  0
ACAD_PROXY_OBJECT
  5
31
102
{ACAD_REACTORS
330
2A
102
}
330
2A
100
AcDbProxyObject
 90
      499
 91
      501
 93
      476
310
41921A5919195B90640502408333333333333E33F0000000000000F901079024090700405020000000000001110200405405064090740C02480A0340
1001
ACAD
1000
AcDbSavedByObjectVersion
1070
     0
  0
ACAD_PROXY_OBJECT
  5
3B
102
{ACAD_REACTORS
330
2A
102
}
330
2A
100
AcDbProxyObject
 90
      499
 91
      501
 93
      428
310
42529A5D1D195C93D999914409028333333333333E33F0000000000000F9010790141107004050150A41D405064090741402480A0350
1001
ACAD
1000
AcDbSavedByObjectVersion
1070
     0
  0
ACAD_PROXY_OBJECT
  5
38
102
{ACAD_REACTORS
330
2A
102
}
330
2A
100
AcDbProxyObject
 90
      499
 91
      501
 93
      444
310
42D31A5B995C185D1D195C9B90E409028333333333333E33F0000000000000F9010790141107004050750841D405064090741402483A0350
1001
ACAD
1000
AcDbSavedByObjectVersion
1070
     0
  0
ACAD_PROXY_OBJECT
  5
3C
102
{ACAD_REACTORS
330
2A
102
}
330
2A
100
AcDbProxyObject
 90
      499
 91
      501
 93
      444
310
42D3DD995C9A185B99D3D999915409028333333333333E33F0000000000000F9010790141107004050150941D405064090741402480A0350
1001
ACAD
1000
AcDbSavedByObjectVersion
1070
     0
  0
ACAD_PROXY_OBJECT
  5
33
102
{ACAD_REACTORS
330
2A
102
}
330
2A
100
AcDbProxyObject
 90
      499
 91
      501
 93
      428
310
425499585B1A5CDD1A58D08409038333333333333E33F0000000000000F9010740A907004050150800405405064090740C02480A1B40
1001
ACAD
1000
AcDbSavedByObjectVersion
1070
     0
  0
ACAD_PROXY_OBJECT
  5
42
102
{ACAD_REACTORS
330
2A
102
}
330
2A
100
AcDbProxyObject
 90
      499
 91
      501
 93
      420
310
4194DA1859195911B40902404333333333333E33F0000000000000F9010740A41107004050150800405405064090840C02480A0B40
1001
ACAD
1000
AcDbSavedByObjectVersion
1070
     0
  0
ACAD_PROXY_OBJECT
  5
41
102
{ACAD_REACTORS
330
2A
102
}
330
2A
100
AcDbProxyObject
 90
      499
 91
      501
 93
      516
310
4454DA18591959081DDA5D1A08195919D95CD1A40902404333333333333E33F0000000000000F901074090142907004050250800405405064090740C02480A0B40
1001
ACAD
1000
AcDbSavedByObjectVersion
1070
     0
  0
ACAD_PROXY_OBJECT
  5
3E
102
{ACAD_REACTORS
330
2A
102
}
330
2A
100
AcDbProxyObject
 90
      499
 91
      501
 93
      532
310
4394DA1859195CC81BD98811DC985E5174090240C333333333333E33F0000000000000F901079024090741D01000000000000111010841D405064090740C02480A0340
1001
ACAD
1000
AcDbSavedByObjectVersion
1070
     0
  0
ACAD_PROXY_OBJECT
  5
3F
102
{ACAD_REACTORS
330
2A
102
}
330
2A
100
AcDbProxyObject
 90
      499
 91
      501
 93
      476
310
41D4DAD95D18DA1E51840502408333333333333E33F0000000000000F901079024090741D01000000000000111010B41D405064090741802480A0340
1001
ACAD
1000
AcDbSavedByObjectVersion
1070
     0
  0
ACAD_PROXY_OBJECT
  5
37
102
{ACAD_REACTORS
330
2A
102
}
330
2A
100
AcDbProxyObject
 90
      499
 91
      501
 93
      412
310
41D51A1A58DAD95B90D409028333333333333E33F0000000000000F9010790141107004050150C41D405064090741402480A0350
1001
ACAD
1000
AcDbSavedByObjectVersion
1070
     0
  0
ACAD_PROXY_OBJECT
  5
30
102
{ACAD_REACTORS
330
2A
102
}
330
2A
100
AcDbProxyObject
 90
      499
 91
      501
 93
      420
310
4255DA5C99599C985B595059028333333333333E33F0000000000000F90107901411070040501600405405064090740C02480A0340
1001
ACAD
1000
AcDbSavedByObjectVersion
1070
     0
  0
ACAD_PROXY_OBJECT
  5
40
102
{ACAD_REACTORS
330
2A
102
}
330
2A
100
AcDbProxyObject
 90
      499
 91
      501
 93
      404
310
41560B54985E51940902404000000000000E03F0000000000000F9010740501907004050150841D405064090740C02480A1B40
1001
ACAD
1000
AcDbSavedByObjectVersion
1070
     0
  0
XRECORD
  5
2C8
102
{ACAD_REACTORS
330
2BE
102
}
330
2BE
100
AcDbXrecord
340
0
  0
XRECORD
  5
2C7
102
{ACAD_REACTORS
330
2BE
102
}
330
2BE
100
AcDbXrecord
 90
        0
  0
XRECORD
  5
2DE
102
{ACAD_REACTORS
330
2BE
102
}
330
2BE
100
AcDbXrecord
1000
DSTYLE
1002
{
1070
   171
 70
     2
1070
   143
 40
25.4
1070
   274
 70
     2
1070
    41
 40
0.18
1070
   141
 40
0.09
1070
   271
 70
     4
1070
    43
 40
0.38
1070
   278
 70
    46
1070
    44
 40
0.18
1070
    42
 40
0.0625
1070
   147
 40
0.09
1070
    77
 70
     0
1070
   272
 70
     4
1070
    73
 70
     1
1070
   172
 70
     0
1070
    74
 70
     1
1070
   283
 70
     1
1070
   340
340
11
1070
   140
 40
0.18
1070
   284
 70
     0
1070
    78
 70
     0
1002
}
  0
XRECORD
  5
2C9
102
{ACAD_REACTORS
330
2BE
102
}
330
2BE
100
AcDbXrecord
  1
{4986375d-3d5f-4c11-8901-bcb6f366f3c5}
  0
XRECORD
  5
2C1
102
{ACAD_REACTORS
330
2BE
102
}
330
2BE
100
AcDbXrecord
  1

  0
XRECORD
  5
2C6
102
{ACAD_REACTORS
330
2BE
102
}
330
2BE
100
AcDbXrecord
 90
        4
  0
XRECORD
  5
2C3
102
{ACAD_REACTORS
330
2BE
102
}
330
2BE
100
AcDbXrecord
340
1A
  0
XRECORD
  5
2C5
102
{ACAD_REACTORS
330
2BE
102
}
330
2BE
100
AcDbXrecord
 90
    10781
  0
XRECORD
  5
2C4
102
{ACAD_REACTORS
330
2BE
102
}
330
2BE
100
AcDbXrecord
340
19
  0
XRECORD
  5
2CB
102
{ACAD_REACTORS
330
2BE
102
}
330
2BE
100
AcDbXrecord
 40
0.0
  0
XRECORD
  5
2CE
102
{ACAD_REACTORS
330
2BE
102
}
330
2BE
100
AcDbXrecord
340
0
  0
XRECORD
  5
2D4
102
{ACAD_REACTORS
330
2BE
102
}
330
2BE
100
AcDbXrecord
 10
0.0
 20
0.0
 30
0.0
  0
XRECORD
  5
2D0
102
{ACAD_REACTORS
330
2BE
102
}
330
2BE
100
AcDbXrecord
 10
0.0
 20
0.0
 30
0.0
  0
XRECORD
  5
2D3
102
{ACAD_REACTORS
330
2BE
102
}
330
2BE
100
AcDbXrecord
 10
0.0
 20
0.0
 30
0.0
  0
XRECORD
  5
2D1
102
{ACAD_REACTORS
330
2BE
102
}
330
2BE
100
AcDbXrecord
 10
0.0
 20
0.0
 30
0.0
  0
XRECORD
  5
2D2
102
{ACAD_REACTORS
330
2BE
102
}
330
2BE
100
AcDbXrecord
 10
0.0
 20
0.0
 30
0.0
  0
XRECORD
  5
2CF
102
{ACAD_REACTORS
330
2BE
102
}
330
2BE
100
AcDbXrecord
 10
0.0
 20
0.0
 30
0.0
  0
XRECORD
  5
2CC
102
{ACAD_REACTORS
330
2BE
102
}
330
2BE
100
AcDbXrecord
340
0
  0
XRECORD
  5
2CD
102
{ACAD_REACTORS
330
2BE
102
}
330
2BE
100
AcDbXrecord
 70
     0
  0
XRECORD
  5
2C2
102
{ACAD_REACTORS
330
2BE
102
}
330
2BE
100
AcDbXrecord
  1

  0
XRECORD
  5
2BF
102
{ACAD_REACTORS
330
2BE
102
}
330
2BE
100
AcDbXrecord
 90
        1
  0
XRECORD
  5
2C0
102
{ACAD_REACTORS
330
2BE
102
}
330
2BE
100
AcDbXrecord
 90
       70
  0
XRECORD
  5
2D7
102
{ACAD_REACTORS
330
2BE
102
}
330
2BE
100
AcDbXrecord
340
0
  0
XRECORD
  5
2DD
102
{ACAD_REACTORS
330
2BE
102
}
330
2BE
100
AcDbXrecord
 10
0.0
 20
0.0
 30
0.0
  0
XRECORD
  5
2D9
102
{ACAD_REACTORS
330
2BE
102
}
330
2BE
100
AcDbXrecord
 10
0.0
 20
0.0
 30
0.0
  0
XRECORD
  5
2DC
102
{ACAD_REACTORS
330
2BE
102
}
330
2BE
100
AcDbXrecord
 10
0.0
 20
0.0
 30
0.0
  0
XRECORD
  5
2DA
102
{ACAD_REACTORS
330
2BE
102
}
330
2BE
100
AcDbXrecord
 10
0.0
 20
0.0
 30
0.0
  0
XRECORD
  5
2DB
102
{ACAD_REACTORS
330
2BE
102
}
330
2BE
100
AcDbXrecord
 10
0.0
 20
0.0
 30
0.0
  0
XRECORD
  5
2D8
102
{ACAD_REACTORS
330
2BE
102
}
330
2BE
100
AcDbXrecord
 10
0.0
 20
0.0
 30
0.0
  0
XRECORD
  5
2D5
102
{ACAD_REACTORS
330
2BE
102
}
330
2BE
100
AcDbXrecord
340
0
  0
XRECORD
  5
2D6
102
{ACAD_REACTORS
330
2BE
102
}
330
2BE
100
AcDbXrecord
 70
     0
  0
XRECORD
  5
2CA
102
{ACAD_REACTORS
330
2BE
102
}
330
2BE
100
AcDbXrecord
  1
{FAEB1C32-E019-11D5-929B-00C0DF256EC4}
  0
DICTIONARYVAR
  5
2E9
102
{ACAD_REACTORS
330
2DF
102
}
330
2DF
100
DictionaryVariables
280
     0
  1
1:1
  0
DICTIONARYVAR
  5
2E1
102
{ACAD_REACTORS
330
2DF
102
}
330
2DF
100
DictionaryVariables
280
     0
  1
Standard
  0
DICTIONARYVAR
  5
2E0
102
{ACAD_REACTORS
330
2DF
102
}
330
2DF
100
DictionaryVariables
280
     0
  1
Standard
  0
DICTIONARYVAR
  5
2E4
102
{ACAD_REACTORS
330
2DF
102
}
330
2DF
100
DictionaryVariables
280
     0
  1
2
  0
DICTIONARYVAR
  5
2E5
102
{ACAD_REACTORS
330
2DF
102
}
330
2DF
100
DictionaryVariables
280
     0
  1
1
  0
DICTIONARYVAR
  5
2EA
102
{ACAD_REACTORS
330
2DF
102
}
330
2DF
100
DictionaryVariables
280
     0
  1
1
  0
DICTIONARY
  5
2ED
330
45
100
AcDbDictionary
280
     1
  3
ACAD_XREC_ROUNDTRIP
360
2EE
  0
DICTIONARY
  5
2EB
330
44
100
AcDbDictionary
280
     1
  3
ACAD_XREC_ROUNDTRIP
360
2EC
  0
DICTIONARY
  5
2EF
330
46
100
AcDbDictionary
280
     1
  3
ACAD_XREC_ROUNDTRIP
360
2F0
  0
XRECORD
  5
2EE
102
{ACAD_REACTORS
330
2ED
102
}
330
2ED
100
AcDbXrecord
102
MATERIAL
148
0.0
149
0.0
149
0.0
 93
        0
 94
      127
282
     0
 72
     1
 77
     1
171
     1
175
     1
179
     1
273
     0
  0
XRECORD
  5
2EC
102
{ACAD_REACTORS
330
2EB
102
}
330
2EB
100
AcDbXrecord
102
MATERIAL
148
0.0
149
0.0
149
0.0
 93
        0
 94
      127
282
     0
 72
     1
 77
     1
171
     1
175
     1
179
     1
273
     0
  0
XRECORD
  5
2F0
102
{ACAD_REACTORS
330
2EF
102
}
330
2EF
100
AcDbXrecord
102
MATERIAL
148
0.0
149
0.0
149
0.0
 93
        0
 94
      127
282
     0
 72
     1
 77
     1
171
     1
175
     1
179
     1
273
     0
  0
ENDSEC
  0
EOF
